<svg xmlns="http://www.w3.org/2000/svg" width="138.55" height="103.913" viewBox="0 0 138.55 103.913">
  <g id="Group_316" data-name="Group 316" transform="translate(138.826 302.536)">
    <rect id="Rectangle_356" data-name="Rectangle 356" width="34.638" height="34.638" transform="translate(-138.826 -302.536)" fill="#ffdb00"/>
    <rect id="Rectangle_357" data-name="Rectangle 357" width="34.638" height="34.638" transform="translate(-104.188 -302.536)" fill="#e33d2a"/>
    <rect id="Rectangle_358" data-name="Rectangle 358" width="34.638" height="34.638" transform="translate(-138.826 -233.261)" fill="#b7c6dc"/>
    <rect id="Rectangle_359" data-name="Rectangle 359" width="34.638" height="34.638" transform="translate(-69.551 -267.898)" fill="#ffdb00"/>
    <rect id="Rectangle_360" data-name="Rectangle 360" width="5.148" height="34.638" transform="translate(-0.275 -302.536) rotate(90)" fill="#e33d2a"/>
    <rect id="Rectangle_361" data-name="Rectangle 361" width="5.148" height="34.638" transform="translate(-0.275 -287.791) rotate(90)" fill="#e33d2a"/>
    <rect id="Rectangle_362" data-name="Rectangle 362" width="5.148" height="34.638" transform="translate(-0.275 -273.047) rotate(90)" fill="#e33d2a"/>
    <rect id="Rectangle_363" data-name="Rectangle 363" width="5.148" height="34.638" transform="translate(-69.551 -233.261)" fill="#b7c6dc"/>
    <rect id="Rectangle_364" data-name="Rectangle 364" width="5.148" height="34.638" transform="translate(-54.806 -233.261)" fill="#b7c6dc"/>
    <rect id="Rectangle_365" data-name="Rectangle 365" width="5.148" height="34.638" transform="translate(-40.061 -233.261)" fill="#b7c6dc"/>
    <rect id="Rectangle_366" data-name="Rectangle 366" width="5.148" height="34.638" transform="translate(-104.188 -233.261) rotate(-90)" fill="#003265"/>
    <rect id="Rectangle_367" data-name="Rectangle 367" width="5.148" height="34.638" transform="translate(-104.188 -248.005) rotate(-90)" fill="#003265"/>
    <rect id="Rectangle_368" data-name="Rectangle 368" width="5.148" height="34.638" transform="translate(-104.188 -262.75) rotate(-90)" fill="#003265"/>
    <rect id="Rectangle_369" data-name="Rectangle 369" width="5.148" height="34.638" transform="translate(-34.913 -198.623) rotate(-90)" fill="#003265"/>
    <rect id="Rectangle_370" data-name="Rectangle 370" width="5.148" height="34.638" transform="translate(-34.913 -213.368) rotate(-90)" fill="#003265"/>
    <rect id="Rectangle_371" data-name="Rectangle 371" width="5.148" height="34.638" transform="translate(-34.913 -228.112) rotate(-90)" fill="#003265"/>
  </g>
</svg>
