<svg xmlns="http://www.w3.org/2000/svg" width="296.027" height="97.708" viewBox="0 0 296.027 97.708">
  <g id="Group_378" data-name="Group 378" transform="translate(-27.973 -1886.737)">
    <g id="Group_299" data-name="Group 299" transform="translate(124.253 1900.582)">
      <g id="Group_275" data-name="Group 275" transform="translate(0 54.226)">
        <path id="Path_570" data-name="Path 570" d="M69.583,1917.736c.531-.491,1.321-1.319,2.082-2.178a1.769,1.769,0,0,0,.5-.791c0-.106-.04-.163-.272-.212-.084-.01-.163-.027-.163-.1,0-.047.049-.087.153-.087.435,0,.474.02,1.022.02s1.262-.02,1.388-.02c.165,0,.2.02.2.087,0,.049-.047.086-.173.1a3.283,3.283,0,0,0-.346.057,2.584,2.584,0,0,0-1.245.83c-.442.425-1.531,1.553-1.783,1.822a36.868,36.868,0,0,0,2.61,3.191,4.384,4.384,0,0,0,1.015.877,1.426,1.426,0,0,0,.442.126c.136.008.2.027.2.1s-.086.089-.193.089h-.946c-1.272,0-1.714-.126-2.205-.667a32.308,32.308,0,0,1-2.294-2.978v.849c0,.75.01,1.627.047,2.032.02.242.086.484.415.531.136.02.289.03.415.04s.163.047.163.094-.037.1-.183.1c-.635,0-1.667-.03-1.753-.03-.049,0-1.148.03-1.467.03-.123,0-.19-.02-.19-.1s.067-.094.173-.094.193-.01.3-.03c.3-.047.328-.279.356-.558.04-.405.059-1.082.059-2.015v-1.7c0-1.494,0-1.763-.03-2.072-.02-.269-.126-.445-.358-.492a2.95,2.95,0,0,0-.365-.039c-.123,0-.2-.018-.2-.106,0-.057.079-.087.259-.087.417,0,1.4.03,1.467.03.086,0,1.252-.03,1.6-.03.163,0,.2.04.2.087,0,.069-.049.1-.175.106-.086.01-.143.01-.289.03-.336.047-.4.269-.412.578s-.03.5-.03,2Z" transform="translate(-66.96 -1914.21)" fill="#1a1311"/>
        <path id="Path_571" data-name="Path 571" d="M71.534,1917.159c0-1.494,0-1.773-.03-2.082-.017-.269-.126-.444-.336-.481a1.617,1.617,0,0,0-.289-.039c-.119,0-.185-.037-.185-.106s.049-.087.215-.087c.383,0,1.329.03,1.405.03s1.222-.03,1.571-.03c.163,0,.212.04.212.1,0,.079-.086.1-.183.1s-.156.01-.279.03c-.252.047-.348.173-.368.521-.03.306-.03.558-.03,2.052v1.7c0,.761.01,1.657.049,2.062.02.25.079.425.368.491a2.962,2.962,0,0,0,.422.049c.165,0,.2.037.2.094s-.047.1-.2.1c-.654,0-1.687-.03-1.773-.03-.047,0-1.059.03-1.388.03-.156,0-.23-.02-.23-.1s.074-.094.193-.094c.1-.01.19-.019.3-.04.2-.027.269-.242.3-.521.037-.405.057-1.1.057-2.042Z" transform="translate(-61.483 -1914.21)" fill="#1a1311"/>
        <path id="Path_572" data-name="Path 572" d="M73.881,1914.767c.01-.289.047-.461.163-.461.077,0,.126.029.375.229.405.338.906.82,3.114,2.845.983.9,1.647,1.551,1.909,1.78l-.059-3.613c-.02-.541-.069-.79-.454-.857a3.034,3.034,0,0,0-.422-.049c-.126,0-.173-.047-.173-.1,0-.067.084-.1.19-.1.388,0,1.013.03,1.4.03.212,0,.694-.03,1.1-.03.146,0,.212.03.212.087s-.049.106-.163.106a1.094,1.094,0,0,0-.242.03c-.316.037-.415.2-.445.8-.074,1.937-.074,3.865-.114,5.8,0,.494-.067.6-.193.6-.156,0-.454-.232-1.082-.781-.652-.578-1.5-1.338-2.079-1.869-.541-.491-1.5-1.4-2.208-2.082l.1,3.287c.02.694.057.953.328,1.052a2.6,2.6,0,0,0,.511.066c.143.008.193.037.193.094,0,.079-.079.1-.232.1-.336,0-.645-.02-1.245-.03-.22,0-.933.03-1.309.03-.136,0-.212-.02-.212-.1,0-.057.047-.094.183-.094.086-.01.212-.01.319-.03.375-.057.422-.3.452-1.2C73.842,1918.333,73.822,1916.009,73.881,1914.767Z" transform="translate(-58.321 -1914.295)" fill="#1a1311"/>
        <path id="Path_573" data-name="Path 573" d="M85.892,1920.5c.077.627.173.866.491.965a2.837,2.837,0,0,0,.551.086c.123,0,.18.027.18.094s-.077.1-.23.1c-.8,0-1.581,0-2.679-.059-.183-.01-.222-.067-.222-.116s.04-.077.106-.094c.156-.059.165-.119.126-.551l-.348-3.45-1.986,3.719c-.259.492-.316.551-.393.551-.106,0-.165-.1-.435-.521-.338-.541-.926-1.638-1.292-2.255-.163-.279-.588-1.069-.77-1.4l-.279,2.716a7.228,7.228,0,0,0-.039.771c0,.279.1.4.338.445a2.425,2.425,0,0,0,.356.049c.146,0,.173.027.173.084,0,.079-.037.109-.193.109-.422,0-.953-.03-1.242-.03s-.753.03-1.109.03c-.1,0-.212,0-.212-.1,0-.057.057-.094.193-.094.079-.01.183-.01.289-.03.279-.057.375-.279.472-.916l.879-5.927c.037-.289.106-.375.2-.375s.175.1.378.4l2.756,4.615,2.64-4.665c.156-.249.232-.346.328-.346s.153.133.183.375Z" transform="translate(-52.523 -1914.301)" fill="#1a1311"/>
        <path id="Path_574" data-name="Path 574" d="M82.369,1917.192c0-1.571-.007-1.763-.027-2.072-.02-.279-.106-.445-.346-.5a3.065,3.065,0,0,0-.319-.03c-.126-.01-.175-.047-.175-.106s.059-.087.212-.087c.551,0,1.013.03,1.437.03l2.716-.01a3.323,3.323,0,0,0,.521-.039.661.661,0,0,1,.153-.037c.049,0,.059.037.059.086s-.02.146-.049.425c-.027.193-.047.528-.077,1.03,0,.077-.037.136-.1.136s-.086-.05-.1-.136a1.1,1.1,0,0,0-.049-.336c-.047-.222-.17-.348-.635-.388-.319-.027-1.156-.047-1.445-.047-.059,0-.079.03-.079.1v2.122c0,.066.01.113.079.113.269.01,1.05,0,1.4-.01.472-.017.6-.047.7-.219.059-.089.089-.126.136-.126s.057.057.057.116c0,.1-.047.442-.074.82-.01.219-.01.694-.01.8,0,.125-.03.185-.089.185s-.086-.067-.106-.156l-.027-.22c-.039-.281-.175-.445-.647-.474-.269-.017-1.059-.037-1.358-.037-.049,0-.059.047-.059.124v.667c0,.329-.01.9,0,1.262.01.674.146.827,1.215.827a2.718,2.718,0,0,0,.9-.114c.269-.106.385-.319.474-.763.017-.114.057-.173.114-.173.077,0,.086.1.086.212a8.1,8.1,0,0,1-.153,1.292c-.067.252-.136.262-.491.262-1.331,0-2.052-.059-3.065-.059-.454,0-.859.03-1.388.03-.173,0-.232-.03-.232-.1,0-.047.049-.094.193-.094a1.788,1.788,0,0,0,.289-.039c.272-.037.309-.405.328-1.012.02-.385.027-.953.027-1.551Z" transform="translate(-45.59 -1914.244)" fill="#1a1311"/>
        <path id="Path_575" data-name="Path 575" d="M85.418,1914.767c.01-.289.049-.461.163-.461.079,0,.126.029.378.229.4.338.9.82,3.112,2.845.983.9,1.647,1.551,1.909,1.78l-.059-3.613c-.017-.541-.067-.79-.452-.857a3.069,3.069,0,0,0-.425-.049c-.126,0-.173-.047-.173-.1,0-.067.086-.1.193-.1.385,0,1.01.03,1.4.03.212,0,.694-.03,1.1-.03.143,0,.21.03.21.087s-.047.106-.163.106a1.067,1.067,0,0,0-.24.03c-.319.037-.415.2-.445.8-.077,1.937-.077,3.865-.114,5.8,0,.494-.069.6-.2.6-.153,0-.452-.232-1.079-.781-.654-.578-1.5-1.338-2.082-1.869-.538-.491-1.5-1.4-2.205-2.082l.094,3.287c.02.694.059.953.328,1.052a2.629,2.629,0,0,0,.511.066c.146.008.193.037.193.094,0,.079-.077.1-.23.1-.338,0-.647-.02-1.245-.03-.222,0-.936.03-1.311.03-.136,0-.21-.02-.21-.1,0-.057.047-.094.183-.094.086-.01.21-.01.319-.03.373-.057.422-.3.452-1.2C85.378,1918.333,85.358,1916.009,85.418,1914.767Z" transform="translate(-41.363 -1914.295)" fill="#1a1311"/>
        <path id="Path_576" data-name="Path 576" d="M91.248,1920.8a3.489,3.489,0,0,1-1.215-2.835,3.558,3.558,0,0,1,1.2-2.667,4.561,4.561,0,0,1,3.191-.993,8.816,8.816,0,0,1,1.368.114,7.61,7.61,0,0,0,.953.126c.106.01.106.069.106.126,0,.077-.027.309-.047.635s-.01.889-.03,1.128c-.01.143-.03.232-.116.232s-.1-.069-.114-.2a1.442,1.442,0,0,0-.368-.946,2.7,2.7,0,0,0-1.946-.608,2.057,2.057,0,0,0-1.418.464,3.177,3.177,0,0,0-.85,2.438c0,1.985,1.082,3.317,2.7,3.317.793,0,1.282-.069,1.66-.491a1.524,1.524,0,0,0,.316-.647c.049-.2.077-.269.156-.269s.077.1.077.173a13.49,13.49,0,0,1-.212,1.465.311.311,0,0,1-.252.279,5.017,5.017,0,0,1-1.657.222A5.218,5.218,0,0,1,91.248,1920.8Z" transform="translate(-33.053 -1914.289)" fill="#1a1311"/>
        <path id="Path_577" data-name="Path 577" d="M93.627,1918.115a3.748,3.748,0,0,1,4.124-3.806,3.67,3.67,0,0,1,3.981,3.593,3.8,3.8,0,0,1-4.05,3.961A3.756,3.756,0,0,1,93.627,1918.115Zm6.176.212c0-1.6-.664-3.42-2.371-3.42-.887,0-1.879.491-1.879,2.773,0,1.823.761,3.567,2.42,3.567C98.571,1921.246,99.8,1920.987,99.8,1918.327Z" transform="translate(-27.772 -1914.289)" fill="#1a1311"/>
        <path id="Path_578" data-name="Path 578" d="M98.676,1914.767c.01-.289.047-.461.163-.461.077,0,.126.029.375.229.405.338.906.82,3.112,2.845.985.9,1.65,1.551,1.909,1.78l-.057-3.613c-.02-.541-.067-.79-.454-.857a3.033,3.033,0,0,0-.422-.049c-.126,0-.173-.047-.173-.1,0-.067.086-.1.193-.1.385,0,1.01.03,1.4.03.212,0,.691-.03,1.1-.03.143,0,.21.03.21.087s-.047.106-.163.106a1.116,1.116,0,0,0-.242.03c-.316.037-.412.2-.442.8-.079,1.937-.079,3.865-.116,5.8,0,.494-.067.6-.193.6-.153,0-.452-.232-1.079-.781-.657-.578-1.5-1.338-2.082-1.869-.541-.491-1.5-1.4-2.208-2.082l.1,3.287c.02.694.059.953.328,1.052a2.6,2.6,0,0,0,.511.066c.143.008.193.037.193.094,0,.079-.077.1-.232.1-.336,0-.645-.02-1.242-.03-.222,0-.936.03-1.311.03-.136,0-.212-.02-.212-.1,0-.057.049-.094.183-.094.086-.01.212-.01.319-.03.375-.057.425-.3.454-1.2C98.637,1918.333,98.617,1916.009,98.676,1914.767Z" transform="translate(-21.883 -1914.295)" fill="#1a1311"/>
        <path id="Path_579" data-name="Path 579" d="M105.953,1918.923c0,.75,0,1.647.049,2.052.02.252.086.455.375.5.123.02.242.03.415.049.153.008.193.037.193.1s-.047.089-.222.089c-.654,0-1.59-.03-1.744-.03s-1.1.03-1.417.03c-.156,0-.222-.02-.222-.1s.077-.094.193-.094c.1-.01.2-.02.309-.04.212-.037.282-.251.309-.531.04-.4.057-1.1.057-2.032v-3.779c-.373,0-.973-.01-1.455.02-.538.027-.751.153-.877.491a2.215,2.215,0,0,0-.086.222c-.02.077-.049.153-.116.153-.086,0-.086-.076-.077-.193.039-.4.143-.916.212-1.282.02-.146.047-.24.106-.24a2.96,2.96,0,0,1,.326.074,7.3,7.3,0,0,0,1.072.069h4.191a3.894,3.894,0,0,0,.608-.04,2.345,2.345,0,0,1,.3-.057c.086,0,.1.057.1.3,0,.136-.057,1.032-.067,1.272-.01.133-.04.192-.1.192-.077,0-.1-.059-.106-.173s-.01-.146-.02-.193c-.04-.3-.183-.531-.751-.57-.319-.027-.82-.047-1.553-.047Z" transform="translate(-16.007 -1914.277)" fill="#1a1311"/>
        <path id="Path_580" data-name="Path 580" d="M106.036,1917.159c0-1.494-.02-1.687-.03-2-.017-.4-.133-.521-.365-.568a3.487,3.487,0,0,0-.385-.039c-.116-.01-.173-.047-.173-.106s.067-.087.212-.087c.412,0,1.338.03,1.474.03.183,0,1.109-.03,1.551-.03a4.118,4.118,0,0,1,1.966.328,1.637,1.637,0,0,1,.879,1.475,2.268,2.268,0,0,1-1.294,1.939c.588.847,1.294,1.879,1.882,2.551.511.57.741.736,1.01.773.106.02.163.02.242.03.106,0,.163.037.163.094,0,.089-.1.1-.193.1h-.867a3.035,3.035,0,0,1-1.753-.319,3.676,3.676,0,0,1-1-1.205c-.442-.734-.664-1.129-.837-1.388a.147.147,0,0,0-.116-.057h-.635c-.049,0-.079.017-.079.076v.492a14.162,14.162,0,0,0,.049,1.62c.02.25.086.462.375.529a2.279,2.279,0,0,0,.435.059c.153.008.173.047.173.1s-.067.089-.2.089c-.645,0-1.7-.03-1.763-.03-.116,0-1.052.03-1.378.03-.146,0-.193-.03-.193-.1s.067-.094.173-.094.222-.019.328-.04c.193-.047.269-.222.3-.548.037-.405.047-1.082.047-2.015Zm1.657.647a.14.14,0,0,0,.089.143,1.728,1.728,0,0,0,.741.126.963.963,0,0,0,.608-.156,1.563,1.563,0,0,0,.375-1.212c0-1.368-.867-1.726-1.368-1.726a1.272,1.272,0,0,0-.385.04c-.04.02-.059.03-.059.1Z" transform="translate(-10.936 -1914.21)" fill="#1a1311"/>
        <path id="Path_581" data-name="Path 581" d="M111.271,1919.154a1.818,1.818,0,0,0-.269-1.032c-.356-.655-1.311-2.245-1.64-2.736-.366-.558-.469-.684-.778-.78a1.583,1.583,0,0,0-.252-.049c-.1-.01-.143-.047-.143-.106s.077-.087.193-.087c.393,0,1.119.03,1.484.03.163,0,.771-.03,1.378-.03.106,0,.183.02.183.079,0,.077-.049.1-.193.123-.262.03-.3.126-.3.2a.633.633,0,0,0,.1.281c.153.279,1.358,2.417,1.514,2.707.588-1.109,1.109-2.072,1.289-2.457a1.242,1.242,0,0,0,.156-.492c0-.106-.057-.195-.346-.242-.089-.02-.165-.047-.165-.116s.057-.087.212-.087c.4,0,.724.03,1.089.03.133,0,.924-.03,1.109-.03.114,0,.193.02.193.087s-.069.106-.193.106a1.65,1.65,0,0,0-.375.077,1.222,1.222,0,0,0-.541.491,26.6,26.6,0,0,0-1.84,3.173,2.762,2.762,0,0,0-.156.914v.684c0,.156,0,.551.03.956.02.24.04.482.4.548a4.865,4.865,0,0,0,.531.059c.114.008.153.037.153.1,0,.049-.049.089-.193.089-.694,0-1.494-.03-1.813-.03-.279,0-1.059.03-1.492.03-.138,0-.2-.04-.2-.109,0-.047.057-.084.175-.084a1.857,1.857,0,0,0,.336-.049c.252-.067.309-.242.328-.521.027-.405.037-.837.037-.993Z" transform="translate(-6.372 -1914.21)" fill="#1a1311"/>
        <path id="Path_582" data-name="Path 582" d="M69.61,1924.445a4.94,4.94,0,0,0,.133,1.87c.136.183.319.23,1.119.23a2.332,2.332,0,0,0,1.109-.153,1.065,1.065,0,0,0,.5-.81c.03-.106.049-.183.128-.183s.074.047.074.183a7.65,7.65,0,0,1-.2,1.418c-.077.249-.153.259-.538.259-1.331,0-2.228-.057-3.247-.057-.454,0-.973.027-1.5.027-.133,0-.212-.017-.212-.1,0-.059.059-.089.193-.089.116-.01.222-.02.328-.037.346-.06.356-.232.385-1,.02-.385.03-.963.03-1.561v-1.7c0-1.57-.01-1.746-.03-2.054-.02-.269-.086-.432-.328-.5a1.921,1.921,0,0,0-.375-.047c-.106,0-.2-.02-.2-.1s.1-.1.289-.1c.551,0,1.05.03,1.427.03.086,0,1.282-.03,1.627-.03.173,0,.232.03.232.086,0,.087-.1.106-.232.106a2.469,2.469,0,0,0-.328.039c-.259.047-.326.23-.346.568-.02.309-.027.5-.027,2.092Z" transform="translate(-66.948 -1906.01)" fill="#1a1311"/>
        <path id="Path_583" data-name="Path 583" d="M70.784,1922.738c0-1.494,0-1.775-.027-2.082-.02-.272-.128-.444-.338-.482a1.664,1.664,0,0,0-.289-.039c-.116,0-.183-.04-.183-.106s.047-.086.212-.086c.383,0,1.329.03,1.405.03s1.225-.03,1.571-.03c.165,0,.212.04.212.1,0,.076-.086.1-.183.1s-.153.01-.279.03c-.252.047-.348.173-.368.519-.027.309-.027.561-.027,2.054v1.7c0,.761.01,1.657.047,2.062.02.25.079.425.368.491a3.447,3.447,0,0,0,.422.047c.165,0,.2.04.2.1s-.047.1-.2.1c-.654,0-1.687-.027-1.773-.027-.047,0-1.059.027-1.388.027-.153,0-.23-.017-.23-.1s.077-.1.193-.1c.1-.01.19-.02.3-.037.2-.03.269-.242.3-.521.037-.405.057-1.1.057-2.042Z" transform="translate(-62.585 -1906.01)" fill="#1a1311"/>
        <path id="Path_584" data-name="Path 584" d="M73.1,1922.774c0-1.57-.01-1.766-.03-2.072-.02-.281-.106-.444-.346-.5-.089-.02-.222-.02-.319-.03-.126-.01-.173-.049-.173-.106s.057-.086.212-.086c.548,0,1.01.03,1.435.03L76.6,1920a3.278,3.278,0,0,0,.519-.04.719.719,0,0,1,.153-.04c.049,0,.059.04.059.089s-.02.143-.049.422c-.027.2-.047.531-.077,1.032,0,.077-.037.136-.1.136s-.086-.05-.1-.136a1.166,1.166,0,0,0-.047-.336c-.049-.222-.173-.348-.637-.388-.316-.03-1.156-.047-1.445-.047-.059,0-.079.027-.079.1v2.119c0,.069.01.116.079.116.269.01,1.05,0,1.4-.01.472-.02.6-.047.7-.219.059-.089.089-.126.136-.126s.059.057.059.116c0,.1-.049.442-.077.82-.01.219-.01.691-.01.8,0,.126-.03.183-.089.183s-.086-.066-.1-.153l-.03-.222c-.039-.279-.175-.442-.647-.471-.269-.02-1.059-.04-1.358-.04-.049,0-.059.05-.059.126v.667c0,.326-.01.894,0,1.262.01.674.146.827,1.217.827a2.647,2.647,0,0,0,.894-.116c.272-.1.385-.316.474-.761.02-.114.057-.172.114-.172.077,0,.086.1.086.212a8.064,8.064,0,0,1-.153,1.292c-.067.249-.136.26-.491.26-1.331,0-2.052-.057-3.065-.057-.454,0-.857.027-1.388.027-.173,0-.232-.027-.232-.1,0-.047.049-.1.2-.1a2.322,2.322,0,0,0,.289-.037c.269-.039.306-.405.326-1.013.02-.385.03-.953.03-1.551Z" transform="translate(-59.215 -1906.045)" fill="#1a1311"/>
        <path id="Path_585" data-name="Path 585" d="M80.874,1922.911a.059.059,0,0,0,.057-.066v-.2c0-1.494,0-1.659-.02-1.968-.02-.279-.1-.442-.415-.509-.077-.01-.222-.02-.338-.03-.133,0-.183-.057-.183-.1,0-.057.049-.1.193-.1.561,0,1.427.03,1.524.03s1.2-.03,1.61-.03c.143,0,.193.04.193.1s-.049.1-.146.1c-.163.02-.22.02-.336.039-.252.037-.328.2-.358.509s-.02.561-.02,2.054v1.7c0,.914,0,1.628.049,2.032.03.319.106.482.4.531.136.017.328.027.425.037.116,0,.163.05.163.1,0,.069-.077.1-.193.1-.664,0-1.64-.027-1.813-.027-.153,0-.906.027-1.378.027-.173,0-.21-.047-.21-.1s.057-.089.183-.089c.1-.01.21-.02.3-.037.23-.05.289-.232.319-.541.037-.406.057-1.013.057-1.929v-.781a.056.056,0,0,0-.057-.057H77.866c-.03,0-.059.01-.059.057v1c0,.916.01,1.311.049,1.726.03.279.114.462.4.511.2.027.3.037.4.047s.183.03.183.1c0,.049-.049.1-.193.1-.551,0-1.687-.027-1.783-.027s-1.1.027-1.408.027c-.106,0-.212-.017-.212-.086s.04-.106.165-.106.173-.02.3-.037c.232-.03.319-.281.338-.571.03-.4.047-1.079.047-1.993v-1.677c0-1.494-.007-1.717-.027-2.025-.02-.338-.126-.521-.462-.568-.119-.02-.165-.02-.272-.03-.173-.01-.193-.057-.193-.106,0-.066.106-.086.212-.086.561,0,1.3.03,1.521.03.368,0,1.178-.03,1.593-.03.173,0,.2.04.2.1s-.059.1-.175.1a3.321,3.321,0,0,0-.336.039c-.262.057-.309.279-.328.558-.03.309-.03.7-.03,1.909v.2a.059.059,0,0,0,.059.066Z" transform="translate(-54.929 -1906.01)" fill="#1a1311"/>
        <path id="Path_586" data-name="Path 586" d="M82.086,1921.453c.346,0,.405.04.405.106,0,.089-.116.156-.551.269a18.4,18.4,0,0,0-2.072.61,2.993,2.993,0,0,1-.528.229c-.1,0-.077-.086-.059-.192l.143-.837c.03-.175.059-.185.232-.185Z" transform="translate(-48.875 -1903.791)" fill="#1a1311"/>
        <path id="Path_587" data-name="Path 587" d="M83.794,1924.734a1.816,1.816,0,0,0-.272-1.032c-.356-.654-1.311-2.245-1.637-2.739-.365-.558-.472-.682-.78-.78a1.932,1.932,0,0,0-.252-.047c-.1-.01-.143-.049-.143-.106s.077-.086.193-.086c.4,0,1.119.03,1.484.03.163,0,.77-.03,1.378-.03.106,0,.183.02.183.076,0,.077-.049.1-.193.126-.259.03-.3.126-.3.2a.649.649,0,0,0,.1.279c.156.279,1.358,2.42,1.514,2.709.588-1.109,1.109-2.072,1.289-2.457a1.254,1.254,0,0,0,.156-.494c0-.1-.057-.193-.346-.24-.089-.02-.165-.049-.165-.116s.059-.086.212-.086c.4,0,.724.03,1.089.03.136,0,.926-.03,1.109-.03.116,0,.193.02.193.086s-.067.106-.193.106a1.692,1.692,0,0,0-.375.077,1.222,1.222,0,0,0-.541.491,26.424,26.424,0,0,0-1.84,3.173,2.77,2.77,0,0,0-.156.914v.684c0,.153,0,.551.03.953.02.242.039.484.4.551.173.037.366.037.531.057.116.01.153.04.153.106,0,.049-.047.086-.193.086-.694,0-1.494-.027-1.81-.027-.282,0-1.062.027-1.494.027-.136,0-.193-.037-.193-.1,0-.049.057-.089.173-.089a2.255,2.255,0,0,0,.336-.047c.252-.067.309-.242.328-.521.03-.4.04-.839.04-.992Z" transform="translate(-46.754 -1906.01)" fill="#1a1311"/>
        <path id="Path_588" data-name="Path 588" d="M86.83,1924.183c0,1.331.2,1.889.733,2.265a1.586,1.586,0,0,0,.963.269,1.611,1.611,0,0,0,1.059-.356c.541-.462.541-1.475.541-2.467v-1.156c0-1.417,0-1.667-.02-1.975-.02-.368-.1-.531-.412-.588-.109-.019-.165-.019-.358-.039-.126,0-.173-.04-.173-.1s.047-.1.222-.1c.548,0,1.136.03,1.289.03.175,0,.8-.03,1.274-.03.143,0,.2.03.2.1,0,.047-.039.086-.165.1a1.952,1.952,0,0,0-.3.039c-.259.047-.336.193-.365.588-.02.309-.03.558-.03,1.975v.944a3.617,3.617,0,0,1-.983,3.045,3.065,3.065,0,0,1-2,.637,3.429,3.429,0,0,1-2.294-.647,2.985,2.985,0,0,1-.9-2.514v-1.465c0-1.494,0-1.766-.027-2.072-.02-.271-.077-.4-.3-.464a2.45,2.45,0,0,0-.415-.066c-.143-.01-.2-.049-.2-.106s.077-.086.262-.086c.412,0,1.388.03,1.474.03s1.222-.03,1.571-.03c.163,0,.212.03.212.086,0,.077-.049.1-.173.106-.089.01-.222.02-.319.039-.269.057-.319.259-.338.568s-.03.761-.03,2Z" transform="translate(-41.669 -1906.01)" fill="#1a1311"/>
        <path id="Path_589" data-name="Path 589" d="M92.461,1924.578a9.109,9.109,0,0,1-.242,2.642,4.2,4.2,0,0,1-1.956,2.129,3.386,3.386,0,0,1-.5.249.429.429,0,0,1-.212.059.079.079,0,0,1-.086-.076c0-.049.077-.126.222-.213a2.306,2.306,0,0,0,.509-.435c.511-.568.561-1.193.561-3.729v-2.467c0-1.494,0-1.766-.03-2.072-.02-.271-.123-.454-.4-.491-.136-.019-.279-.03-.385-.039-.126,0-.183-.03-.183-.106,0-.057.047-.086.212-.086.412,0,1.484.03,1.561.03s1.235-.03,1.59-.03c.163,0,.222.03.222.086,0,.087-.069.1-.2.106-.094.01-.143.01-.279.03-.316.057-.365.269-.385.578s-.027.5-.027,2Z" transform="translate(-33.891 -1906.01)" fill="#1a1311"/>
        <path id="Path_590" data-name="Path 590" d="M94.322,1924.183c0,1.331.2,1.889.733,2.265a1.586,1.586,0,0,0,.963.269,1.611,1.611,0,0,0,1.059-.356c.541-.462.541-1.475.541-2.467v-1.156c0-1.417,0-1.667-.02-1.975-.02-.368-.1-.531-.415-.588-.106-.019-.163-.019-.356-.039-.126,0-.173-.04-.173-.1s.047-.1.222-.1c.548,0,1.136.03,1.289.03.173,0,.8-.03,1.272-.03.146,0,.2.03.2.1,0,.047-.04.086-.165.1a1.914,1.914,0,0,0-.3.039c-.259.047-.336.193-.365.588-.02.309-.03.558-.03,1.975v.944a3.617,3.617,0,0,1-.983,3.045,3.067,3.067,0,0,1-2.005.637,3.426,3.426,0,0,1-2.292-.647,2.985,2.985,0,0,1-.9-2.514v-1.465c0-1.494,0-1.766-.027-2.072-.02-.271-.077-.4-.3-.464a2.49,2.49,0,0,0-.415-.066c-.146-.01-.2-.049-.2-.106s.077-.086.262-.086c.412,0,1.388.03,1.472.03s1.225-.03,1.573-.03c.163,0,.212.03.212.086,0,.077-.049.1-.175.106-.086.01-.222.02-.316.039-.272.057-.319.259-.338.568s-.03.761-.03,2Z" transform="translate(-30.659 -1906.01)" fill="#1a1311"/>
        <path id="Path_591" data-name="Path 591" d="M96.528,1920.348c.01-.289.047-.464.163-.464.077,0,.126.03.375.232.405.338.906.82,3.114,2.843.983.906,1.647,1.553,1.909,1.785l-.059-3.616c-.02-.541-.069-.79-.452-.859a3.587,3.587,0,0,0-.425-.047c-.126,0-.173-.049-.173-.1,0-.067.086-.1.19-.1.388,0,1.013.03,1.4.03.212,0,.7-.03,1.1-.03.146,0,.212.03.212.086s-.047.106-.163.106a1.128,1.128,0,0,0-.24.03c-.319.037-.417.2-.445.8-.077,1.939-.077,3.865-.116,5.8,0,.492-.067.6-.193.6-.156,0-.454-.232-1.079-.78-.654-.578-1.5-1.339-2.082-1.87-.541-.491-1.5-1.4-2.208-2.082l.1,3.285c.02.7.059.956.328,1.052a2.6,2.6,0,0,0,.511.066c.143.01.193.04.193.1,0,.079-.079.1-.232.1-.336,0-.645-.017-1.245-.027-.22,0-.933.027-1.309.027-.136,0-.212-.017-.212-.1,0-.057.049-.1.183-.1.089-.01.212-.01.319-.03.375-.057.425-.3.452-1.193C96.489,1923.914,96.469,1921.59,96.528,1920.348Z" transform="translate(-25.04 -1906.097)" fill="#1a1311"/>
        <path id="Path_592" data-name="Path 592" d="M100.493,1922.738c0-1.494,0-1.775-.027-2.082-.02-.272-.126-.444-.338-.482a1.628,1.628,0,0,0-.289-.039c-.116,0-.183-.04-.183-.106s.047-.086.212-.086c.385,0,1.329.03,1.405.03s1.225-.03,1.571-.03c.165,0,.212.04.212.1,0,.076-.086.1-.183.1s-.153.01-.279.03c-.252.047-.348.173-.365.519-.03.309-.03.561-.03,2.054v1.7c0,.761.01,1.657.047,2.062.02.25.079.425.368.491a3.487,3.487,0,0,0,.425.047c.163,0,.2.04.2.1s-.049.1-.2.1c-.657,0-1.687-.027-1.776-.027-.047,0-1.059.027-1.388.027-.153,0-.23-.017-.23-.1s.077-.1.193-.1c.1-.01.193-.02.3-.037.2-.03.269-.242.3-.521.04-.405.057-1.1.057-2.042Z" transform="translate(-18.926 -1906.01)" fill="#1a1311"/>
        <path id="Path_593" data-name="Path 593" d="M101.834,1923.7a3.75,3.75,0,0,1,4.124-3.808,3.669,3.669,0,0,1,3.978,3.6,3.8,3.8,0,0,1-4.048,3.961A3.756,3.756,0,0,1,101.834,1923.7Zm6.176.212c0-1.6-.664-3.423-2.371-3.423-.887,0-1.879.492-1.879,2.776,0,1.822.761,3.566,2.42,3.566C106.778,1926.828,108.01,1926.568,108.01,1923.908Z" transform="translate(-15.711 -1906.091)" fill="#1a1311"/>
        <path id="Path_594" data-name="Path 594" d="M106.837,1922.738c0-1.494-.02-1.686-.03-2-.017-.395-.133-.521-.363-.568a3.71,3.71,0,0,0-.388-.039c-.116-.01-.173-.049-.173-.106s.067-.086.212-.086c.415,0,1.339.03,1.474.03.183,0,1.109-.03,1.551-.03a4.106,4.106,0,0,1,1.966.328,1.637,1.637,0,0,1,.879,1.474,2.265,2.265,0,0,1-1.294,1.936c.588.847,1.294,1.879,1.882,2.553.511.57.741.733,1.01.77.106.02.163.02.242.03.106,0,.163.04.163.1,0,.089-.1.1-.193.1h-.867a3.041,3.041,0,0,1-1.753-.316,3.7,3.7,0,0,1-1-1.205c-.442-.734-.662-1.129-.837-1.388a.148.148,0,0,0-.114-.059h-.637c-.049,0-.079.02-.079.079v.489a14.151,14.151,0,0,0,.049,1.62c.02.252.086.464.375.531a2.568,2.568,0,0,0,.435.057c.153.01.173.05.173.106s-.067.086-.2.086c-.645,0-1.7-.027-1.763-.027-.116,0-1.05.027-1.378.027-.146,0-.193-.027-.193-.1s.067-.1.173-.1.222-.02.328-.037c.193-.05.269-.222.3-.551.037-.405.047-1.079.047-2.013Zm1.657.645a.143.143,0,0,0,.089.146,1.738,1.738,0,0,0,.741.126.964.964,0,0,0,.608-.156,1.568,1.568,0,0,0,.375-1.215c0-1.368-.867-1.724-1.368-1.724a1.272,1.272,0,0,0-.385.04c-.04.017-.059.027-.059.1Z" transform="translate(-9.759 -1906.01)" fill="#1a1311"/>
        <path id="Path_595" data-name="Path 595" d="M116.649,1922.911a.059.059,0,0,0,.057-.066v-.2c0-1.494,0-1.659-.02-1.968-.017-.279-.1-.442-.415-.509-.077-.01-.22-.02-.336-.03-.133,0-.183-.057-.183-.1,0-.057.049-.1.193-.1.558,0,1.425.03,1.524.03s1.193-.03,1.608-.03c.143,0,.193.04.193.1s-.049.1-.143.1c-.165.02-.222.02-.338.039-.249.037-.328.2-.358.509s-.017.561-.017,2.054v1.7c0,.914,0,1.628.047,2.032.03.319.109.482.4.531.133.017.326.027.422.037.116,0,.163.05.163.1,0,.069-.077.1-.193.1-.664,0-1.637-.027-1.81-.027-.156,0-.906.027-1.378.027-.175,0-.212-.047-.212-.1s.057-.089.183-.089c.1-.01.212-.02.3-.037.232-.05.289-.232.319-.541.037-.406.057-1.013.057-1.929v-.781a.056.056,0,0,0-.057-.057h-3.008a.05.05,0,0,0-.057.057v1c0,.916.01,1.311.047,1.726.03.279.116.462.4.511.2.027.3.037.405.047s.183.03.183.1c0,.049-.049.1-.193.1-.548,0-1.687-.027-1.783-.027s-1.1.027-1.408.027c-.1,0-.212-.017-.212-.086s.04-.106.165-.106.173-.02.3-.037c.23-.03.316-.281.336-.571.03-.4.049-1.079.049-1.993v-1.677c0-1.494-.01-1.717-.03-2.025-.02-.338-.126-.521-.462-.568-.116-.02-.165-.02-.269-.03-.175-.01-.2-.057-.2-.106,0-.066.106-.086.215-.086.558,0,1.3.03,1.521.03.368,0,1.176-.03,1.59-.03.173,0,.2.04.2.1s-.057.1-.175.1a3.322,3.322,0,0,0-.336.039c-.259.057-.309.279-.326.558-.03.309-.03.7-.03,1.909v.2a.059.059,0,0,0,.057.066Z" transform="translate(-2.356 -1906.01)" fill="#1a1311"/>
        <path id="Path_596" data-name="Path 596" d="M116.054,1922.738c0-1.494,0-1.775-.027-2.082-.02-.272-.126-.444-.338-.482a1.6,1.6,0,0,0-.289-.039c-.116,0-.183-.04-.183-.106s.049-.086.212-.086c.385,0,1.331.03,1.408.03s1.222-.03,1.571-.03c.163,0,.212.04.212.1,0,.076-.089.1-.183.1s-.156.01-.279.03c-.252.047-.348.173-.368.519-.03.309-.03.561-.03,2.054v1.7c0,.761.01,1.657.049,2.062.02.25.077.425.365.491a3.488,3.488,0,0,0,.425.047c.163,0,.2.04.2.1s-.049.1-.2.1c-.657,0-1.687-.027-1.773-.027-.047,0-1.062.027-1.388.027-.156,0-.232-.017-.232-.1s.077-.1.193-.1c.1-.01.193-.02.3-.037.2-.03.272-.242.3-.521.04-.405.057-1.1.057-2.042Z" transform="translate(3.941 -1906.01)" fill="#1a1311"/>
        <path id="Path_597" data-name="Path 597" d="M124.534,1926.386c0,.568-.017.627-.19.694a7.463,7.463,0,0,1-2.363.365c-2.707,0-4.586-1.215-4.586-3.778a3.474,3.474,0,0,1,1.736-3.141,5.26,5.26,0,0,1,2.766-.637,9.626,9.626,0,0,1,1.558.136c.328.04.647.106.926.116.086,0,.106.037.1.124a8.938,8.938,0,0,0-.1,1.775c0,.153-.039.2-.109.2s-.1-.079-.114-.156a1.5,1.5,0,0,0-.116-.481c-.183-.654-1.042-1.119-2.381-1.119a2.158,2.158,0,0,0-1.726.7,3.13,3.13,0,0,0-.607,2.08c0,1.726.83,3.566,2.855,3.566a1.039,1.039,0,0,0,.538-.114.31.31,0,0,0,.116-.262v-.588c0-.4,0-.771-.01-1.126,0-.551-.126-.753-.452-.8-.126-.02-.252-.03-.415-.049-.077,0-.156-.04-.156-.1s.049-.1.2-.1c.627,0,1.368.03,1.63.03.346,0,.973-.03,1.494-.03.143,0,.22.02.22.1s-.057.086-.153.1c-.04,0-.163.02-.259.03-.232.047-.338.153-.368.491-.02.309-.03.808-.03,1.281Z" transform="translate(7.157 -1906.091)" fill="#1a1311"/>
        <path id="Path_598" data-name="Path 598" d="M126.966,1922.911a.059.059,0,0,0,.059-.066v-.2c0-1.494,0-1.659-.02-1.968-.02-.279-.1-.442-.415-.509-.077-.01-.22-.02-.336-.03-.136,0-.183-.057-.183-.1,0-.057.047-.1.193-.1.558,0,1.425.03,1.521.03s1.2-.03,1.61-.03c.143,0,.193.04.193.1s-.049.1-.146.1c-.163.02-.222.02-.336.039-.252.037-.328.2-.358.509s-.017.561-.017,2.054v1.7c0,.914,0,1.628.047,2.032.03.319.106.482.4.531.136.017.328.027.425.037.116,0,.163.05.163.1,0,.069-.077.1-.193.1-.664,0-1.637-.027-1.813-.027-.153,0-.9.027-1.378.027-.173,0-.212-.047-.212-.1s.059-.089.185-.089c.094-.01.212-.02.3-.037.232-.05.289-.232.316-.541.04-.406.059-1.013.059-1.929v-.781a.056.056,0,0,0-.059-.057h-3.005c-.03,0-.059.01-.059.057v1c0,.916.01,1.311.049,1.726.027.279.116.462.405.511.2.027.3.037.405.047s.183.03.183.1c0,.049-.049.1-.193.1-.551,0-1.687-.027-1.783-.027s-1.1.027-1.408.027c-.106,0-.212-.017-.212-.086s.04-.106.163-.106.175-.02.3-.037c.232-.03.319-.281.338-.571.03-.4.049-1.079.049-1.993v-1.677c0-1.494-.01-1.717-.03-2.025-.02-.338-.126-.521-.462-.568-.116-.02-.165-.02-.272-.03-.173-.01-.193-.057-.193-.106,0-.066.106-.086.212-.086.558,0,1.3.03,1.524.03.366,0,1.175-.03,1.59-.03.173,0,.2.04.2.1s-.057.1-.173.1a3.24,3.24,0,0,0-.336.039c-.262.057-.309.279-.328.558-.03.309-.03.7-.03,1.909v.2a.059.059,0,0,0,.059.066Z" transform="translate(12.81 -1906.01)" fill="#1a1311"/>
        <path id="Path_599" data-name="Path 599" d="M127.168,1927.176a.356.356,0,0,1-.212-.385,12.175,12.175,0,0,1,.059-1.417c.02-.176.059-.232.116-.232s.077.086.086.165a2.179,2.179,0,0,0,.047.3,1.619,1.619,0,0,0,1.64,1.242c.916,0,1.2-.472,1.2-.886s-.079-.743-.9-1.3l-.6-.413c-1.176-.83-1.5-1.506-1.5-2.354,0-1.109.916-2.005,2.457-2.005a5.4,5.4,0,0,1,1.109.1,4.742,4.742,0,0,1,.472.116c.1.03.126.06.126.136-.017.309-.037.5-.037,1.358,0,.176-.03.242-.109.242-.047,0-.086-.03-.1-.183a1.344,1.344,0,0,0-.175-.561,1.488,1.488,0,0,0-1.319-.637c-.79,0-1.079.444-1.079.889,0,.326.114.7.771,1.146l.491.328c1.348.9,1.773,1.494,1.773,2.467a1.961,1.961,0,0,1-1.022,1.744,3.207,3.207,0,0,1-1.677.415A3.865,3.865,0,0,1,127.168,1927.176Z" transform="translate(21.207 -1906.091)" fill="#1a1311"/>
        <path id="Path_600" data-name="Path 600" d="M130.843,1926.386a3.5,3.5,0,0,1-1.215-2.835,3.567,3.567,0,0,1,1.2-2.669,4.561,4.561,0,0,1,3.191-.993,8.691,8.691,0,0,1,1.368.116,7.642,7.642,0,0,0,.953.125c.109.01.109.067.109.126,0,.077-.03.309-.049.635s-.01.886-.03,1.128c-.01.143-.03.232-.114.232s-.106-.069-.116-.2a1.441,1.441,0,0,0-.368-.945,2.7,2.7,0,0,0-1.946-.608,2.059,2.059,0,0,0-1.418.464,3.171,3.171,0,0,0-.847,2.437c0,1.986,1.079,3.317,2.7,3.317.79,0,1.279-.069,1.657-.494a1.526,1.526,0,0,0,.319-.644c.047-.2.077-.27.153-.27s.077.1.077.173a14.1,14.1,0,0,1-.21,1.465.317.317,0,0,1-.252.279,5.1,5.1,0,0,1-1.657.222A5.224,5.224,0,0,1,130.843,1926.386Z" transform="translate(25.134 -1906.091)" fill="#1a1311"/>
        <path id="Path_601" data-name="Path 601" d="M138.884,1922.911a.059.059,0,0,0,.057-.066v-.2c0-1.494,0-1.659-.02-1.968-.02-.279-.1-.442-.415-.509-.077-.01-.222-.02-.336-.03-.136,0-.185-.057-.185-.1,0-.057.049-.1.2-.1.558,0,1.425.03,1.521.03s1.2-.03,1.61-.03c.146,0,.193.04.193.1s-.047.1-.146.1c-.163.02-.22.02-.336.039-.252.037-.328.2-.358.509s-.017.561-.017,2.054v1.7c0,.914,0,1.628.047,2.032.03.319.106.482.4.531.136.017.328.027.425.037.116,0,.163.05.163.1,0,.069-.077.1-.193.1-.664,0-1.637-.027-1.813-.027-.153,0-.906.027-1.378.027-.173,0-.21-.047-.21-.1s.057-.089.183-.089c.1-.01.21-.02.3-.037.23-.05.289-.232.319-.541.037-.406.057-1.013.057-1.929v-.781a.056.056,0,0,0-.057-.057h-3.008c-.03,0-.059.01-.059.057v1c0,.916.01,1.311.049,1.726.03.279.116.462.405.511.2.027.3.037.4.047s.183.03.183.1c0,.049-.049.1-.193.1-.551,0-1.687-.027-1.783-.027s-1.1.027-1.408.027c-.106,0-.212-.017-.212-.086s.04-.106.165-.106.173-.02.3-.037c.23-.03.316-.281.336-.571.03-.4.047-1.079.047-1.993v-1.677c0-1.494-.007-1.717-.027-2.025-.02-.338-.126-.521-.462-.568-.116-.02-.165-.02-.272-.03-.173-.01-.19-.057-.19-.106,0-.066.1-.086.21-.086.561,0,1.3.03,1.524.03.366,0,1.175-.03,1.59-.03.173,0,.2.04.2.1s-.059.1-.175.1a3.321,3.321,0,0,0-.336.039c-.259.057-.309.279-.328.558-.03.309-.03.7-.03,1.909v.2a.059.059,0,0,0,.059.066Z" transform="translate(30.324 -1906.01)" fill="#1a1311"/>
        <path id="Path_602" data-name="Path 602" d="M137.331,1923.7a3.751,3.751,0,0,1,4.124-3.808,3.67,3.67,0,0,1,3.981,3.6,3.8,3.8,0,0,1-4.048,3.961A3.758,3.758,0,0,1,137.331,1923.7Zm6.179.212c0-1.6-.667-3.423-2.371-3.423-.887,0-1.879.492-1.879,2.776,0,1.822.761,3.566,2.418,3.566C142.275,1926.828,143.51,1926.568,143.51,1923.908Z" transform="translate(36.454 -1906.091)" fill="#1a1311"/>
        <path id="Path_603" data-name="Path 603" d="M141.475,1923.7a3.752,3.752,0,0,1,4.127-3.808,3.669,3.669,0,0,1,3.978,3.6,3.8,3.8,0,0,1-4.048,3.961A3.758,3.758,0,0,1,141.475,1923.7Zm6.179.212c0-1.6-.664-3.423-2.371-3.423-.887,0-1.879.492-1.879,2.776,0,1.822.761,3.566,2.42,3.566C146.421,1926.828,147.654,1926.568,147.654,1923.908Z" transform="translate(42.543 -1906.091)" fill="#1a1311"/>
        <path id="Path_604" data-name="Path 604" d="M148.174,1924.445a4.866,4.866,0,0,0,.136,1.87c.133.183.316.23,1.116.23a2.321,2.321,0,0,0,1.109-.153c.232-.106.4-.355.5-.81.03-.106.049-.183.126-.183s.077.047.077.183a7.863,7.863,0,0,1-.2,1.418c-.077.249-.156.259-.538.259-1.331,0-2.228-.057-3.25-.057-.452,0-.973.027-1.5.027-.136,0-.212-.017-.212-.1,0-.059.057-.089.193-.089.114-.01.22-.02.328-.037.346-.06.356-.232.383-1,.02-.385.03-.963.03-1.561v-1.7c0-1.57-.01-1.746-.03-2.054-.017-.269-.084-.432-.326-.5a1.948,1.948,0,0,0-.375-.047c-.109,0-.2-.02-.2-.1s.094-.1.289-.1c.548,0,1.05.03,1.425.03.086,0,1.284-.03,1.63-.03.173,0,.232.03.232.086,0,.087-.1.106-.232.106a2.422,2.422,0,0,0-.328.039c-.259.047-.326.23-.346.568-.02.309-.03.5-.03,2.092Z" transform="translate(48.508 -1906.01)" fill="#1a1311"/>
      </g>
      <g id="Group_298" data-name="Group 298" transform="translate(1.178)">
        <g id="Group_297" data-name="Group 297">
          <g id="Group_281" data-name="Group 281" transform="translate(50.176 1.469)">
            <g id="Group_276" data-name="Group 276" transform="translate(24.239)">
              <path id="Path_605" data-name="Path 605" d="M98.017,1903.452h5.221v18.275a.372.372,0,0,0,.373.373h2.235a.372.372,0,0,0,.373-.373v-20.885a.373.373,0,0,0-.373-.373h-5.221v-4.475h5.221a.371.371,0,0,0,.373-.373v-2.238a.373.373,0,0,0-.373-.373H98.017a.373.373,0,0,0-.373.373v9.7A.371.371,0,0,0,98.017,1903.452Z" transform="translate(-97.461 -1892.831)" fill="#1a1311"/>
              <path id="Path_606" data-name="Path 606" d="M105.954,1922.387h-2.235a.557.557,0,0,1-.556-.556v-18.089H98.126a.556.556,0,0,1-.556-.556v-9.7a.554.554,0,0,1,.556-.553h7.828a.554.554,0,0,1,.556.553v2.238a.556.556,0,0,1-.556.555h-5.038v4.109h5.038a.557.557,0,0,1,.556.556v20.883A.557.557,0,0,1,105.954,1922.387ZM98.126,1893.3a.191.191,0,0,0-.193.19v9.7a.193.193,0,0,0,.193.193h5.4v18.452a.193.193,0,0,0,.193.193h2.235a.193.193,0,0,0,.193-.193v-20.883a.193.193,0,0,0-.193-.192h-5.4v-4.836h5.4a.193.193,0,0,0,.193-.192v-2.238a.191.191,0,0,0-.193-.19Z" transform="translate(-97.57 -1892.938)" fill="#1a1311"/>
            </g>
            <g id="Group_277" data-name="Group 277" transform="translate(24.239 14.916)">
              <rect id="Rectangle_345" data-name="Rectangle 345" width="2.982" height="14.172" rx="0.151" transform="translate(0.182 0.18)" fill="#1a1311"/>
              <path id="Path_607" data-name="Path 607" d="M100.361,1913.511H98.126a.556.556,0,0,1-.556-.555v-13.425a.556.556,0,0,1,.556-.553h2.235a.556.556,0,0,1,.556.553v13.425A.556.556,0,0,1,100.361,1913.511Zm-2.235-14.17a.191.191,0,0,0-.193.19v13.425a.193.193,0,0,0,.193.192h2.235a.193.193,0,0,0,.193-.192v-13.425a.191.191,0,0,0-.193-.19Z" transform="translate(-97.57 -1898.978)" fill="#1a1311"/>
            </g>
            <g id="Group_278" data-name="Group 278">
              <path id="Path_608" data-name="Path 608" d="M129.592,1924.708H128.1v-31.324a.373.373,0,0,0-.373-.373h-4.1a.373.373,0,0,0-.373.373v2.238a.371.371,0,0,0,.373.373h1.492v6.339h-1.492a.373.373,0,0,0-.373.373v2.238a.371.371,0,0,0,.373.373h1.492v8.2h-1.492a.373.373,0,0,0-.373.373v2.237a.371.371,0,0,0,.373.373h1.492v8.2H107.59v-8.2h1.492a.371.371,0,0,0,.373-.373v-2.237a.373.373,0,0,0-.373-.373H107.59v-8.2h1.492a.371.371,0,0,0,.373-.373v-2.238a.373.373,0,0,0-.373-.373H107.59v-6.339h1.492a.371.371,0,0,0,.373-.373v-2.238a.373.373,0,0,0-.373-.373h-4.1a.374.374,0,0,0-.373.373v31.324H102v-29.459a.374.374,0,0,0-.373-.373H99.389a.373.373,0,0,0-.373.373v38.782H96.4v-40.646a.374.374,0,0,0-.373-.373H93.8a.373.373,0,0,0-.373.373v40.646H90.81v-38.782a.374.374,0,0,0-.373-.373H88.2a.373.373,0,0,0-.373.373v41.395a.372.372,0,0,0,.373.373h13.422a.374.374,0,0,0,.373-.373v-8.95h27.595a.374.374,0,0,0,.373-.373v-2.24A.374.374,0,0,0,129.592,1924.708Z" transform="translate(-87.646 -1892.831)" fill="#1a1311"/>
              <path id="Path_609" data-name="Path 609" d="M101.733,1937.3H88.311a.556.556,0,0,1-.556-.553v-41.395a.557.557,0,0,1,.556-.556h2.235a.554.554,0,0,1,.553.556v38.6h2.25v-40.466a.554.554,0,0,1,.556-.553h2.235a.552.552,0,0,1,.553.553v40.466h2.25v-38.6a.557.557,0,0,1,.556-.556h2.235a.554.554,0,0,1,.553.556v29.279h2.25v-31.144a.554.554,0,0,1,.556-.553h4.1a.554.554,0,0,1,.556.553v2.238a.556.556,0,0,1-.556.555h-1.311v5.977h1.311a.554.554,0,0,1,.556.553v2.238a.556.556,0,0,1-.556.556h-1.311v7.841h1.311a.556.556,0,0,1,.556.553v2.238a.557.557,0,0,1-.556.556h-1.311v7.841h17.166v-7.841h-1.309a.557.557,0,0,1-.556-.556V1914a.556.556,0,0,1,.556-.553h1.309v-7.841h-1.309a.556.556,0,0,1-.556-.556v-2.238a.554.554,0,0,1,.556-.553h1.309v-5.977h-1.309a.556.556,0,0,1-.556-.555v-2.238a.554.554,0,0,1,.556-.553h4.1a.554.554,0,0,1,.556.553v31.144H129.7a.552.552,0,0,1,.553.553v2.24a.554.554,0,0,1-.553.553H102.286v8.77A.554.554,0,0,1,101.733,1937.3Zm-13.422-42.14a.193.193,0,0,0-.193.192v41.395a.192.192,0,0,0,.193.19h13.422a.19.19,0,0,0,.19-.19v-9.133H129.7a.19.19,0,0,0,.19-.19v-2.24a.189.189,0,0,0-.19-.19h-1.672v-31.507a.191.191,0,0,0-.193-.19h-4.1a.191.191,0,0,0-.193.19v2.238a.193.193,0,0,0,.193.192h1.672v6.7h-1.672a.193.193,0,0,0-.193.192v2.238a.193.193,0,0,0,.193.193h1.672v8.567h-1.672a.191.191,0,0,0-.193.19v2.238a.193.193,0,0,0,.193.193h1.672V1925H107.516v-8.567h1.674a.193.193,0,0,0,.193-.193V1914a.191.191,0,0,0-.193-.19h-1.674v-8.567h1.674a.193.193,0,0,0,.193-.193v-2.238a.193.193,0,0,0-.193-.192h-1.674v-6.7h1.674a.193.193,0,0,0,.193-.192v-2.238a.191.191,0,0,0-.193-.19h-4.1a.191.191,0,0,0-.193.19V1925h-2.976v-29.642a.191.191,0,0,0-.19-.192H99.5a.193.193,0,0,0-.193.192v38.964H96.329v-40.829a.189.189,0,0,0-.19-.19H93.9a.191.191,0,0,0-.193.19v40.829H90.736v-38.964a.191.191,0,0,0-.19-.192Z" transform="translate(-87.755 -1892.938)" fill="#1a1311"/>
            </g>
            <g id="Group_279" data-name="Group 279" transform="translate(16.781 37.29)">
              <path id="Path_610" data-name="Path 610" d="M102.783,1908.111h-2.257a.37.37,0,0,0-.365.312,4.093,4.093,0,0,1-4.048,3.417H95a.375.375,0,0,0-.373.375v2.238a.374.374,0,0,0,.373.373h1.116v0a7.075,7.075,0,0,0,7.043-6.3.384.384,0,0,0-.094-.289A.375.375,0,0,0,102.783,1908.111Z" transform="translate(-94.441 -1907.931)" fill="#1a1311"/>
              <path id="Path_611" data-name="Path 611" d="M96.222,1915.113H95.106a.556.556,0,0,1-.556-.553v-2.237a.557.557,0,0,1,.556-.556h1.116a3.909,3.909,0,0,0,3.867-3.267.552.552,0,0,1,.546-.462h2.257a.546.546,0,0,1,.412.185.553.553,0,0,1,.141.43,7.259,7.259,0,0,1-7.223,6.46Zm-1.116-2.983a.193.193,0,0,0-.193.193v2.237a.193.193,0,0,0,.193.19h1.116a6.894,6.894,0,0,0,6.863-6.137.2.2,0,0,0-.049-.15.2.2,0,0,0-.143-.062h-2.257a.189.189,0,0,0-.188.158,4.271,4.271,0,0,1-4.225,3.571Z" transform="translate(-94.55 -1908.038)" fill="#1a1311"/>
            </g>
            <g id="Group_280" data-name="Group 280" transform="translate(31.738 37.29)">
              <path id="Path_612" data-name="Path 612" d="M108.842,1911.84h-1.119a4.088,4.088,0,0,1-4.043-3.417.374.374,0,0,0-.368-.312h-2.26a.37.37,0,0,0-.277.126.366.366,0,0,0-.094.289,7.076,7.076,0,0,0,7.041,6.3h1.119a.372.372,0,0,0,.373-.373v-2.238A.375.375,0,0,0,108.842,1911.84Z" transform="translate(-100.499 -1907.931)" fill="#1a1311"/>
              <path id="Path_613" data-name="Path 613" d="M108.95,1915.113h-1.119a7.255,7.255,0,0,1-7.221-6.46.556.556,0,0,1,.551-.615h2.26a.552.552,0,0,1,.546.464,3.908,3.908,0,0,0,3.865,3.265h1.119a.557.557,0,0,1,.556.556v2.237A.556.556,0,0,1,108.95,1915.113Zm-7.789-6.712a.191.191,0,0,0-.19.212,6.893,6.893,0,0,0,6.86,6.137h1.119a.193.193,0,0,0,.193-.19v-2.237a.193.193,0,0,0-.193-.193h-1.119a4.269,4.269,0,0,1-4.223-3.568.189.189,0,0,0-.188-.161Z" transform="translate(-100.607 -1908.038)" fill="#1a1311"/>
            </g>
          </g>
          <g id="Group_289" data-name="Group 289" transform="translate(0 1.469)">
            <g id="Group_282" data-name="Group 282" transform="translate(29.832)">
              <path id="Path_614" data-name="Path 614" d="M89.657,1893.011H87.422a.373.373,0,0,0-.373.373v29.459H79.964a.373.373,0,0,0-.373.373v2.238a.373.373,0,0,0,.373.375h9.693a.375.375,0,0,0,.373-.375v-32.07A.374.374,0,0,0,89.657,1893.011Z" transform="translate(-79.408 -1892.831)" fill="#1a1311"/>
              <path id="Path_615" data-name="Path 615" d="M89.766,1926.116H80.073a.557.557,0,0,1-.556-.556v-2.237a.556.556,0,0,1,.556-.553h6.9v-29.279a.554.554,0,0,1,.556-.553h2.235a.554.554,0,0,1,.556.553v32.07A.557.557,0,0,1,89.766,1926.116Zm-9.693-2.983a.192.192,0,0,0-.193.19v2.237a.193.193,0,0,0,.193.193h9.693a.193.193,0,0,0,.193-.193v-32.07a.191.191,0,0,0-.193-.19H87.531a.191.191,0,0,0-.193.19v29.642Z" transform="translate(-79.517 -1892.938)" fill="#1a1311"/>
            </g>
            <g id="Group_283" data-name="Group 283" transform="translate(28.546 0.457)">
              <rect id="Rectangle_346" data-name="Rectangle 346" width="2.981" height="24.901" rx="0.151" transform="translate(0.18 0.181)" fill="#1a1311"/>
              <path id="Path_616" data-name="Path 616" d="M81.784,1918.386H79.549a.554.554,0,0,1-.553-.556v-24.152a.554.554,0,0,1,.553-.555h2.235a.554.554,0,0,1,.553.555v24.152A.554.554,0,0,1,81.784,1918.386Zm-2.235-24.9a.191.191,0,0,0-.19.193v24.152a.191.191,0,0,0,.19.193h2.235a.193.193,0,0,0,.193-.193v-24.152a.193.193,0,0,0-.193-.193Z" transform="translate(-78.996 -1893.123)" fill="#1a1311"/>
            </g>
            <g id="Group_284" data-name="Group 284" transform="translate(0 0.645)">
              <path id="Path_617" data-name="Path 617" d="M67.883,1925.445h2.983l0,0c12.128,0,20.71-9.87,20.71-22v-2.984a.374.374,0,0,0-.373-.373H81.68v-3.83h9.525a.374.374,0,0,0,.373-.373v-2.237a.374.374,0,0,0-.373-.373H69.224a.372.372,0,0,0-.373.373v2.237a.373.373,0,0,0,.373.373H78.7v3.462a11.578,11.578,0,0,1-10.836,11.533.374.374,0,0,0-.351.373v2.24a.369.369,0,0,0,.116.269.378.378,0,0,0,.257.1h.02a14.517,14.517,0,0,0,7.194-2.366l.361-.237.183.39a7.147,7.147,0,0,0,5.626,4.052l.042,0a.369.369,0,0,0,.373-.373v-2.257a.372.372,0,0,0-.309-.368A4.125,4.125,0,0,1,78,1909.539l-.02-.165.109-.124a14.582,14.582,0,0,0,3.112-5.9l.074-.281H88.6v.373c0,10.485-7.243,19.018-17.731,19.018H67.883a.374.374,0,0,0-.373.373v2.238A.375.375,0,0,0,67.883,1925.445Z" transform="translate(-67.33 -1893.092)" fill="#1a1311"/>
              <path id="Path_618" data-name="Path 618" d="M70.973,1925.733H67.99a.554.554,0,0,1-.553-.556v-2.237a.554.554,0,0,1,.553-.553h2.983c10,0,17.549-8.1,17.549-18.838v-.19h-7l-.04.143a14.769,14.769,0,0,1-3.149,5.974l-.057.064.01.084a3.946,3.946,0,0,0,3.22,3.385.553.553,0,0,1,.462.546v2.257a.554.554,0,0,1-.556.556l-.059,0a7.325,7.325,0,0,1-5.771-4.156l-.094-.2-.188.121a14.655,14.655,0,0,1-7.283,2.4h0a.574.574,0,0,1-.407-.151.553.553,0,0,1-.173-.4v-2.242a.552.552,0,0,1,.519-.551,11.4,11.4,0,0,0,10.668-11.353v-3.279H69.331a.557.557,0,0,1-.556-.556v-2.238a.554.554,0,0,1,.556-.553H91.313a.554.554,0,0,1,.556.553v2.238a.557.557,0,0,1-.556.556H81.968v3.465h9.345a.557.557,0,0,1,.556.556v2.983c0,12.624-8.95,22.149-20.831,22.184Zm-2.983-2.983a.192.192,0,0,0-.193.19v2.237a.193.193,0,0,0,.193.193h2.986c11.7,0,20.529-9.382,20.529-21.821v-2.983a.193.193,0,0,0-.193-.192H81.6v-4.191h9.708a.193.193,0,0,0,.193-.192v-2.238a.193.193,0,0,0-.193-.193H69.331a.193.193,0,0,0-.193.193v2.238a.193.193,0,0,0,.193.192h9.656v3.643a11.761,11.761,0,0,1-11.007,11.713.193.193,0,0,0-.18.19v2.242a.2.2,0,0,0,.059.138.19.19,0,0,0,.131.052,14.31,14.31,0,0,0,7.115-2.336l.536-.351.272.58A6.96,6.96,0,0,0,81.395,1916a.172.172,0,0,0,.148-.047.2.2,0,0,0,.064-.143v-2.257a.189.189,0,0,0-.158-.188,4.314,4.314,0,0,1-3.522-3.7l-.03-.245.163-.185a14.424,14.424,0,0,0,3.072-5.828l.109-.414h7.643v.553c0,10.945-7.7,19.2-17.912,19.2Z" transform="translate(-67.437 -1893.199)" fill="#1a1311"/>
            </g>
            <g id="Group_285" data-name="Group 285" transform="translate(34.206 35.426)">
              <path id="Path_619" data-name="Path 619" d="M87.762,1912.893a4.089,4.089,0,0,1-3.418-4.045v-1.119a.374.374,0,0,0-.373-.373H81.734a.374.374,0,0,0-.373.373v1.119a7.077,7.077,0,0,0,6.3,7.043l.042,0a.377.377,0,0,0,.249-.1.371.371,0,0,0,.123-.277v-2.26A.373.373,0,0,0,87.762,1912.893Z" transform="translate(-81.181 -1907.176)" fill="#1a1311"/>
              <path id="Path_620" data-name="Path 620" d="M87.808,1916.181l-.059,0a7.257,7.257,0,0,1-6.46-7.224v-1.118a.552.552,0,0,1,.553-.553h2.237a.552.552,0,0,1,.553.553v1.118a3.911,3.911,0,0,0,3.267,3.868.549.549,0,0,1,.462.545v2.26a.551.551,0,0,1-.553.553Zm-5.966-8.535a.19.19,0,0,0-.19.19v1.118a6.9,6.9,0,0,0,6.137,6.863h.02a.19.19,0,0,0,.128-.049.188.188,0,0,0,.062-.141v-2.26a.189.189,0,0,0-.158-.187,4.273,4.273,0,0,1-3.571-4.226v-1.118a.189.189,0,0,0-.19-.19Z" transform="translate(-81.288 -1907.283)" fill="#1a1311"/>
            </g>
            <g id="Group_286" data-name="Group 286" transform="translate(24.883 35.426)">
              <path id="Path_621" data-name="Path 621" d="M83.987,1912.893a4.089,4.089,0,0,1-3.418-4.045v-1.119a.374.374,0,0,0-.373-.373H77.959a.374.374,0,0,0-.373.373v1.119a7.077,7.077,0,0,0,6.3,7.043l.042,0a.376.376,0,0,0,.249-.1.371.371,0,0,0,.123-.277v-2.26A.373.373,0,0,0,83.987,1912.893Z" transform="translate(-77.406 -1907.176)" fill="#1a1311"/>
              <path id="Path_622" data-name="Path 622" d="M84.033,1916.181l-.059,0a7.257,7.257,0,0,1-6.46-7.224v-1.118a.552.552,0,0,1,.553-.553H80.3a.554.554,0,0,1,.553.553v1.118a3.909,3.909,0,0,0,3.267,3.868.552.552,0,0,1,.462.545v2.26a.551.551,0,0,1-.553.553Zm-5.966-8.535a.189.189,0,0,0-.19.19v1.118a6.9,6.9,0,0,0,6.134,6.863h.022a.2.2,0,0,0,.128-.049.188.188,0,0,0,.062-.141v-2.26a.189.189,0,0,0-.158-.187,4.273,4.273,0,0,1-3.571-4.226v-1.118a.19.19,0,0,0-.19-.19Z" transform="translate(-77.513 -1907.283)" fill="#1a1311"/>
            </g>
            <g id="Group_287" data-name="Group 287" transform="translate(15.561 35.426)">
              <path id="Path_623" data-name="Path 623" d="M80.212,1912.893a4.089,4.089,0,0,1-3.42-4.045v-1.119a.373.373,0,0,0-.373-.373H74.184a.374.374,0,0,0-.373.373v1.119a7.077,7.077,0,0,0,6.3,7.043l.042,0a.37.37,0,0,0,.37-.373v-2.26A.373.373,0,0,0,80.212,1912.893Z" transform="translate(-73.631 -1907.176)" fill="#1a1311"/>
              <path id="Path_624" data-name="Path 624" d="M80.258,1916.181l-.059,0a7.257,7.257,0,0,1-6.46-7.224v-1.118a.554.554,0,0,1,.553-.553h2.235a.554.554,0,0,1,.556.553v1.118a3.909,3.909,0,0,0,3.267,3.868.552.552,0,0,1,.462.545v2.26a.561.561,0,0,1-.183.412A.57.57,0,0,1,80.258,1916.181Zm-5.966-8.535a.19.19,0,0,0-.19.19v1.118a6.9,6.9,0,0,0,6.134,6.863h.022a.2.2,0,0,0,.128-.049.188.188,0,0,0,.062-.141v-2.26a.189.189,0,0,0-.161-.187,4.273,4.273,0,0,1-3.569-4.226v-1.118a.191.191,0,0,0-.193-.19Z" transform="translate(-73.738 -1907.283)" fill="#1a1311"/>
            </g>
            <g id="Group_288" data-name="Group 288" transform="translate(0.642 35.426)">
              <path id="Path_625" data-name="Path 625" d="M75.975,1907.356H73.737a.376.376,0,0,0-.373.376v1.116a4.106,4.106,0,0,1-4.1,4.1H68.144a.373.373,0,0,0-.373.375v2.238a.372.372,0,0,0,.373.373h1.119v0a7.093,7.093,0,0,0,7.085-7.085v-1.116A.375.375,0,0,0,75.975,1907.356Z" transform="translate(-67.588 -1907.176)" fill="#1a1311"/>
              <path id="Path_626" data-name="Path 626" d="M69.371,1916.223H68.253a.556.556,0,0,1-.556-.553v-2.238a.557.557,0,0,1,.556-.556h1.119a3.927,3.927,0,0,0,3.922-3.922l0-1.116a.556.556,0,0,1,.556-.556h2.237a.556.556,0,0,1,.553.556v1.116a7.275,7.275,0,0,1-7.265,7.268Zm-1.119-2.983a.193.193,0,0,0-.193.193v2.238a.192.192,0,0,0,.193.19h1.119a6.911,6.911,0,0,0,6.9-6.905v-1.116a.192.192,0,0,0-.19-.193H73.846a.193.193,0,0,0-.136.057.186.186,0,0,0-.057.136l0,1.116a4.29,4.29,0,0,1-4.285,4.285Z" transform="translate(-67.697 -1907.283)" fill="#1a1311"/>
            </g>
          </g>
          <g id="Group_296" data-name="Group 296" transform="translate(102.22)">
            <g id="Group_295" data-name="Group 295">
              <g id="Group_290" data-name="Group 290" transform="translate(51.448)">
                <path id="Path_627" data-name="Path 627" d="M169.635,1901.74H151.361v-8.95a.371.371,0,0,0-.37-.373h-2.237a.373.373,0,0,0-.373.373v8.95H130.108a.372.372,0,0,0-.373.373v17.154a.372.372,0,0,0,.373.373H148.38v18.272a.373.373,0,0,0,.373.373h2.237a.371.371,0,0,0,.37-.373v-18.272h18.275a.37.37,0,0,0,.37-.373v-17.154A.37.37,0,0,0,169.635,1901.74Zm-18.275,14.916v-11.933h15.667v11.933Zm-2.981-11.933v11.933H132.718v-11.933Z" transform="translate(-129.555 -1892.234)" fill="#1a1311"/>
                <path id="Path_628" data-name="Path 628" d="M151.1,1938.575H148.86a.554.554,0,0,1-.553-.556V1919.93H130.215a.554.554,0,0,1-.553-.556v-17.154a.554.554,0,0,1,.553-.556h18.092V1892.9a.554.554,0,0,1,.553-.556H151.1a.556.556,0,0,1,.553.556v8.767h18.092a.556.556,0,0,1,.553.556v17.154a.556.556,0,0,1-.553.556H151.651v18.089A.556.556,0,0,1,151.1,1938.575Zm-20.882-36.547a.191.191,0,0,0-.19.192v17.154a.191.191,0,0,0,.19.192h18.452v18.453a.193.193,0,0,0,.193.193H151.1a.193.193,0,0,0,.19-.193v-18.453h18.455a.192.192,0,0,0,.19-.192v-17.154a.192.192,0,0,0-.19-.192H151.288v-9.13a.193.193,0,0,0-.19-.193H148.86a.193.193,0,0,0-.193.193v9.13Zm37.1,14.916H151.288v-12.293h16.027Zm-15.664-.361h15.3v-11.57h-15.3Zm-2.983.361H132.643v-12.293h16.025Zm-15.662-.361h15.3v-11.57h-15.3Z" transform="translate(-129.662 -1892.343)" fill="#1a1311"/>
              </g>
              <g id="Group_294" data-name="Group 294" transform="translate(0 1.865)">
                <g id="Group_291" data-name="Group 291">
                  <path id="Path_629" data-name="Path 629" d="M148.8,1893.172H109.276a.371.371,0,0,0-.373.373V1936.8a.371.371,0,0,0,.373.373H148.8a.371.371,0,0,0,.373-.373v-43.257A.371.371,0,0,0,148.8,1893.172Zm-15.188,8.1v-5.119h4.477v5.119Zm-2.981,0H115.445a.373.373,0,0,0-.373.373v2.238a.374.374,0,0,0,.373.373h15.188v11.56a14.483,14.483,0,0,0,3.833,9.8l.3.331-.383.237a7.821,7.821,0,0,1-3.415,1.154.373.373,0,0,0-.338.373v2.244a.37.37,0,0,0,.373.373h.027a10.742,10.742,0,0,0,5.868-2.272l.207-.161.222.143a14.544,14.544,0,0,0,7.078,2.3h.02a.375.375,0,0,0,.373-.373v-2.243a.372.372,0,0,0-.348-.37,11.6,11.6,0,0,1-4.954-1.479l-.341-.192.212-.331a10.781,10.781,0,0,0,1.7-5.806v-10.442a.371.371,0,0,0-.37-.373h-2.237a.373.373,0,0,0-.373.373v10.442a7.8,7.8,0,0,1-1,3.81l-.257.459-.348-.4a11.551,11.551,0,0,1-2.875-7.6v-11.56H140.7a.372.372,0,0,0,.37-.373v-7.73h5.122v38.036H111.884v-38.036h18.749Z" transform="translate(-108.72 -1892.989)" fill="#1a1311"/>
                  <path id="Path_630" data-name="Path 630" d="M148.91,1937.466H109.385a.557.557,0,0,1-.556-.556v-43.257a.557.557,0,0,1,.556-.556H148.91a.557.557,0,0,1,.556.556v43.257A.557.557,0,0,1,148.91,1937.466Zm-39.525-44a.193.193,0,0,0-.193.193v43.257a.193.193,0,0,0,.193.193H148.91a.193.193,0,0,0,.193-.193v-43.257a.193.193,0,0,0-.193-.193Zm37.1,41.021H111.81v-38.4h19.114v5.48h-15.37a.193.193,0,0,0-.193.192v2.238a.193.193,0,0,0,.193.192h15.37v11.741a14.307,14.307,0,0,0,3.783,9.68l.452.491-.568.353a8,8,0,0,1-3.494,1.181.191.191,0,0,0-.173.193v2.244a.19.19,0,0,0,.19.193,10.6,10.6,0,0,0,5.784-2.232l.309-.242.331.212a14.316,14.316,0,0,0,6.989,2.267h0a.2.2,0,0,0,.141-.052.192.192,0,0,0,.059-.138v-2.243a.189.189,0,0,0-.18-.189,11.8,11.8,0,0,1-5.03-1.5l-.509-.289.316-.491a10.606,10.606,0,0,0,1.674-5.707v-10.442a.192.192,0,0,0-.19-.192h-2.237a.193.193,0,0,0-.193.192v10.442a7.972,7.972,0,0,1-1.02,3.9l-.383.684-.519-.59a11.724,11.724,0,0,1-2.917-7.722v-11.741h7.268a.192.192,0,0,0,.19-.192v-7.91h5.482Zm-34.309-.363h33.946v-37.673h-4.756v7.547a.556.556,0,0,1-.553.556H133.9v11.377a11.353,11.353,0,0,0,2.83,7.482l.18.205.131-.237a7.621,7.621,0,0,0,.973-3.721v-10.442a.556.556,0,0,1,.556-.555h2.237a.556.556,0,0,1,.553.555v10.442a10.963,10.963,0,0,1-1.731,5.9l-.111.171.175.1a11.391,11.391,0,0,0,4.875,1.455.558.558,0,0,1,.521.553v2.243a.551.551,0,0,1-.556.553,14.707,14.707,0,0,1-7.2-2.326l-.114-.072-.106.082a10.916,10.916,0,0,1-5.966,2.309.526.526,0,0,1-.417-.148.557.557,0,0,1-.175-.405v-2.244a.551.551,0,0,1,.5-.553,7.612,7.612,0,0,0,3.336-1.129l.2-.121-.156-.168a14.676,14.676,0,0,1-3.88-9.927v-11.377H115.554a.554.554,0,0,1-.553-.556v-2.238a.554.554,0,0,1,.553-.555h15.007v-4.754H112.173Zm26.207-32.556h-4.838v-5.48h4.838Zm-4.477-.363h4.114v-4.754H133.9Z" transform="translate(-108.829 -1893.098)" fill="#1a1311"/>
                </g>
                <g id="Group_292" data-name="Group 292" transform="translate(6.813 15.561)">
                  <path id="Path_631" data-name="Path 631" d="M112.035,1913.643h9.693a.371.371,0,0,0,.373-.373v-13.425a.371.371,0,0,0-.373-.373h-9.693a.371.371,0,0,0-.373.373v13.425A.371.371,0,0,0,112.035,1913.643Zm7.085-11.187v8.2h-4.477v-8.2Z" transform="translate(-111.479 -1899.29)" fill="#1a1311"/>
                  <path id="Path_632" data-name="Path 632" d="M121.837,1913.935h-9.693a.557.557,0,0,1-.556-.556v-13.425a.556.556,0,0,1,.556-.555h9.693a.556.556,0,0,1,.556.555v13.425A.557.557,0,0,1,121.837,1913.935Zm-9.693-14.173a.193.193,0,0,0-.193.192v13.425a.193.193,0,0,0,.193.193h9.693a.193.193,0,0,0,.193-.193v-13.425a.193.193,0,0,0-.193-.192Zm7.265,11.187h-4.838v-8.567h4.838Zm-4.475-.363h4.112v-7.841h-4.112Z" transform="translate(-111.588 -1899.399)" fill="#1a1311"/>
                </g>
                <g id="Group_293" data-name="Group 293" transform="translate(6.171 34.206)">
                  <rect id="Rectangle_347" data-name="Rectangle 347" width="11.084" height="2.984" rx="0.151" transform="translate(0.18 0.183)" fill="#1a1311"/>
                  <path id="Path_633" data-name="Path 633" d="M122.219,1910.3H111.881a.555.555,0,0,1-.553-.556V1907.5a.554.554,0,0,1,.553-.556h10.338a.557.557,0,0,1,.556.556v2.237A.557.557,0,0,1,122.219,1910.3Zm-10.338-2.986a.193.193,0,0,0-.193.193v2.237a.193.193,0,0,0,.193.193h10.338a.193.193,0,0,0,.193-.193V1907.5a.193.193,0,0,0-.193-.193Z" transform="translate(-111.328 -1906.949)" fill="#1a1311"/>
                </g>
              </g>
            </g>
          </g>
        </g>
      </g>
    </g>
    <g id="Group_307" data-name="Group 307" transform="translate(27.973 1886.737)">
      <g id="Group_300" data-name="Group 300" transform="translate(7.082 8.098)">
        <path id="Path_634" data-name="Path 634" d="M65.343,1972.667a34.544,34.544,0,0,1-34.5-34.5v-13.644a34.5,34.5,0,1,1,69,0v13.644A34.542,34.542,0,0,1,65.343,1972.667Zm0-81.228a33.117,33.117,0,0,0-33.08,33.08v13.644a33.08,33.08,0,1,0,66.159,0v-13.644A33.117,33.117,0,0,0,65.343,1891.439Z" transform="translate(-30.841 -1890.016)" fill="#00935f"/>
      </g>
      <path id="Path_635" data-name="Path 635" d="M62.84,1965.959a30.333,30.333,0,0,1-30.3-30.3v-13.644a30.3,30.3,0,1,1,60.593,0v13.644A30.332,30.332,0,0,1,62.84,1965.959Z" transform="translate(-21.256 -1879.415)" fill="#00935f"/>
      <g id="Group_303" data-name="Group 303" transform="translate(17.931 23.903)">
        <path id="Path_636" data-name="Path 636" d="M50.539,1902.1a9.624,9.624,0,1,0,9.624,9.624A9.636,9.636,0,0,0,50.539,1902.1Zm0,13.516a3.892,3.892,0,1,1,3.892-3.892A3.891,3.891,0,0,1,50.539,1915.614Z" transform="translate(-26.885 -1888.066)" fill="#fff"/>
        <g id="Group_301" data-name="Group 301" transform="translate(25.246)">
          <path id="Path_637" data-name="Path 637" d="M67.52,1918.479v-5.731H61.586a19.287,19.287,0,0,0-10.4-10.395v-5.937H45.457v10.308a13.469,13.469,0,0,1,11.755,11.755Z" transform="translate(-45.457 -1896.416)" fill="#fff"/>
          <path id="Path_638" data-name="Path 638" d="M45.457,1928.7h5.732v-5.937a19.288,19.288,0,0,0,10.4-10.394H67.52v-5.732H57.212A13.468,13.468,0,0,1,45.457,1918.4Z" transform="translate(-45.457 -1881.391)" fill="#fff"/>
        </g>
        <g id="Group_302" data-name="Group 302">
          <path id="Path_639" data-name="Path 639" d="M45.539,1906.64A13.471,13.471,0,0,0,57.294,1918.4V1928.7H51.563v-5.937a19.276,19.276,0,0,1-10.394-10.394H35.234v-5.732Z" transform="translate(-35.234 -1881.391)" fill="#fff"/>
          <path id="Path_640" data-name="Path 640" d="M35.234,1918.479v-5.731h5.934a19.274,19.274,0,0,1,10.394-10.395v-5.937h5.732v10.308a13.471,13.471,0,0,0-11.755,11.755Z" transform="translate(-35.234 -1896.416)" fill="#fff"/>
        </g>
      </g>
      <g id="Group_305" data-name="Group 305">
        <g id="Group_304" data-name="Group 304">
          <path id="Path_641" data-name="Path 641" d="M47.014,1889.3c.41-.323,1.025-.875,1.62-1.447.249-.247.4-.43.4-.541,0-.077-.02-.121-.183-.168-.062-.012-.116-.03-.114-.079s.04-.06.116-.052c.311.025.338.042.733.071s.909.057,1,.062c.119.01.146.027.141.074s-.04.059-.128.059a2.238,2.238,0,0,0-.252.022,1.866,1.866,0,0,0-.941.526c-.343.282-1.19,1.03-1.385,1.21a26.552,26.552,0,0,0,1.7,2.44,3.09,3.09,0,0,0,.679.687,1,1,0,0,0,.311.114c.1.015.143.034.138.089s-.067.057-.143.052l-.679-.054c-.914-.069-1.225-.185-1.548-.6a24.037,24.037,0,0,1-1.482-2.27l-.047.608c-.042.541-.084,1.173-.079,1.464,0,.175.035.353.267.4.1.023.207.037.3.052s.116.044.114.079-.035.067-.138.059c-.457-.037-1.2-.116-1.259-.121-.035,0-.825-.042-1.054-.062-.089-.005-.138-.025-.133-.079s.054-.067.131-.06.138,0,.217,0c.215-.018.249-.183.286-.38.052-.289.1-.773.156-1.445l.094-1.22c.084-1.074.1-1.267.1-1.492,0-.195-.064-.326-.23-.373-.1-.03-.193-.035-.259-.05-.091,0-.146-.025-.141-.087,0-.042.059-.057.193-.047.3.025,1,.1,1.05.1.064,0,.9.05,1.153.067.116.01.143.039.141.074,0,.05-.042.067-.131.067-.064,0-.106,0-.21,0-.244.015-.3.173-.331.393s-.049.358-.133,1.432Z" transform="translate(-3.005 -1886.737)" fill="#1a1311"/>
          <path id="Path_642" data-name="Path 642" d="M49.223,1889.22c.259-1.048.306-1.242.341-1.464.032-.19-.012-.331-.153-.4a1.385,1.385,0,0,0-.2-.076c-.079-.02-.121-.06-.109-.106s.049-.052.163-.022c.272.066.926.252.98.264s.862.193,1.106.25c.114.03.141.064.131.1s-.079.054-.146.037-.109-.02-.2-.027c-.185-.01-.274.062-.346.3-.074.213-.119.387-.378,1.432l-.291,1.188c-.133.533-.282,1.163-.326,1.452-.027.18-.017.311.173.407a2.02,2.02,0,0,0,.289.107c.114.029.133.064.123.1s-.049.059-.158.032c-.459-.114-1.175-.311-1.235-.326-.035-.01-.748-.165-.978-.22-.106-.027-.158-.055-.146-.109s.072-.054.153-.034.138.02.215.025c.148.015.232-.121.3-.311.1-.277.232-.761.4-1.42Z" transform="translate(1.259 -1886.145)" fill="#1a1311"/>
          <path id="Path_643" data-name="Path 643" d="M52.322,1888.056c.089-.188.165-.291.242-.257.052.022.074.054.18.262.168.341.358.805,1.22,2.781.385.884.635,1.5.738,1.734l1.015-2.4c.146-.361.188-.541-.047-.7a2.927,2.927,0,0,0-.264-.156c-.084-.037-.1-.081-.086-.114s.084-.037.156-.01c.252.113.657.316.911.427.138.062.467.185.733.3.094.042.131.082.114.119s-.064.057-.138.022a.936.936,0,0,0-.168-.05c-.222-.069-.333.012-.526.4-.617,1.252-1.18,2.524-1.771,3.789-.143.323-.22.373-.3.336-.1-.044-.23-.284-.484-.827-.262-.573-.6-1.323-.825-1.839-.212-.482-.583-1.361-.847-2.018l-.9,2.2c-.188.462-.24.645-.089.786a1.717,1.717,0,0,0,.316.2c.091.05.116.082.1.118s-.079.042-.18,0c-.222-.1-.42-.2-.81-.383-.146-.064-.625-.254-.872-.363-.089-.04-.136-.077-.114-.126s.062-.049.151-.01c.059.02.141.054.217.074.264.071.365-.074.647-.655C51.255,1890.392,51.919,1888.856,52.322,1888.056Z" transform="translate(3.841 -1885.186)" fill="#1a1311"/>
          <path id="Path_644" data-name="Path 644" d="M58.183,1896.179c-.225.4-.274.575-.133.768a2.124,2.124,0,0,0,.279.289c.074.054.094.094.064.134s-.086.022-.175-.044c-.459-.346-.911-.682-1.519-1.191-.1-.087-.1-.135-.079-.163a.088.088,0,0,1,.1-.01c.114.032.146,0,.311-.262l1.292-2.141-2.754,1.287c-.363.17-.422.18-.467.146s-.052-.126-.025-.487c.04-.457.175-1.346.232-1.86.025-.232.123-.869.158-1.139l-1.336,1.448c-.2.222-.291.343-.356.427a.269.269,0,0,0,0,.4,2.121,2.121,0,0,0,.185.183c.084.062.089.092.064.126s-.069.045-.158-.022c-.244-.185-.538-.43-.7-.556s-.447-.309-.652-.462c-.057-.042-.123-.092-.081-.148.025-.032.077-.03.153.028.049.029.111.074.18.108.185.089.336,0,.667-.323l3.07-3.038c.148-.148.222-.17.279-.128s.057.131.047.39l-.407,3.853,3.539-1.546c.2-.079.284-.1.338-.06s.03.146-.057.3Z" transform="translate(7.958 -1882.633)" fill="#1a1311"/>
          <path id="Path_645" data-name="Path 645" d="M58.042,1893.584c.845-.756.943-.852,1.1-1.01s.188-.271.1-.427a2.247,2.247,0,0,0-.138-.185c-.054-.072-.057-.116-.027-.146s.077-.01.151.074c.262.294.469.555.672.785l1.311,1.454a2.322,2.322,0,0,0,.269.262.576.576,0,0,1,.1.064c.022.025.007.049-.02.072s-.086.059-.252.178c-.116.077-.306.23-.59.457-.04.037-.091.045-.119.012s-.015-.069.027-.119a.832.832,0,0,0,.158-.187c.1-.133.1-.259-.1-.526-.138-.186-.528-.644-.669-.8-.027-.032-.052-.028-.089,0l-1.138,1.018c-.037.032-.057.062-.025.1.123.15.5.565.677.746.237.245.314.3.457.272.074-.01.109-.013.131.012s0,.059-.035.086c-.052.047-.259.188-.477.353-.123.1-.378.328-.435.377s-.111.074-.138.042-.007-.079.032-.131l.1-.121c.131-.156.156-.306-.057-.576-.119-.153-.487-.587-.63-.748-.025-.024-.054-.007-.1.03l-.358.319c-.175.158-.487.427-.677.607-.358.329-.378.474.138,1.05a1.8,1.8,0,0,0,.491.425c.185.1.356.057.635-.111.072-.044.121-.052.151-.02s-.012.092-.074.148a5.415,5.415,0,0,1-.768.536c-.165.084-.2.055-.375-.138-.637-.714-.953-1.131-1.44-1.674-.217-.242-.427-.447-.682-.731-.084-.094-.1-.138-.059-.17s.074-.022.143.057a1.625,1.625,0,0,0,.161.136c.151.128.366-.028.7-.309.215-.175.526-.442.847-.729Z" transform="translate(12.125 -1879.29)" fill="#1a1311"/>
          <path id="Path_646" data-name="Path 646" d="M61.445,1894.241c.183-.1.3-.143.348-.072.027.05.027.089,0,.319-.059.375-.17.864-.605,2.981-.2.943-.348,1.593-.4,1.84L63,1897.933c.326-.21.462-.333.361-.6a2.166,2.166,0,0,0-.126-.279c-.047-.079-.035-.126,0-.143s.091.017.131.084c.143.24.358.637.5.876.079.131.277.417.427.667.052.089.059.141.025.163s-.084.01-.126-.062a.908.908,0,0,0-.109-.138c-.141-.183-.279-.181-.659.022-1.227.669-2.418,1.386-3.63,2.08-.306.18-.4.18-.442.1-.057-.1-.025-.365.081-.956.116-.62.274-1.427.388-1.983.1-.516.306-1.447.469-2.136l-2,1.28c-.422.266-.568.387-.528.59a1.857,1.857,0,0,0,.148.341c.047.094.047.133.01.156s-.086-.012-.143-.106c-.126-.21-.227-.408-.445-.781-.081-.136-.363-.568-.5-.8-.049-.084-.067-.139-.017-.168s.077-.005.126.079c.04.049.084.126.136.185.175.213.343.151.909-.163C59.225,1895.537,60.655,1894.666,61.445,1894.241Z" transform="translate(14.36 -1875.867)" fill="#1a1311"/>
          <path id="Path_647" data-name="Path 647" d="M59.351,1900.19a2.523,2.523,0,0,1,1.776-1.339,2.574,2.574,0,0,1,2.074.378,3.3,3.3,0,0,1,1.245,2.062,6.389,6.389,0,0,1,.156.978,5.875,5.875,0,0,0,.074.689c.012.077-.027.086-.069.1s-.22.032-.452.077-.622.146-.8.173c-.1.017-.168.019-.183-.042s.03-.084.123-.114a1.049,1.049,0,0,0,.6-.42,1.943,1.943,0,0,0,.089-1.467,1.47,1.47,0,0,0-.568-.914,2.286,2.286,0,0,0-1.852-.173c-1.39.341-2.134,1.326-1.857,2.459.136.553.269.887.63,1.077a1.1,1.1,0,0,0,.506.111c.151,0,.2.007.217.062s-.054.069-.109.084a10.169,10.169,0,0,1-1.062.1.233.233,0,0,1-.24-.128,3.67,3.67,0,0,1-.44-1.121A3.781,3.781,0,0,1,59.351,1900.19Z" transform="translate(17.686 -1869.039)" fill="#1a1311"/>
          <path id="Path_648" data-name="Path 648" d="M62.032,1901.8a2.705,2.705,0,0,1,2.852,2.874,2.646,2.646,0,0,1-2.487,2.961,2.742,2.742,0,0,1-2.961-2.813A2.71,2.71,0,0,1,62.032,1901.8Zm.01,4.457c1.153-.042,2.447-.568,2.4-1.8-.022-.639-.4-1.341-2.05-1.281-1.311.047-2.549.642-2.507,1.837C59.906,1905.441,60.126,1906.323,62.042,1906.254Z" transform="translate(18.26 -1864.61)" fill="#1a1311"/>
          <path id="Path_649" data-name="Path 649" d="M64.564,1905.789c.207.007.333.034.333.119,0,.054-.022.089-.168.271-.242.292-.59.652-2.047,2.242-.654.709-1.119,1.188-1.287,1.376l2.605-.042c.39-.015.57-.05.617-.326a1.85,1.85,0,0,0,.035-.306c0-.089.035-.124.069-.124s.072.062.072.138c0,.277-.022.729-.022,1.007,0,.151.022.5.022.791,0,.1-.022.153-.064.153s-.077-.034-.077-.119a.691.691,0,0,0-.02-.173c-.027-.23-.146-.3-.578-.321-1.4-.054-2.783-.054-4.181-.081-.353,0-.43-.05-.43-.141,0-.109.168-.326.563-.775.417-.474.966-1.084,1.348-1.5.353-.391,1.005-1.084,1.5-1.591l-2.368.069c-.5.015-.687.042-.756.237a1.562,1.562,0,0,0-.049.368c-.007.1-.03.138-.069.138-.057,0-.069-.057-.069-.165,0-.245.012-.467.02-.9,0-.161-.02-.675-.02-.946,0-.1.012-.153.069-.153.04,0,.069.035.069.134.007.061.007.153.02.23.042.269.215.3.862.326C61.994,1905.762,63.668,1905.747,64.564,1905.789Z" transform="translate(18.276 -1859.842)" fill="#1a1311"/>
          <path id="Path_650" data-name="Path 650" d="M61.5,1911.371c-.541,0-1.188,0-1.479.037-.18.012-.326.062-.361.269-.015.092-.022.176-.035.3s-.03.141-.077.141-.062-.034-.062-.16c0-.472.02-1.146.02-1.257s-.02-.792-.02-1.022c0-.111.012-.158.069-.158s.069.054.069.138.012.146.027.223c.027.153.18.2.383.222.291.027.79.042,1.464.042h2.721c0-.271.007-.7-.012-1.049-.022-.388-.111-.541-.353-.633-.079-.034-.119-.047-.161-.062s-.111-.034-.111-.084.054-.062.138-.054c.284.027.659.1.924.153.1.013.173.035.173.074a1.939,1.939,0,0,1-.054.237,5.432,5.432,0,0,0-.049.77v3.021a2.734,2.734,0,0,0,.03.439,1.842,1.842,0,0,1,.04.215c0,.062-.04.069-.215.069-.1,0-.743-.042-.916-.047-.1-.007-.138-.03-.138-.072s.04-.069.123-.077a1,1,0,0,0,.138-.012c.217-.027.383-.134.41-.543.022-.23.035-.59.035-1.119Z" transform="translate(18.335 -1855.109)" fill="#1a1311"/>
          <path id="Path_651" data-name="Path 651" d="M63.086,1912.17c1.062.18,1.2.19,1.42.22.284.035.388-.032.449-.19.037-.1.057-.21.074-.269.02-.081.054-.119.1-.111s.052.059.035.16c-.049.294-.18.948-.2,1.045-.022.128-.114.79-.168,1.106a2.967,2.967,0,0,1-.469,1.356,1.177,1.177,0,0,1-1.153.445,1.623,1.623,0,0,1-1.22-1.151c-.674.316-1.492.691-2.042,1.027-.464.294-.608.437-.669.625-.025.074-.032.114-.049.168-.012.077-.047.111-.089.106-.062-.012-.054-.082-.044-.151l.106-.615a2.172,2.172,0,0,1,.437-1.208,2.634,2.634,0,0,1,.975-.561c.573-.225.882-.336,1.087-.427a.108.108,0,0,0,.054-.076l.077-.45c.007-.035,0-.057-.044-.064l-.348-.059a10.294,10.294,0,0,0-1.156-.163c-.183-.015-.341.008-.422.2a1.691,1.691,0,0,0-.094.3c-.025.108-.054.119-.1.111s-.054-.057-.037-.156c.077-.457.225-1.2.232-1.247.015-.084.109-.751.146-.983.017-.1.044-.134.094-.126s.059.059.047.135-.012.161-.012.237c.01.143.126.217.353.279.284.076.761.163,1.425.276Zm-.659,1.1a.1.1,0,0,0-.111.045,1.234,1.234,0,0,0-.18.514.686.686,0,0,0,.037.449,1.137,1.137,0,0,0,.817.412c.971.166,1.329-.407,1.39-.763a.92.92,0,0,0,.02-.28c-.01-.03-.015-.045-.069-.054Z" transform="translate(17.698 -1851.029)" fill="#1a1311"/>
          <path id="Path_652" data-name="Path 652" d="M60.768,1915.248a1.306,1.306,0,0,0,.766.074c.531-.079,1.842-.333,2.257-.432.469-.111.58-.151.721-.336a1.156,1.156,0,0,0,.094-.158c.03-.064.069-.086.109-.071s.04.074.01.15c-.1.269-.3.751-.385,1-.042.111-.17.531-.321.941-.027.072-.059.119-.1.1s-.052-.057-.037-.16c.044-.183-.01-.235-.062-.252a.449.449,0,0,0-.215,0c-.225.034-1.971.321-2.205.356.605.672,1.129,1.262,1.343,1.482a.962.962,0,0,0,.294.225c.074.024.146.007.249-.175.035-.054.074-.1.119-.082s.044.06.007.166c-.1.267-.2.482-.289.731-.035.091-.21.632-.254.758-.03.076-.062.126-.106.109s-.054-.072-.025-.161a1.147,1.147,0,0,0,.042-.274.883.883,0,0,0-.2-.487,19.108,19.108,0,0,0-1.692-2.028,2.038,2.038,0,0,0-.58-.331l-.464-.168c-.1-.04-.37-.136-.652-.217-.168-.047-.336-.094-.469.131-.069.109-.116.24-.17.346-.035.074-.064.094-.109.077s-.047-.052-.012-.148c.173-.469.39-1,.467-1.22.069-.19.244-.726.351-1.02.032-.091.074-.121.119-.1s.044.062.017.138a1.585,1.585,0,0,0-.052.239c-.015.188.086.269.272.351.267.121.558.235.662.271Z" transform="translate(16.758 -1846.584)" fill="#1a1311"/>
          <path id="Path_653" data-name="Path 653" d="M59.138,1919.971c-.573-.4-.971-.709-1.158-.694-.163,0-.267.089-.6.561a1.669,1.669,0,0,0-.368.719.764.764,0,0,0,.269.629c.049.06.089.1.057.148s-.062.025-.141-.027a5.5,5.5,0,0,1-.751-.707c-.116-.15-.089-.2.069-.427.553-.783.958-1.289,1.383-1.892.188-.267.385-.585.605-.9.057-.079.1-.119.151-.081.035.024.027.069-.03.148s-.079.141-.111.21c-.111.23-.012.306.43.642.22.173.556.417.909.664l1,.7c.926.652,1.032.719,1.222.835.168.1.291.128.432.015a1.313,1.313,0,0,0,.183-.2c.044-.062.1-.111.141-.079s.017.1-.062.21c-.23.323-.454.607-.61.83-.035.049-.514.765-.657.973-.074.1-.114.124-.148.1-.052-.034-.022-.1.035-.18a1.44,1.44,0,0,0,.111-.207c.081-.173,0-.289-.19-.442s-.284-.225-1.222-.884Z" transform="translate(13.765 -1841.839)" fill="#1a1311"/>
          <path id="Path_654" data-name="Path 654" d="M58.8,1921.847c.783.739.929.877,1.106,1.015.151.124.294.156.417.062a1.225,1.225,0,0,0,.165-.131c.057-.062.109-.077.146-.045s.022.069-.059.153c-.19.2-.674.684-.711.724s-.593.654-.763.837c-.081.086-.126.091-.156.064s-.007-.094.04-.143.072-.086.123-.16c.1-.156.081-.269-.091-.45-.148-.168-.279-.294-1.062-1.032l-.889-.84c-.4-.378-.874-.815-1.1-1a.32.32,0,0,0-.44-.052,2.585,2.585,0,0,0-.235.2c-.081.086-.121.086-.151.059s-.027-.074.049-.156c.324-.344.85-.869.892-.914.025-.027.511-.57.674-.741.077-.081.123-.111.163-.074s.015.089-.044.148c-.042.054-.084.111-.128.176-.084.121-.007.261.126.415.193.22.548.575,1.042,1.042Z" transform="translate(11.915 -1839.015)" fill="#1a1311"/>
          <path id="Path_655" data-name="Path 655" d="M57.693,1923.463c.7.891.79,1,.938,1.163s.257.205.42.131c.057-.027.133-.089.193-.126s.119-.05.146-.017,0,.074-.081.143c-.311.244-.588.434-.827.622-.116.091-1.45,1.146-1.539,1.215a2.181,2.181,0,0,0-.277.252.472.472,0,0,1-.072.092c-.027.02-.049,0-.072-.025s-.052-.089-.161-.262c-.069-.121-.207-.321-.415-.618-.035-.042-.037-.094,0-.118s.072-.012.114.032a.987.987,0,0,0,.178.17c.126.1.252.118.533-.064.193-.125.677-.486.84-.617.035-.024.032-.049,0-.088l-.943-1.2c-.03-.039-.057-.062-.094-.032-.158.114-.6.467-.79.627-.259.22-.316.292-.3.437,0,.077,0,.111-.022.131s-.057-.007-.084-.039c-.042-.055-.17-.272-.321-.5-.091-.131-.3-.4-.348-.457s-.067-.119-.032-.143.079,0,.128.04l.114.114c.146.141.3.176.575-.019.163-.109.62-.45.79-.583.027-.02.01-.052-.025-.1l-.3-.378c-.143-.185-.393-.511-.561-.714-.3-.38-.449-.407-1.057.069a1.952,1.952,0,0,0-.457.464c-.106.18-.077.351.072.642.04.074.044.123.01.148s-.091-.015-.143-.082a5.771,5.771,0,0,1-.487-.8c-.072-.173-.04-.207.163-.368.756-.59,1.19-.879,1.766-1.329.257-.2.472-.4.773-.632.1-.079.143-.087.175-.05s.015.077-.067.141a1.409,1.409,0,0,0-.148.151c-.136.141,0,.365.264.719.161.227.407.556.674.894Z" transform="translate(9.253 -1837.008)" fill="#1a1311"/>
          <path id="Path_656" data-name="Path 656" d="M53.588,1926.6a.043.043,0,0,0-.015.061l.067.131c.494.956.548,1.062.662,1.252a.333.333,0,0,0,.432.193c.054-.02.148-.062.227-.094s.136-.022.148,0,0,.077-.091.124c-.358.185-.924.452-.985.484s-.758.413-1.022.548c-.094.049-.136.04-.156,0s0-.079.062-.109c.1-.067.136-.086.2-.135.148-.109.143-.24.059-.447s-.17-.363-.662-1.321l-.561-1.086c-.3-.588-.536-1.044-.7-1.289-.123-.193-.227-.275-.43-.21-.091.032-.22.091-.284.116s-.121.022-.136-.008.017-.089.091-.126c.427-.22,1.059-.521,1.171-.578s.57-.319.874-.472c.111-.059.153-.039.17,0s-.007.074-.089.116a1.589,1.589,0,0,0-.178.124c-.133.106-.109.242-.027.449.109.272.3.667.6,1.254l.257.5a.041.041,0,0,0,.057.018l1.929-.99a.038.038,0,0,0,.017-.057l-.331-.642c-.3-.588-.437-.837-.6-1.089-.111-.171-.227-.259-.427-.195-.141.049-.2.074-.277.1s-.126.04-.148,0,0-.077.091-.126c.353-.18,1.089-.536,1.151-.568s.7-.38.894-.481c.067-.037.143-.059.165-.015s.01.082-.072.121-.1.069-.178.124c-.138.1-.114.284-.03.477.116.269.324.706.627,1.294l.551,1.074c.494.958.573,1.1.687,1.289.123.21.252.292.484.213.079-.027.111-.042.183-.072.114-.05.141-.025.158,0s-.04.092-.109.126c-.358.183-.842.41-.985.482-.235.121-.743.407-1.01.543-.111.057-.141.042-.161,0s0-.079.079-.118a2.053,2.053,0,0,0,.2-.136c.148-.124.106-.281.027-.467-.084-.207-.212-.459-.61-1.232l-.067-.131a.042.042,0,0,0-.059-.022Z" transform="translate(4.986 -1834.901)" fill="#1a1311"/>
          <path id="Path_657" data-name="Path 657" d="M49.392,1925.431c-.237.076-.286.062-.3.015s.047-.131.319-.3a13.113,13.113,0,0,0,1.292-.867c.168-.141.242-.252.314-.274s.072.042.081.121l.084.6c.017.126,0,.141-.119.178Z" transform="translate(3.056 -1831.982)" fill="#1a1311"/>
          <path id="Path_658" data-name="Path 658" d="M49.364,1925.734a1.316,1.316,0,0,0,.319.7c.333.423,1.2,1.435,1.5,1.746.328.35.417.427.649.459a1.394,1.394,0,0,0,.183,0c.069,0,.109.017.116.06s-.044.069-.126.086c-.282.047-.8.114-1.059.158-.116.022-.543.116-.973.188-.077.012-.133.007-.141-.032-.01-.055.022-.074.121-.114.183-.052.2-.124.188-.18a.464.464,0,0,0-.1-.185c-.143-.181-1.259-1.553-1.405-1.741-.282.86-.536,1.608-.617,1.9a.869.869,0,0,0-.049.368c.012.074.064.128.274.128.064,0,.123.015.131.062s-.03.069-.141.089c-.279.049-.516.069-.775.114-.1.015-.654.133-.785.156-.081.012-.138.007-.146-.039s.035-.084.123-.1a1.163,1.163,0,0,0,.257-.1.873.873,0,0,0,.324-.415,19.246,19.246,0,0,0,.921-2.477,2.055,2.055,0,0,0,0-.669l-.084-.487c-.02-.108-.067-.39-.136-.674-.044-.168-.086-.336-.348-.341-.128-.007-.264.017-.383.022-.084.007-.116-.008-.123-.057s.025-.067.126-.084c.494-.084,1.064-.161,1.292-.2.2-.034.748-.151,1.057-.2.1-.018.141,0,.151.052s-.032.069-.114.084a1.425,1.425,0,0,0-.235.074c-.168.079-.188.21-.168.41.027.292.074.6.094.709Z" transform="translate(-0.717 -1832.167)" fill="#1a1311"/>
          <path id="Path_659" data-name="Path 659" d="M47.247,1926.427c.015-.958-.126-1.363-.5-1.64a1.3,1.3,0,0,0-1.46.04c-.393.326-.4,1.057-.415,1.77l-.015.835c-.015,1.02-.017,1.2-.007,1.423.01.264.064.383.291.429.077.015.119.015.257.032.091,0,.126.03.123.069s-.035.072-.161.069c-.4,0-.82-.032-.931-.034s-.575.012-.916,0c-.1,0-.146-.022-.146-.072s.03-.062.121-.067a2.153,2.153,0,0,0,.215-.025c.188-.032.244-.136.272-.42.017-.222.027-.4.042-1.425l.01-.679a2.611,2.611,0,0,1,.743-2.183,2.208,2.208,0,0,1,1.452-.437,2.468,2.468,0,0,1,1.645.491,2.151,2.151,0,0,1,.617,1.823l-.015,1.054c-.017,1.076-.02,1.271,0,1.494.01.195.052.286.21.338a1.807,1.807,0,0,0,.3.052c.1.01.146.037.146.079s-.057.062-.188.062c-.3,0-1-.037-1.062-.037s-.884,0-1.134,0c-.119,0-.153-.022-.153-.064s.037-.069.128-.074c.062,0,.158-.012.23-.025.2-.04.232-.183.249-.4s.03-.548.042-1.437Z" transform="translate(-5.354 -1831.803)" fill="#1a1311"/>
          <path id="Path_660" data-name="Path 660" d="M41.234,1926.043a6.509,6.509,0,0,1,.682-1.783,3.013,3.013,0,0,1,1.771-1.1,2.692,2.692,0,0,1,.4-.077.291.291,0,0,1,.161,0,.055.055,0,0,1,.044.069c-.01.035-.079.072-.2.1a1.621,1.621,0,0,0-.44.2c-.464.294-.62.719-1.114,2.477l-.479,1.711c-.291,1.035-.343,1.223-.383,1.442a.325.325,0,0,0,.178.417c.089.039.188.074.259.1s.121.057.106.111c-.01.039-.049.049-.163.02-.289-.082-1.025-.309-1.079-.324s-.859-.219-1.106-.292c-.114-.032-.148-.064-.138-.1.017-.059.067-.054.156-.037.067.012.1.022.2.034.23.022.306-.116.378-.326s.119-.341.41-1.378Z" transform="translate(-10.694 -1833.333)" fill="#1a1311"/>
          <path id="Path_661" data-name="Path 661" d="M41.363,1925.4c.407-.867.449-1.294.217-1.7a1.142,1.142,0,0,0-.546-.471,1.158,1.158,0,0,0-.8-.094c-.494.136-.805.8-1.109,1.445l-.356.753c-.435.924-.511,1.089-.6,1.3-.1.244-.1.373.091.509a2.549,2.549,0,0,0,.22.136c.081.037.1.077.084.116s-.062.047-.175,0c-.358-.17-.731-.368-.832-.417s-.531-.225-.84-.373c-.094-.044-.121-.082-.1-.126s.052-.045.136-.012a1.269,1.269,0,0,0,.207.066c.185.05.279-.022.417-.269.109-.2.193-.356.627-1.282l.289-.615c.338-.716.733-1.477,1.576-1.684a2.189,2.189,0,0,1,1.5.2,2.485,2.485,0,0,1,1.3,1.123,2.163,2.163,0,0,1-.188,1.916l-.449.956c-.459.976-.543,1.151-.617,1.361-.072.183-.072.281.052.392a1.782,1.782,0,0,0,.249.173c.091.049.119.094.1.131s-.079.032-.2-.022c-.272-.126-.9-.444-.953-.472s-.808-.355-1.035-.464c-.106-.052-.128-.084-.111-.121.025-.052.062-.05.146-.018.059.02.151.057.22.074.2.044.286-.074.4-.27s.252-.486.63-1.291Z" transform="translate(-15.273 -1834.021)" fill="#1a1311"/>
          <path id="Path_662" data-name="Path 662" d="M38.037,1927.41c-.131.163-.23.247-.294.2-.044-.035-.059-.072-.116-.3-.084-.371-.163-.864-.546-2.988-.168-.948-.269-1.61-.316-1.855l-1.543,2.1c-.225.318-.306.484-.114.691a2.677,2.677,0,0,0,.222.212c.072.054.079.1.057.131s-.091.017-.153-.027c-.22-.168-.568-.459-.788-.627-.123-.091-.412-.286-.645-.464-.082-.062-.109-.108-.084-.141s.074-.04.141.01a.96.96,0,0,0,.151.089c.2.116.326.064.6-.267.889-1.077,1.731-2.183,2.6-3.277.215-.281.3-.313.37-.259.089.066.161.331.279.919.123.617.279,1.425.38,1.98.094.519.252,1.457.358,2.156l1.378-1.927c.291-.407.383-.573.269-.746a1.742,1.742,0,0,0-.264-.262c-.079-.069-.094-.106-.069-.138s.086-.022.175.045c.2.148.363.294.7.558.128.1.548.393.766.556.077.059.111.1.079.148s-.069.034-.148-.025c-.054-.032-.126-.087-.2-.122-.24-.13-.373-.015-.78.487C39.616,1925.382,38.613,1926.723,38.037,1927.41Z" transform="translate(-19.543 -1836.957)" fill="#1a1311"/>
          <path id="Path_663" data-name="Path 663" d="M34.908,1922.735c-.785.736-.933.875-1.082,1.042a.325.325,0,0,0-.089.415,1.433,1.433,0,0,0,.123.171c.057.062.069.116.035.148s-.069.017-.151-.069c-.19-.2-.64-.716-.677-.756s-.62-.632-.79-.812c-.079-.086-.084-.131-.052-.161s.094,0,.141.049.082.077.151.134c.151.108.264.1.457-.062.175-.138.309-.262,1.094-1l.894-.837c.4-.373.869-.819,1.064-1.039a.323.323,0,0,0,.079-.435,2.241,2.241,0,0,0-.185-.247c-.079-.086-.079-.126-.047-.156s.074-.022.148.059c.324.346.815.9.859.948.022.024.536.546.7.719.074.081.1.131.062.168s-.089.007-.146-.052a1.97,1.97,0,0,0-.168-.141c-.114-.091-.259-.022-.42.1-.232.18-.608.512-1.106.976Z" transform="translate(-21.751 -1839.16)" fill="#1a1311"/>
          <path id="Path_664" data-name="Path 664" d="M34.966,1922.258a2.7,2.7,0,0,1-3.927-.978,2.649,2.649,0,0,1,.59-3.823,2.743,2.743,0,0,1,3.991.872A2.708,2.708,0,0,1,34.966,1922.258Zm-2.316-3.808c-.963.635-1.8,1.756-1.124,2.783.351.536,1.04.938,2.418.035,1.1-.721,1.847-1.869,1.19-2.87C34.9,1918.037,34.252,1917.4,32.649,1918.45Z" transform="translate(-24.276 -1842.35)" fill="#1a1311"/>
          <path id="Path_665" data-name="Path 665" d="M31.881,1919.59c-1,.4-1.126.462-1.331.55-.259.119-.314.23-.284.4a2.464,2.464,0,0,0,.079.267c.025.082.012.131-.025.146s-.077-.022-.116-.118c-.111-.279-.338-.906-.373-1-.049-.124-.316-.736-.435-1.03a2.961,2.961,0,0,1-.3-1.406,1.186,1.186,0,0,1,.753-.983,1.639,1.639,0,0,1,1.645.35c.41-.62.914-1.368,1.208-1.941.247-.494.294-.694.247-.884-.015-.076-.03-.114-.044-.168-.027-.072-.017-.121.022-.135.057-.025.089.04.116.1l.23.58a2.179,2.179,0,0,1,.254,1.259,2.622,2.622,0,0,1-.541.988c-.373.491-.578.746-.706.931a.1.1,0,0,0-.007.094l.168.425a.05.05,0,0,0,.074.032l.328-.131a10.5,10.5,0,0,0,1.072-.464c.163-.079.286-.183.254-.393a1.572,1.572,0,0,0-.077-.306c-.035-.106-.015-.128.025-.146s.077.022.111.111c.173.432.435,1.146.452,1.19.032.076.3.7.388.916.037.1.032.138-.012.156s-.084-.02-.111-.091-.074-.143-.114-.208c-.084-.116-.22-.123-.449-.054-.282.081-.736.254-1.361.5Zm-.01-1.284a.1.1,0,0,0,.072-.1,1.234,1.234,0,0,0-.114-.531.684.684,0,0,0-.264-.365,1.129,1.129,0,0,0-.914.072c-.919.365-.926,1.042-.793,1.378a.875.875,0,0,0,.131.247c.022.022.035.032.086.01Z" transform="translate(-26.345 -1847.212)" fill="#1a1311"/>
          <path id="Path_666" data-name="Path 666" d="M30.245,1911.63a.043.043,0,0,0-.052-.036l-.146.012c-1.074.084-1.193.092-1.413.123-.2.03-.314.094-.343.326,0,.057,0,.161,0,.244s-.03.136-.059.139-.072-.03-.079-.134c-.032-.4-.059-1.025-.064-1.094s-.089-.857-.111-1.158c-.01-.1.017-.141.057-.143s.072.03.079.1c.022.116.025.158.047.24.04.178.163.225.385.227s.4-.017,1.477-.1l1.22-.1c.657-.049,1.171-.089,1.46-.148.227-.039.338-.1.358-.314.007-.1,0-.237,0-.306-.007-.084.025-.121.059-.124s.074.05.079.136c.037.477.072,1.178.081,1.3.01.108.072.649.1.985.01.126-.022.156-.064.158s-.067-.035-.074-.126a1.811,1.811,0,0,0-.044-.213c-.047-.162-.183-.195-.405-.2-.294,0-.731.015-1.388.067l-.561.044a.038.038,0,0,0-.04.044l.168,2.161a.038.038,0,0,0,.047.037l.719-.054c.659-.052.943-.082,1.237-.134.2-.035.326-.108.346-.319.01-.148.01-.217.01-.294s.012-.133.062-.136.072.027.079.133c.03.4.074,1.212.079,1.281s.081.788.1,1.01c.007.077,0,.153-.049.158s-.079-.022-.086-.114a1.943,1.943,0,0,0-.044-.212c-.032-.163-.217-.212-.427-.21-.291,0-.778.025-1.435.077l-1.208.094c-1.072.084-1.232.1-1.452.135-.242.032-.368.118-.383.363a1.79,1.79,0,0,0,0,.2c0,.123-.032.141-.067.143s-.067-.072-.074-.148c-.03-.4-.052-.936-.064-1.094-.02-.264-.086-.844-.111-1.143-.01-.124.017-.146.059-.151s.072.037.079.121a2.064,2.064,0,0,0,.047.24c.054.183.217.2.42.2.222,0,.506-.02,1.373-.089l.146-.01c.035,0,.047-.025.044-.044Z" transform="translate(-27.973 -1853.455)" fill="#1a1311"/>
          <path id="Path_667" data-name="Path 667" d="M30.029,1909.412c-1.077,0-1.279,0-1.5.02-.2.014-.319.091-.346.244a1.056,1.056,0,0,0-.03.208c0,.084-.027.131-.077.131s-.062-.034-.062-.153c0-.276.022-.958.022-1.012s-.022-.882-.022-1.134c0-.116.027-.15.069-.15s.069.062.069.13.007.112.022.2c.035.181.123.25.375.262.222.022.4.022,1.479.022h1.222c.548,0,1.193-.007,1.487-.034.18-.015.3-.057.353-.264a2.582,2.582,0,0,0,.035-.306c0-.119.027-.146.069-.146s.069.035.069.146c0,.472-.02,1.215-.02,1.279,0,.034.02.763.02,1,0,.111-.012.166-.069.166s-.069-.054-.069-.138c-.007-.069-.015-.138-.027-.215-.022-.146-.173-.2-.375-.215-.291-.03-.793-.042-1.472-.042Z" transform="translate(-27.913 -1856.326)" fill="#1a1311"/>
          <path id="Path_668" data-name="Path 668" d="M32.655,1904.829c.41,0,.452.015.5.138a5.369,5.369,0,0,1,.264,1.7c0,1.951-.877,3.307-2.724,3.307a2.507,2.507,0,0,1-2.265-1.249,3.808,3.808,0,0,1-.457-1.993,7.072,7.072,0,0,1,.1-1.126c.027-.237.077-.464.084-.667,0-.062.027-.077.089-.069a6.577,6.577,0,0,0,1.279.076c.111,0,.146.027.146.077s-.057.076-.111.081a1.11,1.11,0,0,0-.348.084c-.472.133-.805.75-.805,1.716a1.55,1.55,0,0,0,.5,1.242,2.247,2.247,0,0,0,1.5.437c1.245,0,2.571-.6,2.571-2.055a.738.738,0,0,0-.084-.39.222.222,0,0,0-.188-.081h-.425c-.284,0-.556,0-.812.008-.4,0-.541.089-.575.326-.015.089-.022.18-.035.3,0,.054-.027.111-.069.111s-.072-.035-.072-.148c0-.449.022-.985.022-1.173,0-.25-.022-.7-.022-1.077,0-.1.015-.158.072-.158s.062.042.069.111c0,.027.012.118.02.188.035.166.111.242.356.262.222.015.583.022.924.022Z" transform="translate(-27.97 -1861.006)" fill="#1a1311"/>
          <path id="Path_669" data-name="Path 669" d="M30.455,1902.949a.041.041,0,0,0-.044-.047l-.146-.013c-1.072-.094-1.19-.1-1.413-.111a.335.335,0,0,0-.393.267c-.012.054-.027.157-.042.24-.01.1-.054.128-.082.126s-.067-.04-.057-.144c.035-.4.111-1.022.116-1.091s.054-.86.081-1.159c.007-.1.04-.136.079-.131s.067.039.062.109c0,.119,0,.16,0,.245.012.183.126.25.346.289s.4.05,1.472.141l1.217.109c.657.057,1.171.1,1.464.092.23,0,.351-.045.405-.25.022-.1.04-.235.054-.3,0-.084.044-.116.079-.114s.064.062.057.146c-.042.479-.123,1.176-.136,1.3s-.035.652-.064.99c-.012.126-.049.151-.089.146s-.059-.047-.052-.136a1.548,1.548,0,0,0-.01-.217c-.02-.17-.146-.222-.365-.261-.289-.055-.724-.106-1.38-.163l-.561-.049a.039.039,0,0,0-.044.037l-.19,2.158c0,.022,0,.042.04.047l.719.062c.657.057.941.076,1.242.074.2,0,.338-.054.39-.259.035-.143.047-.21.062-.286s.032-.131.079-.126.067.042.059.146c-.037.393-.128,1.208-.133,1.277s-.049.79-.069,1.012c0,.076-.027.151-.074.146s-.074-.034-.067-.124,0-.126-.007-.217c-.007-.168-.183-.244-.388-.276-.289-.047-.773-.1-1.43-.161l-1.2-.106c-1.072-.092-1.232-.1-1.455-.106-.244-.007-.383.059-.437.3-.022.082-.025.119-.04.193-.017.123-.052.135-.086.13s-.057-.081-.049-.156c.035-.4.1-.933.116-1.091.022-.264.054-.847.079-1.144.01-.126.04-.143.081-.141s.067.05.059.131,0,.176,0,.245c.025.19.183.24.38.272.222.039.5.064,1.368.141l.146.012c.035,0,.052-.017.052-.037Z" transform="translate(-27.969 -1865.943)" fill="#1a1311"/>
          <path id="Path_670" data-name="Path 670" d="M33.507,1901.56a.26.26,0,0,1-.316.042,9.586,9.586,0,0,1-.938-.405c-.111-.057-.141-.1-.126-.138s.079-.03.133-.015a1.433,1.433,0,0,0,.215.044,1.168,1.168,0,0,0,1.259-.781c.235-.617-.01-.926-.289-1.035s-.519-.138-1.106.267l-.435.3a1.953,1.953,0,0,1-1.968.4,1.554,1.554,0,0,1-.716-2.171,3.99,3.99,0,0,1,.351-.721,3.15,3.15,0,0,1,.2-.286c.044-.06.072-.069.123-.05.2.092.328.153.9.375.119.045.156.082.136.134-.012.034-.042.052-.151.025a.97.97,0,0,0-.422-.027,1.077,1.077,0,0,0-.768.723c-.2.531.02.84.319.956a.971.971,0,0,0,.971-.222l.348-.247c.951-.677,1.462-.808,2.116-.556a1.417,1.417,0,0,1,.911,1.139,2.31,2.31,0,0,1-.156,1.235A2.8,2.8,0,0,1,33.507,1901.56Z" transform="translate(-26.38 -1871.651)" fill="#1a1311"/>
          <path id="Path_671" data-name="Path 671" d="M33.7,1899.879a2.524,2.524,0,0,1-2.2-.3,2.577,2.577,0,0,1-1.21-1.727,3.293,3.293,0,0,1,.566-2.341,6.106,6.106,0,0,1,.578-.8,5.547,5.547,0,0,0,.43-.546c.044-.062.081-.039.116-.017s.18.131.378.265.543.333.684.434c.086.059.133.1.1.158s-.081.04-.168-.005a1.036,1.036,0,0,0-.719-.121,1.942,1.942,0,0,0-1.1.978,1.489,1.489,0,0,0-.237,1.05,2.283,2.283,0,0,0,1.2,1.425c1.227.734,2.45.558,3.047-.444.294-.489.432-.818.309-1.208a1.085,1.085,0,0,0-.282-.434c-.106-.1-.138-.148-.109-.2s.086-.012.136.017a9.965,9.965,0,0,1,.827.672.229.229,0,0,1,.079.259,3.661,3.661,0,0,1-.474,1.106A3.768,3.768,0,0,1,33.7,1899.879Z" transform="translate(-24.628 -1875.877)" fill="#1a1311"/>
          <path id="Path_672" data-name="Path 672" d="M35.956,1894.128c.015-.015.017-.039-.007-.064l-.109-.1c-.793-.728-.879-.808-1.052-.948a.338.338,0,0,0-.474-.03c-.042.037-.119.109-.18.166-.064.072-.119.069-.138.052s-.03-.074.042-.148c.272-.3.711-.744.758-.8s.568-.647.768-.869c.072-.077.116-.084.146-.054s.027.072-.02.124c-.069.1-.1.126-.143.2-.1.151-.052.271.1.437s.289.284,1.082,1.013l.9.827c.487.447.864.793,1.1.966.183.138.306.177.474.05.074-.062.173-.161.227-.208s.1-.062.131-.039.012.089-.044.15c-.324.353-.812.857-.9.949s-.425.494-.654.743c-.086.092-.131.089-.161.062s-.017-.074.042-.141a2,2,0,0,0,.126-.178c.086-.146.017-.265-.131-.432-.2-.218-.509-.523-1-.97l-.415-.38a.039.039,0,0,0-.057,0L34.9,1896.1c-.015.017-.025.037,0,.059l.531.489c.486.447.7.635.938.815.163.121.3.165.469.034.114-.091.165-.138.222-.19s.106-.084.141-.052.027.074-.042.151c-.269.291-.837.882-.884.933s-.521.6-.672.758c-.052.057-.114.1-.151.072s-.037-.072.025-.138.074-.1.126-.177c.1-.138.007-.306-.138-.457-.2-.212-.548-.551-1.035-1l-.889-.817c-.793-.729-.916-.833-1.089-.973a.363.363,0,0,0-.528-.032c-.064.054-.089.079-.146.131-.089.087-.123.074-.151.05s0-.1.057-.153c.274-.3.652-.677.758-.8.18-.192.558-.637.761-.857.084-.094.119-.089.151-.062s.022.079-.035.141a1.851,1.851,0,0,0-.143.2c-.1.166,0,.3.136.445.151.168.361.36,1,.946l.106.1c.027.025.049.02.064,0Z" transform="translate(-22.611 -1879.999)" fill="#1a1311"/>
          <path id="Path_673" data-name="Path 673" d="M35.142,1894.06a2.7,2.7,0,0,1,.862-3.954,2.648,2.648,0,0,1,3.838.474,2.743,2.743,0,0,1-.753,4.016A2.71,2.71,0,0,1,35.142,1894.06Zm3.736-2.43c-.662-.946-1.808-1.746-2.815-1.04-.524.365-.906,1.067.037,2.415.756,1.077,1.926,1.793,2.9,1.106C39.357,1893.864,39.98,1893.2,38.878,1891.63Z" transform="translate(-18.208 -1882.672)" fill="#1a1311"/>
          <path id="Path_674" data-name="Path 674" d="M37.853,1891.812a2.7,2.7,0,0,1,1.7-3.672,2.646,2.646,0,0,1,3.64,1.3,2.743,2.743,0,0,1-1.608,3.754A2.711,2.711,0,0,1,37.853,1891.812Zm4.174-1.558c-.44-1.067-1.383-2.1-2.521-1.627-.59.244-1.116.844-.489,2.365.5,1.215,1.489,2.168,2.593,1.711C42.01,1892.538,42.76,1892.027,42.027,1890.253Z" transform="translate(-13.786 -1885.065)" fill="#1a1311"/>
          <path id="Path_675" data-name="Path 675" d="M43.174,1890.351a3.514,3.514,0,0,0,.365,1.3c.121.111.259.118.822,0a1.647,1.647,0,0,0,.763-.269.768.768,0,0,0,.237-.644c0-.079.007-.136.062-.146s.062.022.081.118a5.47,5.47,0,0,1,.059,1.03c-.017.188-.069.205-.343.262-.938.19-1.581.279-2.3.427-.321.064-.684.16-1.059.237-.094.02-.153.018-.165-.044-.007-.042.03-.069.123-.089s.156-.047.227-.074c.237-.092.217-.215.128-.766-.042-.274-.119-.684-.2-1.106l-.244-1.2c-.227-1.111-.259-1.232-.316-1.447-.054-.188-.123-.294-.3-.307a1.141,1.141,0,0,0-.274.02c-.074.015-.146.015-.156-.039s.054-.082.19-.114c.388-.079.746-.131,1.013-.186.059-.01.9-.205,1.146-.252.123-.025.168-.012.175.028.012.062-.052.089-.148.108a1.743,1.743,0,0,0-.225.077c-.178.072-.2.21-.163.452.03.219.052.358.279,1.482Z" transform="translate(-9.31 -1886.268)" fill="#1a1311"/>
        </g>
      </g>
      <g id="Group_306" data-name="Group 306" transform="translate(33.23 76.561)">
        <path id="Path_676" data-name="Path 676" d="M41.429,1919.232a2.352,2.352,0,0,0,.069-.282c.022-.1.04-.217.057-.345.131.007.257.01.383.015s.252,0,.375,0,.244,0,.365,0,.237-.007.353-.015a2.261,2.261,0,0,0-.077.311,2.7,2.7,0,0,0-.032.314l-.363-.01c-.123,0-.247,0-.373,0s-.252,0-.378,0S41.555,1919.228,41.429,1919.232Z" transform="translate(-41.429 -1916.467)" fill="#fff"/>
        <path id="Path_677" data-name="Path 677" d="M42.748,1921.6c.269-1.034.452-1.773.546-2.21a6.131,6.131,0,0,0,.148-.971c-.156.059-.3.118-.437.18s-.254.118-.358.176a1.61,1.61,0,0,0-.072-.183c-.027-.06-.057-.121-.089-.181.284-.079.575-.175.879-.289s.62-.242.951-.388l.1.079q-.241.893-.44,1.837t-.348,1.948c-.062-.01-.126-.017-.2-.022s-.151-.008-.24-.008-.175,0-.244.008S42.81,1921.594,42.748,1921.6Z" transform="translate(-39.876 -1917.739)" fill="#fff"/>
        <path id="Path_678" data-name="Path 678" d="M45.459,1919.9a.88.88,0,0,1-.272.148,1.088,1.088,0,0,1-.321.044,1.119,1.119,0,0,1-.778-.266.9.9,0,0,1-.3-.7,1.354,1.354,0,0,1,.373-1,1.335,1.335,0,0,1,.993-.375,1.249,1.249,0,0,1,.936.326,1.347,1.347,0,0,1,.316.968,3.252,3.252,0,0,1-.163,1.02,2.922,2.922,0,0,1-.452.879,1.894,1.894,0,0,1-.662.553,1.861,1.861,0,0,1-.845.188,1.53,1.53,0,0,1-.289-.025,1.549,1.549,0,0,1-.264-.067c-.007-.062-.017-.133-.032-.212s-.027-.16-.044-.245l.059-.015a.55.55,0,0,0,.19.247.494.494,0,0,0,.286.087.956.956,0,0,0,.763-.4A2.8,2.8,0,0,0,45.459,1919.9Zm-.412-.086a.506.506,0,0,0,.447-.331,1.988,1.988,0,0,0,.168-.889.767.767,0,0,0-.1-.442.357.357,0,0,0-.309-.146c-.178,0-.328.118-.454.353a1.842,1.842,0,0,0-.185.867.743.743,0,0,0,.106.442A.39.39,0,0,0,45.047,1919.811Z" transform="translate(-38.152 -1917.729)" fill="#fff"/>
        <path id="Path_679" data-name="Path 679" d="M45.978,1919.536a1.12,1.12,0,0,1,.309-.16,1.2,1.2,0,0,1,.356-.052,1.02,1.02,0,0,1,.736.269.917.917,0,0,1,.284.7,1.349,1.349,0,0,1-.393,1.015,1.421,1.421,0,0,1-1.04.383,1.132,1.132,0,0,1-.892-.348,1.466,1.466,0,0,1-.311-1.005,3.125,3.125,0,0,1,.21-1.126,2.549,2.549,0,0,1,.566-.906,1.929,1.929,0,0,1,.62-.415,1.885,1.885,0,0,1,.726-.146,1.848,1.848,0,0,1,.2.012c.072.01.146.022.225.039.025.077.047.146.064.207a1.355,1.355,0,0,1,.037.171l-.064.032a.6.6,0,0,0-.2-.163.529.529,0,0,0-.235-.052.9.9,0,0,0-.716.4A2.9,2.9,0,0,0,45.978,1919.536Zm.417.084a.509.509,0,0,0-.449.333,1.988,1.988,0,0,0-.17.894.773.773,0,0,0,.1.437.357.357,0,0,0,.311.143c.178,0,.328-.116.454-.354a1.848,1.848,0,0,0,.185-.866.739.739,0,0,0-.106-.442A.381.381,0,0,0,46.4,1919.62Z" transform="translate(-36.142 -1917.736)" fill="#fff"/>
        <path id="Path_680" data-name="Path 680" d="M47.326,1919.536a1.077,1.077,0,0,1,.667-.212,1.024,1.024,0,0,1,.736.269.926.926,0,0,1,.284.7,1.342,1.342,0,0,1-.4,1.015,1.415,1.415,0,0,1-1.037.383,1.128,1.128,0,0,1-.892-.348,1.466,1.466,0,0,1-.311-1.005,3.125,3.125,0,0,1,.21-1.126,2.515,2.515,0,0,1,.566-.906,1.9,1.9,0,0,1,.62-.415,1.875,1.875,0,0,1,.726-.146,1.928,1.928,0,0,1,.2.012c.069.01.143.022.222.039a2.16,2.16,0,0,1,.064.207,1.355,1.355,0,0,1,.037.171l-.064.032a.573.573,0,0,0-.2-.163.519.519,0,0,0-.232-.052.9.9,0,0,0-.719.4A2.969,2.969,0,0,0,47.326,1919.536Zm.42.084a.509.509,0,0,0-.449.333,1.952,1.952,0,0,0-.173.894.752.752,0,0,0,.1.437.355.355,0,0,0,.311.143c.178,0,.328-.116.452-.354a1.818,1.818,0,0,0,.188-.866.757.757,0,0,0-.106-.442A.381.381,0,0,0,47.746,1919.62Z" transform="translate(-34.156 -1917.736)" fill="#fff"/>
        <path id="Path_681" data-name="Path 681" d="M47.664,1919.232c.025-.084.049-.178.069-.282s.04-.217.057-.345c.128.007.257.01.383.015s.252,0,.375,0,.244,0,.365,0,.237-.007.353-.015a1.953,1.953,0,0,0-.077.311,1.93,1.93,0,0,0-.032.314l-.366-.01c-.121,0-.244,0-.37,0s-.252,0-.378,0S47.79,1919.228,47.664,1919.232Z" transform="translate(-32.266 -1916.467)" fill="#fff"/>
      </g>
    </g>
  </g>
</svg>
