<svg xmlns="http://www.w3.org/2000/svg" width="194.385" height="145.789" viewBox="0 0 194.385 145.789">
  <g id="Group_268" data-name="Group 268" transform="translate(-538.326 -1115.125)">
    <rect id="Rectangle_326" data-name="Rectangle 326" width="48.596" height="48.596" transform="translate(538.326 1115.125)" fill="#ffdb00"/>
    <rect id="Rectangle_327" data-name="Rectangle 327" width="48.596" height="48.596" transform="translate(586.922 1115.125)" fill="#e33d2a"/>
    <rect id="Rectangle_328" data-name="Rectangle 328" width="48.596" height="48.596" transform="translate(538.326 1212.318)" fill="#b7c6dc"/>
    <rect id="Rectangle_329" data-name="Rectangle 329" width="48.596" height="48.596" transform="translate(635.518 1163.721)" fill="#ffdb00"/>
    <rect id="Rectangle_330" data-name="Rectangle 330" width="7.223" height="48.596" transform="translate(732.711 1115.125) rotate(90)" fill="#e33d2a"/>
    <rect id="Rectangle_331" data-name="Rectangle 331" width="7.223" height="48.596" transform="translate(732.711 1135.812) rotate(90)" fill="#e33d2a"/>
    <rect id="Rectangle_332" data-name="Rectangle 332" width="7.223" height="48.596" transform="translate(732.711 1156.498) rotate(90)" fill="#e33d2a"/>
    <rect id="Rectangle_333" data-name="Rectangle 333" width="7.223" height="48.596" transform="translate(635.518 1212.318)" fill="#b7c6dc"/>
    <rect id="Rectangle_334" data-name="Rectangle 334" width="7.223" height="48.596" transform="translate(656.205 1212.318)" fill="#b7c6dc"/>
    <rect id="Rectangle_335" data-name="Rectangle 335" width="7.223" height="48.596" transform="translate(676.892 1212.318)" fill="#b7c6dc"/>
    <rect id="Rectangle_336" data-name="Rectangle 336" width="7.223" height="48.596" transform="translate(586.922 1212.318) rotate(-90)" fill="#003265"/>
    <rect id="Rectangle_337" data-name="Rectangle 337" width="7.223" height="48.596" transform="translate(586.922 1191.631) rotate(-90)" fill="#003265"/>
    <rect id="Rectangle_338" data-name="Rectangle 338" width="7.223" height="48.596" transform="translate(586.922 1170.944) rotate(-90)" fill="#003265"/>
    <rect id="Rectangle_339" data-name="Rectangle 339" width="7.223" height="48.596" transform="translate(684.115 1260.914) rotate(-90)" fill="#003265"/>
    <rect id="Rectangle_340" data-name="Rectangle 340" width="7.223" height="48.596" transform="translate(684.115 1240.227) rotate(-90)" fill="#003265"/>
    <rect id="Rectangle_341" data-name="Rectangle 341" width="7.223" height="48.596" transform="translate(684.115 1219.541) rotate(-90)" fill="#003265"/>
  </g>
</svg>
