<svg xmlns="http://www.w3.org/2000/svg" xmlns:xlink="http://www.w3.org/1999/xlink" width="153.136" height="149.374" viewBox="0 0 153.136 149.374">
  <defs>
    <clipPath id="clip-path">
      <rect id="Rectangle_306" data-name="Rectangle 306" width="153.136" height="149.374" transform="translate(733 297.467) rotate(180)" fill="none"/>
    </clipPath>
  </defs>
  <g id="Group_240" data-name="Group 240" transform="translate(-579.864 -148.093)">
    <g id="Group_239" data-name="Group 239" clip-path="url(#clip-path)">
      <g id="Group_238" data-name="Group 238">
        <path id="Path_501" data-name="Path 501" d="M733,418.636a62.423,62.423,0,0,1-61.338-50.815l-1.422-7.555-7.571-1.335a62.423,62.423,0,0,1,0-122.928l7.571-1.335,1.422-7.556A62.422,62.422,0,0,1,733,176.3V165.183a73.559,73.559,0,0,0-72.261,59.874,73.538,73.538,0,0,0,0,144.82A73.558,73.558,0,0,0,733,429.75Z" fill="#00935f"/>
        <path id="Path_502" data-name="Path 502" d="M733,396.408a40.18,40.18,0,0,1-39.493-32.7l-4.266-22.667-22.713-4.005a40.195,40.195,0,0,1,0-79.146l22.715-4.005,4.266-22.667A40.18,40.18,0,0,1,733,198.526" fill="#ffdb00"/>
      </g>
    </g>
  </g>
</svg>
