<svg xmlns="http://www.w3.org/2000/svg" width="13.642" height="13.642" viewBox="0 0 13.642 13.642">
  <g id="Solid" transform="translate(0)">
    <path id="Path_742" data-name="Path 742" d="M144.358,34.613a.706.706,0,0,0,1,0l2.661-2.661a.706.706,0,1,0-1-1l-1.456,1.456v-7.7a.706.706,0,1,0-1.411,0v7.7L142.7,30.954a.706.706,0,1,0-1,1Z" transform="translate(-138.036 -24)"/>
    <path id="Path_743" data-name="Path 743" d="M36.936,232a.706.706,0,0,0-.706.706v5.41H25.411v-5.41a.706.706,0,1,0-1.411,0v5.645a1.176,1.176,0,0,0,1.176,1.176h11.29a1.176,1.176,0,0,0,1.176-1.176v-5.645A.706.706,0,0,0,36.936,232Z" transform="translate(-24 -225.885)"/>
  </g>
</svg>
