<svg xmlns="http://www.w3.org/2000/svg" width="33.68" height="39.565" viewBox="0 0 33.68 39.565">
  <g id="Group_307" data-name="Group 307" transform="translate(-27.973 -1886.737)">
    <g id="Group_300" data-name="Group 300">
      <path id="Path_634" data-name="Path 634" d="M44.812,1923.484a13.988,13.988,0,0,1-13.971-13.972v-5.525a13.971,13.971,0,1,1,27.942,0v5.525A13.987,13.987,0,0,1,44.812,1923.484Zm0-32.892a13.41,13.41,0,0,0-13.4,13.4v5.525a13.4,13.4,0,1,0,26.79,0v-5.525A13.41,13.41,0,0,0,44.812,1890.592Z" fill="#00935f"/>
    </g>
    <path id="Path_635" data-name="Path 635" d="M44.812,1921.781a12.283,12.283,0,0,1-12.268-12.269v-5.525a12.268,12.268,0,1,1,24.536,0v5.525A12.282,12.282,0,0,1,44.812,1921.781Z" fill="#00935f"/>
    <g id="Group_303" data-name="Group 303">
      <path id="Path_636" data-name="Path 636" d="M44.812,1902.1a3.9,3.9,0,1,0,3.9,3.9A3.9,3.9,0,0,0,44.812,1902.1Zm0,5.473a1.576,1.576,0,1,1,1.576-1.576A1.576,1.576,0,0,1,44.812,1907.571Z" fill="#fff"/>
      <g id="Group_301" data-name="Group 301">
        <path id="Path_637" data-name="Path 637" d="M54.391,1905.35v-2.321h-2.4a7.81,7.81,0,0,0-4.21-4.209v-2.4H45.457v4.174a5.454,5.454,0,0,1,4.76,4.76Z" fill="#fff"/>
        <path id="Path_638" data-name="Path 638" d="M45.457,1915.574h2.321v-2.4a7.811,7.811,0,0,0,4.21-4.209h2.4v-2.321H50.217a5.454,5.454,0,0,1-4.76,4.76Z" fill="#fff"/>
      </g>
      <g id="Group_302" data-name="Group 302">
        <path id="Path_639" data-name="Path 639" d="M39.407,1906.64a5.455,5.455,0,0,0,4.76,4.76v4.174H41.846v-2.4a7.806,7.806,0,0,1-4.209-4.209h-2.4v-2.321Z" fill="#fff"/>
        <path id="Path_640" data-name="Path 640" d="M35.234,1905.35v-2.321h2.4a7.805,7.805,0,0,1,4.209-4.209v-2.4h2.321v4.174a5.455,5.455,0,0,0-4.76,4.76Z" fill="#fff"/>
      </g>
    </g>
    <g id="Group_305" data-name="Group 305">
      <g id="Group_304" data-name="Group 304">
        <path id="Path_641" data-name="Path 641" d="M45.794,1887.773c.166-.131.415-.354.656-.586.1-.1.16-.174.164-.219s-.008-.049-.074-.068c-.025-.005-.047-.012-.046-.032s.016-.024.047-.021c.126.01.137.017.3.029s.368.023.4.025.059.011.057.03-.016.024-.052.024a.938.938,0,0,0-.1.009.755.755,0,0,0-.381.213c-.139.114-.482.417-.561.49a10.763,10.763,0,0,0,.688.988,1.251,1.251,0,0,0,.275.278.4.4,0,0,0,.126.046c.039.006.058.014.056.036s-.027.023-.058.021l-.275-.022c-.37-.028-.5-.075-.627-.243a9.707,9.707,0,0,1-.6-.919l-.019.246c-.017.219-.034.475-.032.593,0,.071.014.143.108.164.039.009.084.015.12.021s.047.018.046.032-.014.027-.056.024c-.185-.015-.485-.047-.51-.049s-.334-.017-.427-.025c-.036,0-.056-.01-.054-.032s.022-.027.053-.024.056,0,.088,0c.087-.007.1-.074.116-.154.021-.117.041-.313.063-.585l.038-.494c.034-.435.04-.513.039-.6s-.026-.132-.093-.151c-.041-.012-.078-.014-.105-.02s-.059-.01-.057-.035.024-.023.078-.019c.12.01.406.041.425.042s.366.02.467.027c.047,0,.058.016.057.03s-.017.027-.053.027l-.085,0c-.1.006-.121.07-.134.159s-.02.145-.054.58Z" fill="#1a1311"/>
        <path id="Path_642" data-name="Path 642" d="M48.415,1887.982c.1-.424.124-.5.138-.593s-.005-.134-.062-.16a.557.557,0,0,0-.08-.031c-.032-.008-.049-.024-.044-.043s.02-.021.066-.009c.11.027.375.1.4.107l.448.1c.046.012.057.026.053.042s-.032.022-.059.015-.044-.008-.081-.011c-.075,0-.111.025-.14.121s-.048.157-.153.58l-.118.481c-.054.216-.114.471-.132.588-.011.073-.007.126.07.165a.823.823,0,0,0,.117.043c.046.012.054.026.05.042s-.02.024-.064.013c-.186-.046-.476-.126-.5-.132s-.3-.067-.4-.089c-.043-.011-.064-.022-.059-.044s.029-.022.062-.014.056.008.087.01c.06.006.094-.049.121-.126.04-.112.094-.308.16-.575Z" fill="#1a1311"/>
        <path id="Path_643" data-name="Path 643" d="M50.715,1887.9c.036-.076.067-.118.1-.1s.03.022.073.106c.068.138.145.326.494,1.126.156.358.257.609.3.7l.411-.971c.059-.146.076-.219-.019-.283a1.173,1.173,0,0,0-.107-.063c-.034-.015-.041-.033-.035-.046s.034-.015.063,0c.1.046.266.128.369.173.056.025.189.075.3.123.038.017.053.033.046.048s-.026.023-.056.009a.377.377,0,0,0-.068-.02c-.09-.028-.135.005-.213.161-.25.507-.478,1.022-.717,1.534-.058.131-.089.151-.122.136s-.093-.115-.2-.335-.242-.536-.334-.745-.236-.551-.343-.817l-.363.889c-.076.187-.1.261-.036.318a.7.7,0,0,0,.128.079c.037.02.047.033.04.048s-.032.017-.073,0c-.09-.04-.17-.082-.328-.155-.059-.026-.253-.1-.353-.147-.036-.016-.055-.031-.046-.051s.025-.02.061,0,.057.022.088.03c.107.029.148-.03.262-.265C50.283,1888.845,50.552,1888.223,50.715,1887.9Z" fill="#1a1311"/>
        <path id="Path_644" data-name="Path 644" d="M54.756,1892.222c-.091.16-.111.233-.054.311a.86.86,0,0,0,.113.117c.03.022.038.038.026.054s-.035.009-.071-.018c-.186-.14-.369-.276-.615-.482-.041-.035-.04-.055-.032-.066a.035.035,0,0,1,.042,0c.046.013.059,0,.126-.106l.523-.867-1.115.521c-.147.069-.171.073-.189.059s-.021-.051-.01-.2c.016-.185.071-.545.094-.753.01-.094.05-.352.064-.461l-.541.586c-.081.09-.118.139-.144.173a.109.109,0,0,0,0,.162.852.852,0,0,0,.075.074c.034.025.036.037.026.051s-.028.018-.064-.009c-.1-.075-.218-.174-.285-.225s-.181-.125-.264-.187c-.023-.017-.05-.037-.033-.06s.031-.012.062.011.045.03.073.044c.075.036.136,0,.27-.131l1.243-1.23c.06-.06.09-.069.113-.052s.023.053.019.158l-.165,1.56,1.433-.626c.08-.032.115-.041.137-.024s.012.059-.023.12Z" fill="#1a1311"/>
        <path id="Path_645" data-name="Path 645" d="M56.386,1892.525c.342-.306.382-.345.445-.409s.076-.11.042-.173a.911.911,0,0,0-.056-.075c-.022-.029-.023-.047-.011-.059s.031,0,.061.03c.106.119.19.225.272.318l.531.589a.939.939,0,0,0,.109.106.23.23,0,0,1,.039.026c.009.01,0,.02-.008.029s-.035.024-.1.072c-.047.031-.124.093-.239.185-.016.015-.037.018-.048.005s-.006-.028.011-.048a.338.338,0,0,0,.064-.076c.039-.054.041-.105-.04-.213-.056-.075-.214-.261-.271-.324-.011-.013-.021-.011-.036,0l-.461.412c-.015.013-.023.025-.01.039.05.061.2.229.274.3.1.1.127.121.185.11.03,0,.044-.005.053.005s0,.024-.014.035-.1.076-.193.143c-.05.041-.153.133-.176.153s-.045.03-.056.017,0-.032.013-.053l.042-.049c.053-.063.063-.124-.023-.233-.048-.062-.2-.238-.255-.3-.01-.01-.022,0-.039.012l-.145.129c-.071.064-.2.173-.274.246-.145.133-.153.192.056.425a.729.729,0,0,0,.2.172c.075.039.144.023.257-.045.029-.018.049-.021.061-.008s-.005.037-.03.06a2.2,2.2,0,0,1-.311.217c-.067.034-.083.022-.152-.056-.258-.289-.386-.458-.583-.678-.088-.1-.173-.181-.276-.3-.034-.038-.039-.056-.024-.069s.03-.009.058.023a.637.637,0,0,0,.065.055c.061.052.148-.011.284-.125.087-.071.213-.179.343-.3Z" fill="#1a1311"/>
        <path id="Path_646" data-name="Path 646" d="M58.669,1894.177c.074-.041.123-.058.141-.029s.011.036,0,.129c-.024.152-.069.35-.245,1.207-.079.382-.141.645-.16.745l.9-.557c.132-.085.187-.135.146-.242a.883.883,0,0,0-.051-.113c-.019-.032-.014-.051,0-.058s.037.007.053.034c.058.1.145.258.2.355.032.053.112.169.173.27.021.036.024.057.01.066s-.034,0-.051-.025a.376.376,0,0,0-.044-.056c-.057-.074-.113-.073-.267.009-.5.271-.979.561-1.47.842-.124.073-.16.073-.179.041s-.01-.148.033-.387.111-.578.157-.8c.042-.209.124-.586.19-.865l-.809.518c-.171.108-.23.157-.214.239a.75.75,0,0,0,.06.138c.019.038.019.054,0,.063s-.035-.005-.058-.043c-.051-.085-.092-.165-.18-.316-.033-.055-.147-.23-.2-.324-.02-.034-.027-.056-.007-.068s.031,0,.051.032.034.051.055.075c.071.086.139.061.368-.066C57.77,1894.7,58.349,1894.349,58.669,1894.177Z" fill="#1a1311"/>
        <path id="Path_647" data-name="Path 647" d="M59.168,1899.351a1.022,1.022,0,0,1,.719-.542,1.043,1.043,0,0,1,.84.153,1.335,1.335,0,0,1,.5.835,2.586,2.586,0,0,1,.063.4,2.379,2.379,0,0,0,.03.279c0,.031-.011.035-.028.039s-.089.013-.183.031-.252.059-.322.07c-.042.007-.068.008-.074-.017s.012-.034.05-.046a.424.424,0,0,0,.242-.17.787.787,0,0,0,.036-.594.6.6,0,0,0-.23-.37.926.926,0,0,0-.75-.07c-.563.138-.864.537-.752,1,.055.224.109.359.255.436a.445.445,0,0,0,.2.045c.061,0,.082,0,.088.025s-.022.028-.044.034a4.105,4.105,0,0,1-.43.042.094.094,0,0,1-.1-.052,1.485,1.485,0,0,1-.178-.454A1.531,1.531,0,0,1,59.168,1899.351Z" fill="#1a1311"/>
        <path id="Path_648" data-name="Path 648" d="M60.486,1901.8a1.1,1.1,0,0,1,1.155,1.164,1.071,1.071,0,0,1-1.007,1.2,1.11,1.11,0,0,1-1.2-1.139A1.1,1.1,0,0,1,60.486,1901.8Zm0,1.8c.467-.017.991-.23.973-.728-.009-.259-.163-.543-.83-.519-.531.019-1.032.26-1.015.744C59.625,1903.271,59.714,1903.628,60.49,1903.6Z" fill="#1a1311"/>
        <path id="Path_649" data-name="Path 649" d="M61.518,1905.342c.084,0,.135.014.135.048s-.009.036-.068.11c-.1.118-.239.264-.829.908-.265.287-.453.481-.521.557l1.055-.017c.158-.006.231-.02.25-.132a.748.748,0,0,0,.014-.124c0-.036.014-.05.028-.05s.029.025.029.056c0,.112-.009.3-.009.408,0,.061.009.2.009.32,0,.042-.009.062-.026.062s-.031-.014-.031-.048a.28.28,0,0,0-.008-.07c-.011-.093-.059-.121-.234-.13-.565-.022-1.127-.022-1.693-.033-.143,0-.174-.02-.174-.057s.068-.132.228-.314.391-.439.546-.608.407-.439.607-.644l-.959.028c-.2.006-.278.017-.306.1a.633.633,0,0,0-.02.149c0,.042-.012.056-.028.056s-.028-.023-.028-.067c0-.1.005-.189.008-.363,0-.065-.008-.273-.008-.383,0-.039.005-.062.028-.062s.028.014.028.054c0,.025,0,.062.008.093.017.109.087.123.349.132C60.477,1905.331,61.155,1905.325,61.518,1905.342Z" fill="#1a1311"/>
        <path id="Path_650" data-name="Path 650" d="M60.3,1909.519c-.219,0-.481,0-.6.015-.073,0-.132.025-.146.109-.006.037-.009.071-.014.121s-.012.057-.031.057-.025-.014-.025-.065c0-.191.008-.464.008-.509s-.008-.321-.008-.414c0-.045.005-.064.028-.064s.028.022.028.056.005.059.011.09c.011.062.073.082.155.09.118.011.32.017.593.017h1.1c0-.11,0-.284-.005-.425-.009-.157-.045-.219-.143-.256-.032-.014-.048-.019-.065-.025s-.045-.014-.045-.034.022-.025.056-.022c.115.011.267.042.374.062.042.005.07.014.07.03a.787.787,0,0,1-.022.1,2.2,2.2,0,0,0-.02.312v1.223a1.108,1.108,0,0,0,.012.178.743.743,0,0,1,.016.087c0,.025-.016.028-.087.028-.039,0-.3-.017-.371-.019-.04,0-.056-.012-.056-.029s.016-.028.05-.031a.424.424,0,0,0,.056-.005c.088-.011.155-.054.166-.22.009-.093.014-.239.014-.453Z" fill="#1a1311"/>
        <path id="Path_651" data-name="Path 651" d="M60.685,1911.495c.43.073.486.077.575.089.115.014.157-.013.182-.077.015-.041.023-.085.03-.109s.022-.048.039-.045.021.024.014.065c-.02.119-.073.384-.08.423s-.046.32-.068.448a1.2,1.2,0,0,1-.19.549.477.477,0,0,1-.467.18.657.657,0,0,1-.494-.466c-.273.128-.6.28-.827.416-.188.119-.246.177-.271.253-.01.03-.013.046-.02.068s-.019.045-.036.043-.022-.033-.018-.061l.043-.249a.88.88,0,0,1,.177-.489,1.065,1.065,0,0,1,.4-.227c.232-.091.357-.136.44-.173a.044.044,0,0,0,.022-.031l.031-.182c0-.014,0-.023-.018-.026L60,1911.87a4.157,4.157,0,0,0-.468-.066c-.074-.006-.138,0-.171.082a.682.682,0,0,0-.038.122c-.01.044-.022.048-.039.045s-.022-.023-.015-.063c.031-.185.091-.486.094-.505s.044-.3.059-.4c.007-.042.018-.054.038-.051s.024.024.019.055,0,.065,0,.1c0,.058.051.088.143.113.115.031.308.066.577.112Zm-.267.445a.04.04,0,0,0-.045.018.5.5,0,0,0-.073.208.278.278,0,0,0,.015.182.461.461,0,0,0,.331.167c.393.067.538-.165.563-.309a.372.372,0,0,0,.008-.113c0-.012-.006-.018-.028-.022Z" fill="#1a1311"/>
        <path id="Path_652" data-name="Path 652" d="M59.366,1914.541a.528.528,0,0,0,.31.03c.215-.032.746-.135.914-.175.19-.045.235-.061.292-.136a.478.478,0,0,0,.038-.064c.012-.026.028-.035.044-.029s.016.03,0,.061c-.039.109-.12.3-.156.4-.017.045-.069.215-.13.381-.011.029-.024.048-.04.042s-.021-.023-.015-.065c.018-.074,0-.095-.025-.1a.183.183,0,0,0-.087,0c-.091.014-.8.13-.893.144.245.272.457.511.544.6a.389.389,0,0,0,.119.091c.03.01.059,0,.1-.071.014-.022.03-.04.048-.033s.018.024,0,.067c-.04.108-.08.2-.117.3-.014.037-.085.256-.1.307-.012.031-.025.051-.043.044s-.022-.029-.01-.065a.466.466,0,0,0,.017-.111.358.358,0,0,0-.081-.2,7.737,7.737,0,0,0-.685-.821.825.825,0,0,0-.235-.134l-.188-.068c-.042-.016-.15-.055-.264-.088-.068-.019-.136-.038-.19.053-.028.044-.047.1-.069.14s-.026.038-.044.031-.019-.021-.005-.06c.07-.19.158-.407.189-.494s.1-.294.142-.413c.013-.037.03-.049.048-.042s.018.025.007.056a.643.643,0,0,0-.021.1c-.006.076.035.109.11.142.108.049.226.095.268.11Z" fill="#1a1311"/>
        <path id="Path_653" data-name="Path 653" d="M57.494,1918.375c-.232-.163-.393-.287-.469-.281s-.108.036-.243.227a.676.676,0,0,0-.149.291.31.31,0,0,0,.109.255c.02.024.036.042.023.06s-.025.01-.057-.011a2.23,2.23,0,0,1-.3-.286c-.047-.061-.036-.081.028-.173.224-.317.388-.522.56-.766.076-.108.156-.237.245-.363.023-.032.04-.048.061-.033s.011.028-.012.06-.032.057-.045.085c-.045.093-.005.124.174.26.089.07.225.169.368.269l.4.285c.375.264.418.291.495.338s.118.052.175.006a.527.527,0,0,0,.074-.082c.018-.025.039-.045.057-.032s.007.039-.025.085c-.093.131-.184.246-.247.336-.014.02-.208.31-.266.394-.03.041-.046.05-.06.04s-.009-.04.014-.073a.575.575,0,0,0,.045-.084c.033-.07,0-.117-.077-.179s-.115-.091-.5-.358Z" fill="#1a1311"/>
        <path id="Path_654" data-name="Path 654" d="M56.606,1920.278c.317.3.376.355.448.411s.119.063.169.025a.5.5,0,0,0,.067-.053c.023-.025.044-.031.059-.018s.009.028-.024.062c-.077.082-.273.277-.288.293s-.24.265-.309.339c-.033.035-.051.037-.063.026s0-.038.016-.058.029-.035.05-.065c.04-.063.033-.109-.037-.182s-.113-.119-.43-.418l-.36-.34c-.161-.153-.354-.33-.447-.4a.129.129,0,0,0-.178-.021,1.049,1.049,0,0,0-.1.08c-.033.035-.049.035-.061.024s-.011-.03.02-.063c.131-.139.344-.352.361-.37s.207-.231.273-.3c.031-.033.05-.045.066-.03s.006.036-.018.06-.034.045-.052.071c-.034.049,0,.106.051.168.078.089.222.233.422.422Z" fill="#1a1311"/>
        <path id="Path_655" data-name="Path 655" d="M55.082,1921.745c.283.361.32.4.38.471s.1.083.17.053c.023-.011.054-.036.078-.051s.048-.02.059-.007,0,.03-.033.058c-.126.1-.238.176-.335.252l-.623.492a.877.877,0,0,0-.112.1.189.189,0,0,1-.029.037c-.011.008-.02,0-.029-.01s-.021-.036-.065-.106c-.028-.049-.084-.13-.168-.25-.014-.017-.015-.038,0-.048s.029-.005.046.013a.4.4,0,0,0,.072.069c.051.042.1.048.216-.026.078-.051.274-.2.34-.25.014-.01.013-.02,0-.036l-.382-.486c-.012-.016-.023-.025-.038-.013-.064.046-.242.189-.32.254-.1.089-.128.118-.121.177,0,.031,0,.045-.009.053s-.023,0-.034-.016-.069-.11-.13-.2c-.037-.053-.122-.161-.141-.185s-.027-.048-.013-.058.032,0,.052.016l.046.046c.059.057.12.071.233-.008.066-.044.251-.182.32-.236.011-.008,0-.021-.01-.039l-.12-.153c-.058-.075-.159-.207-.227-.289-.123-.154-.182-.165-.428.028a.789.789,0,0,0-.185.188c-.043.073-.031.142.029.26.016.03.018.05,0,.06s-.037-.006-.058-.033a2.337,2.337,0,0,1-.2-.324c-.029-.07-.016-.084.066-.149.306-.239.482-.356.715-.538.1-.081.191-.161.313-.256.04-.032.058-.035.071-.02s.006.031-.027.057a.569.569,0,0,0-.06.061c-.055.057,0,.148.107.291.065.092.165.225.273.362Z" fill="#1a1311"/>
        <path id="Path_656" data-name="Path 656" d="M51.692,1923.868a.018.018,0,0,0-.006.025l.027.053c.2.387.222.43.268.507a.135.135,0,0,0,.175.078c.022-.008.06-.025.092-.038s.055-.009.06,0,0,.031-.037.05c-.145.075-.374.183-.4.2s-.307.167-.414.222c-.038.02-.055.016-.063,0s0-.032.025-.044c.04-.027.055-.035.082-.055.06-.044.058-.1.024-.181s-.069-.147-.268-.535l-.227-.44c-.122-.238-.217-.423-.283-.522-.05-.078-.092-.111-.174-.085-.037.013-.089.037-.115.047s-.049.009-.055,0,.007-.036.037-.051c.173-.089.429-.211.474-.234s.231-.129.354-.191c.045-.024.062-.016.069,0s0,.03-.036.047a.66.66,0,0,0-.072.05c-.054.043-.044.1-.011.182.044.11.12.27.242.508l.1.2a.017.017,0,0,0,.023.007l.781-.4a.016.016,0,0,0,.007-.023l-.134-.26c-.122-.238-.177-.339-.242-.441-.045-.069-.092-.1-.173-.079-.057.02-.083.03-.112.042s-.051.016-.06,0,0-.031.037-.051c.143-.073.441-.217.466-.23s.282-.154.362-.195c.027-.015.058-.024.067-.006s0,.033-.029.049-.042.028-.072.05c-.056.039-.046.115-.012.193.047.109.131.286.254.524l.223.435c.2.388.232.445.278.522s.1.118.2.086c.032-.011.045-.017.074-.029.046-.02.057-.01.064,0s-.016.037-.044.051c-.145.074-.341.166-.4.2-.095.049-.3.165-.409.22-.045.023-.057.017-.065,0s0-.032.032-.048a.833.833,0,0,0,.082-.055c.06-.05.043-.114.011-.189s-.086-.186-.247-.5l-.027-.053a.017.017,0,0,0-.024-.009Z" fill="#1a1311"/>
        <path id="Path_657" data-name="Path 657" d="M49.211,1924.577c-.1.031-.116.025-.122.006s.019-.053.129-.123a5.3,5.3,0,0,0,.523-.351c.068-.057.1-.1.127-.111s.029.017.033.049l.034.245c.007.051,0,.057-.048.072Z" fill="#1a1311"/>
        <path id="Path_658" data-name="Path 658" d="M47.672,1924.625a.533.533,0,0,0,.129.283c.135.171.487.581.606.707.133.142.169.173.263.186a.609.609,0,0,0,.074,0c.028,0,.044.007.047.024s-.018.028-.051.035c-.114.019-.323.046-.429.064-.047.009-.22.047-.394.076-.031.005-.054,0-.057-.013s.009-.03.049-.046c.074-.021.08-.05.076-.073a.189.189,0,0,0-.041-.075c-.058-.073-.51-.629-.569-.7-.114.348-.217.651-.25.771a.352.352,0,0,0-.02.149c.005.03.026.052.111.052.026,0,.05.006.053.025s-.012.028-.057.036c-.113.02-.209.028-.314.046-.039.006-.265.054-.318.063-.033.005-.056,0-.059-.016s.014-.034.05-.041a.464.464,0,0,0,.1-.04.352.352,0,0,0,.131-.168,7.789,7.789,0,0,0,.373-1,.832.832,0,0,0,0-.271l-.034-.2c-.008-.044-.027-.158-.055-.273-.018-.068-.035-.136-.141-.138a1.537,1.537,0,0,0-.155.009c-.034,0-.047,0-.05-.023s.01-.027.051-.034c.2-.034.431-.065.523-.081s.3-.061.428-.082c.039-.007.057,0,.061.021s-.013.028-.046.034a.568.568,0,0,0-.1.03c-.068.032-.076.085-.068.166.011.118.03.243.038.287Z" fill="#1a1311"/>
        <path id="Path_659" data-name="Path 659" d="M44.937,1925.053c.006-.388-.051-.552-.2-.664a.526.526,0,0,0-.591.016c-.159.132-.164.428-.168.717l-.006.338c-.006.413-.007.486,0,.576,0,.107.026.155.118.174.031.006.048.006.1.013.037,0,.051.012.05.028s-.014.029-.065.028c-.16,0-.332-.013-.377-.014s-.233.005-.371,0c-.042,0-.059-.009-.059-.029s.012-.025.049-.027a.858.858,0,0,0,.087-.01c.076-.013.1-.055.11-.17.007-.09.011-.163.017-.577l0-.275a1.057,1.057,0,0,1,.3-.884.894.894,0,0,1,.588-.177,1,1,0,0,1,.666.2.871.871,0,0,1,.25.738l-.006.427c-.007.436-.008.515,0,.6s.021.116.085.137a.729.729,0,0,0,.12.021c.042,0,.059.015.059.032s-.023.025-.076.025c-.121,0-.4-.015-.43-.015s-.358,0-.459,0c-.048,0-.062-.009-.062-.026s.015-.028.052-.03.064-.005.093-.01c.079-.016.094-.074.1-.164s.012-.222.017-.582Z" fill="#1a1311"/>
        <path id="Path_660" data-name="Path 660" d="M40.34,1924.278a2.636,2.636,0,0,1,.276-.722,1.221,1.221,0,0,1,.717-.444,1.079,1.079,0,0,1,.16-.031.119.119,0,0,1,.065,0,.022.022,0,0,1,.018.028c0,.014-.032.029-.079.042a.656.656,0,0,0-.178.082c-.188.119-.251.291-.451,1l-.194.693c-.118.419-.139.495-.155.584a.132.132,0,0,0,.072.169c.036.016.076.03.1.041s.049.023.043.045-.02.02-.066.008c-.117-.033-.415-.125-.437-.131s-.348-.089-.448-.118c-.046-.013-.06-.026-.056-.042s.027-.022.063-.015.041.009.081.014c.093.009.124-.047.153-.132s.048-.138.166-.558Z" fill="#1a1311"/>
        <path id="Path_661" data-name="Path 661" d="M38.538,1923.737c.165-.351.182-.524.088-.689a.463.463,0,0,0-.221-.191.469.469,0,0,0-.324-.038c-.2.055-.326.322-.449.585l-.144.3c-.176.374-.207.441-.241.525-.04.1-.04.151.037.206a.986.986,0,0,0,.089.055c.033.015.041.031.034.047s-.025.019-.071,0c-.145-.069-.3-.149-.337-.169s-.215-.091-.34-.151c-.038-.018-.049-.033-.041-.051s.021-.018.055-.005a.525.525,0,0,0,.084.027c.075.02.113-.009.169-.109.044-.08.078-.144.254-.519l.117-.249c.137-.29.3-.6.638-.682a.887.887,0,0,1,.609.081,1.006,1.006,0,0,1,.526.455.876.876,0,0,1-.076.776l-.182.387c-.186.4-.22.466-.25.551s-.029.114.021.159a.711.711,0,0,0,.1.07c.037.02.048.038.041.053s-.032.013-.08-.009c-.11-.051-.363-.18-.386-.191s-.327-.144-.419-.188c-.043-.021-.052-.034-.045-.049s.025-.02.059-.007.061.023.089.03c.079.018.116-.03.16-.109s.1-.2.255-.523Z" fill="#1a1311"/>
        <path id="Path_662" data-name="Path 662" d="M35.462,1923.364c-.053.066-.093.1-.119.079s-.024-.029-.047-.12c-.034-.15-.066-.35-.221-1.21-.068-.384-.109-.652-.128-.751l-.625.849c-.091.129-.124.2-.046.28a1.04,1.04,0,0,0,.09.086c.029.022.032.042.023.053s-.037.007-.062-.011c-.089-.068-.23-.186-.319-.254-.05-.037-.167-.116-.261-.188-.033-.025-.044-.044-.034-.057s.03-.016.057,0a.387.387,0,0,0,.061.036c.081.047.132.026.244-.108.36-.436.7-.884,1.052-1.327.087-.114.121-.127.15-.1s.065.134.113.372.113.577.154.8.1.59.145.873l.558-.78c.118-.165.155-.232.109-.3a.714.714,0,0,0-.107-.106c-.032-.028-.038-.043-.028-.056s.035-.009.071.018c.079.06.147.119.284.226.052.04.222.159.31.225.031.024.045.042.032.06s-.028.014-.06-.01-.051-.035-.079-.049c-.1-.053-.151-.006-.316.2C36.1,1922.543,35.695,1923.086,35.462,1923.364Z" fill="#1a1311"/>
        <path id="Path_663" data-name="Path 663" d="M33.3,1920.579c-.318.3-.378.354-.438.422a.132.132,0,0,0-.036.168.581.581,0,0,0,.05.069c.023.025.028.047.014.06s-.028.007-.061-.028c-.077-.082-.259-.29-.274-.306s-.251-.256-.32-.329c-.032-.035-.034-.053-.021-.065s.038,0,.057.02.033.031.061.054c.061.044.107.04.185-.025s.125-.106.443-.4l.362-.339c.163-.151.352-.332.431-.421a.131.131,0,0,0,.032-.176.916.916,0,0,0-.075-.1c-.032-.035-.032-.051-.019-.063s.03-.009.06.024c.131.14.33.366.348.384s.217.221.283.291c.03.033.042.053.025.068s-.036,0-.059-.021a.794.794,0,0,0-.068-.057c-.046-.037-.1-.009-.17.04-.094.073-.246.207-.448.4Z" fill="#1a1311"/>
        <path id="Path_664" data-name="Path 664" d="M32.3,1919.094a1.1,1.1,0,0,1-1.59-.4,1.072,1.072,0,0,1,.239-1.548,1.111,1.111,0,0,1,1.616.353A1.1,1.1,0,0,1,32.3,1919.094Zm-.938-1.542c-.39.257-.728.711-.455,1.127.142.217.421.38.979.014.444-.292.748-.757.482-1.162C32.274,1917.385,32.013,1917.126,31.364,1917.552Z" fill="#1a1311"/>
        <path id="Path_665" data-name="Path 665" d="M30.215,1916.045c-.406.161-.456.187-.539.223-.105.048-.127.093-.115.161a1.01,1.01,0,0,0,.032.108c.01.033,0,.053-.01.059s-.031-.009-.047-.048c-.045-.113-.137-.367-.151-.4s-.128-.3-.176-.417a1.2,1.2,0,0,1-.123-.569.48.48,0,0,1,.305-.4.664.664,0,0,1,.666.142c.166-.251.37-.554.489-.786.1-.2.119-.281.1-.358-.006-.031-.012-.046-.018-.068s-.007-.049.009-.055.036.016.047.042l.093.235a.883.883,0,0,1,.1.51,1.062,1.062,0,0,1-.219.4c-.151.2-.234.3-.286.377a.042.042,0,0,0,0,.038l.068.172a.02.02,0,0,0,.03.013l.133-.053a4.229,4.229,0,0,0,.434-.188c.066-.032.116-.074.1-.159a.639.639,0,0,0-.031-.124c-.014-.043-.006-.052.01-.059s.031.009.045.045c.07.175.176.464.183.482s.121.282.157.371c.015.04.013.056,0,.063s-.034-.008-.045-.037-.03-.058-.046-.084c-.034-.047-.089-.05-.182-.022-.114.033-.3.1-.551.2Zm0-.52a.039.039,0,0,0,.029-.039.5.5,0,0,0-.046-.215.277.277,0,0,0-.107-.148.457.457,0,0,0-.37.029c-.372.148-.375.422-.321.558a.357.357,0,0,0,.053.1c.009.009.014.013.035,0Z" fill="#1a1311"/>
        <path id="Path_666" data-name="Path 666" d="M28.893,1910.294a.017.017,0,0,0-.021-.015l-.059.005c-.435.034-.483.037-.572.05s-.127.038-.139.132c0,.023,0,.065,0,.1s-.012.055-.024.056-.029-.012-.032-.054c-.013-.162-.024-.415-.026-.443s-.036-.347-.045-.469c0-.042.007-.057.023-.058s.029.012.032.04c.009.047.01.064.019.1.016.072.066.091.156.092s.163-.007.6-.041l.494-.039c.266-.02.474-.036.591-.06.092-.016.137-.042.145-.127,0-.04,0-.1,0-.124s.01-.049.024-.05.03.02.032.055c.015.193.029.477.033.528s.029.263.04.4c0,.051-.009.063-.026.064s-.027-.014-.03-.051a.729.729,0,0,0-.018-.086c-.019-.066-.074-.079-.164-.08-.119,0-.3.006-.562.027l-.227.018a.015.015,0,0,0-.016.018l.068.875a.016.016,0,0,0,.019.015l.291-.022a5.039,5.039,0,0,0,.5-.054c.081-.014.132-.044.14-.129,0-.06,0-.088,0-.119s.005-.054.025-.055.029.011.032.054c.012.16.03.491.032.519s.033.319.04.409c0,.031,0,.062-.02.064s-.032-.009-.035-.046a.781.781,0,0,0-.018-.086c-.013-.066-.088-.086-.173-.085-.118,0-.315.01-.581.031l-.489.038c-.434.034-.5.042-.588.055s-.149.048-.155.147a.726.726,0,0,0,0,.08c0,.05-.013.057-.027.058s-.027-.029-.03-.06c-.012-.162-.021-.379-.026-.443-.008-.107-.035-.342-.045-.463,0-.05.007-.059.024-.061s.029.015.032.049a.834.834,0,0,0,.019.1c.022.074.088.083.17.083s.205-.008.556-.036l.059,0c.014,0,.019-.01.018-.018Z" fill="#1a1311"/>
        <path id="Path_667" data-name="Path 667" d="M28.83,1908.233c-.436,0-.518,0-.608.008s-.129.037-.14.1a.426.426,0,0,0-.012.084c0,.034-.011.053-.031.053s-.025-.014-.025-.062c0-.112.009-.388.009-.41s-.009-.357-.009-.459c0-.047.011-.061.028-.061s.028.025.028.053,0,.045.009.082c.014.073.05.1.152.106s.163.009.6.009h.5c.222,0,.483,0,.6-.014.073-.006.123-.023.143-.107a1.046,1.046,0,0,0,.014-.124c0-.048.011-.059.028-.059s.028.014.028.059c0,.191-.008.492-.008.518s.008.309.008.4c0,.045,0,.067-.028.067s-.028-.022-.028-.056-.006-.056-.011-.087c-.009-.059-.07-.079-.152-.087-.118-.012-.321-.017-.6-.017Z" fill="#1a1311"/>
        <path id="Path_668" data-name="Path 668" d="M29.87,1904.482c.166,0,.183.006.2.056a2.175,2.175,0,0,1,.107.689c0,.79-.355,1.339-1.1,1.339a1.015,1.015,0,0,1-.917-.506,1.542,1.542,0,0,1-.185-.807,2.863,2.863,0,0,1,.039-.456c.011-.1.031-.188.034-.27,0-.025.011-.031.036-.028a2.646,2.646,0,0,0,.518.031c.045,0,.059.011.059.031s-.023.031-.045.033a.448.448,0,0,0-.141.034c-.191.054-.326.3-.326.695a.628.628,0,0,0,.2.5.91.91,0,0,0,.607.177c.5,0,1.041-.242,1.041-.832a.3.3,0,0,0-.034-.158.09.09,0,0,0-.076-.033h-.172c-.115,0-.225,0-.329,0-.16,0-.219.036-.233.132-.006.036-.009.073-.014.121,0,.022-.011.045-.028.045s-.029-.014-.029-.06c0-.182.009-.4.009-.475,0-.1-.009-.284-.009-.436,0-.042.006-.064.029-.064s.025.017.028.045c0,.011,0,.048.008.076.014.067.045.1.144.106s.236.009.374.009Z" fill="#1a1311"/>
        <path id="Path_669" data-name="Path 669" d="M28.98,1901.722c0-.009,0-.018-.018-.019l-.059-.005c-.434-.038-.482-.042-.572-.045a.136.136,0,0,0-.159.108c-.005.022-.011.064-.017.1s-.022.052-.033.051-.027-.016-.023-.058c.014-.162.045-.414.047-.442s.022-.348.033-.469c0-.042.016-.055.032-.053s.027.016.025.044c0,.048,0,.065,0,.1,0,.074.051.1.14.117s.162.02.6.057l.493.044c.266.023.474.041.593.037.093,0,.142-.018.164-.1.009-.039.016-.095.022-.122s.018-.047.032-.046.026.025.023.059c-.017.194-.05.476-.055.526s-.014.264-.026.4c0,.051-.02.061-.036.059s-.024-.019-.021-.055a.627.627,0,0,0,0-.088c-.008-.069-.059-.09-.148-.106-.117-.022-.293-.043-.559-.066l-.227-.02a.016.016,0,0,0-.018.015l-.077.874c0,.009,0,.017.016.019l.291.025c.266.023.381.031.5.03.082,0,.137-.022.158-.1.014-.058.019-.085.025-.116s.013-.053.032-.051.027.017.024.059c-.015.159-.052.489-.054.517s-.02.32-.028.41c0,.031-.011.061-.03.059s-.03-.014-.027-.05,0-.051,0-.088c0-.068-.074-.1-.157-.112-.117-.019-.313-.042-.579-.065l-.487-.043c-.434-.037-.5-.041-.589-.043s-.155.024-.177.12c-.009.033-.01.048-.016.078-.007.05-.021.055-.035.053s-.023-.033-.02-.063c.014-.163.041-.378.047-.442.009-.107.022-.343.032-.463,0-.051.016-.058.033-.057s.027.02.024.053,0,.071,0,.1c.01.077.074.1.154.11s.2.026.554.057l.059.005c.014,0,.021-.007.021-.015Z" fill="#1a1311"/>
        <path id="Path_670" data-name="Path 670" d="M30.859,1898.848a.105.105,0,0,1-.128.017,3.9,3.9,0,0,1-.38-.164c-.045-.023-.057-.04-.051-.056s.032-.012.054-.006a.585.585,0,0,0,.087.018.473.473,0,0,0,.51-.316c.095-.25,0-.375-.117-.419s-.21-.056-.448.108l-.176.12a.79.79,0,0,1-.8.163.629.629,0,0,1-.29-.879,1.613,1.613,0,0,1,.142-.292,1.279,1.279,0,0,1,.081-.116c.018-.024.029-.028.05-.02.082.037.133.062.366.152.048.018.063.033.055.054s-.017.021-.061.01a.393.393,0,0,0-.171-.011.436.436,0,0,0-.311.293c-.083.215.008.34.129.387a.393.393,0,0,0,.393-.09l.141-.1c.385-.274.592-.327.857-.225a.573.573,0,0,1,.369.461.936.936,0,0,1-.063.5A1.134,1.134,0,0,1,30.859,1898.848Z" fill="#1a1311"/>
        <path id="Path_671" data-name="Path 671" d="M31.648,1896.456a1.021,1.021,0,0,1-.892-.12,1.043,1.043,0,0,1-.49-.7,1.333,1.333,0,0,1,.229-.948,2.474,2.474,0,0,1,.234-.325,2.245,2.245,0,0,0,.174-.221c.018-.025.033-.016.047-.007s.073.053.153.107.22.135.277.176c.035.024.054.042.041.064s-.033.016-.068,0a.419.419,0,0,0-.291-.049.786.786,0,0,0-.444.4.6.6,0,0,0-.1.425.925.925,0,0,0,.484.577.841.841,0,0,0,1.234-.18c.119-.2.175-.331.125-.489a.439.439,0,0,0-.114-.176c-.043-.042-.056-.06-.044-.079s.035-.005.055.007a4.018,4.018,0,0,1,.335.272.093.093,0,0,1,.032.1,1.483,1.483,0,0,1-.192.448A1.526,1.526,0,0,1,31.648,1896.456Z" fill="#1a1311"/>
        <path id="Path_672" data-name="Path 672" d="M33.377,1892.458c.006-.006.007-.016,0-.026l-.044-.04c-.321-.295-.356-.327-.426-.384a.137.137,0,0,0-.192-.012l-.073.067c-.026.029-.048.028-.056.021s-.012-.03.017-.06c.11-.12.288-.3.307-.322s.23-.262.311-.352c.029-.031.047-.034.059-.022s.011.029-.008.05c-.028.039-.039.051-.058.08-.041.061-.021.11.039.177s.117.115.438.41l.364.335c.2.181.35.321.447.391.074.056.124.072.192.02.03-.025.07-.065.092-.084s.042-.025.053-.016.005.036-.018.061c-.131.143-.329.347-.364.384s-.172.2-.265.3c-.035.037-.053.036-.065.025s-.007-.03.017-.057a.813.813,0,0,0,.051-.072c.035-.059.007-.107-.053-.175-.079-.088-.206-.212-.4-.393l-.168-.154a.016.016,0,0,0-.023,0l-.594.646c-.006.007-.01.015,0,.024l.215.2c.2.181.284.257.38.33.066.049.123.067.19.014.046-.037.067-.056.09-.077s.043-.034.057-.021.011.03-.017.061c-.109.118-.339.357-.358.378s-.211.241-.272.307c-.021.023-.046.042-.061.029s-.015-.029.01-.056.03-.041.051-.072c.039-.056,0-.124-.056-.185-.081-.086-.222-.223-.419-.4l-.36-.331c-.321-.3-.371-.337-.441-.394a.147.147,0,0,0-.214-.013c-.026.022-.036.032-.059.053s-.05.03-.061.02,0-.04.023-.062c.111-.12.264-.274.307-.322.073-.078.226-.258.308-.347.034-.038.048-.036.061-.025s.009.032-.014.057a.759.759,0,0,0-.058.08c-.039.067,0,.121.055.18s.146.146.405.383l.043.04c.011.01.02.008.026,0Z" fill="#1a1311"/>
        <path id="Path_673" data-name="Path 673" d="M34.83,1891.348a1.094,1.094,0,0,1,.349-1.6,1.072,1.072,0,0,1,1.554.192,1.111,1.111,0,0,1-.305,1.626A1.1,1.1,0,0,1,34.83,1891.348Zm1.513-.984c-.268-.383-.732-.707-1.14-.421-.212.148-.367.432.015.978.306.436.78.726,1.176.448C36.537,1891.269,36.789,1891,36.343,1890.364Z" fill="#1a1311"/>
        <path id="Path_674" data-name="Path 674" d="M37.719,1889.469a1.094,1.094,0,0,1,.689-1.487,1.071,1.071,0,0,1,1.474.527,1.111,1.111,0,0,1-.651,1.52A1.1,1.1,0,0,1,37.719,1889.469Zm1.69-.631c-.178-.432-.56-.849-1.021-.659-.239.1-.452.342-.2.958.2.492.6.878,1.05.693C39.4,1889.763,39.706,1889.556,39.409,1888.838Z" fill="#1a1311"/>
        <path id="Path_675" data-name="Path 675" d="M41.686,1888.39a1.423,1.423,0,0,0,.148.527c.049.045.1.048.333,0a.668.668,0,0,0,.309-.109.311.311,0,0,0,.1-.261c0-.032,0-.055.025-.059s.025.009.033.048a2.215,2.215,0,0,1,.024.417c-.007.076-.028.083-.139.106-.38.077-.64.113-.932.173-.13.026-.277.065-.429.1-.038.008-.062.007-.067-.018s.012-.028.05-.036.063-.019.092-.03c.1-.037.088-.087.052-.31-.017-.111-.048-.277-.083-.448l-.1-.485c-.092-.45-.1-.5-.128-.586s-.05-.119-.123-.124a.454.454,0,0,0-.111.008c-.03.006-.059.006-.063-.016s.022-.033.077-.046c.157-.032.3-.053.41-.075.024,0,.365-.083.464-.1.05-.01.068-.005.071.011s-.021.036-.06.044a.714.714,0,0,0-.091.031c-.072.029-.08.085-.066.183s.021.145.113.6Z" fill="#1a1311"/>
      </g>
    </g>
    <g id="Group_306" data-name="Group 306">
      <path id="Path_676" data-name="Path 676" d="M41.429,1918.859a.955.955,0,0,0,.028-.114c.009-.041.016-.088.023-.14.053,0,.1,0,.155.006h.3c.049,0,.1,0,.143-.006a.927.927,0,0,0-.031.126,1.094,1.094,0,0,0-.013.127l-.147,0-.151,0-.153,0Z" fill="#fff"/>
      <path id="Path_677" data-name="Path 677" d="M42.592,1919.3c.109-.419.183-.718.221-.895a2.483,2.483,0,0,0,.06-.393c-.063.024-.122.048-.177.073s-.1.048-.145.071a.659.659,0,0,0-.029-.074c-.011-.024-.023-.049-.036-.073.115-.032.233-.071.356-.117s.251-.1.385-.157l.039.032q-.1.361-.178.744t-.141.789c-.025,0-.051-.007-.079-.009s-.061,0-.1,0-.071,0-.1,0S42.617,1919.3,42.592,1919.3Z" fill="#fff"/>
      <path id="Path_678" data-name="Path 678" d="M44.388,1918.617a.358.358,0,0,1-.11.06.441.441,0,0,1-.13.018.453.453,0,0,1-.315-.108.365.365,0,0,1-.12-.285.548.548,0,0,1,.151-.4.54.54,0,0,1,.4-.152.506.506,0,0,1,.379.132.546.546,0,0,1,.128.392,1.317,1.317,0,0,1-.066.413,1.185,1.185,0,0,1-.183.356.767.767,0,0,1-.268.224.753.753,0,0,1-.342.076.705.705,0,0,1-.224-.037c0-.025-.007-.054-.013-.086s-.011-.065-.018-.1l.024-.006a.223.223,0,0,0,.077.1.2.2,0,0,0,.116.035.387.387,0,0,0,.309-.162A1.134,1.134,0,0,0,44.388,1918.617Zm-.167-.035a.2.2,0,0,0,.181-.134.8.8,0,0,0,.068-.36.311.311,0,0,0-.042-.179.145.145,0,0,0-.125-.059c-.072,0-.133.048-.184.143a.746.746,0,0,0-.075.351.3.3,0,0,0,.043.179A.158.158,0,0,0,44.221,1918.582Z" fill="#fff"/>
      <path id="Path_679" data-name="Path 679" d="M45.412,1918.468a.451.451,0,0,1,.125-.065.485.485,0,0,1,.144-.021.413.413,0,0,1,.3.109.371.371,0,0,1,.115.282.547.547,0,0,1-.159.411.576.576,0,0,1-.421.155.458.458,0,0,1-.361-.141.594.594,0,0,1-.126-.407,1.266,1.266,0,0,1,.085-.456,1.033,1.033,0,0,1,.229-.367.779.779,0,0,1,.251-.168.763.763,0,0,1,.294-.059.784.784,0,0,1,.081.005c.029,0,.059.009.091.016.01.031.019.059.026.084a.544.544,0,0,1,.015.069l-.026.013a.241.241,0,0,0-.08-.066.213.213,0,0,0-.1-.021.363.363,0,0,0-.29.163A1.173,1.173,0,0,0,45.412,1918.468Zm.169.034a.206.206,0,0,0-.182.135.805.805,0,0,0-.069.362.313.313,0,0,0,.041.177.145.145,0,0,0,.126.058c.072,0,.133-.047.184-.143a.749.749,0,0,0,.075-.351.3.3,0,0,0-.043-.179A.154.154,0,0,0,45.581,1918.5Z" fill="#fff"/>
      <path id="Path_680" data-name="Path 680" d="M46.762,1918.468a.435.435,0,0,1,.27-.086.415.415,0,0,1,.3.109.374.374,0,0,1,.115.282.544.544,0,0,1-.16.411.573.573,0,0,1-.42.155.457.457,0,0,1-.361-.141.594.594,0,0,1-.126-.407,1.266,1.266,0,0,1,.085-.456,1.019,1.019,0,0,1,.229-.367.768.768,0,0,1,.251-.168.759.759,0,0,1,.294-.059c.025,0,.052,0,.081.005s.058.009.09.016a.864.864,0,0,1,.026.084.544.544,0,0,1,.015.069l-.026.013a.232.232,0,0,0-.08-.066.209.209,0,0,0-.094-.021.366.366,0,0,0-.291.163A1.2,1.2,0,0,0,46.762,1918.468Zm.17.034a.206.206,0,0,0-.182.135.791.791,0,0,0-.07.362.3.3,0,0,0,.042.177.144.144,0,0,0,.126.058c.072,0,.133-.047.183-.143a.737.737,0,0,0,.076-.351.306.306,0,0,0-.043-.179A.154.154,0,0,0,46.932,1918.5Z" fill="#fff"/>
      <path id="Path_681" data-name="Path 681" d="M47.664,1918.859c.01-.034.02-.072.028-.114s.016-.088.023-.14c.052,0,.1,0,.155.006h.3c.048,0,.1,0,.143-.006a.8.8,0,0,0-.031.126.782.782,0,0,0-.013.127l-.148,0-.15,0-.153,0Z" fill="#fff"/>
    </g>
  </g>
</svg>
