<svg xmlns="http://www.w3.org/2000/svg" width="119.871" height="39.565" viewBox="0 0 119.871 39.565">
  <g id="Group_308" data-name="Group 308" transform="translate(-27.973 -1886.737)">
    <g id="Group_299" data-name="Group 299">
      <g id="Group_275" data-name="Group 275">
        <path id="Path_570" data-name="Path 570" d="M68.022,1915.729c.215-.2.535-.534.843-.882a.716.716,0,0,0,.2-.32c0-.043-.016-.066-.11-.086-.034,0-.066-.011-.066-.039s.02-.035.062-.035c.176,0,.192.008.414.008s.511-.008.562-.008c.067,0,.082.008.082.035s-.019.035-.07.039a1.307,1.307,0,0,0-.14.023,1.047,1.047,0,0,0-.5.336c-.179.172-.62.629-.722.738a14.9,14.9,0,0,0,1.057,1.292,1.777,1.777,0,0,0,.411.355.582.582,0,0,0,.179.051c.055,0,.082.011.082.042s-.035.036-.078.036h-.383c-.515,0-.694-.051-.893-.27a13.06,13.06,0,0,1-.929-1.206v.344c0,.3,0,.659.019.823.008.1.035.2.168.215.055.008.117.012.168.016s.066.019.066.038-.015.04-.074.04c-.257,0-.675-.012-.71-.012-.02,0-.465.012-.594.012-.05,0-.077-.008-.077-.04s.027-.038.07-.038.078,0,.121-.012c.121-.019.133-.113.144-.226.016-.164.024-.438.024-.816v-.687c0-.6,0-.714-.012-.839-.008-.109-.051-.18-.145-.2a1.2,1.2,0,0,0-.148-.016c-.05,0-.082-.007-.082-.043s.032-.035.105-.035c.169,0,.566.012.594.012s.507-.012.648-.012c.066,0,.082.016.082.035s-.02.039-.071.043c-.035,0-.058,0-.117.012-.136.019-.16.109-.167.234s-.012.2-.012.808Z" fill="#1a1311"/>
        <path id="Path_571" data-name="Path 571" d="M71.03,1915.495c0-.6,0-.718-.012-.843-.007-.109-.051-.18-.136-.195a.645.645,0,0,0-.117-.016c-.048,0-.075-.015-.075-.043s.02-.035.087-.035c.155,0,.538.012.569.012s.5-.012.636-.012c.066,0,.086.016.086.039s-.035.039-.074.039-.063,0-.113.012c-.1.019-.141.07-.149.211-.012.124-.012.226-.012.831v.687c0,.308,0,.671.02.835.008.1.032.172.149.2a1.218,1.218,0,0,0,.171.02c.067,0,.082.015.082.038s-.019.04-.082.04c-.265,0-.683-.012-.718-.012-.019,0-.429.012-.562.012-.063,0-.093-.008-.093-.04s.03-.038.078-.038.077-.008.121-.016c.081-.011.109-.1.121-.211.015-.164.023-.445.023-.827Z" fill="#1a1311"/>
        <path id="Path_572" data-name="Path 572" d="M73.261,1914.492c0-.117.019-.187.066-.187.031,0,.051.012.152.093.164.137.367.332,1.261,1.152.4.366.667.628.773.721l-.024-1.463c-.008-.219-.028-.32-.184-.347a1.218,1.218,0,0,0-.171-.02c-.051,0-.07-.019-.07-.039s.034-.039.077-.039c.157,0,.41.012.566.012.086,0,.281-.012.445-.012.059,0,.086.012.086.035s-.02.043-.066.043a.449.449,0,0,0-.1.012c-.128.015-.168.082-.18.324-.03.784-.03,1.565-.046,2.349,0,.2-.027.242-.078.242s-.184-.094-.438-.316-.608-.542-.842-.757c-.219-.2-.609-.566-.894-.843l.039,1.331c.008.281.023.386.133.426a1.066,1.066,0,0,0,.207.027c.058,0,.078.015.078.038s-.032.04-.094.04c-.136,0-.261-.008-.5-.012-.089,0-.378.012-.53.012-.055,0-.086-.008-.086-.04s.019-.038.074-.038c.035,0,.086,0,.129-.012.152-.023.171-.121.183-.484C73.245,1915.936,73.237,1914.995,73.261,1914.492Z" fill="#1a1311"/>
        <path id="Path_573" data-name="Path 573" d="M80.472,1916.81c.031.254.07.351.2.391a1.152,1.152,0,0,0,.223.035c.05,0,.073.011.073.038s-.031.04-.093.04c-.324,0-.64,0-1.085-.024-.074,0-.09-.027-.09-.047s.016-.031.043-.038c.063-.024.067-.048.051-.223l-.141-1.4-.8,1.506c-.105.2-.128.223-.159.223s-.067-.04-.176-.211c-.137-.219-.375-.663-.523-.913-.066-.113-.238-.433-.312-.566l-.113,1.1a2.925,2.925,0,0,0-.016.312c0,.113.039.161.137.18a.987.987,0,0,0,.144.02c.059,0,.07.011.07.034s-.015.044-.078.044c-.171,0-.386-.012-.5-.012s-.305.012-.449.012c-.039,0-.086,0-.086-.04,0-.023.023-.038.078-.038.032,0,.074,0,.117-.012.113-.023.152-.113.191-.371l.356-2.4c.015-.117.043-.152.081-.152s.071.039.153.16l1.116,1.869,1.069-1.889c.063-.1.094-.14.133-.14s.062.054.074.152Z" fill="#1a1311"/>
        <path id="Path_574" data-name="Path 574" d="M81.853,1915.495c0-.636,0-.714-.011-.839s-.043-.18-.14-.2a1.269,1.269,0,0,0-.129-.012c-.051,0-.071-.019-.071-.043s.024-.035.086-.035c.223,0,.41.012.582.012l1.1,0a1.326,1.326,0,0,0,.211-.016.271.271,0,0,1,.062-.015c.02,0,.024.015.024.035s-.008.059-.02.172c-.011.078-.019.214-.031.417,0,.031-.015.055-.039.055s-.035-.02-.039-.055a.443.443,0,0,0-.02-.136c-.019-.09-.069-.141-.257-.157-.129-.011-.468-.019-.585-.019-.024,0-.032.012-.032.039v.859c0,.027,0,.046.032.046.109,0,.425,0,.566,0,.191-.007.242-.019.284-.089.024-.036.036-.051.055-.051s.023.023.023.047-.019.179-.03.332c0,.089,0,.281,0,.323s-.012.075-.036.075-.035-.027-.043-.063l-.011-.089c-.016-.114-.071-.18-.262-.192-.109-.007-.429-.015-.55-.015-.02,0-.024.019-.024.05v.27c0,.133,0,.363,0,.511,0,.273.059.335.492.335a1.1,1.1,0,0,0,.363-.046c.109-.043.156-.129.192-.309.007-.046.023-.07.046-.07s.035.039.035.086a3.278,3.278,0,0,1-.062.523c-.027.1-.055.106-.2.106-.539,0-.831-.024-1.241-.024-.184,0-.348.012-.562.012-.07,0-.094-.012-.094-.04s.02-.038.078-.038a.734.734,0,0,0,.117-.016c.11-.015.125-.164.133-.41.008-.156.011-.386.011-.628Z" fill="#1a1311"/>
        <path id="Path_575" data-name="Path 575" d="M84.8,1914.492c0-.117.02-.187.066-.187s.051.012.153.093c.163.137.366.332,1.26,1.152.4.366.667.628.773.721l-.024-1.463c-.007-.219-.027-.32-.183-.347a1.232,1.232,0,0,0-.172-.02c-.051,0-.07-.019-.07-.039s.035-.039.078-.039c.156,0,.409.012.566.012.086,0,.281-.012.445-.012.058,0,.085.012.085.035s-.019.043-.066.043a.438.438,0,0,0-.1.012c-.129.015-.168.082-.18.324-.031.784-.031,1.565-.046,2.349,0,.2-.028.242-.079.242s-.183-.094-.437-.316-.608-.542-.843-.757c-.218-.2-.609-.566-.893-.843l.038,1.331c.008.281.024.386.133.426a1.077,1.077,0,0,0,.207.027c.059,0,.078.015.078.038s-.031.04-.093.04c-.137,0-.262-.008-.5-.012-.09,0-.379.012-.531.012-.055,0-.085-.008-.085-.04s.019-.038.074-.038c.035,0,.085,0,.129-.012.151-.023.171-.121.183-.484C84.783,1915.936,84.775,1914.995,84.8,1914.492Z" fill="#1a1311"/>
        <path id="Path_576" data-name="Path 576" d="M90.525,1916.939a1.413,1.413,0,0,1-.492-1.148,1.441,1.441,0,0,1,.484-1.08,1.847,1.847,0,0,1,1.292-.4,3.569,3.569,0,0,1,.554.046,3.1,3.1,0,0,0,.386.051c.043,0,.043.028.043.051s-.011.125-.019.257,0,.36-.012.457c0,.058-.012.094-.047.094s-.042-.028-.046-.082a.584.584,0,0,0-.149-.383,1.094,1.094,0,0,0-.788-.246.833.833,0,0,0-.574.188,1.286,1.286,0,0,0-.344.987c0,.8.438,1.343,1.093,1.343.321,0,.519-.028.672-.2a.617.617,0,0,0,.128-.262c.02-.082.031-.109.063-.109s.031.039.031.07a5.468,5.468,0,0,1-.086.593.126.126,0,0,1-.1.113,2.031,2.031,0,0,1-.671.09A2.113,2.113,0,0,1,90.525,1916.939Z" fill="#1a1311"/>
        <path id="Path_577" data-name="Path 577" d="M93.627,1915.85a1.518,1.518,0,0,1,1.67-1.541,1.486,1.486,0,0,1,1.612,1.455,1.54,1.54,0,0,1-1.64,1.6A1.521,1.521,0,0,1,93.627,1915.85Zm2.5.086c0-.648-.269-1.385-.96-1.385-.359,0-.761.2-.761,1.123,0,.738.308,1.444.98,1.444C95.629,1917.118,96.128,1917.013,96.128,1915.936Z" fill="#1a1311"/>
        <path id="Path_578" data-name="Path 578" d="M98.056,1914.492c0-.117.019-.187.066-.187.031,0,.051.012.152.093.164.137.367.332,1.26,1.152.4.366.668.628.773.721l-.023-1.463c-.008-.219-.027-.32-.184-.347a1.218,1.218,0,0,0-.171-.02c-.051,0-.07-.019-.07-.039s.035-.039.078-.039c.156,0,.409.012.566.012.086,0,.28-.012.445-.012.058,0,.085.012.085.035s-.019.043-.066.043a.458.458,0,0,0-.1.012c-.128.015-.167.082-.179.324-.032.784-.032,1.565-.047,2.349,0,.2-.027.242-.078.242s-.183-.094-.437-.316-.609-.542-.843-.757c-.219-.2-.609-.566-.894-.843l.039,1.331c.008.281.024.386.133.426a1.066,1.066,0,0,0,.207.027c.058,0,.078.015.078.038s-.031.04-.094.04c-.136,0-.261-.008-.5-.012-.09,0-.379.012-.531.012-.055,0-.086-.008-.086-.04s.02-.038.074-.038c.035,0,.086,0,.129-.012.152-.023.172-.121.184-.484C98.04,1915.936,98.032,1914.995,98.056,1914.492Z" fill="#1a1311"/>
        <path id="Path_579" data-name="Path 579" d="M103.382,1916.182c0,.3,0,.667.02.831.008.1.035.184.152.2.05.008.1.012.168.02s.078.015.078.042-.019.036-.09.036c-.265,0-.644-.012-.706-.012s-.445.012-.574.012c-.063,0-.09-.008-.09-.04s.031-.038.078-.038.082-.008.125-.016c.086-.015.114-.1.125-.215.016-.164.023-.445.023-.823v-1.53c-.151,0-.394,0-.589.008-.218.011-.3.062-.355.2a.9.9,0,0,0-.035.09c-.008.031-.02.062-.047.062s-.035-.031-.031-.078c.016-.16.058-.371.086-.519.008-.059.019-.1.043-.1a1.155,1.155,0,0,1,.132.03,2.958,2.958,0,0,0,.434.028h1.7a1.587,1.587,0,0,0,.246-.016.95.95,0,0,1,.121-.023c.035,0,.039.023.039.121,0,.055-.023.418-.027.515,0,.054-.016.078-.039.078s-.039-.024-.043-.07,0-.059-.008-.078c-.016-.121-.074-.215-.3-.231-.129-.011-.332-.019-.629-.019Z" fill="#1a1311"/>
        <path id="Path_580" data-name="Path 580" d="M105.469,1915.495c0-.6-.008-.683-.012-.808-.007-.16-.054-.211-.148-.23a1.422,1.422,0,0,0-.156-.016c-.047,0-.07-.019-.07-.043s.027-.035.086-.035c.167,0,.542.012.6.012.074,0,.449-.012.628-.012a1.666,1.666,0,0,1,.8.133.663.663,0,0,1,.356.6.918.918,0,0,1-.524.785c.238.343.524.761.762,1.033.207.231.3.3.409.313.043.008.066.008.1.012s.066.015.066.038-.039.04-.078.04h-.351a1.23,1.23,0,0,1-.71-.129,1.489,1.489,0,0,1-.4-.488c-.179-.3-.269-.457-.339-.562a.06.06,0,0,0-.047-.023h-.257c-.02,0-.032.007-.032.031v.2a5.736,5.736,0,0,0,.02.656c.008.1.035.187.152.214a.943.943,0,0,0,.176.024c.062,0,.07.019.07.042s-.027.036-.082.036c-.261,0-.687-.012-.714-.012-.047,0-.426.012-.558.012-.059,0-.078-.012-.078-.04s.027-.038.07-.038.09-.008.133-.016c.078-.019.109-.09.121-.222.015-.164.019-.438.019-.816Zm.671.262a.057.057,0,0,0,.036.058.7.7,0,0,0,.3.051.39.39,0,0,0,.246-.063.633.633,0,0,0,.152-.491c0-.554-.351-.7-.554-.7a.511.511,0,0,0-.156.016c-.016.008-.024.012-.024.042Z" fill="#1a1311"/>
        <path id="Path_581" data-name="Path 581" d="M109.437,1916.3a.735.735,0,0,0-.109-.418c-.144-.265-.531-.909-.664-1.108-.148-.226-.19-.277-.315-.316a.641.641,0,0,0-.1-.02c-.039,0-.058-.019-.058-.043s.031-.035.078-.035c.159,0,.453.012.6.012.066,0,.312-.012.558-.012.043,0,.074.008.074.032s-.02.039-.078.05c-.106.012-.121.051-.121.082a.256.256,0,0,0,.039.114c.062.113.55.979.613,1.1.238-.449.449-.839.522-1a.5.5,0,0,0,.063-.2c0-.043-.023-.079-.14-.1-.036-.008-.067-.019-.067-.047s.023-.035.086-.035c.16,0,.293.012.441.012.054,0,.374-.012.449-.012.046,0,.078.008.078.035s-.028.043-.078.043a.677.677,0,0,0-.152.031.5.5,0,0,0-.219.2,10.77,10.77,0,0,0-.745,1.285,1.118,1.118,0,0,0-.063.37v.277c0,.063,0,.223.012.387.008.1.016.2.16.222a2.033,2.033,0,0,0,.215.024c.046,0,.062.015.062.042s-.02.036-.078.036c-.281,0-.605-.012-.734-.012-.113,0-.429.012-.6.012-.056,0-.079-.016-.079-.044s.023-.034.071-.034a.769.769,0,0,0,.136-.02c.1-.027.125-.1.133-.211.011-.164.015-.339.015-.4Z" fill="#1a1311"/>
        <path id="Path_582" data-name="Path 582" d="M68.038,1921.766a2,2,0,0,0,.054.757c.055.074.129.093.453.093a.944.944,0,0,0,.449-.062c.093-.043.16-.144.2-.328.012-.043.02-.074.052-.074s.03.019.03.074a3.1,3.1,0,0,1-.082.574c-.031.1-.062.1-.218.1-.539,0-.9-.023-1.315-.023-.184,0-.394.011-.609.011-.054,0-.086-.007-.086-.042s.024-.036.078-.036.09-.008.133-.015c.14-.024.144-.094.156-.406.008-.156.012-.39.012-.632v-.687c0-.636,0-.707-.012-.832-.008-.109-.035-.175-.133-.2a.783.783,0,0,0-.152-.019c-.043,0-.082-.008-.082-.039s.039-.039.117-.039c.223,0,.425.012.578.012.035,0,.519-.012.659-.012.07,0,.094.012.094.035s-.039.043-.094.043a1.014,1.014,0,0,0-.133.016c-.105.019-.132.093-.14.23s-.011.2-.011.847Z" fill="#1a1311"/>
        <path id="Path_583" data-name="Path 583" d="M70.28,1921.075c0-.6,0-.719-.011-.843s-.052-.18-.137-.2a.668.668,0,0,0-.117-.016c-.047,0-.074-.016-.074-.043s.019-.035.086-.035c.155,0,.538.012.569.012s.5-.012.636-.012c.067,0,.086.016.086.039s-.035.039-.074.039-.062,0-.113.012c-.1.019-.141.07-.149.21-.011.125-.011.227-.011.832v.687c0,.308,0,.671.019.835.008.1.032.172.149.2a1.4,1.4,0,0,0,.171.019c.067,0,.082.016.082.039s-.019.039-.082.039c-.265,0-.683-.011-.718-.011-.019,0-.429.011-.562.011-.062,0-.093-.007-.093-.039s.031-.039.078-.039.077-.008.121-.015c.081-.012.109-.1.121-.211.015-.164.023-.445.023-.827Z" fill="#1a1311"/>
        <path id="Path_584" data-name="Path 584" d="M72.581,1921.075c0-.636,0-.715-.012-.839s-.043-.18-.14-.2c-.036-.008-.09-.008-.129-.012s-.07-.02-.07-.043.023-.035.086-.035c.222,0,.409.012.581.012l1.1,0a1.337,1.337,0,0,0,.21-.016.294.294,0,0,1,.062-.016c.02,0,.024.016.024.036s-.008.058-.02.171c-.011.079-.019.215-.031.418,0,.031-.015.055-.039.055s-.035-.02-.039-.055a.472.472,0,0,0-.019-.136c-.02-.09-.07-.141-.258-.157-.128-.012-.468-.019-.585-.019-.024,0-.032.011-.032.039v.858c0,.028,0,.047.032.047.109,0,.425,0,.566,0,.191-.008.242-.019.284-.089.024-.036.036-.051.055-.051s.024.023.024.047c0,.039-.02.179-.031.332,0,.089,0,.28,0,.323s-.012.074-.036.074-.035-.027-.042-.062l-.012-.09c-.016-.113-.071-.179-.262-.191-.109-.008-.429-.016-.55-.016-.02,0-.024.02-.024.051v.27c0,.132,0,.362,0,.511,0,.273.059.335.493.335a1.072,1.072,0,0,0,.362-.047c.11-.042.156-.128.192-.308.008-.046.023-.07.046-.07s.035.039.035.086a3.266,3.266,0,0,1-.062.523c-.027.1-.055.1-.2.1-.539,0-.831-.023-1.241-.023-.184,0-.347.011-.562.011-.07,0-.094-.011-.094-.039s.02-.039.079-.039a.961.961,0,0,0,.117-.015c.109-.016.124-.164.132-.41.008-.156.012-.386.012-.628Z" fill="#1a1311"/>
        <path id="Path_585" data-name="Path 585" d="M77.466,1921.145a.024.024,0,0,0,.023-.027v-.082c0-.6,0-.672-.008-.8s-.039-.179-.168-.206c-.031,0-.09-.008-.137-.012s-.074-.023-.074-.039.02-.039.078-.039c.227,0,.578.012.617.012s.484-.012.652-.012c.058,0,.078.016.078.039s-.02.039-.059.039c-.066.008-.089.008-.136.016-.1.015-.133.081-.145.206s-.008.227-.008.832v.687c0,.37,0,.659.02.823.012.129.043.2.16.215.055.007.133.011.172.015s.066.02.066.039-.031.039-.078.039c-.269,0-.664-.011-.734-.011s-.367.011-.558.011c-.07,0-.085-.019-.085-.042s.023-.036.074-.036.085-.008.121-.015c.093-.02.117-.094.129-.219.015-.164.023-.41.023-.781v-.316a.023.023,0,0,0-.023-.023H76.248c-.012,0-.024,0-.024.023v.406c0,.371,0,.531.02.7.012.113.046.187.164.207.082.011.121.015.164.019s.074.012.074.039-.02.039-.078.039c-.223,0-.683-.011-.722-.011s-.445.011-.57.011c-.043,0-.086-.007-.086-.035s.016-.043.067-.043.07-.008.12-.015c.094-.012.129-.114.137-.231.012-.163.019-.437.019-.807v-.679c0-.6,0-.7-.011-.82s-.051-.211-.187-.23c-.048-.008-.067-.008-.11-.012-.07,0-.078-.023-.078-.043s.043-.035.086-.035c.227,0,.527.012.616.012.149,0,.477-.012.645-.012.07,0,.082.016.082.039s-.024.039-.071.039a1.33,1.33,0,0,0-.136.016c-.106.023-.125.113-.133.226s-.012.285-.012.773v.082a.024.024,0,0,0,.024.027Z" fill="#1a1311"/>
        <path id="Path_586" data-name="Path 586" d="M80.408,1921.453c.14,0,.164.016.164.043s-.047.063-.223.109a7.431,7.431,0,0,0-.839.247,1.22,1.22,0,0,1-.214.093c-.039,0-.031-.035-.024-.078l.058-.339c.012-.071.024-.075.094-.075Z" fill="#1a1311"/>
        <path id="Path_587" data-name="Path 587" d="M81.959,1921.883a.735.735,0,0,0-.11-.418c-.144-.265-.531-.909-.663-1.109-.148-.226-.191-.276-.316-.316a.8.8,0,0,0-.1-.019c-.039,0-.058-.02-.058-.043s.031-.035.078-.035c.16,0,.453.012.6.012.066,0,.312-.012.558-.012.043,0,.074.008.074.031s-.02.039-.078.051c-.105.012-.121.051-.121.082a.262.262,0,0,0,.039.113c.063.113.55.98.613,1.1.238-.449.449-.839.522-.995a.507.507,0,0,0,.063-.2c0-.042-.023-.078-.14-.1-.036-.008-.067-.02-.067-.047s.024-.035.086-.035c.16,0,.293.012.441.012.055,0,.375-.012.449-.012.047,0,.078.008.078.035s-.027.043-.078.043a.7.7,0,0,0-.152.031.5.5,0,0,0-.219.2,10.693,10.693,0,0,0-.745,1.285,1.121,1.121,0,0,0-.063.37v.277c0,.062,0,.223.012.386.008.1.016.2.16.223.07.015.148.015.215.023.047,0,.062.016.062.043s-.019.035-.078.035c-.281,0-.6-.011-.733-.011s-.43.011-.605.011c-.055,0-.078-.015-.078-.042s.023-.036.07-.036a.914.914,0,0,0,.136-.019c.1-.027.125-.1.133-.211.012-.164.016-.34.016-.4Z" fill="#1a1311"/>
        <path id="Path_588" data-name="Path 588" d="M85.247,1921.66c0,.539.082.765.3.917a.642.642,0,0,0,.39.109.652.652,0,0,0,.429-.144c.219-.187.219-.6.219-1v-.468c0-.574,0-.675-.008-.8-.008-.149-.039-.215-.167-.238-.044-.008-.067-.008-.145-.016-.051,0-.07-.016-.07-.039s.019-.039.09-.039c.222,0,.46.012.522.012s.324-.012.516-.012c.058,0,.082.012.082.039s-.016.035-.067.039a.8.8,0,0,0-.121.016c-.1.019-.136.078-.148.238-.008.125-.012.226-.012.8v.382a1.465,1.465,0,0,1-.4,1.233,1.241,1.241,0,0,1-.811.258,1.388,1.388,0,0,1-.929-.262,1.209,1.209,0,0,1-.364-1.018v-.593c0-.6,0-.715-.011-.839s-.031-.16-.121-.188a.991.991,0,0,0-.168-.027c-.058,0-.082-.02-.082-.043s.031-.035.106-.035c.167,0,.562.012.6.012s.495-.012.636-.012c.066,0,.086.012.086.035s-.02.039-.07.043-.09.008-.129.016c-.109.023-.129.1-.137.23s-.012.308-.012.808Z" fill="#1a1311"/>
        <path id="Path_589" data-name="Path 589" d="M90.677,1921.82a3.69,3.69,0,0,1-.1,1.07,1.7,1.7,0,0,1-.792.862,1.366,1.366,0,0,1-.2.1.175.175,0,0,1-.086.024.032.032,0,0,1-.035-.031c0-.02.031-.051.09-.086a.938.938,0,0,0,.206-.176c.207-.23.227-.483.227-1.51v-1c0-.6,0-.715-.012-.839s-.05-.184-.16-.2c-.055-.008-.113-.012-.156-.016s-.074-.012-.074-.043.019-.035.086-.035c.167,0,.6.012.632.012s.5-.012.644-.012c.066,0,.09.012.09.035s-.028.039-.079.043-.058,0-.113.012c-.128.023-.148.109-.156.234s-.011.2-.011.808Z" fill="#1a1311"/>
        <path id="Path_590" data-name="Path 590" d="M92.739,1921.66c0,.539.082.765.3.917a.642.642,0,0,0,.39.109.652.652,0,0,0,.429-.144c.219-.187.219-.6.219-1v-.468c0-.574,0-.675-.008-.8-.008-.149-.039-.215-.168-.238-.043-.008-.066-.008-.144-.016-.051,0-.07-.016-.07-.039s.019-.039.09-.039c.222,0,.46.012.522.012s.324-.012.515-.012c.059,0,.083.012.083.039s-.016.035-.067.039a.785.785,0,0,0-.121.016c-.105.019-.136.078-.148.238-.008.125-.012.226-.012.8v.382a1.465,1.465,0,0,1-.4,1.233,1.242,1.242,0,0,1-.812.258,1.387,1.387,0,0,1-.928-.262,1.209,1.209,0,0,1-.364-1.018v-.593c0-.6,0-.715-.011-.839s-.031-.16-.121-.188a1.008,1.008,0,0,0-.168-.027c-.059,0-.082-.02-.082-.043s.031-.035.106-.035c.167,0,.562.012.6.012s.5-.012.637-.012c.066,0,.086.012.086.035s-.02.039-.071.043c-.035,0-.09.008-.128.016-.11.023-.129.1-.137.23s-.012.308-.012.808Z" fill="#1a1311"/>
        <path id="Path_591" data-name="Path 591" d="M95.908,1920.072c0-.117.019-.188.066-.188.031,0,.051.012.152.094.164.137.367.332,1.261,1.151.4.367.667.629.773.723l-.024-1.464c-.008-.219-.028-.32-.183-.348a1.445,1.445,0,0,0-.172-.019c-.051,0-.07-.02-.07-.039s.035-.039.077-.039c.157,0,.41.012.566.012.086,0,.282-.012.445-.012.059,0,.086.012.086.035s-.019.043-.066.043a.454.454,0,0,0-.1.012c-.129.015-.169.082-.18.323-.031.785-.031,1.565-.047,2.35,0,.2-.027.242-.078.242s-.184-.094-.437-.316-.609-.542-.843-.757c-.219-.2-.609-.566-.894-.843l.039,1.33c.008.282.024.387.133.426a1.066,1.066,0,0,0,.207.027c.058,0,.078.016.078.039s-.032.039-.094.039c-.136,0-.261-.007-.5-.011-.089,0-.378.011-.53.011-.055,0-.086-.007-.086-.039s.02-.039.074-.039c.036,0,.086,0,.129-.012.152-.023.172-.12.183-.483C95.892,1921.516,95.884,1920.575,95.908,1920.072Z" fill="#1a1311"/>
        <path id="Path_592" data-name="Path 592" d="M99.989,1921.075c0-.6,0-.719-.011-.843s-.051-.18-.137-.2a.654.654,0,0,0-.117-.016c-.047,0-.074-.016-.074-.043s.019-.035.086-.035c.156,0,.538.012.569.012s.5-.012.636-.012c.067,0,.086.016.086.039s-.035.039-.074.039-.062,0-.113.012c-.1.019-.141.07-.148.21-.012.125-.012.227-.012.832v.687c0,.308,0,.671.019.835.008.1.032.172.149.2a1.42,1.42,0,0,0,.172.019c.066,0,.082.016.082.039s-.02.039-.082.039c-.266,0-.683-.011-.719-.011-.019,0-.429.011-.562.011-.062,0-.093-.007-.093-.039s.031-.039.078-.039.078-.008.121-.015c.082-.012.109-.1.121-.211.016-.164.023-.445.023-.827Z" fill="#1a1311"/>
        <path id="Path_593" data-name="Path 593" d="M101.834,1921.43a1.518,1.518,0,0,1,1.67-1.542,1.486,1.486,0,0,1,1.611,1.456,1.539,1.539,0,0,1-1.639,1.6A1.521,1.521,0,0,1,101.834,1921.43Zm2.5.086c0-.648-.269-1.386-.96-1.386-.359,0-.761.2-.761,1.124,0,.738.308,1.444.98,1.444C103.836,1922.7,104.335,1922.593,104.335,1921.516Z" fill="#1a1311"/>
        <path id="Path_594" data-name="Path 594" d="M106.27,1921.075c0-.6-.008-.683-.012-.808-.007-.16-.054-.211-.147-.23a1.527,1.527,0,0,0-.157-.016c-.047,0-.07-.02-.07-.043s.027-.035.086-.035c.168,0,.542.012.6.012.074,0,.449-.012.628-.012a1.663,1.663,0,0,1,.8.133.663.663,0,0,1,.356.6.917.917,0,0,1-.524.784c.238.343.524.761.762,1.034.207.231.3.3.409.312.043.008.066.008.1.012s.066.016.066.039-.039.039-.078.039h-.351a1.232,1.232,0,0,1-.71-.128,1.5,1.5,0,0,1-.4-.488c-.179-.3-.268-.457-.339-.562a.06.06,0,0,0-.046-.024h-.258c-.02,0-.032.008-.032.032v.2a5.729,5.729,0,0,0,.02.656c.008.1.035.188.152.215a1.044,1.044,0,0,0,.176.023c.062,0,.07.02.07.043s-.027.035-.082.035c-.261,0-.687-.011-.714-.011-.047,0-.425.011-.558.011-.059,0-.078-.011-.078-.039s.027-.039.07-.039.09-.008.133-.015c.078-.02.109-.09.121-.223.015-.164.019-.437.019-.815Zm.671.261a.058.058,0,0,0,.036.059.7.7,0,0,0,.3.051.39.39,0,0,0,.246-.063.634.634,0,0,0,.152-.492c0-.554-.351-.7-.554-.7a.515.515,0,0,0-.156.016c-.016.007-.024.011-.024.042Z" fill="#1a1311"/>
        <path id="Path_595" data-name="Path 595" d="M113.241,1921.145a.024.024,0,0,0,.023-.027v-.082c0-.6,0-.672-.008-.8s-.039-.179-.168-.206c-.031,0-.089-.008-.136-.012s-.074-.023-.074-.039.02-.039.078-.039c.226,0,.577.012.617.012s.483-.012.651-.012c.058,0,.078.016.078.039s-.02.039-.058.039c-.067.008-.09.008-.137.016-.1.015-.133.081-.145.206s-.007.227-.007.832v.687c0,.37,0,.659.019.823.012.129.044.2.161.215.054.007.132.011.171.015s.066.02.066.039-.031.039-.078.039c-.269,0-.663-.011-.733-.011s-.367.011-.558.011c-.071,0-.086-.019-.086-.042s.023-.036.074-.036.086-.008.121-.015c.094-.02.117-.094.129-.219.015-.164.023-.41.023-.781v-.316a.023.023,0,0,0-.023-.023h-1.218a.02.02,0,0,0-.023.023v.406c0,.371,0,.531.019.7.012.113.047.187.164.207.082.011.121.015.164.019s.074.012.074.039-.02.039-.078.039c-.222,0-.683-.011-.722-.011s-.445.011-.57.011c-.042,0-.086-.007-.086-.035s.016-.043.067-.043.07-.008.121-.015c.093-.012.128-.114.136-.231.012-.163.02-.437.02-.807v-.679c0-.6,0-.7-.012-.82s-.051-.211-.187-.23c-.047-.008-.067-.008-.109-.012-.071,0-.079-.023-.079-.043s.043-.035.087-.035c.226,0,.526.012.616.012.149,0,.476-.012.644-.012.07,0,.082.016.082.039s-.023.039-.071.039a1.33,1.33,0,0,0-.136.016c-.1.023-.125.113-.132.226s-.012.285-.012.773v.082a.024.024,0,0,0,.023.027Z" fill="#1a1311"/>
        <path id="Path_596" data-name="Path 596" d="M115.55,1921.075c0-.6,0-.719-.011-.843s-.051-.18-.137-.2a.64.64,0,0,0-.117-.016c-.047,0-.074-.016-.074-.043s.02-.035.086-.035c.156,0,.539.012.57.012s.5-.012.636-.012c.066,0,.086.016.086.039s-.036.039-.074.039-.063,0-.113.012c-.1.019-.141.07-.149.21-.012.125-.012.227-.012.832v.687c0,.308,0,.671.02.835.008.1.031.172.148.2a1.42,1.42,0,0,0,.172.019c.066,0,.082.016.082.039s-.02.039-.082.039c-.266,0-.683-.011-.718-.011-.019,0-.43.011-.562.011-.063,0-.094-.007-.094-.039s.031-.039.078-.039.078-.008.121-.015c.082-.012.11-.1.121-.211.016-.164.023-.445.023-.827Z" fill="#1a1311"/>
        <path id="Path_597" data-name="Path 597" d="M120.286,1922.519c0,.23-.007.254-.077.281a3.02,3.02,0,0,1-.957.148c-1.1,0-1.857-.492-1.857-1.53a1.406,1.406,0,0,1,.7-1.272,2.129,2.129,0,0,1,1.12-.258,3.912,3.912,0,0,1,.631.055c.133.016.262.043.375.047.035,0,.043.015.039.05a3.621,3.621,0,0,0-.042.719c0,.062-.016.082-.044.082s-.042-.032-.046-.063a.606.606,0,0,0-.047-.195c-.074-.265-.422-.453-.964-.453a.874.874,0,0,0-.7.282,1.267,1.267,0,0,0-.246.842c0,.7.336,1.444,1.156,1.444a.42.42,0,0,0,.218-.046.126.126,0,0,0,.047-.106v-.238c0-.16,0-.312,0-.456,0-.223-.051-.305-.183-.324-.051-.008-.1-.012-.168-.02-.031,0-.063-.016-.063-.039s.02-.039.082-.039c.254,0,.554.012.66.012.14,0,.394-.012.605-.012.058,0,.089.008.089.039s-.023.035-.062.039c-.016,0-.066.008-.105.012-.094.019-.137.062-.149.2s-.012.327-.012.519Z" fill="#1a1311"/>
        <path id="Path_598" data-name="Path 598" d="M123.56,1921.145a.024.024,0,0,0,.024-.027v-.082c0-.6,0-.672-.008-.8s-.039-.179-.168-.206c-.031,0-.089-.008-.136-.012s-.074-.023-.074-.039.019-.039.078-.039c.226,0,.577.012.616.012s.484-.012.652-.012c.058,0,.078.016.078.039s-.02.039-.059.039c-.066.008-.09.008-.136.016-.1.015-.133.081-.145.206s-.007.227-.007.832v.687c0,.37,0,.659.019.823.012.129.043.2.16.215.055.007.133.011.172.015s.066.02.066.039-.031.039-.078.039c-.269,0-.663-.011-.734-.011s-.366.011-.558.011c-.07,0-.086-.019-.086-.042s.024-.036.075-.036.086-.008.121-.015c.094-.02.117-.094.128-.219.016-.164.024-.41.024-.781v-.316a.023.023,0,0,0-.024-.023h-1.217c-.012,0-.024,0-.024.023v.406c0,.371,0,.531.02.7.011.113.047.187.164.207.082.011.121.015.164.019s.074.012.074.039-.02.039-.078.039c-.223,0-.683-.011-.722-.011s-.445.011-.57.011c-.043,0-.086-.007-.086-.035s.016-.043.066-.043.071-.008.121-.015c.094-.012.129-.114.137-.231.012-.163.02-.437.02-.807v-.679c0-.6,0-.7-.012-.82s-.051-.211-.187-.23c-.047-.008-.067-.008-.11-.012-.07,0-.078-.023-.078-.043s.043-.035.086-.035c.226,0,.527.012.617.012.148,0,.476-.012.644-.012.07,0,.081.016.081.039s-.023.039-.07.039a1.3,1.3,0,0,0-.136.016c-.106.023-.125.113-.133.226s-.012.285-.012.773v.082a.024.024,0,0,0,.024.027Z" fill="#1a1311"/>
        <path id="Path_599" data-name="Path 599" d="M127.042,1922.839a.144.144,0,0,1-.086-.156,4.934,4.934,0,0,1,.024-.574c.008-.071.024-.094.047-.094s.031.035.035.067a.881.881,0,0,0,.019.121.656.656,0,0,0,.664.5c.371,0,.484-.191.484-.359s-.032-.3-.363-.527l-.242-.167c-.476-.336-.609-.61-.609-.953,0-.449.371-.812.995-.812a2.174,2.174,0,0,1,.449.039,1.877,1.877,0,0,1,.191.047c.04.012.051.024.051.055-.007.125-.015.2-.015.55,0,.071-.012.1-.044.1s-.035-.012-.042-.074a.544.544,0,0,0-.071-.227.6.6,0,0,0-.534-.258c-.32,0-.437.18-.437.36,0,.132.046.285.312.464l.2.133c.546.363.718.605.718,1a.794.794,0,0,1-.414.706,1.3,1.3,0,0,1-.679.168A1.565,1.565,0,0,1,127.042,1922.839Z" fill="#1a1311"/>
        <path id="Path_600" data-name="Path 600" d="M130.12,1922.519a1.416,1.416,0,0,1-.492-1.148,1.444,1.444,0,0,1,.484-1.081,1.847,1.847,0,0,1,1.292-.4,3.527,3.527,0,0,1,.554.047,3.093,3.093,0,0,0,.386.051c.044,0,.044.027.044.051s-.012.125-.02.257,0,.359-.012.457c0,.058-.012.094-.046.094s-.043-.028-.047-.082a.584.584,0,0,0-.149-.383,1.092,1.092,0,0,0-.788-.246.834.834,0,0,0-.574.188,1.284,1.284,0,0,0-.343.987c0,.8.437,1.343,1.093,1.343.32,0,.518-.028.671-.2a.617.617,0,0,0,.129-.261c.019-.082.031-.109.062-.109s.031.039.031.07a5.708,5.708,0,0,1-.085.593.128.128,0,0,1-.1.113,2.066,2.066,0,0,1-.671.09A2.115,2.115,0,0,1,130.12,1922.519Z" fill="#1a1311"/>
        <path id="Path_601" data-name="Path 601" d="M135.478,1921.145a.024.024,0,0,0,.023-.027v-.082c0-.6,0-.672-.008-.8s-.039-.179-.168-.206c-.031,0-.09-.008-.136-.012s-.075-.023-.075-.039.02-.039.079-.039c.226,0,.577.012.616.012s.484-.012.652-.012c.059,0,.078.016.078.039s-.019.039-.059.039c-.066.008-.089.008-.136.016-.1.015-.133.081-.145.206s-.007.227-.007.832v.687c0,.37,0,.659.019.823.012.129.043.2.16.215.055.007.133.011.172.015s.066.02.066.039-.031.039-.078.039c-.269,0-.663-.011-.734-.011s-.367.011-.558.011c-.07,0-.085-.019-.085-.042s.023-.036.074-.036.085-.008.121-.015c.093-.02.117-.094.129-.219.015-.164.023-.41.023-.781v-.316a.023.023,0,0,0-.023-.023H134.26c-.012,0-.024,0-.024.023v.406c0,.371,0,.531.02.7.012.113.047.187.164.207.082.011.121.015.164.019s.074.012.074.039-.02.039-.078.039c-.223,0-.683-.011-.722-.011s-.445.011-.57.011c-.043,0-.086-.007-.086-.035s.016-.043.067-.043.07-.008.121-.015c.093-.012.128-.114.136-.231.012-.163.019-.437.019-.807v-.679c0-.6,0-.7-.011-.82s-.051-.211-.187-.23c-.047-.008-.067-.008-.11-.012-.07,0-.077-.023-.077-.043s.042-.035.085-.035c.227,0,.527.012.617.012.148,0,.476-.012.644-.012.07,0,.082.016.082.039s-.024.039-.071.039a1.33,1.33,0,0,0-.136.016c-.1.023-.125.113-.133.226s-.012.285-.012.773v.082a.024.024,0,0,0,.024.027Z" fill="#1a1311"/>
        <path id="Path_602" data-name="Path 602" d="M137.331,1921.43a1.519,1.519,0,0,1,1.67-1.542,1.486,1.486,0,0,1,1.612,1.456,1.539,1.539,0,0,1-1.639,1.6A1.522,1.522,0,0,1,137.331,1921.43Zm2.5.086c0-.648-.27-1.386-.96-1.386-.359,0-.761.2-.761,1.124,0,.738.308,1.444.979,1.444C139.333,1922.7,139.833,1922.593,139.833,1921.516Z" fill="#1a1311"/>
        <path id="Path_603" data-name="Path 603" d="M141.475,1921.43a1.519,1.519,0,0,1,1.671-1.542,1.486,1.486,0,0,1,1.611,1.456,1.539,1.539,0,0,1-1.639,1.6A1.522,1.522,0,0,1,141.475,1921.43Zm2.5.086c0-.648-.269-1.386-.96-1.386-.359,0-.761.2-.761,1.124,0,.738.308,1.444.98,1.444C143.478,1922.7,143.977,1922.593,143.977,1921.516Z" fill="#1a1311"/>
        <path id="Path_604" data-name="Path 604" d="M146.6,1921.766a1.97,1.97,0,0,0,.055.757c.054.074.128.093.452.093a.94.94,0,0,0,.449-.062c.094-.043.16-.144.2-.328.012-.043.02-.074.051-.074s.031.019.031.074a3.184,3.184,0,0,1-.082.574c-.031.1-.063.1-.218.1-.539,0-.9-.023-1.316-.023-.183,0-.394.011-.608.011-.055,0-.086-.007-.086-.042s.023-.036.078-.036.089-.008.133-.015c.14-.024.144-.094.155-.406.008-.156.012-.39.012-.632v-.687c0-.636,0-.707-.012-.832-.007-.109-.034-.175-.132-.2a.794.794,0,0,0-.152-.019c-.044,0-.082-.008-.082-.039s.038-.039.117-.039c.222,0,.425.012.577.012.035,0,.52-.012.66-.012.07,0,.094.012.094.035s-.04.043-.094.043a.994.994,0,0,0-.133.016c-.105.019-.132.093-.14.23s-.012.2-.012.847Z" fill="#1a1311"/>
      </g>
      <g id="Group_298" data-name="Group 298">
        <g id="Group_297" data-name="Group 297">
          <g id="Group_281" data-name="Group 281">
            <g id="Group_276" data-name="Group 276">
              <path id="Path_605" data-name="Path 605" d="M97.795,1897.239h2.114v7.4a.151.151,0,0,0,.151.151h.9a.151.151,0,0,0,.151-.151v-8.457a.151.151,0,0,0-.151-.151H98.851v-1.812h2.114a.15.15,0,0,0,.151-.151v-.906a.151.151,0,0,0-.151-.151h-3.17a.151.151,0,0,0-.151.151v3.926A.15.15,0,0,0,97.795,1897.239Z" fill="#1a1311"/>
              <path id="Path_606" data-name="Path 606" d="M100.965,1904.863h-.9a.225.225,0,0,1-.225-.225v-7.325h-2.04a.225.225,0,0,1-.225-.225v-3.926a.224.224,0,0,1,.225-.224h3.17a.224.224,0,0,1,.225.224v.906a.225.225,0,0,1-.225.225h-2.04v1.664h2.04a.225.225,0,0,1,.225.225v8.456A.225.225,0,0,1,100.965,1904.863Zm-3.17-11.778a.077.077,0,0,0-.078.077v3.926a.078.078,0,0,0,.078.078h2.187v7.472a.078.078,0,0,0,.078.078h.9a.078.078,0,0,0,.078-.078v-8.456a.078.078,0,0,0-.078-.078H98.778v-1.958h2.187a.078.078,0,0,0,.078-.078v-.906a.077.077,0,0,0-.078-.077Z" fill="#1a1311"/>
            </g>
            <g id="Group_277" data-name="Group 277">
              <rect id="Rectangle_345" data-name="Rectangle 345" width="1.207" height="5.739" rx="0.151" transform="translate(97.644 1899.051)" fill="#1a1311"/>
              <path id="Path_607" data-name="Path 607" d="M98.7,1904.863h-.9a.225.225,0,0,1-.225-.225V1899.2a.225.225,0,0,1,.225-.224h.9a.225.225,0,0,1,.225.224v5.436A.225.225,0,0,1,98.7,1904.863Zm-.9-5.738a.077.077,0,0,0-.078.077v5.436a.078.078,0,0,0,.078.078h.9a.078.078,0,0,0,.078-.078V1899.2a.077.077,0,0,0-.078-.077Z" fill="#1a1311"/>
            </g>
            <g id="Group_278" data-name="Group 278">
              <path id="Path_608" data-name="Path 608" d="M104.74,1905.846h-.6v-12.684a.151.151,0,0,0-.151-.151h-1.66a.151.151,0,0,0-.151.151v.906a.15.15,0,0,0,.151.151h.6v2.567h-.6a.151.151,0,0,0-.151.151v.906a.15.15,0,0,0,.151.151h.6v3.322h-.6a.151.151,0,0,0-.151.151v.906a.15.15,0,0,0,.151.151h.6v3.322h-7.1v-3.322h.6a.15.15,0,0,0,.151-.151v-.906a.151.151,0,0,0-.151-.151h-.6v-3.322h.6a.15.15,0,0,0,.151-.151v-.906a.151.151,0,0,0-.151-.151h-.6v-2.567h.6a.15.15,0,0,0,.151-.151v-.906a.151.151,0,0,0-.151-.151h-1.66a.152.152,0,0,0-.151.151v12.684H93.566v-11.929a.152.152,0,0,0-.151-.151h-.9a.151.151,0,0,0-.151.151v15.7H91.3v-16.459a.152.152,0,0,0-.151-.151h-.9a.151.151,0,0,0-.151.151v16.459H89.036v-15.7a.152.152,0,0,0-.151-.151h-.9a.151.151,0,0,0-.151.151v16.762a.151.151,0,0,0,.151.151h5.435a.152.152,0,0,0,.151-.151v-3.624H104.74a.152.152,0,0,0,.151-.151V1906A.152.152,0,0,0,104.74,1905.846Z" fill="#1a1311"/>
              <path id="Path_609" data-name="Path 609" d="M93.415,1910.9H87.98a.225.225,0,0,1-.225-.224v-16.762a.225.225,0,0,1,.225-.225h.9a.224.224,0,0,1,.224.225v15.631h.911v-16.386a.224.224,0,0,1,.225-.224h.9a.224.224,0,0,1,.224.224v16.386h.911v-15.631a.225.225,0,0,1,.225-.225h.9a.224.224,0,0,1,.224.225v11.856h.911v-12.611a.224.224,0,0,1,.225-.224h1.66a.224.224,0,0,1,.225.224v.906a.225.225,0,0,1-.225.225H95.9v2.42h.531a.224.224,0,0,1,.225.224v.906a.225.225,0,0,1-.225.225H95.9v3.175h.531a.225.225,0,0,1,.225.224v.906a.225.225,0,0,1-.225.225H95.9v3.175h6.951V1902.6h-.53a.225.225,0,0,1-.225-.225v-.906a.225.225,0,0,1,.225-.224h.53v-3.175h-.53a.225.225,0,0,1-.225-.225v-.906a.224.224,0,0,1,.225-.224h.53v-2.42h-.53a.225.225,0,0,1-.225-.225v-.906a.224.224,0,0,1,.225-.224h1.66a.224.224,0,0,1,.225.224v12.611h.53a.224.224,0,0,1,.224.224v.907a.224.224,0,0,1-.224.224h-11.1v3.551A.224.224,0,0,1,93.415,1910.9Zm-5.435-17.064a.078.078,0,0,0-.078.078v16.762a.078.078,0,0,0,.078.077h5.435a.077.077,0,0,0,.077-.077v-3.7H104.74a.077.077,0,0,0,.077-.077V1906a.076.076,0,0,0-.077-.077h-.677v-12.758a.077.077,0,0,0-.078-.077h-1.66a.077.077,0,0,0-.078.077v.906a.078.078,0,0,0,.078.078H103v2.713h-.677a.078.078,0,0,0-.078.078v.906a.078.078,0,0,0,.078.078H103v3.469h-.677a.077.077,0,0,0-.078.077v.906a.078.078,0,0,0,.078.078H103v3.469H95.757v-3.469h.678a.078.078,0,0,0,.078-.078v-.906a.077.077,0,0,0-.078-.077h-.678v-3.469h.678a.078.078,0,0,0,.078-.078v-.906a.078.078,0,0,0-.078-.078h-.678v-2.713h.678a.078.078,0,0,0,.078-.078v-.906a.077.077,0,0,0-.078-.077h-1.66a.077.077,0,0,0-.078.077v12.758H93.492v-12a.077.077,0,0,0-.077-.078h-.9a.078.078,0,0,0-.078.078v15.778H91.227v-16.533a.076.076,0,0,0-.077-.077h-.9a.077.077,0,0,0-.078.077v16.533H88.962v-15.778a.077.077,0,0,0-.077-.078Z" fill="#1a1311"/>
            </g>
            <g id="Group_279" data-name="Group 279">
              <path id="Path_610" data-name="Path 610" d="M97.928,1908.111h-.914a.15.15,0,0,0-.148.126,1.658,1.658,0,0,1-1.639,1.384h-.452a.152.152,0,0,0-.151.152v.906a.152.152,0,0,0,.151.151h.452a2.865,2.865,0,0,0,2.852-2.55.155.155,0,0,0-.038-.117A.152.152,0,0,0,97.928,1908.111Z" fill="#1a1311"/>
              <path id="Path_611" data-name="Path 611" d="M95.227,1910.9h-.452a.225.225,0,0,1-.225-.224v-.906a.225.225,0,0,1,.225-.225h.452a1.583,1.583,0,0,0,1.566-1.323.223.223,0,0,1,.221-.187h.914a.221.221,0,0,1,.167.075.224.224,0,0,1,.057.174,2.939,2.939,0,0,1-2.925,2.616Zm-.452-1.208a.078.078,0,0,0-.078.078v.906a.078.078,0,0,0,.078.077h.452a2.791,2.791,0,0,0,2.779-2.485.081.081,0,0,0-.02-.061.079.079,0,0,0-.058-.025h-.914a.076.076,0,0,0-.076.064,1.73,1.73,0,0,1-1.711,1.446Z" fill="#1a1311"/>
            </g>
            <g id="Group_280" data-name="Group 280">
              <path id="Path_612" data-name="Path 612" d="M103.985,1909.621h-.453a1.655,1.655,0,0,1-1.637-1.384.151.151,0,0,0-.149-.126h-.915a.15.15,0,0,0-.112.051.148.148,0,0,0-.038.117,2.866,2.866,0,0,0,2.851,2.551h.453a.151.151,0,0,0,.151-.151v-.906A.152.152,0,0,0,103.985,1909.621Z" fill="#1a1311"/>
              <path id="Path_613" data-name="Path 613" d="M103.985,1910.9h-.453a2.938,2.938,0,0,1-2.924-2.616.225.225,0,0,1,.223-.249h.915a.223.223,0,0,1,.221.188,1.583,1.583,0,0,0,1.565,1.322h.453a.225.225,0,0,1,.225.225v.906A.225.225,0,0,1,103.985,1910.9Zm-3.154-2.718a.077.077,0,0,0-.077.086,2.791,2.791,0,0,0,2.778,2.485h.453a.078.078,0,0,0,.078-.077v-.906a.078.078,0,0,0-.078-.078h-.453a1.729,1.729,0,0,1-1.71-1.445.076.076,0,0,0-.076-.065Z" fill="#1a1311"/>
            </g>
          </g>
          <g id="Group_289" data-name="Group 289">
            <g id="Group_282" data-name="Group 282">
              <path id="Path_614" data-name="Path 614" d="M83.667,1893.011h-.9a.151.151,0,0,0-.151.151v11.929H79.742a.151.151,0,0,0-.151.151v.906a.151.151,0,0,0,.151.152h3.925a.152.152,0,0,0,.151-.152v-12.986A.152.152,0,0,0,83.667,1893.011Z" fill="#1a1311"/>
              <path id="Path_615" data-name="Path 615" d="M83.667,1906.373H79.742a.225.225,0,0,1-.225-.225v-.906a.225.225,0,0,1,.225-.224h2.8v-11.856a.224.224,0,0,1,.225-.224h.9a.224.224,0,0,1,.225.224v12.986A.225.225,0,0,1,83.667,1906.373Zm-3.925-1.208a.078.078,0,0,0-.078.077v.906a.078.078,0,0,0,.078.078h3.925a.078.078,0,0,0,.078-.078v-12.986a.077.077,0,0,0-.078-.077h-.9a.077.077,0,0,0-.078.077v12Z" fill="#1a1311"/>
            </g>
            <g id="Group_283" data-name="Group 283">
              <rect id="Rectangle_346" data-name="Rectangle 346" width="1.207" height="10.083" rx="0.151" transform="translate(79.069 1893.196)" fill="#1a1311"/>
              <path id="Path_616" data-name="Path 616" d="M80.125,1903.353h-.9a.225.225,0,0,1-.224-.225v-9.78a.224.224,0,0,1,.224-.225h.9a.224.224,0,0,1,.224.225v9.78A.225.225,0,0,1,80.125,1903.353Zm-.9-10.083a.077.077,0,0,0-.077.078v9.78a.077.077,0,0,0,.077.078h.9a.078.078,0,0,0,.078-.078v-9.78a.078.078,0,0,0-.078-.078Z" fill="#1a1311"/>
            </g>
            <g id="Group_284" data-name="Group 284">
              <path id="Path_617" data-name="Path 617" d="M67.661,1906.3H68.87c4.911,0,8.386-4,8.386-8.909v-1.208a.151.151,0,0,0-.151-.151H73.248v-1.551h3.857a.151.151,0,0,0,.151-.151v-.906a.151.151,0,0,0-.151-.151H68.2a.151.151,0,0,0-.151.151v.906a.151.151,0,0,0,.151.151H72.04v1.4a4.688,4.688,0,0,1-4.388,4.67.151.151,0,0,0-.142.151v.907a.15.15,0,0,0,.047.109.153.153,0,0,0,.1.042h.008a5.877,5.877,0,0,0,2.913-.958l.146-.1.074.158a2.894,2.894,0,0,0,2.278,1.641H73.1a.15.15,0,0,0,.151-.151v-.914a.151.151,0,0,0-.125-.149,1.67,1.67,0,0,1-1.365-1.434l-.008-.067.044-.05a5.9,5.9,0,0,0,1.26-2.389l.03-.114h2.965v.151c0,4.246-2.933,7.7-7.18,7.7H67.661a.152.152,0,0,0-.151.151v.906A.152.152,0,0,0,67.661,1906.3Z" fill="#1a1311"/>
              <path id="Path_618" data-name="Path 618" d="M68.869,1906.373H67.661a.225.225,0,0,1-.224-.225v-.906a.224.224,0,0,1,.224-.224h1.208c4.051,0,7.106-3.28,7.106-7.628v-.077H73.141l-.016.058a5.982,5.982,0,0,1-1.275,2.419l-.023.026,0,.034a1.6,1.6,0,0,0,1.3,1.371.224.224,0,0,1,.187.221v.914a.224.224,0,0,1-.225.225l-.024,0a2.966,2.966,0,0,1-2.337-1.683l-.038-.081-.076.049a5.934,5.934,0,0,1-2.949.97h0a.232.232,0,0,1-.165-.061.224.224,0,0,1-.07-.163v-.908a.223.223,0,0,1,.21-.223,4.617,4.617,0,0,0,4.32-4.6v-1.328H68.2a.225.225,0,0,1-.225-.225v-.906a.224.224,0,0,1,.225-.224h8.9a.224.224,0,0,1,.225.224v.906a.225.225,0,0,1-.225.225H73.321v1.4h3.784a.225.225,0,0,1,.225.225v1.208c0,5.112-3.624,8.969-8.435,8.983Zm-1.208-1.208a.078.078,0,0,0-.078.077v.906a.078.078,0,0,0,.078.078H68.87c4.739,0,8.313-3.8,8.313-8.836v-1.208a.078.078,0,0,0-.078-.078H73.174v-1.7h3.931a.078.078,0,0,0,.078-.078v-.906a.078.078,0,0,0-.078-.078H68.2a.078.078,0,0,0-.078.078v.906a.078.078,0,0,0,.078.078h3.91v1.475a4.762,4.762,0,0,1-4.457,4.743.078.078,0,0,0-.073.077v.908a.08.08,0,0,0,.024.056.077.077,0,0,0,.053.021,5.8,5.8,0,0,0,2.881-.946l.217-.142.11.235a2.818,2.818,0,0,0,2.22,1.6.069.069,0,0,0,.06-.019.08.08,0,0,0,.026-.058v-.914a.077.077,0,0,0-.064-.076,1.747,1.747,0,0,1-1.426-1.5l-.012-.1.066-.075a5.842,5.842,0,0,0,1.244-2.36l.044-.168h3.1v.224c0,4.432-3.118,7.774-7.253,7.775Z" fill="#1a1311"/>
            </g>
            <g id="Group_285" data-name="Group 285">
              <path id="Path_619" data-name="Path 619" d="M83.953,1909.6a1.656,1.656,0,0,1-1.384-1.638v-.453a.152.152,0,0,0-.151-.151h-.906a.152.152,0,0,0-.151.151v.453a2.866,2.866,0,0,0,2.55,2.852h.017a.153.153,0,0,0,.1-.039.15.15,0,0,0,.05-.112v-.915A.151.151,0,0,0,83.953,1909.6Z" fill="#1a1311"/>
              <path id="Path_620" data-name="Path 620" d="M83.928,1910.886H83.9a2.939,2.939,0,0,1-2.616-2.925v-.453a.224.224,0,0,1,.224-.224h.906a.224.224,0,0,1,.224.224v.453a1.584,1.584,0,0,0,1.323,1.566.223.223,0,0,1,.187.221v.915a.223.223,0,0,1-.224.224Zm-2.416-3.456a.077.077,0,0,0-.077.077v.453a2.792,2.792,0,0,0,2.485,2.779h.008a.077.077,0,0,0,.052-.02.076.076,0,0,0,.025-.057v-.915a.076.076,0,0,0-.064-.076,1.73,1.73,0,0,1-1.446-1.711v-.453a.076.076,0,0,0-.077-.077Z" fill="#1a1311"/>
            </g>
            <g id="Group_286" data-name="Group 286">
              <path id="Path_621" data-name="Path 621" d="M80.178,1909.6a1.656,1.656,0,0,1-1.384-1.638v-.453a.152.152,0,0,0-.151-.151h-.906a.152.152,0,0,0-.151.151v.453a2.866,2.866,0,0,0,2.55,2.852h.017a.152.152,0,0,0,.1-.039.15.15,0,0,0,.05-.112v-.915A.151.151,0,0,0,80.178,1909.6Z" fill="#1a1311"/>
              <path id="Path_622" data-name="Path 622" d="M80.153,1910.886h-.024a2.939,2.939,0,0,1-2.616-2.925v-.453a.224.224,0,0,1,.224-.224h.906a.224.224,0,0,1,.224.224v.453a1.583,1.583,0,0,0,1.323,1.566.223.223,0,0,1,.187.221v.915a.223.223,0,0,1-.224.224Zm-2.416-3.456a.076.076,0,0,0-.077.077v.453a2.792,2.792,0,0,0,2.484,2.779h.009a.079.079,0,0,0,.052-.02.076.076,0,0,0,.025-.057v-.915a.076.076,0,0,0-.064-.076,1.73,1.73,0,0,1-1.446-1.711v-.453a.077.077,0,0,0-.077-.077Z" fill="#1a1311"/>
            </g>
            <g id="Group_287" data-name="Group 287">
              <path id="Path_623" data-name="Path 623" d="M76.4,1909.6a1.656,1.656,0,0,1-1.385-1.638v-.453a.151.151,0,0,0-.151-.151h-.9a.152.152,0,0,0-.151.151v.453a2.866,2.866,0,0,0,2.55,2.852h.017a.15.15,0,0,0,.15-.151v-.915A.151.151,0,0,0,76.4,1909.6Z" fill="#1a1311"/>
              <path id="Path_624" data-name="Path 624" d="M76.378,1910.886h-.024a2.939,2.939,0,0,1-2.616-2.925v-.453a.224.224,0,0,1,.224-.224h.9a.225.225,0,0,1,.225.224v.453a1.583,1.583,0,0,0,1.323,1.566.223.223,0,0,1,.187.221v.915a.227.227,0,0,1-.074.167A.23.23,0,0,1,76.378,1910.886Zm-2.416-3.456a.077.077,0,0,0-.077.077v.453a2.792,2.792,0,0,0,2.484,2.779h.009a.078.078,0,0,0,.052-.02.076.076,0,0,0,.025-.057v-.915a.076.076,0,0,0-.065-.076,1.731,1.731,0,0,1-1.445-1.711v-.453a.077.077,0,0,0-.078-.077Z" fill="#1a1311"/>
            </g>
            <g id="Group_288" data-name="Group 288">
              <path id="Path_625" data-name="Path 625" d="M71.093,1907.356h-.906a.152.152,0,0,0-.151.152v.452a1.663,1.663,0,0,1-1.661,1.661h-.453a.151.151,0,0,0-.151.152v.906a.151.151,0,0,0,.151.151h.453a2.872,2.872,0,0,0,2.869-2.869v-.452A.152.152,0,0,0,71.093,1907.356Z" fill="#1a1311"/>
              <path id="Path_626" data-name="Path 626" d="M68.375,1910.9h-.453a.225.225,0,0,1-.225-.224v-.906a.225.225,0,0,1,.225-.225h.453a1.59,1.59,0,0,0,1.588-1.588v-.452a.225.225,0,0,1,.225-.225h.906a.225.225,0,0,1,.224.225v.452a2.946,2.946,0,0,1-2.942,2.943Zm-.453-1.208a.078.078,0,0,0-.078.078v.906a.078.078,0,0,0,.078.077h.453a2.8,2.8,0,0,0,2.795-2.8v-.452a.078.078,0,0,0-.077-.078h-.906a.078.078,0,0,0-.055.023.075.075,0,0,0-.023.055v.452a1.737,1.737,0,0,1-1.735,1.735Z" fill="#1a1311"/>
            </g>
          </g>
          <g id="Group_296" data-name="Group 296">
            <g id="Group_295" data-name="Group 295">
              <g id="Group_290" data-name="Group 290">
                <path id="Path_627" data-name="Path 627" d="M145.892,1896.192h-7.4v-3.624a.15.15,0,0,0-.15-.151h-.906a.151.151,0,0,0-.151.151v3.624h-7.4a.151.151,0,0,0-.151.151v6.946a.151.151,0,0,0,.151.151h7.4v7.4a.151.151,0,0,0,.151.151h.906a.15.15,0,0,0,.15-.151v-7.4h7.4a.15.15,0,0,0,.15-.151v-6.946A.15.15,0,0,0,145.892,1896.192Zm-7.4,6.04V1897.4h6.344v4.832Zm-1.207-4.832v4.832h-6.342V1897.4Z" fill="#1a1311"/>
                <path id="Path_628" data-name="Path 628" d="M138.342,1911.064h-.906a.224.224,0,0,1-.224-.225v-7.325h-7.326a.225.225,0,0,1-.224-.225v-6.946a.224.224,0,0,1,.224-.225h7.326v-3.55a.224.224,0,0,1,.224-.225h.906a.225.225,0,0,1,.224.225v3.55h7.326a.225.225,0,0,1,.224.225v6.946a.225.225,0,0,1-.224.225h-7.326v7.325A.225.225,0,0,1,138.342,1911.064Zm-8.456-14.8a.077.077,0,0,0-.077.078v6.946a.077.077,0,0,0,.077.078h7.472v7.472a.078.078,0,0,0,.078.078h.906a.078.078,0,0,0,.077-.078v-7.472h7.473a.078.078,0,0,0,.077-.078v-6.946a.078.078,0,0,0-.077-.078h-7.473v-3.7a.078.078,0,0,0-.077-.078h-.906a.078.078,0,0,0-.078.078v3.7Zm15.023,6.04h-6.49v-4.978h6.49Zm-6.343-.146h6.2v-4.685h-6.2Zm-1.208.146h-6.489v-4.978h6.489Zm-6.342-.146h6.2v-4.685h-6.2Z" fill="#1a1311"/>
              </g>
              <g id="Group_294" data-name="Group 294">
                <g id="Group_291" data-name="Group 291">
                  <path id="Path_629" data-name="Path 629" d="M125.059,1893.172h-16a.15.15,0,0,0-.151.151v17.516a.15.15,0,0,0,.151.151h16a.15.15,0,0,0,.151-.151v-17.516A.15.15,0,0,0,125.059,1893.172Zm-6.15,3.281v-2.073h1.813v2.073Zm-1.207,0h-6.15a.151.151,0,0,0-.151.151v.906a.152.152,0,0,0,.151.151h6.15v4.681a5.865,5.865,0,0,0,1.552,3.97l.123.134-.155.1a3.168,3.168,0,0,1-1.383.467.151.151,0,0,0-.137.151v.909a.15.15,0,0,0,.151.151h.011a4.35,4.35,0,0,0,2.376-.92l.084-.065.09.058a5.89,5.89,0,0,0,2.866.93h.008a.152.152,0,0,0,.151-.151v-.908a.151.151,0,0,0-.141-.15,4.7,4.7,0,0,1-2.006-.6l-.138-.078.086-.134a4.366,4.366,0,0,0,.689-2.351v-4.228a.15.15,0,0,0-.15-.151h-.906a.151.151,0,0,0-.151.151v4.228a3.159,3.159,0,0,1-.4,1.543l-.1.186-.141-.16a4.677,4.677,0,0,1-1.164-3.079v-4.681h2.87a.151.151,0,0,0,.15-.151v-3.13H124v15.4H110.11v-15.4H117.7Z" fill="#1a1311"/>
                  <path id="Path_630" data-name="Path 630" d="M125.059,1911.064h-16a.225.225,0,0,1-.225-.225v-17.516a.225.225,0,0,1,.225-.225h16a.225.225,0,0,1,.225.225v17.516A.225.225,0,0,1,125.059,1911.064Zm-16-17.819a.078.078,0,0,0-.078.078v17.516a.078.078,0,0,0,.078.078h16a.078.078,0,0,0,.078-.078v-17.516a.078.078,0,0,0-.078-.078Zm15.022,16.611h-14.04v-15.549h7.74v2.219h-6.224a.078.078,0,0,0-.078.078v.906a.078.078,0,0,0,.078.078h6.224v4.754a5.793,5.793,0,0,0,1.532,3.92l.183.2-.23.143a3.24,3.24,0,0,1-1.415.478.077.077,0,0,0-.07.078v.909a.077.077,0,0,0,.077.078,4.291,4.291,0,0,0,2.342-.9l.125-.1.134.086a5.8,5.8,0,0,0,2.83.918h0a.079.079,0,0,0,.057-.021.078.078,0,0,0,.024-.056v-.908a.077.077,0,0,0-.073-.077,4.778,4.778,0,0,1-2.037-.608l-.206-.117.128-.2a4.294,4.294,0,0,0,.678-2.311v-4.228a.078.078,0,0,0-.077-.078h-.906a.078.078,0,0,0-.078.078v4.228a3.228,3.228,0,0,1-.413,1.579l-.155.277-.21-.239a4.748,4.748,0,0,1-1.181-3.127v-4.754h2.943a.078.078,0,0,0,.077-.078v-3.2h2.22Zm-13.893-.147h13.746v-15.255H122v3.056a.225.225,0,0,1-.224.225h-2.8v4.607a4.6,4.6,0,0,0,1.146,3.03l.073.083.053-.1a3.087,3.087,0,0,0,.394-1.507v-4.228a.225.225,0,0,1,.225-.225h.906a.225.225,0,0,1,.224.225v4.228a4.44,4.44,0,0,1-.7,2.39l-.045.069.071.04a4.613,4.613,0,0,0,1.974.589.226.226,0,0,1,.211.224v.908a.223.223,0,0,1-.225.224,5.957,5.957,0,0,1-2.914-.942l-.046-.029-.043.033a4.42,4.42,0,0,1-2.416.935.213.213,0,0,1-.169-.06.226.226,0,0,1-.071-.164v-.909a.223.223,0,0,1,.2-.224,3.08,3.08,0,0,0,1.351-.457l.08-.049-.063-.068a5.943,5.943,0,0,1-1.571-4.02v-4.607h-6.077a.224.224,0,0,1-.224-.225v-.906a.224.224,0,0,1,.224-.225h6.077v-1.925h-7.446Zm10.612-13.183h-1.959v-2.219h1.959Zm-1.813-.147h1.666v-1.925h-1.666Z" fill="#1a1311"/>
                </g>
                <g id="Group_292" data-name="Group 292">
                  <path id="Path_631" data-name="Path 631" d="M111.813,1905.211h3.925a.15.15,0,0,0,.151-.151v-5.436a.15.15,0,0,0-.151-.151h-3.925a.15.15,0,0,0-.151.151v5.436A.15.15,0,0,0,111.813,1905.211Zm2.869-4.53V1904h-1.813v-3.322Z" fill="#1a1311"/>
                  <path id="Path_632" data-name="Path 632" d="M115.738,1905.285h-3.925a.225.225,0,0,1-.225-.225v-5.436a.225.225,0,0,1,.225-.225h3.925a.225.225,0,0,1,.225.225v5.436A.225.225,0,0,1,115.738,1905.285Zm-3.925-5.739a.078.078,0,0,0-.078.078v5.436a.078.078,0,0,0,.078.078h3.925a.078.078,0,0,0,.078-.078v-5.436a.078.078,0,0,0-.078-.078Zm2.942,4.53H112.8v-3.469h1.959Zm-1.812-.147h1.665v-3.175h-1.665Z" fill="#1a1311"/>
                </g>
                <g id="Group_293" data-name="Group 293">
                  <rect id="Rectangle_347" data-name="Rectangle 347" width="4.488" height="1.208" rx="0.151" transform="translate(111.401 1907.023)" fill="#1a1311"/>
                  <path id="Path_633" data-name="Path 633" d="M115.738,1908.305h-4.186a.225.225,0,0,1-.224-.225v-.906a.225.225,0,0,1,.224-.225h4.186a.225.225,0,0,1,.225.225v.906A.225.225,0,0,1,115.738,1908.305Zm-4.186-1.209a.078.078,0,0,0-.078.078v.906a.078.078,0,0,0,.078.078h4.186a.078.078,0,0,0,.078-.078v-.906a.078.078,0,0,0-.078-.078Z" fill="#1a1311"/>
                </g>
              </g>
            </g>
          </g>
        </g>
      </g>
    </g>
    <g id="Group_307" data-name="Group 307">
      <g id="Group_300" data-name="Group 300">
        <path id="Path_634" data-name="Path 634" d="M44.812,1923.484a13.988,13.988,0,0,1-13.971-13.972v-5.525a13.971,13.971,0,1,1,27.942,0v5.525A13.987,13.987,0,0,1,44.812,1923.484Zm0-32.892a13.41,13.41,0,0,0-13.4,13.4v5.525a13.4,13.4,0,1,0,26.79,0v-5.525A13.41,13.41,0,0,0,44.812,1890.592Z" fill="#00935f"/>
      </g>
      <path id="Path_635" data-name="Path 635" d="M44.812,1921.781a12.283,12.283,0,0,1-12.268-12.269v-5.525a12.268,12.268,0,1,1,24.536,0v5.525A12.282,12.282,0,0,1,44.812,1921.781Z" fill="#00935f"/>
      <g id="Group_303" data-name="Group 303">
        <path id="Path_636" data-name="Path 636" d="M44.812,1902.1a3.9,3.9,0,1,0,3.9,3.9A3.9,3.9,0,0,0,44.812,1902.1Zm0,5.473a1.576,1.576,0,1,1,1.576-1.576A1.576,1.576,0,0,1,44.812,1907.571Z" fill="#fff"/>
        <g id="Group_301" data-name="Group 301">
          <path id="Path_637" data-name="Path 637" d="M54.391,1905.35v-2.321h-2.4a7.81,7.81,0,0,0-4.21-4.209v-2.4H45.457v4.174a5.454,5.454,0,0,1,4.76,4.76Z" fill="#fff"/>
          <path id="Path_638" data-name="Path 638" d="M45.457,1915.574h2.321v-2.4a7.811,7.811,0,0,0,4.21-4.209h2.4v-2.321H50.217a5.454,5.454,0,0,1-4.76,4.76Z" fill="#fff"/>
        </g>
        <g id="Group_302" data-name="Group 302">
          <path id="Path_639" data-name="Path 639" d="M39.407,1906.64a5.455,5.455,0,0,0,4.76,4.76v4.174H41.846v-2.4a7.806,7.806,0,0,1-4.209-4.209h-2.4v-2.321Z" fill="#fff"/>
          <path id="Path_640" data-name="Path 640" d="M35.234,1905.35v-2.321h2.4a7.805,7.805,0,0,1,4.209-4.209v-2.4h2.321v4.174a5.455,5.455,0,0,0-4.76,4.76Z" fill="#fff"/>
        </g>
      </g>
      <g id="Group_305" data-name="Group 305">
        <g id="Group_304" data-name="Group 304">
          <path id="Path_641" data-name="Path 641" d="M45.794,1887.773c.166-.131.415-.354.656-.586.1-.1.16-.174.164-.219s-.008-.049-.074-.068c-.025-.005-.047-.012-.046-.032s.016-.024.047-.021c.126.01.137.017.3.029s.368.023.4.025.059.011.057.03-.016.024-.052.024a.938.938,0,0,0-.1.009.755.755,0,0,0-.381.213c-.139.114-.482.417-.561.49a10.763,10.763,0,0,0,.688.988,1.251,1.251,0,0,0,.275.278.4.4,0,0,0,.126.046c.039.006.058.014.056.036s-.027.023-.058.021l-.275-.022c-.37-.028-.5-.075-.627-.243a9.707,9.707,0,0,1-.6-.919l-.019.246c-.017.219-.034.475-.032.593,0,.071.014.143.108.164.039.009.084.015.12.021s.047.018.046.032-.014.027-.056.024c-.185-.015-.485-.047-.51-.049s-.334-.017-.427-.025c-.036,0-.056-.01-.054-.032s.022-.027.053-.024.056,0,.088,0c.087-.007.1-.074.116-.154.021-.117.041-.313.063-.585l.038-.494c.034-.435.04-.513.039-.6s-.026-.132-.093-.151c-.041-.012-.078-.014-.105-.02s-.059-.01-.057-.035.024-.023.078-.019c.12.01.406.041.425.042s.366.02.467.027c.047,0,.058.016.057.03s-.017.027-.053.027l-.085,0c-.1.006-.121.07-.134.159s-.02.145-.054.58Z" fill="#1a1311"/>
          <path id="Path_642" data-name="Path 642" d="M48.415,1887.982c.1-.424.124-.5.138-.593s-.005-.134-.062-.16a.557.557,0,0,0-.08-.031c-.032-.008-.049-.024-.044-.043s.02-.021.066-.009c.11.027.375.1.4.107l.448.1c.046.012.057.026.053.042s-.032.022-.059.015-.044-.008-.081-.011c-.075,0-.111.025-.14.121s-.048.157-.153.58l-.118.481c-.054.216-.114.471-.132.588-.011.073-.007.126.07.165a.823.823,0,0,0,.117.043c.046.012.054.026.05.042s-.02.024-.064.013c-.186-.046-.476-.126-.5-.132s-.3-.067-.4-.089c-.043-.011-.064-.022-.059-.044s.029-.022.062-.014.056.008.087.01c.06.006.094-.049.121-.126.04-.112.094-.308.16-.575Z" fill="#1a1311"/>
          <path id="Path_643" data-name="Path 643" d="M50.715,1887.9c.036-.076.067-.118.1-.1s.03.022.073.106c.068.138.145.326.494,1.126.156.358.257.609.3.7l.411-.971c.059-.146.076-.219-.019-.283a1.173,1.173,0,0,0-.107-.063c-.034-.015-.041-.033-.035-.046s.034-.015.063,0c.1.046.266.128.369.173.056.025.189.075.3.123.038.017.053.033.046.048s-.026.023-.056.009a.377.377,0,0,0-.068-.02c-.09-.028-.135.005-.213.161-.25.507-.478,1.022-.717,1.534-.058.131-.089.151-.122.136s-.093-.115-.2-.335-.242-.536-.334-.745-.236-.551-.343-.817l-.363.889c-.076.187-.1.261-.036.318a.7.7,0,0,0,.128.079c.037.02.047.033.04.048s-.032.017-.073,0c-.09-.04-.17-.082-.328-.155-.059-.026-.253-.1-.353-.147-.036-.016-.055-.031-.046-.051s.025-.02.061,0,.057.022.088.03c.107.029.148-.03.262-.265C50.283,1888.845,50.552,1888.223,50.715,1887.9Z" fill="#1a1311"/>
          <path id="Path_644" data-name="Path 644" d="M54.756,1892.222c-.091.16-.111.233-.054.311a.86.86,0,0,0,.113.117c.03.022.038.038.026.054s-.035.009-.071-.018c-.186-.14-.369-.276-.615-.482-.041-.035-.04-.055-.032-.066a.035.035,0,0,1,.042,0c.046.013.059,0,.126-.106l.523-.867-1.115.521c-.147.069-.171.073-.189.059s-.021-.051-.01-.2c.016-.185.071-.545.094-.753.01-.094.05-.352.064-.461l-.541.586c-.081.09-.118.139-.144.173a.109.109,0,0,0,0,.162.852.852,0,0,0,.075.074c.034.025.036.037.026.051s-.028.018-.064-.009c-.1-.075-.218-.174-.285-.225s-.181-.125-.264-.187c-.023-.017-.05-.037-.033-.06s.031-.012.062.011.045.03.073.044c.075.036.136,0,.27-.131l1.243-1.23c.06-.06.09-.069.113-.052s.023.053.019.158l-.165,1.56,1.433-.626c.08-.032.115-.041.137-.024s.012.059-.023.12Z" fill="#1a1311"/>
          <path id="Path_645" data-name="Path 645" d="M56.386,1892.525c.342-.306.382-.345.445-.409s.076-.11.042-.173a.911.911,0,0,0-.056-.075c-.022-.029-.023-.047-.011-.059s.031,0,.061.03c.106.119.19.225.272.318l.531.589a.939.939,0,0,0,.109.106.23.23,0,0,1,.039.026c.009.01,0,.02-.008.029s-.035.024-.1.072c-.047.031-.124.093-.239.185-.016.015-.037.018-.048.005s-.006-.028.011-.048a.338.338,0,0,0,.064-.076c.039-.054.041-.105-.04-.213-.056-.075-.214-.261-.271-.324-.011-.013-.021-.011-.036,0l-.461.412c-.015.013-.023.025-.01.039.05.061.2.229.274.3.1.1.127.121.185.11.03,0,.044-.005.053.005s0,.024-.014.035-.1.076-.193.143c-.05.041-.153.133-.176.153s-.045.03-.056.017,0-.032.013-.053l.042-.049c.053-.063.063-.124-.023-.233-.048-.062-.2-.238-.255-.3-.01-.01-.022,0-.039.012l-.145.129c-.071.064-.2.173-.274.246-.145.133-.153.192.056.425a.729.729,0,0,0,.2.172c.075.039.144.023.257-.045.029-.018.049-.021.061-.008s-.005.037-.03.06a2.2,2.2,0,0,1-.311.217c-.067.034-.083.022-.152-.056-.258-.289-.386-.458-.583-.678-.088-.1-.173-.181-.276-.3-.034-.038-.039-.056-.024-.069s.03-.009.058.023a.637.637,0,0,0,.065.055c.061.052.148-.011.284-.125.087-.071.213-.179.343-.3Z" fill="#1a1311"/>
          <path id="Path_646" data-name="Path 646" d="M58.669,1894.177c.074-.041.123-.058.141-.029s.011.036,0,.129c-.024.152-.069.35-.245,1.207-.079.382-.141.645-.16.745l.9-.557c.132-.085.187-.135.146-.242a.883.883,0,0,0-.051-.113c-.019-.032-.014-.051,0-.058s.037.007.053.034c.058.1.145.258.2.355.032.053.112.169.173.27.021.036.024.057.01.066s-.034,0-.051-.025a.376.376,0,0,0-.044-.056c-.057-.074-.113-.073-.267.009-.5.271-.979.561-1.47.842-.124.073-.16.073-.179.041s-.01-.148.033-.387.111-.578.157-.8c.042-.209.124-.586.19-.865l-.809.518c-.171.108-.23.157-.214.239a.75.75,0,0,0,.06.138c.019.038.019.054,0,.063s-.035-.005-.058-.043c-.051-.085-.092-.165-.18-.316-.033-.055-.147-.23-.2-.324-.02-.034-.027-.056-.007-.068s.031,0,.051.032.034.051.055.075c.071.086.139.061.368-.066C57.77,1894.7,58.349,1894.349,58.669,1894.177Z" fill="#1a1311"/>
          <path id="Path_647" data-name="Path 647" d="M59.168,1899.351a1.022,1.022,0,0,1,.719-.542,1.043,1.043,0,0,1,.84.153,1.335,1.335,0,0,1,.5.835,2.586,2.586,0,0,1,.063.4,2.379,2.379,0,0,0,.03.279c0,.031-.011.035-.028.039s-.089.013-.183.031-.252.059-.322.07c-.042.007-.068.008-.074-.017s.012-.034.05-.046a.424.424,0,0,0,.242-.17.787.787,0,0,0,.036-.594.6.6,0,0,0-.23-.37.926.926,0,0,0-.75-.07c-.563.138-.864.537-.752,1,.055.224.109.359.255.436a.445.445,0,0,0,.2.045c.061,0,.082,0,.088.025s-.022.028-.044.034a4.105,4.105,0,0,1-.43.042.094.094,0,0,1-.1-.052,1.485,1.485,0,0,1-.178-.454A1.531,1.531,0,0,1,59.168,1899.351Z" fill="#1a1311"/>
          <path id="Path_648" data-name="Path 648" d="M60.486,1901.8a1.1,1.1,0,0,1,1.155,1.164,1.071,1.071,0,0,1-1.007,1.2,1.11,1.11,0,0,1-1.2-1.139A1.1,1.1,0,0,1,60.486,1901.8Zm0,1.8c.467-.017.991-.23.973-.728-.009-.259-.163-.543-.83-.519-.531.019-1.032.26-1.015.744C59.625,1903.271,59.714,1903.628,60.49,1903.6Z" fill="#1a1311"/>
          <path id="Path_649" data-name="Path 649" d="M61.518,1905.342c.084,0,.135.014.135.048s-.009.036-.068.11c-.1.118-.239.264-.829.908-.265.287-.453.481-.521.557l1.055-.017c.158-.006.231-.02.25-.132a.748.748,0,0,0,.014-.124c0-.036.014-.05.028-.05s.029.025.029.056c0,.112-.009.3-.009.408,0,.061.009.2.009.32,0,.042-.009.062-.026.062s-.031-.014-.031-.048a.28.28,0,0,0-.008-.07c-.011-.093-.059-.121-.234-.13-.565-.022-1.127-.022-1.693-.033-.143,0-.174-.02-.174-.057s.068-.132.228-.314.391-.439.546-.608.407-.439.607-.644l-.959.028c-.2.006-.278.017-.306.1a.633.633,0,0,0-.02.149c0,.042-.012.056-.028.056s-.028-.023-.028-.067c0-.1.005-.189.008-.363,0-.065-.008-.273-.008-.383,0-.039.005-.062.028-.062s.028.014.028.054c0,.025,0,.062.008.093.017.109.087.123.349.132C60.477,1905.331,61.155,1905.325,61.518,1905.342Z" fill="#1a1311"/>
          <path id="Path_650" data-name="Path 650" d="M60.3,1909.519c-.219,0-.481,0-.6.015-.073,0-.132.025-.146.109-.006.037-.009.071-.014.121s-.012.057-.031.057-.025-.014-.025-.065c0-.191.008-.464.008-.509s-.008-.321-.008-.414c0-.045.005-.064.028-.064s.028.022.028.056.005.059.011.09c.011.062.073.082.155.09.118.011.32.017.593.017h1.1c0-.11,0-.284-.005-.425-.009-.157-.045-.219-.143-.256-.032-.014-.048-.019-.065-.025s-.045-.014-.045-.034.022-.025.056-.022c.115.011.267.042.374.062.042.005.07.014.07.03a.787.787,0,0,1-.022.1,2.2,2.2,0,0,0-.02.312v1.223a1.108,1.108,0,0,0,.012.178.743.743,0,0,1,.016.087c0,.025-.016.028-.087.028-.039,0-.3-.017-.371-.019-.04,0-.056-.012-.056-.029s.016-.028.05-.031a.424.424,0,0,0,.056-.005c.088-.011.155-.054.166-.22.009-.093.014-.239.014-.453Z" fill="#1a1311"/>
          <path id="Path_651" data-name="Path 651" d="M60.685,1911.495c.43.073.486.077.575.089.115.014.157-.013.182-.077.015-.041.023-.085.03-.109s.022-.048.039-.045.021.024.014.065c-.02.119-.073.384-.08.423s-.046.32-.068.448a1.2,1.2,0,0,1-.19.549.477.477,0,0,1-.467.18.657.657,0,0,1-.494-.466c-.273.128-.6.28-.827.416-.188.119-.246.177-.271.253-.01.03-.013.046-.02.068s-.019.045-.036.043-.022-.033-.018-.061l.043-.249a.88.88,0,0,1,.177-.489,1.065,1.065,0,0,1,.4-.227c.232-.091.357-.136.44-.173a.044.044,0,0,0,.022-.031l.031-.182c0-.014,0-.023-.018-.026L60,1911.87a4.157,4.157,0,0,0-.468-.066c-.074-.006-.138,0-.171.082a.682.682,0,0,0-.038.122c-.01.044-.022.048-.039.045s-.022-.023-.015-.063c.031-.185.091-.486.094-.505s.044-.3.059-.4c.007-.042.018-.054.038-.051s.024.024.019.055,0,.065,0,.1c0,.058.051.088.143.113.115.031.308.066.577.112Zm-.267.445a.04.04,0,0,0-.045.018.5.5,0,0,0-.073.208.278.278,0,0,0,.015.182.461.461,0,0,0,.331.167c.393.067.538-.165.563-.309a.372.372,0,0,0,.008-.113c0-.012-.006-.018-.028-.022Z" fill="#1a1311"/>
          <path id="Path_652" data-name="Path 652" d="M59.366,1914.541a.528.528,0,0,0,.31.03c.215-.032.746-.135.914-.175.19-.045.235-.061.292-.136a.478.478,0,0,0,.038-.064c.012-.026.028-.035.044-.029s.016.03,0,.061c-.039.109-.12.3-.156.4-.017.045-.069.215-.13.381-.011.029-.024.048-.04.042s-.021-.023-.015-.065c.018-.074,0-.095-.025-.1a.183.183,0,0,0-.087,0c-.091.014-.8.13-.893.144.245.272.457.511.544.6a.389.389,0,0,0,.119.091c.03.01.059,0,.1-.071.014-.022.03-.04.048-.033s.018.024,0,.067c-.04.108-.08.2-.117.3-.014.037-.085.256-.1.307-.012.031-.025.051-.043.044s-.022-.029-.01-.065a.466.466,0,0,0,.017-.111.358.358,0,0,0-.081-.2,7.737,7.737,0,0,0-.685-.821.825.825,0,0,0-.235-.134l-.188-.068c-.042-.016-.15-.055-.264-.088-.068-.019-.136-.038-.19.053-.028.044-.047.1-.069.14s-.026.038-.044.031-.019-.021-.005-.06c.07-.19.158-.407.189-.494s.1-.294.142-.413c.013-.037.03-.049.048-.042s.018.025.007.056a.643.643,0,0,0-.021.1c-.006.076.035.109.11.142.108.049.226.095.268.11Z" fill="#1a1311"/>
          <path id="Path_653" data-name="Path 653" d="M57.494,1918.375c-.232-.163-.393-.287-.469-.281s-.108.036-.243.227a.676.676,0,0,0-.149.291.31.31,0,0,0,.109.255c.02.024.036.042.023.06s-.025.01-.057-.011a2.23,2.23,0,0,1-.3-.286c-.047-.061-.036-.081.028-.173.224-.317.388-.522.56-.766.076-.108.156-.237.245-.363.023-.032.04-.048.061-.033s.011.028-.012.06-.032.057-.045.085c-.045.093-.005.124.174.26.089.07.225.169.368.269l.4.285c.375.264.418.291.495.338s.118.052.175.006a.527.527,0,0,0,.074-.082c.018-.025.039-.045.057-.032s.007.039-.025.085c-.093.131-.184.246-.247.336-.014.02-.208.31-.266.394-.03.041-.046.05-.06.04s-.009-.04.014-.073a.575.575,0,0,0,.045-.084c.033-.07,0-.117-.077-.179s-.115-.091-.5-.358Z" fill="#1a1311"/>
          <path id="Path_654" data-name="Path 654" d="M56.606,1920.278c.317.3.376.355.448.411s.119.063.169.025a.5.5,0,0,0,.067-.053c.023-.025.044-.031.059-.018s.009.028-.024.062c-.077.082-.273.277-.288.293s-.24.265-.309.339c-.033.035-.051.037-.063.026s0-.038.016-.058.029-.035.05-.065c.04-.063.033-.109-.037-.182s-.113-.119-.43-.418l-.36-.34c-.161-.153-.354-.33-.447-.4a.129.129,0,0,0-.178-.021,1.049,1.049,0,0,0-.1.08c-.033.035-.049.035-.061.024s-.011-.03.02-.063c.131-.139.344-.352.361-.37s.207-.231.273-.3c.031-.033.05-.045.066-.03s.006.036-.018.06-.034.045-.052.071c-.034.049,0,.106.051.168.078.089.222.233.422.422Z" fill="#1a1311"/>
          <path id="Path_655" data-name="Path 655" d="M55.082,1921.745c.283.361.32.4.38.471s.1.083.17.053c.023-.011.054-.036.078-.051s.048-.02.059-.007,0,.03-.033.058c-.126.1-.238.176-.335.252l-.623.492a.877.877,0,0,0-.112.1.189.189,0,0,1-.029.037c-.011.008-.02,0-.029-.01s-.021-.036-.065-.106c-.028-.049-.084-.13-.168-.25-.014-.017-.015-.038,0-.048s.029-.005.046.013a.4.4,0,0,0,.072.069c.051.042.1.048.216-.026.078-.051.274-.2.34-.25.014-.01.013-.02,0-.036l-.382-.486c-.012-.016-.023-.025-.038-.013-.064.046-.242.189-.32.254-.1.089-.128.118-.121.177,0,.031,0,.045-.009.053s-.023,0-.034-.016-.069-.11-.13-.2c-.037-.053-.122-.161-.141-.185s-.027-.048-.013-.058.032,0,.052.016l.046.046c.059.057.12.071.233-.008.066-.044.251-.182.32-.236.011-.008,0-.021-.01-.039l-.12-.153c-.058-.075-.159-.207-.227-.289-.123-.154-.182-.165-.428.028a.789.789,0,0,0-.185.188c-.043.073-.031.142.029.26.016.03.018.05,0,.06s-.037-.006-.058-.033a2.337,2.337,0,0,1-.2-.324c-.029-.07-.016-.084.066-.149.306-.239.482-.356.715-.538.1-.081.191-.161.313-.256.04-.032.058-.035.071-.02s.006.031-.027.057a.569.569,0,0,0-.06.061c-.055.057,0,.148.107.291.065.092.165.225.273.362Z" fill="#1a1311"/>
          <path id="Path_656" data-name="Path 656" d="M51.692,1923.868a.018.018,0,0,0-.006.025l.027.053c.2.387.222.43.268.507a.135.135,0,0,0,.175.078c.022-.008.06-.025.092-.038s.055-.009.06,0,0,.031-.037.05c-.145.075-.374.183-.4.2s-.307.167-.414.222c-.038.02-.055.016-.063,0s0-.032.025-.044c.04-.027.055-.035.082-.055.06-.044.058-.1.024-.181s-.069-.147-.268-.535l-.227-.44c-.122-.238-.217-.423-.283-.522-.05-.078-.092-.111-.174-.085-.037.013-.089.037-.115.047s-.049.009-.055,0,.007-.036.037-.051c.173-.089.429-.211.474-.234s.231-.129.354-.191c.045-.024.062-.016.069,0s0,.03-.036.047a.66.66,0,0,0-.072.05c-.054.043-.044.1-.011.182.044.11.12.27.242.508l.1.2a.017.017,0,0,0,.023.007l.781-.4a.016.016,0,0,0,.007-.023l-.134-.26c-.122-.238-.177-.339-.242-.441-.045-.069-.092-.1-.173-.079-.057.02-.083.03-.112.042s-.051.016-.06,0,0-.031.037-.051c.143-.073.441-.217.466-.23s.282-.154.362-.195c.027-.015.058-.024.067-.006s0,.033-.029.049-.042.028-.072.05c-.056.039-.046.115-.012.193.047.109.131.286.254.524l.223.435c.2.388.232.445.278.522s.1.118.2.086c.032-.011.045-.017.074-.029.046-.02.057-.01.064,0s-.016.037-.044.051c-.145.074-.341.166-.4.2-.095.049-.3.165-.409.22-.045.023-.057.017-.065,0s0-.032.032-.048a.833.833,0,0,0,.082-.055c.06-.05.043-.114.011-.189s-.086-.186-.247-.5l-.027-.053a.017.017,0,0,0-.024-.009Z" fill="#1a1311"/>
          <path id="Path_657" data-name="Path 657" d="M49.211,1924.577c-.1.031-.116.025-.122.006s.019-.053.129-.123a5.3,5.3,0,0,0,.523-.351c.068-.057.1-.1.127-.111s.029.017.033.049l.034.245c.007.051,0,.057-.048.072Z" fill="#1a1311"/>
          <path id="Path_658" data-name="Path 658" d="M47.672,1924.625a.533.533,0,0,0,.129.283c.135.171.487.581.606.707.133.142.169.173.263.186a.609.609,0,0,0,.074,0c.028,0,.044.007.047.024s-.018.028-.051.035c-.114.019-.323.046-.429.064-.047.009-.22.047-.394.076-.031.005-.054,0-.057-.013s.009-.03.049-.046c.074-.021.08-.05.076-.073a.189.189,0,0,0-.041-.075c-.058-.073-.51-.629-.569-.7-.114.348-.217.651-.25.771a.352.352,0,0,0-.02.149c.005.03.026.052.111.052.026,0,.05.006.053.025s-.012.028-.057.036c-.113.02-.209.028-.314.046-.039.006-.265.054-.318.063-.033.005-.056,0-.059-.016s.014-.034.05-.041a.464.464,0,0,0,.1-.04.352.352,0,0,0,.131-.168,7.789,7.789,0,0,0,.373-1,.832.832,0,0,0,0-.271l-.034-.2c-.008-.044-.027-.158-.055-.273-.018-.068-.035-.136-.141-.138a1.537,1.537,0,0,0-.155.009c-.034,0-.047,0-.05-.023s.01-.027.051-.034c.2-.034.431-.065.523-.081s.3-.061.428-.082c.039-.007.057,0,.061.021s-.013.028-.046.034a.568.568,0,0,0-.1.03c-.068.032-.076.085-.068.166.011.118.03.243.038.287Z" fill="#1a1311"/>
          <path id="Path_659" data-name="Path 659" d="M44.937,1925.053c.006-.388-.051-.552-.2-.664a.526.526,0,0,0-.591.016c-.159.132-.164.428-.168.717l-.006.338c-.006.413-.007.486,0,.576,0,.107.026.155.118.174.031.006.048.006.1.013.037,0,.051.012.05.028s-.014.029-.065.028c-.16,0-.332-.013-.377-.014s-.233.005-.371,0c-.042,0-.059-.009-.059-.029s.012-.025.049-.027a.858.858,0,0,0,.087-.01c.076-.013.1-.055.11-.17.007-.09.011-.163.017-.577l0-.275a1.057,1.057,0,0,1,.3-.884.894.894,0,0,1,.588-.177,1,1,0,0,1,.666.2.871.871,0,0,1,.25.738l-.006.427c-.007.436-.008.515,0,.6s.021.116.085.137a.729.729,0,0,0,.12.021c.042,0,.059.015.059.032s-.023.025-.076.025c-.121,0-.4-.015-.43-.015s-.358,0-.459,0c-.048,0-.062-.009-.062-.026s.015-.028.052-.03.064-.005.093-.01c.079-.016.094-.074.1-.164s.012-.222.017-.582Z" fill="#1a1311"/>
          <path id="Path_660" data-name="Path 660" d="M40.34,1924.278a2.636,2.636,0,0,1,.276-.722,1.221,1.221,0,0,1,.717-.444,1.079,1.079,0,0,1,.16-.031.119.119,0,0,1,.065,0,.022.022,0,0,1,.018.028c0,.014-.032.029-.079.042a.656.656,0,0,0-.178.082c-.188.119-.251.291-.451,1l-.194.693c-.118.419-.139.495-.155.584a.132.132,0,0,0,.072.169c.036.016.076.03.1.041s.049.023.043.045-.02.02-.066.008c-.117-.033-.415-.125-.437-.131s-.348-.089-.448-.118c-.046-.013-.06-.026-.056-.042s.027-.022.063-.015.041.009.081.014c.093.009.124-.047.153-.132s.048-.138.166-.558Z" fill="#1a1311"/>
          <path id="Path_661" data-name="Path 661" d="M38.538,1923.737c.165-.351.182-.524.088-.689a.463.463,0,0,0-.221-.191.469.469,0,0,0-.324-.038c-.2.055-.326.322-.449.585l-.144.3c-.176.374-.207.441-.241.525-.04.1-.04.151.037.206a.986.986,0,0,0,.089.055c.033.015.041.031.034.047s-.025.019-.071,0c-.145-.069-.3-.149-.337-.169s-.215-.091-.34-.151c-.038-.018-.049-.033-.041-.051s.021-.018.055-.005a.525.525,0,0,0,.084.027c.075.02.113-.009.169-.109.044-.08.078-.144.254-.519l.117-.249c.137-.29.3-.6.638-.682a.887.887,0,0,1,.609.081,1.006,1.006,0,0,1,.526.455.876.876,0,0,1-.076.776l-.182.387c-.186.4-.22.466-.25.551s-.029.114.021.159a.711.711,0,0,0,.1.07c.037.02.048.038.041.053s-.032.013-.08-.009c-.11-.051-.363-.18-.386-.191s-.327-.144-.419-.188c-.043-.021-.052-.034-.045-.049s.025-.02.059-.007.061.023.089.03c.079.018.116-.03.16-.109s.1-.2.255-.523Z" fill="#1a1311"/>
          <path id="Path_662" data-name="Path 662" d="M35.462,1923.364c-.053.066-.093.1-.119.079s-.024-.029-.047-.12c-.034-.15-.066-.35-.221-1.21-.068-.384-.109-.652-.128-.751l-.625.849c-.091.129-.124.2-.046.28a1.04,1.04,0,0,0,.09.086c.029.022.032.042.023.053s-.037.007-.062-.011c-.089-.068-.23-.186-.319-.254-.05-.037-.167-.116-.261-.188-.033-.025-.044-.044-.034-.057s.03-.016.057,0a.387.387,0,0,0,.061.036c.081.047.132.026.244-.108.36-.436.7-.884,1.052-1.327.087-.114.121-.127.15-.1s.065.134.113.372.113.577.154.8.1.59.145.873l.558-.78c.118-.165.155-.232.109-.3a.714.714,0,0,0-.107-.106c-.032-.028-.038-.043-.028-.056s.035-.009.071.018c.079.06.147.119.284.226.052.04.222.159.31.225.031.024.045.042.032.06s-.028.014-.06-.01-.051-.035-.079-.049c-.1-.053-.151-.006-.316.2C36.1,1922.543,35.695,1923.086,35.462,1923.364Z" fill="#1a1311"/>
          <path id="Path_663" data-name="Path 663" d="M33.3,1920.579c-.318.3-.378.354-.438.422a.132.132,0,0,0-.036.168.581.581,0,0,0,.05.069c.023.025.028.047.014.06s-.028.007-.061-.028c-.077-.082-.259-.29-.274-.306s-.251-.256-.32-.329c-.032-.035-.034-.053-.021-.065s.038,0,.057.02.033.031.061.054c.061.044.107.04.185-.025s.125-.106.443-.4l.362-.339c.163-.151.352-.332.431-.421a.131.131,0,0,0,.032-.176.916.916,0,0,0-.075-.1c-.032-.035-.032-.051-.019-.063s.03-.009.06.024c.131.14.33.366.348.384s.217.221.283.291c.03.033.042.053.025.068s-.036,0-.059-.021a.794.794,0,0,0-.068-.057c-.046-.037-.1-.009-.17.04-.094.073-.246.207-.448.4Z" fill="#1a1311"/>
          <path id="Path_664" data-name="Path 664" d="M32.3,1919.094a1.1,1.1,0,0,1-1.59-.4,1.072,1.072,0,0,1,.239-1.548,1.111,1.111,0,0,1,1.616.353A1.1,1.1,0,0,1,32.3,1919.094Zm-.938-1.542c-.39.257-.728.711-.455,1.127.142.217.421.38.979.014.444-.292.748-.757.482-1.162C32.274,1917.385,32.013,1917.126,31.364,1917.552Z" fill="#1a1311"/>
          <path id="Path_665" data-name="Path 665" d="M30.215,1916.045c-.406.161-.456.187-.539.223-.105.048-.127.093-.115.161a1.01,1.01,0,0,0,.032.108c.01.033,0,.053-.01.059s-.031-.009-.047-.048c-.045-.113-.137-.367-.151-.4s-.128-.3-.176-.417a1.2,1.2,0,0,1-.123-.569.48.48,0,0,1,.305-.4.664.664,0,0,1,.666.142c.166-.251.37-.554.489-.786.1-.2.119-.281.1-.358-.006-.031-.012-.046-.018-.068s-.007-.049.009-.055.036.016.047.042l.093.235a.883.883,0,0,1,.1.51,1.062,1.062,0,0,1-.219.4c-.151.2-.234.3-.286.377a.042.042,0,0,0,0,.038l.068.172a.02.02,0,0,0,.03.013l.133-.053a4.229,4.229,0,0,0,.434-.188c.066-.032.116-.074.1-.159a.639.639,0,0,0-.031-.124c-.014-.043-.006-.052.01-.059s.031.009.045.045c.07.175.176.464.183.482s.121.282.157.371c.015.04.013.056,0,.063s-.034-.008-.045-.037-.03-.058-.046-.084c-.034-.047-.089-.05-.182-.022-.114.033-.3.1-.551.2Zm0-.52a.039.039,0,0,0,.029-.039.5.5,0,0,0-.046-.215.277.277,0,0,0-.107-.148.457.457,0,0,0-.37.029c-.372.148-.375.422-.321.558a.357.357,0,0,0,.053.1c.009.009.014.013.035,0Z" fill="#1a1311"/>
          <path id="Path_666" data-name="Path 666" d="M28.893,1910.294a.017.017,0,0,0-.021-.015l-.059.005c-.435.034-.483.037-.572.05s-.127.038-.139.132c0,.023,0,.065,0,.1s-.012.055-.024.056-.029-.012-.032-.054c-.013-.162-.024-.415-.026-.443s-.036-.347-.045-.469c0-.042.007-.057.023-.058s.029.012.032.04c.009.047.01.064.019.1.016.072.066.091.156.092s.163-.007.6-.041l.494-.039c.266-.02.474-.036.591-.06.092-.016.137-.042.145-.127,0-.04,0-.1,0-.124s.01-.049.024-.05.03.02.032.055c.015.193.029.477.033.528s.029.263.04.4c0,.051-.009.063-.026.064s-.027-.014-.03-.051a.729.729,0,0,0-.018-.086c-.019-.066-.074-.079-.164-.08-.119,0-.3.006-.562.027l-.227.018a.015.015,0,0,0-.016.018l.068.875a.016.016,0,0,0,.019.015l.291-.022a5.039,5.039,0,0,0,.5-.054c.081-.014.132-.044.14-.129,0-.06,0-.088,0-.119s.005-.054.025-.055.029.011.032.054c.012.16.03.491.032.519s.033.319.04.409c0,.031,0,.062-.02.064s-.032-.009-.035-.046a.781.781,0,0,0-.018-.086c-.013-.066-.088-.086-.173-.085-.118,0-.315.01-.581.031l-.489.038c-.434.034-.5.042-.588.055s-.149.048-.155.147a.726.726,0,0,0,0,.08c0,.05-.013.057-.027.058s-.027-.029-.03-.06c-.012-.162-.021-.379-.026-.443-.008-.107-.035-.342-.045-.463,0-.05.007-.059.024-.061s.029.015.032.049a.834.834,0,0,0,.019.1c.022.074.088.083.17.083s.205-.008.556-.036l.059,0c.014,0,.019-.01.018-.018Z" fill="#1a1311"/>
          <path id="Path_667" data-name="Path 667" d="M28.83,1908.233c-.436,0-.518,0-.608.008s-.129.037-.14.1a.426.426,0,0,0-.012.084c0,.034-.011.053-.031.053s-.025-.014-.025-.062c0-.112.009-.388.009-.41s-.009-.357-.009-.459c0-.047.011-.061.028-.061s.028.025.028.053,0,.045.009.082c.014.073.05.1.152.106s.163.009.6.009h.5c.222,0,.483,0,.6-.014.073-.006.123-.023.143-.107a1.046,1.046,0,0,0,.014-.124c0-.048.011-.059.028-.059s.028.014.028.059c0,.191-.008.492-.008.518s.008.309.008.4c0,.045,0,.067-.028.067s-.028-.022-.028-.056-.006-.056-.011-.087c-.009-.059-.07-.079-.152-.087-.118-.012-.321-.017-.6-.017Z" fill="#1a1311"/>
          <path id="Path_668" data-name="Path 668" d="M29.87,1904.482c.166,0,.183.006.2.056a2.175,2.175,0,0,1,.107.689c0,.79-.355,1.339-1.1,1.339a1.015,1.015,0,0,1-.917-.506,1.542,1.542,0,0,1-.185-.807,2.863,2.863,0,0,1,.039-.456c.011-.1.031-.188.034-.27,0-.025.011-.031.036-.028a2.646,2.646,0,0,0,.518.031c.045,0,.059.011.059.031s-.023.031-.045.033a.448.448,0,0,0-.141.034c-.191.054-.326.3-.326.695a.628.628,0,0,0,.2.5.91.91,0,0,0,.607.177c.5,0,1.041-.242,1.041-.832a.3.3,0,0,0-.034-.158.09.09,0,0,0-.076-.033h-.172c-.115,0-.225,0-.329,0-.16,0-.219.036-.233.132-.006.036-.009.073-.014.121,0,.022-.011.045-.028.045s-.029-.014-.029-.06c0-.182.009-.4.009-.475,0-.1-.009-.284-.009-.436,0-.042.006-.064.029-.064s.025.017.028.045c0,.011,0,.048.008.076.014.067.045.1.144.106s.236.009.374.009Z" fill="#1a1311"/>
          <path id="Path_669" data-name="Path 669" d="M28.98,1901.722c0-.009,0-.018-.018-.019l-.059-.005c-.434-.038-.482-.042-.572-.045a.136.136,0,0,0-.159.108c-.005.022-.011.064-.017.1s-.022.052-.033.051-.027-.016-.023-.058c.014-.162.045-.414.047-.442s.022-.348.033-.469c0-.042.016-.055.032-.053s.027.016.025.044c0,.048,0,.065,0,.1,0,.074.051.1.14.117s.162.02.6.057l.493.044c.266.023.474.041.593.037.093,0,.142-.018.164-.1.009-.039.016-.095.022-.122s.018-.047.032-.046.026.025.023.059c-.017.194-.05.476-.055.526s-.014.264-.026.4c0,.051-.02.061-.036.059s-.024-.019-.021-.055a.627.627,0,0,0,0-.088c-.008-.069-.059-.09-.148-.106-.117-.022-.293-.043-.559-.066l-.227-.02a.016.016,0,0,0-.018.015l-.077.874c0,.009,0,.017.016.019l.291.025c.266.023.381.031.5.03.082,0,.137-.022.158-.1.014-.058.019-.085.025-.116s.013-.053.032-.051.027.017.024.059c-.015.159-.052.489-.054.517s-.02.32-.028.41c0,.031-.011.061-.03.059s-.03-.014-.027-.05,0-.051,0-.088c0-.068-.074-.1-.157-.112-.117-.019-.313-.042-.579-.065l-.487-.043c-.434-.037-.5-.041-.589-.043s-.155.024-.177.12c-.009.033-.01.048-.016.078-.007.05-.021.055-.035.053s-.023-.033-.02-.063c.014-.163.041-.378.047-.442.009-.107.022-.343.032-.463,0-.051.016-.058.033-.057s.027.02.024.053,0,.071,0,.1c.01.077.074.1.154.11s.2.026.554.057l.059.005c.014,0,.021-.007.021-.015Z" fill="#1a1311"/>
          <path id="Path_670" data-name="Path 670" d="M30.859,1898.848a.105.105,0,0,1-.128.017,3.9,3.9,0,0,1-.38-.164c-.045-.023-.057-.04-.051-.056s.032-.012.054-.006a.585.585,0,0,0,.087.018.473.473,0,0,0,.51-.316c.095-.25,0-.375-.117-.419s-.21-.056-.448.108l-.176.12a.79.79,0,0,1-.8.163.629.629,0,0,1-.29-.879,1.613,1.613,0,0,1,.142-.292,1.279,1.279,0,0,1,.081-.116c.018-.024.029-.028.05-.02.082.037.133.062.366.152.048.018.063.033.055.054s-.017.021-.061.01a.393.393,0,0,0-.171-.011.436.436,0,0,0-.311.293c-.083.215.008.34.129.387a.393.393,0,0,0,.393-.09l.141-.1c.385-.274.592-.327.857-.225a.573.573,0,0,1,.369.461.936.936,0,0,1-.063.5A1.134,1.134,0,0,1,30.859,1898.848Z" fill="#1a1311"/>
          <path id="Path_671" data-name="Path 671" d="M31.648,1896.456a1.021,1.021,0,0,1-.892-.12,1.043,1.043,0,0,1-.49-.7,1.333,1.333,0,0,1,.229-.948,2.474,2.474,0,0,1,.234-.325,2.245,2.245,0,0,0,.174-.221c.018-.025.033-.016.047-.007s.073.053.153.107.22.135.277.176c.035.024.054.042.041.064s-.033.016-.068,0a.419.419,0,0,0-.291-.049.786.786,0,0,0-.444.4.6.6,0,0,0-.1.425.925.925,0,0,0,.484.577.841.841,0,0,0,1.234-.18c.119-.2.175-.331.125-.489a.439.439,0,0,0-.114-.176c-.043-.042-.056-.06-.044-.079s.035-.005.055.007a4.018,4.018,0,0,1,.335.272.093.093,0,0,1,.032.1,1.483,1.483,0,0,1-.192.448A1.526,1.526,0,0,1,31.648,1896.456Z" fill="#1a1311"/>
          <path id="Path_672" data-name="Path 672" d="M33.377,1892.458c.006-.006.007-.016,0-.026l-.044-.04c-.321-.295-.356-.327-.426-.384a.137.137,0,0,0-.192-.012l-.073.067c-.026.029-.048.028-.056.021s-.012-.03.017-.06c.11-.12.288-.3.307-.322s.23-.262.311-.352c.029-.031.047-.034.059-.022s.011.029-.008.05c-.028.039-.039.051-.058.08-.041.061-.021.11.039.177s.117.115.438.41l.364.335c.2.181.35.321.447.391.074.056.124.072.192.02.03-.025.07-.065.092-.084s.042-.025.053-.016.005.036-.018.061c-.131.143-.329.347-.364.384s-.172.2-.265.3c-.035.037-.053.036-.065.025s-.007-.03.017-.057a.813.813,0,0,0,.051-.072c.035-.059.007-.107-.053-.175-.079-.088-.206-.212-.4-.393l-.168-.154a.016.016,0,0,0-.023,0l-.594.646c-.006.007-.01.015,0,.024l.215.2c.2.181.284.257.38.33.066.049.123.067.19.014.046-.037.067-.056.09-.077s.043-.034.057-.021.011.03-.017.061c-.109.118-.339.357-.358.378s-.211.241-.272.307c-.021.023-.046.042-.061.029s-.015-.029.01-.056.03-.041.051-.072c.039-.056,0-.124-.056-.185-.081-.086-.222-.223-.419-.4l-.36-.331c-.321-.3-.371-.337-.441-.394a.147.147,0,0,0-.214-.013c-.026.022-.036.032-.059.053s-.05.03-.061.02,0-.04.023-.062c.111-.12.264-.274.307-.322.073-.078.226-.258.308-.347.034-.038.048-.036.061-.025s.009.032-.014.057a.759.759,0,0,0-.058.08c-.039.067,0,.121.055.18s.146.146.405.383l.043.04c.011.01.02.008.026,0Z" fill="#1a1311"/>
          <path id="Path_673" data-name="Path 673" d="M34.83,1891.348a1.094,1.094,0,0,1,.349-1.6,1.072,1.072,0,0,1,1.554.192,1.111,1.111,0,0,1-.305,1.626A1.1,1.1,0,0,1,34.83,1891.348Zm1.513-.984c-.268-.383-.732-.707-1.14-.421-.212.148-.367.432.015.978.306.436.78.726,1.176.448C36.537,1891.269,36.789,1891,36.343,1890.364Z" fill="#1a1311"/>
          <path id="Path_674" data-name="Path 674" d="M37.719,1889.469a1.094,1.094,0,0,1,.689-1.487,1.071,1.071,0,0,1,1.474.527,1.111,1.111,0,0,1-.651,1.52A1.1,1.1,0,0,1,37.719,1889.469Zm1.69-.631c-.178-.432-.56-.849-1.021-.659-.239.1-.452.342-.2.958.2.492.6.878,1.05.693C39.4,1889.763,39.706,1889.556,39.409,1888.838Z" fill="#1a1311"/>
          <path id="Path_675" data-name="Path 675" d="M41.686,1888.39a1.423,1.423,0,0,0,.148.527c.049.045.1.048.333,0a.668.668,0,0,0,.309-.109.311.311,0,0,0,.1-.261c0-.032,0-.055.025-.059s.025.009.033.048a2.215,2.215,0,0,1,.024.417c-.007.076-.028.083-.139.106-.38.077-.64.113-.932.173-.13.026-.277.065-.429.1-.038.008-.062.007-.067-.018s.012-.028.05-.036.063-.019.092-.03c.1-.037.088-.087.052-.31-.017-.111-.048-.277-.083-.448l-.1-.485c-.092-.45-.1-.5-.128-.586s-.05-.119-.123-.124a.454.454,0,0,0-.111.008c-.03.006-.059.006-.063-.016s.022-.033.077-.046c.157-.032.3-.053.41-.075.024,0,.365-.083.464-.1.05-.01.068-.005.071.011s-.021.036-.06.044a.714.714,0,0,0-.091.031c-.072.029-.08.085-.066.183s.021.145.113.6Z" fill="#1a1311"/>
        </g>
      </g>
      <g id="Group_306" data-name="Group 306">
        <path id="Path_676" data-name="Path 676" d="M41.429,1918.859a.955.955,0,0,0,.028-.114c.009-.041.016-.088.023-.14.053,0,.1,0,.155.006h.3c.049,0,.1,0,.143-.006a.927.927,0,0,0-.031.126,1.094,1.094,0,0,0-.013.127l-.147,0-.151,0-.153,0Z" fill="#fff"/>
        <path id="Path_677" data-name="Path 677" d="M42.592,1919.3c.109-.419.183-.718.221-.895a2.483,2.483,0,0,0,.06-.393c-.063.024-.122.048-.177.073s-.1.048-.145.071a.659.659,0,0,0-.029-.074c-.011-.024-.023-.049-.036-.073.115-.032.233-.071.356-.117s.251-.1.385-.157l.039.032q-.1.361-.178.744t-.141.789c-.025,0-.051-.007-.079-.009s-.061,0-.1,0-.071,0-.1,0S42.617,1919.3,42.592,1919.3Z" fill="#fff"/>
        <path id="Path_678" data-name="Path 678" d="M44.388,1918.617a.358.358,0,0,1-.11.06.441.441,0,0,1-.13.018.453.453,0,0,1-.315-.108.365.365,0,0,1-.12-.285.548.548,0,0,1,.151-.4.54.54,0,0,1,.4-.152.506.506,0,0,1,.379.132.546.546,0,0,1,.128.392,1.317,1.317,0,0,1-.066.413,1.185,1.185,0,0,1-.183.356.767.767,0,0,1-.268.224.753.753,0,0,1-.342.076.705.705,0,0,1-.224-.037c0-.025-.007-.054-.013-.086s-.011-.065-.018-.1l.024-.006a.223.223,0,0,0,.077.1.2.2,0,0,0,.116.035.387.387,0,0,0,.309-.162A1.134,1.134,0,0,0,44.388,1918.617Zm-.167-.035a.2.2,0,0,0,.181-.134.8.8,0,0,0,.068-.36.311.311,0,0,0-.042-.179.145.145,0,0,0-.125-.059c-.072,0-.133.048-.184.143a.746.746,0,0,0-.075.351.3.3,0,0,0,.043.179A.158.158,0,0,0,44.221,1918.582Z" fill="#fff"/>
        <path id="Path_679" data-name="Path 679" d="M45.412,1918.468a.451.451,0,0,1,.125-.065.485.485,0,0,1,.144-.021.413.413,0,0,1,.3.109.371.371,0,0,1,.115.282.547.547,0,0,1-.159.411.576.576,0,0,1-.421.155.458.458,0,0,1-.361-.141.594.594,0,0,1-.126-.407,1.266,1.266,0,0,1,.085-.456,1.033,1.033,0,0,1,.229-.367.779.779,0,0,1,.251-.168.763.763,0,0,1,.294-.059.784.784,0,0,1,.081.005c.029,0,.059.009.091.016.01.031.019.059.026.084a.544.544,0,0,1,.015.069l-.026.013a.241.241,0,0,0-.08-.066.213.213,0,0,0-.1-.021.363.363,0,0,0-.29.163A1.173,1.173,0,0,0,45.412,1918.468Zm.169.034a.206.206,0,0,0-.182.135.805.805,0,0,0-.069.362.313.313,0,0,0,.041.177.145.145,0,0,0,.126.058c.072,0,.133-.047.184-.143a.749.749,0,0,0,.075-.351.3.3,0,0,0-.043-.179A.154.154,0,0,0,45.581,1918.5Z" fill="#fff"/>
        <path id="Path_680" data-name="Path 680" d="M46.762,1918.468a.435.435,0,0,1,.27-.086.415.415,0,0,1,.3.109.374.374,0,0,1,.115.282.544.544,0,0,1-.16.411.573.573,0,0,1-.42.155.457.457,0,0,1-.361-.141.594.594,0,0,1-.126-.407,1.266,1.266,0,0,1,.085-.456,1.019,1.019,0,0,1,.229-.367.768.768,0,0,1,.251-.168.759.759,0,0,1,.294-.059c.025,0,.052,0,.081.005s.058.009.09.016a.864.864,0,0,1,.026.084.544.544,0,0,1,.015.069l-.026.013a.232.232,0,0,0-.08-.066.209.209,0,0,0-.094-.021.366.366,0,0,0-.291.163A1.2,1.2,0,0,0,46.762,1918.468Zm.17.034a.206.206,0,0,0-.182.135.791.791,0,0,0-.07.362.3.3,0,0,0,.042.177.144.144,0,0,0,.126.058c.072,0,.133-.047.183-.143a.737.737,0,0,0,.076-.351.306.306,0,0,0-.043-.179A.154.154,0,0,0,46.932,1918.5Z" fill="#fff"/>
        <path id="Path_681" data-name="Path 681" d="M47.664,1918.859c.01-.034.02-.072.028-.114s.016-.088.023-.14c.052,0,.1,0,.155.006h.3c.048,0,.1,0,.143-.006a.8.8,0,0,0-.031.126.782.782,0,0,0-.013.127l-.148,0-.15,0-.153,0Z" fill="#fff"/>
      </g>
    </g>
  </g>
</svg>
