<svg xmlns="http://www.w3.org/2000/svg" width="49.144" height="21.164" viewBox="0 0 49.144 21.164">
  <g id="Group_366" data-name="Group 366" transform="translate(-366.212 -610.57)">
    <g id="Group_365" data-name="Group 365" transform="translate(79.07 -297.568)">
      <rect id="Rectangle_324" data-name="Rectangle 324" width="49.144" height="21.164" transform="translate(287.142 908.138)" fill="#ffdb00"/>
      <text id="MORE" transform="translate(297.346 920.746)" fill="#070303" font-size="6" font-family="Avenir-Heavy, Avenir" font-weight="800" letter-spacing="0.025em"><tspan x="0" y="0">MORE</tspan></text>
    </g>
    <path id="download-arrow" d="M9.611,6.29a.528.528,0,0,1,.753,0,.541.541,0,0,1,0,.753L7.208,10.2a.546.546,0,0,1-.768,0L3.284,7.043a.533.533,0,0,1,.753-.753L6.289,8.55V.527A.53.53,0,0,1,6.824,0a.524.524,0,0,1,.527.527V8.549Z" transform="translate(398.709 627.808) rotate(-90)" fill="#1e201d"/>
  </g>
</svg>
