<svg xmlns="http://www.w3.org/2000/svg" width="167.691" height="223.601" viewBox="0 0 167.691 223.601">
  <g id="Group_491" data-name="Group 491" transform="translate(-498.534 -954.133)">
    <g id="Group_258" data-name="Group 258" transform="translate(0 254)">
      <path id="Path_554" data-name="Path 554" d="M615.951,873.46a70.873,70.873,0,0,1,50.274-20.825v71.1Z" fill="#ffdb00"/>
      <path id="Path_555" data-name="Path 555" d="M615.951,873.46a70.875,70.875,0,0,0-20.824,50.274h71.1Z" fill="#00935f"/>
      <path id="Path_556" data-name="Path 556" d="M582.435,839.943a118.128,118.128,0,0,0-34.707,83.791h47.4a70.875,70.875,0,0,1,20.824-50.274Z" fill="#ffdb00"/>
      <path id="Path_557" data-name="Path 557" d="M615.951,873.46a70.873,70.873,0,0,1,50.274-20.825v-47.4a118.13,118.13,0,0,0-83.79,34.707Z" fill="#00935f"/>
    </g>
    <text id="International_Education" data-name="International
Education" transform="translate(665.534 982.133)" fill="#070303" font-size="27.647" font-family="Avenir-Black, Avenir" font-weight="800"><tspan x="-166.85" y="0">International</tspan><tspan x="-130.052" y="30.095">Education</tspan></text>
  </g>
</svg>
