<svg xmlns="http://www.w3.org/2000/svg" xmlns:xlink="http://www.w3.org/1999/xlink" width="733.382" height="91.673" viewBox="0 0 733.382 91.673">
  <defs>
    <clipPath id="clip-path">
      <rect id="Rectangle_285" data-name="Rectangle 285" width="68.834" height="67.143" fill="none"/>
    </clipPath>
  </defs>
  <g id="Group_487" data-name="Group 487" transform="translate(6.382 -2047.258)">
    <g id="Group_227" data-name="Group 227" transform="translate(-6.382 2047.258)">
      <g id="Group_218" data-name="Group 218" transform="translate(91.673 0)">
        <rect id="Rectangle_256" data-name="Rectangle 256" width="91.673" height="91.673" fill="#00935f"/>
        <g id="Group_217" data-name="Group 217" transform="translate(0 40.53)">
          <rect id="Rectangle_257" data-name="Rectangle 257" width="17.048" height="17.048" transform="translate(17.048)" fill="#fff"/>
          <rect id="Rectangle_258" data-name="Rectangle 258" width="17.048" height="17.048" fill="#fff"/>
          <rect id="Rectangle_259" data-name="Rectangle 259" width="17.048" height="17.048" transform="translate(0 34.096)" fill="#fff"/>
          <rect id="Rectangle_260" data-name="Rectangle 260" width="17.048" height="17.048" transform="translate(34.095 17.048)" fill="#fff"/>
          <rect id="Rectangle_261" data-name="Rectangle 261" width="2.534" height="17.048" transform="translate(68.191 0) rotate(90)" fill="#fff"/>
          <rect id="Rectangle_262" data-name="Rectangle 262" width="2.534" height="17.048" transform="translate(68.191 7.257) rotate(90)" fill="#fff"/>
          <rect id="Rectangle_263" data-name="Rectangle 263" width="2.534" height="17.048" transform="translate(68.191 14.514) rotate(90)" fill="#fff"/>
          <rect id="Rectangle_264" data-name="Rectangle 264" width="2.534" height="17.048" transform="translate(34.095 34.096)" fill="#fff"/>
          <rect id="Rectangle_265" data-name="Rectangle 265" width="2.534" height="17.048" transform="translate(41.352 34.096)" fill="#fff"/>
          <rect id="Rectangle_266" data-name="Rectangle 266" width="2.534" height="17.048" transform="translate(48.609 34.096)" fill="#fff"/>
          <rect id="Rectangle_267" data-name="Rectangle 267" width="2.534" height="17.048" transform="translate(17.048 34.096) rotate(-90)" fill="#fff"/>
          <rect id="Rectangle_268" data-name="Rectangle 268" width="2.534" height="17.048" transform="translate(17.048 26.839) rotate(-90)" fill="#fff"/>
          <rect id="Rectangle_269" data-name="Rectangle 269" width="2.534" height="17.048" transform="translate(17.048 19.582) rotate(-90)" fill="#fff"/>
          <rect id="Rectangle_270" data-name="Rectangle 270" width="2.534" height="17.048" transform="translate(51.143 51.143) rotate(-90)" fill="#fff"/>
          <rect id="Rectangle_271" data-name="Rectangle 271" width="2.534" height="17.048" transform="translate(51.143 43.886) rotate(-90)" fill="#fff"/>
          <rect id="Rectangle_272" data-name="Rectangle 272" width="2.534" height="17.048" transform="translate(51.143 36.629) rotate(-90)" fill="#fff"/>
        </g>
      </g>
      <g id="Group_220" data-name="Group 220" transform="translate(183.345 0)">
        <rect id="Rectangle_273" data-name="Rectangle 273" width="91.673" height="91.673" fill="#00935f"/>
        <g id="Group_219" data-name="Group 219" transform="translate(39.556 39.507)">
          <path id="Path_489" data-name="Path 489" d="M271.976,1566.414a31.171,31.171,0,0,1,22.11-9.16v31.27Z" transform="translate(-241.97 -1536.407)" fill="none"/>
          <path id="Path_490" data-name="Path 490" d="M271.272,1567.118a31.171,31.171,0,0,0-9.16,22.11h31.27Z" transform="translate(-241.265 -1537.112)" fill="#fff"/>
          <path id="Path_491" data-name="Path 491" d="M254.927,1551.243a51.953,51.953,0,0,0-15.265,36.852h20.847a31.171,31.171,0,0,1,9.16-22.11Z" transform="translate(-239.662 -1535.978)" fill="none"/>
          <path id="Path_492" data-name="Path 492" d="M270.842,1564.81a31.172,31.172,0,0,1,22.111-9.16V1534.8a51.953,51.953,0,0,0-36.852,15.265Z" transform="translate(-240.836 -1534.804)" fill="#fff"/>
        </g>
      </g>
      <g id="Group_222" data-name="Group 222" transform="translate(275.018 0)">
        <rect id="Rectangle_274" data-name="Rectangle 274" width="91.673" height="91.673" fill="#00935f"/>
        <rect id="Rectangle_275" data-name="Rectangle 275" width="91.673" height="91.673" transform="translate(91.673)" fill="#00935f"/>
        <g id="Group_221" data-name="Group 221" transform="translate(29.133)">
          <rect id="Rectangle_276" data-name="Rectangle 276" width="3.077" height="41.693" transform="translate(41.693)" fill="#fff"/>
          <rect id="Rectangle_277" data-name="Rectangle 277" width="3.077" height="41.693" transform="translate(50.578)" fill="#fff"/>
          <rect id="Rectangle_278" data-name="Rectangle 278" width="3.077" height="41.693" transform="translate(59.463)" fill="#fff"/>
          <rect id="Rectangle_279" data-name="Rectangle 279" width="20.847" height="41.693" transform="translate(41.693 0) rotate(90)" fill="#fff"/>
          <rect id="Rectangle_280" data-name="Rectangle 280" width="20.847" height="41.693" transform="translate(62.54 41.693) rotate(90)" fill="#fff"/>
          <rect id="Rectangle_281" data-name="Rectangle 281" width="2.523" height="41.693" transform="translate(0 20.847)" fill="#fff"/>
          <rect id="Rectangle_282" data-name="Rectangle 282" width="2.523" height="41.693" transform="translate(9.162 20.847)" fill="#fff"/>
          <rect id="Rectangle_283" data-name="Rectangle 283" width="2.523" height="41.693" transform="translate(18.323 20.847)" fill="#fff"/>
        </g>
      </g>
      <g id="Group_226" data-name="Group 226" transform="translate(0 0)">
        <rect id="Rectangle_284" data-name="Rectangle 284" width="91.673" height="91.673" fill="#00935f"/>
        <g id="Group_225" data-name="Group 225">
          <g id="Group_224" data-name="Group 224" clip-path="url(#clip-path)">
            <g id="Group_223" data-name="Group 223" transform="translate(0 -59.46)">
              <path id="Path_493" data-name="Path 493" d="M-.382,1433.221a28.058,28.058,0,0,1,27.571,22.84l.639,3.4,3.4.6a28.059,28.059,0,0,1,0,55.255l-3.4.6-.639,3.4A28.059,28.059,0,0,1-.382,1542.15v5A33.065,33.065,0,0,0,32.1,1520.233a33.055,33.055,0,0,0,0-65.1A33.064,33.064,0,0,0-.382,1428.225Z" transform="translate(0.382 -1428.225)" fill="#fff"/>
              <path id="Path_494" data-name="Path 494" d="M-.382,1444.364a18.062,18.062,0,0,1,17.753,14.7l1.917,10.189,10.21,1.8a18.067,18.067,0,0,1,0,35.576l-10.211,1.8-1.917,10.188a18.062,18.062,0,0,1-17.753,14.7" transform="translate(0.382 -1429.378)" fill="#fff"/>
            </g>
          </g>
        </g>
      </g>
    </g>
    <g id="Group_236" data-name="Group 236" transform="translate(451.981 2047.258)">
      <g id="Group_229" data-name="Group 229" transform="translate(91.673 0)">
        <rect id="Rectangle_286" data-name="Rectangle 286" width="91.673" height="91.673" fill="#00935f"/>
        <g id="Group_228" data-name="Group 228" transform="translate(0 40.53)">
          <rect id="Rectangle_287" data-name="Rectangle 287" width="17.048" height="17.048" transform="translate(17.048)" fill="#fff"/>
          <rect id="Rectangle_288" data-name="Rectangle 288" width="17.048" height="17.048" fill="#fff"/>
          <rect id="Rectangle_289" data-name="Rectangle 289" width="17.048" height="17.048" transform="translate(0 34.096)" fill="#fff"/>
          <rect id="Rectangle_290" data-name="Rectangle 290" width="17.048" height="17.048" transform="translate(34.096 17.048)" fill="#fff"/>
          <rect id="Rectangle_291" data-name="Rectangle 291" width="2.534" height="17.048" transform="translate(68.191 0) rotate(90)" fill="#fff"/>
          <rect id="Rectangle_292" data-name="Rectangle 292" width="2.534" height="17.048" transform="translate(68.191 7.257) rotate(90)" fill="#fff"/>
          <rect id="Rectangle_293" data-name="Rectangle 293" width="2.534" height="17.048" transform="translate(68.191 14.514) rotate(90)" fill="#fff"/>
          <rect id="Rectangle_294" data-name="Rectangle 294" width="2.534" height="17.048" transform="translate(34.096 34.096)" fill="#fff"/>
          <rect id="Rectangle_295" data-name="Rectangle 295" width="2.534" height="17.048" transform="translate(41.352 34.096)" fill="#fff"/>
          <rect id="Rectangle_296" data-name="Rectangle 296" width="2.534" height="17.048" transform="translate(48.609 34.096)" fill="#fff"/>
          <rect id="Rectangle_297" data-name="Rectangle 297" width="2.534" height="17.048" transform="translate(17.048 34.096) rotate(-90)" fill="#fff"/>
          <rect id="Rectangle_298" data-name="Rectangle 298" width="2.534" height="17.048" transform="translate(17.048 26.839) rotate(-90)" fill="#fff"/>
          <rect id="Rectangle_299" data-name="Rectangle 299" width="2.534" height="17.048" transform="translate(17.048 19.582) rotate(-90)" fill="#fff"/>
          <rect id="Rectangle_300" data-name="Rectangle 300" width="2.534" height="17.048" transform="translate(51.143 51.143) rotate(-90)" fill="#fff"/>
          <rect id="Rectangle_301" data-name="Rectangle 301" width="2.534" height="17.048" transform="translate(51.143 43.886) rotate(-90)" fill="#fff"/>
          <rect id="Rectangle_302" data-name="Rectangle 302" width="2.534" height="17.048" transform="translate(51.143 36.629) rotate(-90)" fill="#fff"/>
        </g>
      </g>
      <g id="Group_231" data-name="Group 231" transform="translate(183.345 0)">
        <rect id="Rectangle_303" data-name="Rectangle 303" width="91.673" height="91.673" fill="#00935f"/>
        <g id="Group_230" data-name="Group 230" transform="translate(39.556 39.507)">
          <path id="Path_495" data-name="Path 495" d="M765.592,1566.414a31.172,31.172,0,0,1,22.111-9.16v31.27Z" transform="translate(-735.587 -1536.407)" fill="none"/>
          <path id="Path_496" data-name="Path 496" d="M764.888,1567.118a31.17,31.17,0,0,0-9.159,22.11H787Z" transform="translate(-734.882 -1537.112)" fill="#fff"/>
          <path id="Path_497" data-name="Path 497" d="M748.543,1551.243a51.952,51.952,0,0,0-15.264,36.852h20.847a31.17,31.17,0,0,1,9.159-22.11Z" transform="translate(-733.279 -1535.978)" fill="none"/>
          <path id="Path_498" data-name="Path 498" d="M764.458,1564.81a31.172,31.172,0,0,1,22.111-9.16V1534.8a51.954,51.954,0,0,0-36.853,15.265Z" transform="translate(-734.453 -1534.804)" fill="#fff"/>
        </g>
      </g>
      <g id="Group_235" data-name="Group 235" transform="translate(0 0)">
        <rect id="Rectangle_304" data-name="Rectangle 304" width="91.673" height="91.673" fill="#00935f"/>
        <g id="Group_234" data-name="Group 234">
          <g id="Group_233" data-name="Group 233" clip-path="url(#clip-path)">
            <g id="Group_232" data-name="Group 232" transform="translate(0 -59.46)">
              <path id="Path_499" data-name="Path 499" d="M493.234,1433.221a28.058,28.058,0,0,1,27.571,22.84l.639,3.4,3.4.6a28.059,28.059,0,0,1,0,55.255l-3.4.6-.639,3.4a28.059,28.059,0,0,1-27.571,22.841v5a33.064,33.064,0,0,0,32.481-26.913,33.055,33.055,0,0,0,0-65.1,33.063,33.063,0,0,0-32.481-26.912Z" transform="translate(-493.234 -1428.225)" fill="#fff"/>
              <path id="Path_500" data-name="Path 500" d="M493.234,1444.364a18.062,18.062,0,0,1,17.753,14.7l1.917,10.189,10.21,1.8a18.067,18.067,0,0,1,0,35.576l-10.211,1.8-1.917,10.188a18.061,18.061,0,0,1-17.753,14.7" transform="translate(-493.234 -1429.378)" fill="#fff"/>
            </g>
          </g>
        </g>
      </g>
    </g>
  </g>
</svg>
