<svg xmlns="http://www.w3.org/2000/svg" width="54.321" height="54.321" viewBox="0 0 54.321 54.321">
  <g id="Group_369" data-name="Group 369" transform="translate(0 0)" opacity="0.116">
    <path id="Path_693" data-name="Path 693" d="M335.918-347.232a11.061,11.061,0,0,0-11.049,11.049,11.062,11.062,0,0,0,11.049,11.049,11.062,11.062,0,0,0,11.049-11.049A11.062,11.062,0,0,0,335.918-347.232Zm0,15.517a4.468,4.468,0,0,1-4.468-4.468,4.468,4.468,0,0,1,4.468-4.468,4.468,4.468,0,0,1,4.467,4.468A4.468,4.468,0,0,1,335.918-331.715Z" transform="translate(-308.758 363.343)" fill="#fff"/>
    <g id="Group_317" data-name="Group 317" transform="translate(28.988 0)">
      <path id="Path_694" data-name="Path 694" d="M387.736-368.861v-6.581h-6.814a22.141,22.141,0,0,0-11.936-11.936v-6.814H362.4v11.835a15.462,15.462,0,0,1,13.5,13.5Z" transform="translate(-362.404 394.193)" fill="#fff"/>
      <path id="Path_695" data-name="Path 695" d="M362.4-284.365h6.582v-6.814a22.142,22.142,0,0,0,11.936-11.936h6.814V-309.7H375.9a15.463,15.463,0,0,1-13.5,13.5Z" transform="translate(-362.404 338.685)" fill="#fff"/>
    </g>
    <g id="Group_318" data-name="Group 318" transform="translate(0 0)">
      <path id="Path_696" data-name="Path 696" d="M289.743-309.7a15.463,15.463,0,0,0,13.5,13.5v11.835h-6.582v-6.814a22.142,22.142,0,0,1-11.936-11.936h-6.814V-309.7Z" transform="translate(-277.908 338.685)" fill="#fff"/>
      <path id="Path_697" data-name="Path 697" d="M277.908-368.861v-6.581h6.814a22.142,22.142,0,0,1,11.936-11.936v-6.814h6.582v11.835a15.463,15.463,0,0,0-13.5,13.5Z" transform="translate(-277.908 394.193)" fill="#fff"/>
    </g>
  </g>
</svg>
