<svg id="Group_154" data-name="Group 154" xmlns="http://www.w3.org/2000/svg" width="44.167" height="33.125" viewBox="0 0 44.167 33.125">
  <rect id="Rectangle_209" data-name="Rectangle 209" width="11.042" height="11.042" transform="translate(11.042)" fill="#b7c6dc"/>
  <rect id="Rectangle_210" data-name="Rectangle 210" width="11.042" height="11.042" fill="#003265"/>
  <rect id="Rectangle_211" data-name="Rectangle 211" width="11.042" height="11.042" transform="translate(0 22.084)" fill="#b7c6dc"/>
  <rect id="Rectangle_212" data-name="Rectangle 212" width="11.042" height="11.042" transform="translate(22.084 11.042)" fill="#b7c6dc"/>
  <rect id="Rectangle_213" data-name="Rectangle 213" width="1.641" height="11.042" transform="translate(44.167) rotate(90)" fill="#e33d2a"/>
  <rect id="Rectangle_214" data-name="Rectangle 214" width="1.641" height="11.042" transform="translate(44.167 4.7) rotate(90)" fill="#e33d2a"/>
  <rect id="Rectangle_215" data-name="Rectangle 215" width="1.641" height="11.042" transform="translate(44.167 9.401) rotate(90)" fill="#e33d2a"/>
  <rect id="Rectangle_216" data-name="Rectangle 216" width="1.641" height="11.042" transform="translate(22.084 22.084)" fill="#e33d2a"/>
  <rect id="Rectangle_217" data-name="Rectangle 217" width="1.641" height="11.042" transform="translate(26.784 22.084)" fill="#e33d2a"/>
  <rect id="Rectangle_218" data-name="Rectangle 218" width="1.641" height="11.042" transform="translate(31.484 22.084)" fill="#e33d2a"/>
  <rect id="Rectangle_219" data-name="Rectangle 219" width="1.641" height="11.042" transform="translate(11.042 22.084) rotate(-90)" fill="#003265"/>
  <rect id="Rectangle_220" data-name="Rectangle 220" width="1.641" height="11.042" transform="translate(11.042 17.383) rotate(-90)" fill="#003265"/>
  <rect id="Rectangle_221" data-name="Rectangle 221" width="1.641" height="11.042" transform="translate(11.042 12.683) rotate(-90)" fill="#003265"/>
  <rect id="Rectangle_222" data-name="Rectangle 222" width="1.641" height="11.042" transform="translate(33.125 33.125) rotate(-90)" fill="#003265"/>
  <rect id="Rectangle_223" data-name="Rectangle 223" width="1.641" height="11.042" transform="translate(33.125 28.425) rotate(-90)" fill="#003265"/>
  <rect id="Rectangle_224" data-name="Rectangle 224" width="1.641" height="11.042" transform="translate(33.125 23.725) rotate(-90)" fill="#003265"/>
</svg>
