<svg xmlns="http://www.w3.org/2000/svg" width="447.446" height="73.554" viewBox="0 0 447.446 73.554">
  <g id="Group_296" data-name="Group 296" transform="translate(-196.614 -1463.874)">
    <g id="Group_290" data-name="Group 290">
      <g id="Group_288" data-name="Group 288">
        <g id="Group_250" data-name="Group 250">
          <g id="Group_248" data-name="Group 248">
            <path id="Path_669" data-name="Path 669" d="M320.706,1475.038H307.783a.281.281,0,0,0-.281.281v32.588a.281.281,0,0,0,.281.281h1.685a.281.281,0,0,0,.282-.281v-19.385h10.956a.281.281,0,0,0,.281-.281v-12.922A.281.281,0,0,0,320.706,1475.038Zm-10.956,5.618v-3.371h8.989v3.371Zm0,5.619V1482.9h8.989v3.371Z"/>
            <path id="Path_670" data-name="Path 670" d="M309.468,1508.324h-1.685a.418.418,0,0,1-.418-.417v-32.588a.419.419,0,0,1,.418-.418h12.923a.419.419,0,0,1,.418.418v12.922a.419.419,0,0,1-.418.418h-10.82v19.248A.418.418,0,0,1,309.468,1508.324Zm-1.685-33.15a.144.144,0,0,0-.144.145v32.588a.144.144,0,0,0,.144.144h1.685a.145.145,0,0,0,.145-.144v-19.521h11.093a.144.144,0,0,0,.144-.145v-12.922a.144.144,0,0,0-.144-.145Zm11.093,11.237h-9.263v-3.644h9.263Zm-8.99-.273H318.6v-3.1h-8.717Zm8.99-5.345h-9.263v-3.644h9.263Zm-8.99-.274H318.6v-3.1h-8.717Z"/>
          </g>
          <g id="Group_249" data-name="Group 249">
            <path id="Path_671" data-name="Path 671" d="M337.562,1475.038H324.639a.281.281,0,0,0-.281.281v12.922a.28.28,0,0,0,.281.281H335.6v17.418h-2.528a.282.282,0,0,0-.282.281v1.686a.281.281,0,0,0,.282.281h4.5a.281.281,0,0,0,.281-.281v-32.588A.281.281,0,0,0,337.562,1475.038Zm-10.956,5.618v-3.371H335.6v3.371Zm0,5.619V1482.9H335.6v3.371Z"/>
            <path id="Path_672" data-name="Path 672" d="M337.562,1508.324h-4.5a.418.418,0,0,1-.418-.417v-1.686a.418.418,0,0,1,.418-.418h2.391v-17.144H324.639a.419.419,0,0,1-.418-.418v-12.922a.418.418,0,0,1,.418-.418h12.923a.419.419,0,0,1,.418.418v32.588A.418.418,0,0,1,337.562,1508.324Zm-4.5-2.247a.144.144,0,0,0-.145.144v1.686a.145.145,0,0,0,.145.144h4.5a.145.145,0,0,0,.144-.144v-32.588a.145.145,0,0,0-.144-.145H324.639a.145.145,0,0,0-.145.145v12.922a.145.145,0,0,0,.145.145h11.093v17.691Zm2.665-19.666h-9.263v-3.644h9.263Zm-8.989-.273h8.715v-3.1h-8.715Zm8.989-5.345h-9.263v-3.644h9.263Zm-8.989-.274h8.715v-3.1h-8.715Z"/>
          </g>
        </g>
        <g id="Group_251" data-name="Group 251">
          <path id="Path_673" data-name="Path 673" d="M605.382,1480.656H591.617v-6.742a.281.281,0,0,0-.281-.281h-1.685a.281.281,0,0,0-.28.281v6.742H575.6a.28.28,0,0,0-.28.281v12.923a.28.28,0,0,0,.28.281h13.766v13.766a.281.281,0,0,0,.28.281h1.685a.281.281,0,0,0,.281-.281v-13.766h13.765a.281.281,0,0,0,.281-.281v-12.923A.281.281,0,0,0,605.382,1480.656Zm-13.765,11.237V1482.9h11.8v8.989Zm-2.246-8.989v8.989h-11.8V1482.9Z"/>
          <path id="Path_674" data-name="Path 674" d="M591.336,1508.324h-1.685a.417.417,0,0,1-.417-.417v-13.629H575.6a.418.418,0,0,1-.417-.418v-12.923a.418.418,0,0,1,.417-.418h13.629v-6.605a.418.418,0,0,1,.417-.418h1.685a.418.418,0,0,1,.418.418v6.605h13.628a.418.418,0,0,1,.418.418v12.923a.418.418,0,0,1-.418.418H591.754v13.629A.418.418,0,0,1,591.336,1508.324ZM575.6,1480.793a.144.144,0,0,0-.144.144v12.923a.145.145,0,0,0,.144.145h13.9v13.9a.145.145,0,0,0,.144.144h1.685a.144.144,0,0,0,.144-.144v-13.9h13.9a.145.145,0,0,0,.145-.145v-12.923a.144.144,0,0,0-.145-.144h-13.9v-6.879a.143.143,0,0,0-.144-.144h-1.685a.144.144,0,0,0-.144.144v6.879Zm27.949,11.237H591.48v-9.263h12.074Zm-11.8-.273h11.527v-8.716H591.754Zm-2.247.273H577.434v-9.263h12.073Zm-11.8-.273h11.526v-8.716H577.708Z"/>
        </g>
        <g id="Group_252" data-name="Group 252">
          <path id="Path_675" data-name="Path 675" d="M567.122,1495.546a.281.281,0,0,0,.281-.281v-1.686a.281.281,0,0,0-.281-.281H554.761v-7.585h10.957a.281.281,0,0,0,.281-.281v-10.113a.281.281,0,0,0-.281-.281H537.345a.281.281,0,0,0-.281.281v32.588a.281.281,0,0,0,.281.281h8.861a.281.281,0,0,0,.281-.281v-1.686a.281.281,0,0,0-.281-.281h-6.9v-10.394h13.206v1.685a10.969,10.969,0,0,0,10.955,10.957h3.651a.281.281,0,0,0,.281-.281v-1.686a.281.281,0,0,0-.281-.281h-3.651a8.718,8.718,0,0,1-8.71-8.708v-1.685Zm-14.606-9.833v7.585H539.31v-7.585Zm11.236-8.428v6.181H539.31v-6.181Z"/>
          <path id="Path_676" data-name="Path 676" d="M567.122,1508.324h-3.651a11.1,11.1,0,0,1-11.092-11.093v-1.548H539.446v10.12h6.76a.418.418,0,0,1,.418.418v1.686a.418.418,0,0,1-.418.417h-8.861a.417.417,0,0,1-.417-.417v-32.588a.418.418,0,0,1,.417-.418h28.373a.418.418,0,0,1,.417.418v10.113a.418.418,0,0,1-.417.418H554.9v7.311h12.224a.419.419,0,0,1,.418.418v1.686a.419.419,0,0,1-.418.418H554.9v1.548a8.582,8.582,0,0,0,8.573,8.572h3.651a.419.419,0,0,1,.418.418v1.686A.418.418,0,0,1,567.122,1508.324Zm-27.949-12.915h13.479v1.822a10.832,10.832,0,0,0,10.819,10.82h3.651a.144.144,0,0,0,.144-.144v-1.686a.144.144,0,0,0-.144-.144h-3.651a8.855,8.855,0,0,1-8.846-8.845v-1.822h12.5a.143.143,0,0,0,.144-.144v-1.686a.144.144,0,0,0-.144-.145h-12.5v-7.857h11.093a.145.145,0,0,0,.144-.145v-10.113a.145.145,0,0,0-.144-.145H537.345a.145.145,0,0,0-.144.145v32.588a.145.145,0,0,0,.144.144h8.861a.144.144,0,0,0,.144-.144v-1.686a.143.143,0,0,0-.144-.144h-7.033Zm13.479-1.975H539.173v-7.857h13.479Zm-13.206-.273h12.933v-7.311H539.446Zm24.443-9.559H539.173v-6.453h24.716Zm-24.443-.273h24.17v-5.907h-24.17Z"/>
        </g>
        <g id="Group_256" data-name="Group 256">
          <g id="Group_253" data-name="Group 253">
            <path id="Path_677" data-name="Path 677" d="M528.862,1475.038H499.085a.281.281,0,0,0-.281.281v32.588a.281.281,0,0,0,.281.281h29.777a.281.281,0,0,0,.281-.281v-32.588A.281.281,0,0,0,528.862,1475.038Zm-11.442,6.1v-3.856h3.373v3.856Zm-2.245,0H503.733a.281.281,0,0,0-.281.281v1.686a.281.281,0,0,0,.281.282h11.442v8.708a10.909,10.909,0,0,0,2.887,7.386l.228.249-.287.178a5.909,5.909,0,0,1-2.574.87.28.28,0,0,0-.254.28v1.692a.279.279,0,0,0,.089.206.284.284,0,0,0,.191.075h.021a8.1,8.1,0,0,0,4.42-1.71l.156-.123.168.108a10.935,10.935,0,0,0,5.333,1.73h.014a.283.283,0,0,0,.194-.078.277.277,0,0,0,.087-.2v-1.689a.28.28,0,0,0-.263-.28,8.735,8.735,0,0,1-3.731-1.113l-.258-.146.16-.25a8.111,8.111,0,0,0,1.283-4.373v-7.866a.281.281,0,0,0-.281-.281h-1.685a.281.281,0,0,0-.28.281v7.866a5.88,5.88,0,0,1-.751,2.871l-.2.347-.262-.3a8.693,8.693,0,0,1-2.165-5.728v-8.708h5.338a.281.281,0,0,0,.281-.282v-5.823H526.9v28.655H501.05v-28.655h14.125Z"/>
            <path id="Path_678" data-name="Path 678" d="M528.862,1508.324H499.085a.417.417,0,0,1-.417-.417v-32.588a.418.418,0,0,1,.417-.418h29.777a.418.418,0,0,1,.417.418v32.588A.417.417,0,0,1,528.862,1508.324Zm-29.777-33.15a.144.144,0,0,0-.144.145v32.588a.144.144,0,0,0,.144.144h29.777a.145.145,0,0,0,.144-.144v-32.588a.145.145,0,0,0-.144-.145Zm27.948,30.9h-26.12v-28.928h14.4v4.129H503.732a.145.145,0,0,0-.144.145v1.685a.145.145,0,0,0,.144.145h11.579v8.845a10.778,10.778,0,0,0,2.851,7.293l.34.371-.427.265a6.033,6.033,0,0,1-2.633.89.144.144,0,0,0-.131.144v1.692a.143.143,0,0,0,.144.144,7.955,7.955,0,0,0,4.356-1.682l.234-.182.249.16a10.8,10.8,0,0,0,5.266,1.709h0a.146.146,0,0,0,.105-.039.145.145,0,0,0,.045-.1v-1.689a.144.144,0,0,0-.135-.144,8.874,8.874,0,0,1-3.79-1.13l-.383-.218.238-.37a7.982,7.982,0,0,0,1.261-4.3v-7.866a.143.143,0,0,0-.143-.144h-1.685a.144.144,0,0,0-.145.144v7.866a6.014,6.014,0,0,1-.768,2.938l-.289.515-.39-.444a8.833,8.833,0,0,1-2.2-5.818v-8.845h5.476a.144.144,0,0,0,.143-.145v-5.959h4.131Zm-25.847-.274H526.76v-28.381h-3.584v5.686a.418.418,0,0,1-.417.418h-5.2v8.572a8.551,8.551,0,0,0,2.131,5.637l.135.154.1-.178a5.752,5.752,0,0,0,.733-2.8v-7.866a.418.418,0,0,1,.418-.418h1.685a.418.418,0,0,1,.417.418v7.866a8.25,8.25,0,0,1-1.305,4.447l-.082.128.132.075a8.6,8.6,0,0,0,3.672,1.1.417.417,0,0,1,.391.416v1.689a.416.416,0,0,1-.417.417,11.076,11.076,0,0,1-5.421-1.752l-.086-.055-.08.063a8.23,8.23,0,0,1-4.495,1.738.4.4,0,0,1-.314-.11.419.419,0,0,1-.133-.306v-1.692a.415.415,0,0,1,.379-.416,5.746,5.746,0,0,0,2.513-.85l.148-.091-.117-.128a11.05,11.05,0,0,1-2.923-7.478v-8.572H503.732a.418.418,0,0,1-.417-.418v-1.685a.418.418,0,0,1,.417-.418h11.306v-3.583H501.186Zm19.743-24.525h-3.646v-4.129h3.646Zm-3.372-.273h3.1v-3.583h-3.1Z"/>
          </g>
          <g id="Group_254" data-name="Group 254">
            <path id="Path_679" data-name="Path 679" d="M504.218,1497.436h7.3a.281.281,0,0,0,.281-.281v-10.114a.281.281,0,0,0-.281-.281h-7.3a.281.281,0,0,0-.281.281v10.114A.281.281,0,0,0,504.218,1497.436Zm5.337-8.428v6.18h-3.371v-6.18Z"/>
            <path id="Path_680" data-name="Path 680" d="M511.521,1497.573h-7.3a.419.419,0,0,1-.418-.418v-10.114a.419.419,0,0,1,.418-.418h7.3a.418.418,0,0,1,.417.418v10.114A.418.418,0,0,1,511.521,1497.573Zm-7.3-10.676a.143.143,0,0,0-.144.144v10.114a.143.143,0,0,0,.144.144h7.3a.144.144,0,0,0,.144-.144v-10.114a.144.144,0,0,0-.144-.144Zm5.474,8.428h-3.645v-6.454h3.645Zm-3.372-.274h3.1v-5.907h-3.1Z"/>
          </g>
          <g id="Group_255" data-name="Group 255">
            <rect id="Rectangle_68" data-name="Rectangle 68" width="8.35" height="2.248" rx="0.281" transform="translate(503.452 1500.807)"/>
            <path id="Path_681" data-name="Path 681" d="M511.521,1503.191h-7.789a.418.418,0,0,1-.417-.418v-1.685a.418.418,0,0,1,.417-.418h7.789a.418.418,0,0,1,.417.418v1.685A.418.418,0,0,1,511.521,1503.191Zm-7.789-2.248a.145.145,0,0,0-.144.145v1.685a.145.145,0,0,0,.144.145h7.789a.145.145,0,0,0,.144-.145v-1.685a.145.145,0,0,0-.144-.145Z"/>
          </g>
        </g>
        <g id="Group_263" data-name="Group 263">
          <g id="Group_257" data-name="Group 257">
            <path id="Path_682" data-name="Path 682" d="M358.966,1475.038h-7.3a.281.281,0,0,0-.281.281v16.574H348.01v-15.17a.281.281,0,0,0-.281-.281h-1.686a.281.281,0,0,0-.281.281v17.137a.281.281,0,0,0,.281.281h5.338v13.766a.281.281,0,0,0,.281.281h1.685a.281.281,0,0,0,.282-.281v-13.766h5.337a.281.281,0,0,0,.281-.281v-18.541A.281.281,0,0,0,358.966,1475.038Zm-5.337,5.618v-3.371H357v3.371Zm0,5.619V1482.9H357v3.371Zm0,5.618v-3.371H357v3.371Z"/>
            <path id="Path_683" data-name="Path 683" d="M353.347,1508.324h-1.685a.418.418,0,0,1-.418-.417v-13.629h-5.2a.419.419,0,0,1-.418-.418v-17.137a.419.419,0,0,1,.418-.418h1.686a.418.418,0,0,1,.418.418v15.034h3.1v-16.438a.418.418,0,0,1,.418-.418h7.3a.418.418,0,0,1,.418.418v18.541a.418.418,0,0,1-.418.418h-5.2v13.629A.418.418,0,0,1,353.347,1508.324Zm-7.3-31.745a.144.144,0,0,0-.144.144v17.137a.144.144,0,0,0,.144.145h5.474v13.9a.145.145,0,0,0,.145.144h1.685a.145.145,0,0,0,.145-.144v-13.9h5.474a.145.145,0,0,0,.145-.145v-18.541a.145.145,0,0,0-.145-.145h-7.3a.145.145,0,0,0-.145.145v16.711h-3.643v-15.307a.145.145,0,0,0-.145-.144Zm11.093,15.451h-3.644v-3.644h3.644Zm-3.371-.273h3.1v-3.1h-3.1Zm3.371-5.346h-3.644v-3.644h3.644Zm-3.371-.273h3.1v-3.1h-3.1Zm3.371-5.345h-3.644v-3.644h3.644Zm-3.371-.274h3.1v-3.1h-3.1Z"/>
          </g>
          <g id="Group_258" data-name="Group 258">
            <rect id="Rectangle_69" data-name="Rectangle 69" width="2.248" height="10.676" rx="0.281" transform="translate(345.762 1497.512)"/>
            <path id="Path_684" data-name="Path 684" d="M347.729,1508.324h-1.686a.418.418,0,0,1-.418-.417v-10.114a.418.418,0,0,1,.418-.417h1.686a.418.418,0,0,1,.418.417v10.114A.418.418,0,0,1,347.729,1508.324Zm-1.686-10.675a.144.144,0,0,0-.144.144v10.114a.144.144,0,0,0,.144.144h1.686a.145.145,0,0,0,.145-.144v-10.114a.145.145,0,0,0-.145-.144Z"/>
          </g>
          <g id="Group_259" data-name="Group 259">
            <rect id="Rectangle_70" data-name="Rectangle 70" width="2.248" height="10.676" rx="0.281" transform="translate(357 1497.512)"/>
            <path id="Path_685" data-name="Path 685" d="M358.966,1508.324h-1.685a.418.418,0,0,1-.418-.417v-10.114a.418.418,0,0,1,.418-.417h1.685a.418.418,0,0,1,.418.417v10.114A.418.418,0,0,1,358.966,1508.324Zm-1.685-10.675a.145.145,0,0,0-.145.144v10.114a.145.145,0,0,0,.145.144h1.685a.145.145,0,0,0,.145-.144v-10.114a.145.145,0,0,0-.145-.144Z"/>
          </g>
          <g id="Group_260" data-name="Group 260">
            <rect id="Rectangle_71" data-name="Rectangle 71" width="2.248" height="10.676" rx="0.281" transform="translate(362.618 1497.512)"/>
            <path id="Path_686" data-name="Path 686" d="M364.585,1508.324H362.9a.418.418,0,0,1-.418-.417v-10.114a.418.418,0,0,1,.418-.417h1.686a.418.418,0,0,1,.418.417v10.114A.418.418,0,0,1,364.585,1508.324Zm-1.686-10.675a.145.145,0,0,0-.145.144v10.114a.145.145,0,0,0,.145.144h1.686a.145.145,0,0,0,.145-.144v-10.114a.145.145,0,0,0-.145-.144Z"/>
          </g>
          <g id="Group_261" data-name="Group 261">
            <rect id="Rectangle_72" data-name="Rectangle 72" width="2.248" height="10.676" rx="0.281" transform="translate(373.855 1497.512)"/>
            <path id="Path_687" data-name="Path 687" d="M375.822,1508.324h-1.686a.417.417,0,0,1-.417-.417v-10.114a.417.417,0,0,1,.417-.417h1.686a.418.418,0,0,1,.418.417v10.114A.418.418,0,0,1,375.822,1508.324Zm-1.686-10.675a.145.145,0,0,0-.144.144v10.114a.145.145,0,0,0,.144.144h1.686a.144.144,0,0,0,.144-.144v-10.114a.144.144,0,0,0-.144-.144Z"/>
          </g>
          <g id="Group_262" data-name="Group 262">
            <path id="Path_688" data-name="Path 688" d="M365.147,1484.309a5.344,5.344,0,0,0,5.337-5.338v-1.686h5.338a.281.281,0,0,0,.281-.281v-1.685a.281.281,0,0,0-.281-.281H362.9a.281.281,0,0,0-.281.281V1477a.281.281,0,0,0,.281.281h5.338v1.686a3.093,3.093,0,0,1-3.09,3.09H362.9a.281.281,0,0,0-.281.281v7.3a.281.281,0,0,0,.281.281h2.528v1.966H362.9a.282.282,0,0,0-.281.282v1.685a.281.281,0,0,0,.281.281h5.338v13.766a.281.281,0,0,0,.281.281H370.2a.281.281,0,0,0,.281-.281v-13.766h5.338a.281.281,0,0,0,.281-.281v-4.495a.281.281,0,0,0-.281-.281h-1.686a.281.281,0,0,0-.281.281v2.528h-6.18v-1.966h.281a8.156,8.156,0,0,0,8.147-8.147v-2.247a.281.281,0,0,0-.281-.281h-1.686a.281.281,0,0,0-.281.281v2.247a5.905,5.905,0,0,1-5.9,5.9h-3.09v-3.37Z"/>
            <path id="Path_689" data-name="Path 689" d="M370.2,1508.324h-1.685a.418.418,0,0,1-.418-.417v-13.629h-5.2a.418.418,0,0,1-.418-.418v-1.685a.418.418,0,0,1,.418-.418h2.392v-1.693H362.9a.418.418,0,0,1-.418-.418v-7.3a.419.419,0,0,1,.418-.418h2.248a2.957,2.957,0,0,0,2.953-2.953v-1.549h-5.2a.418.418,0,0,1-.418-.418v-1.685a.418.418,0,0,1,.418-.418h12.923a.419.419,0,0,1,.418.418V1477a.418.418,0,0,1-.418.418h-5.2v1.549a5.481,5.481,0,0,1-5.474,5.474H365v3.1h2.953a5.769,5.769,0,0,0,5.763-5.762v-2.247a.418.418,0,0,1,.417-.418h1.686a.418.418,0,0,1,.418.418v2.247a8.293,8.293,0,0,1-8.284,8.283h-.144v1.694h5.907v-2.392a.418.418,0,0,1,.417-.418h1.686a.419.419,0,0,1,.418.418v4.495a.419.419,0,0,1-.418.418h-5.2v13.629A.418.418,0,0,1,370.2,1508.324Zm-7.3-16.294a.145.145,0,0,0-.145.145v1.685a.145.145,0,0,0,.145.145h5.474v13.9a.145.145,0,0,0,.145.144H370.2a.145.145,0,0,0,.145-.144v-13.9h5.474a.144.144,0,0,0,.144-.145v-4.495a.143.143,0,0,0-.144-.144h-1.686a.144.144,0,0,0-.144.144v2.665h-6.453v-2.24h.417a8.019,8.019,0,0,0,8.01-8.01v-2.247a.144.144,0,0,0-.144-.145h-1.686a.145.145,0,0,0-.144.145v2.247a6.043,6.043,0,0,1-6.036,6.036H364.73v-3.644h.417a5.207,5.207,0,0,0,5.2-5.2v-1.822h5.474a.144.144,0,0,0,.144-.145v-1.685a.144.144,0,0,0-.144-.145H362.9a.145.145,0,0,0-.145.145V1477a.145.145,0,0,0,.145.145h5.474v1.822a3.229,3.229,0,0,1-3.226,3.226H362.9a.145.145,0,0,0-.145.145v7.3a.145.145,0,0,0,.145.145h2.665v2.239Z"/>
          </g>
        </g>
        <g id="Group_267" data-name="Group 267">
          <g id="Group_264" data-name="Group 264">
            <path id="Path_690" data-name="Path 690" d="M642.2,1500.852h-7.654s2.738-2.094,2.738-3.621v-.843a.281.281,0,0,0-.281-.281H622.881a.281.281,0,0,0-.281.281v1.686a.281.281,0,0,0,.281.281h11l-.245.422c-.553.952-3.515,2.069-4.6,2.069l-13.725.006a.281.281,0,0,0-.281.281v1.686a.281.281,0,0,0,.281.281h13.726v2.839H625.64a.281.281,0,0,0-.281.282v1.686a.281.281,0,0,0,.281.281H631a.281.281,0,0,0,.281-.281V1503.1H642.2a.281.281,0,0,0,.281-.281v-1.686A.281.281,0,0,0,642.2,1500.852Z"/>
            <path id="Path_691" data-name="Path 691" d="M631,1508.324H625.64a.417.417,0,0,1-.417-.417v-1.686a.418.418,0,0,1,.417-.418H628.9v-2.566h-13.59a.419.419,0,0,1-.418-.418v-1.686a.419.419,0,0,1,.418-.418l13.725-.006c1.047,0,3.97-1.113,4.486-2l.125-.216H622.881a.418.418,0,0,1-.417-.418v-1.686a.417.417,0,0,1,.417-.417H637a.418.418,0,0,1,.418.417v.843c0,1.23-1.616,2.969-2.4,3.484H642.2a.419.419,0,0,1,.418.418v1.686a.419.419,0,0,1-.418.418H631.418v4.67A.417.417,0,0,1,631,1508.324Zm-5.361-2.248a.145.145,0,0,0-.144.145v1.686a.145.145,0,0,0,.144.144H631a.145.145,0,0,0,.144-.144v-4.944H642.2a.144.144,0,0,0,.144-.144v-1.686a.144.144,0,0,0-.144-.144h-8.166l.445-.255c.026-.016,2.668-2.073,2.668-3.5v-.843a.144.144,0,0,0-.144-.144H622.881a.145.145,0,0,0-.144.144v1.686a.144.144,0,0,0,.144.144h11.24l-.365.627c-.615,1.059-3.749,2.137-4.722,2.137l-13.725.007a.144.144,0,0,0-.144.144v1.686a.144.144,0,0,0,.144.144h13.863v3.113Z"/>
          </g>
          <g id="Group_265" data-name="Group 265">
            <path id="Path_692" data-name="Path 692" d="M643.643,1491.893h-1.124v-16.574a.281.281,0,0,0-.281-.281h-4.493a.281.281,0,0,0-.281.281V1477a.281.281,0,0,0,.281.281h2.528v3.371h-2.528a.281.281,0,0,0-.281.281v1.686a.281.281,0,0,0,.281.281h2.528v3.371h-2.528a.281.281,0,0,0-.281.281v1.685a.281.281,0,0,0,.281.281h2.528v3.371H617.235v-3.371h2.529a.281.281,0,0,0,.281-.281v-1.685a.281.281,0,0,0-.281-.281h-2.529V1482.9h2.529a.281.281,0,0,0,.281-.281v-1.686a.281.281,0,0,0-.281-.281h-2.529v-3.371h2.529a.281.281,0,0,0,.281-.281v-1.685a.281.281,0,0,0-.281-.281H615.27a.281.281,0,0,0-.281.281v16.574h-1.124a.281.281,0,0,0-.28.282v4.495a.281.281,0,0,0,.28.281h1.686a.281.281,0,0,0,.28-.281v-2.529h25.847v2.529a.281.281,0,0,0,.281.281h1.684a.28.28,0,0,0,.28-.281v-4.495A.281.281,0,0,0,643.643,1491.893Z"/>
            <path id="Path_693" data-name="Path 693" d="M643.643,1497.087h-1.684a.418.418,0,0,1-.418-.417v-2.392H615.968v2.392a.417.417,0,0,1-.417.417h-1.686a.417.417,0,0,1-.417-.417v-4.495a.418.418,0,0,1,.417-.418h.987v-16.438a.419.419,0,0,1,.418-.418h4.494a.418.418,0,0,1,.418.418V1477a.418.418,0,0,1-.418.418h-2.392v3.1h2.392a.418.418,0,0,1,.418.418v1.686a.418.418,0,0,1-.418.418h-2.392v3.1h2.392a.419.419,0,0,1,.418.418v1.685a.419.419,0,0,1-.418.418h-2.392v3.1h22.764v-3.1h-2.391a.419.419,0,0,1-.418-.418v-1.685a.419.419,0,0,1,.418-.418h2.391v-3.1h-2.391a.419.419,0,0,1-.418-.418v-1.686a.419.419,0,0,1,.418-.418h2.391v-3.1h-2.391a.418.418,0,0,1-.418-.418v-1.685a.419.419,0,0,1,.418-.418h4.493a.418.418,0,0,1,.418.418v16.438h.987a.418.418,0,0,1,.417.418v4.495A.417.417,0,0,1,643.643,1497.087Zm-27.948-3.082h26.12v2.665a.144.144,0,0,0,.144.144h1.684a.145.145,0,0,0,.144-.144v-4.495a.145.145,0,0,0-.144-.145h-1.261v-16.711a.144.144,0,0,0-.144-.145h-4.493a.144.144,0,0,0-.144.145V1477a.144.144,0,0,0,.144.145h2.664v3.644h-2.664a.143.143,0,0,0-.144.144v1.686a.143.143,0,0,0,.144.144h2.664v3.644h-2.664a.144.144,0,0,0-.144.145v1.685a.144.144,0,0,0,.144.145h2.664v3.644H617.1v-3.644h2.665a.145.145,0,0,0,.145-.145v-1.685a.145.145,0,0,0-.145-.145H617.1v-3.644h2.665a.144.144,0,0,0,.145-.144v-1.686a.144.144,0,0,0-.145-.144H617.1v-3.644h2.665a.145.145,0,0,0,.145-.145v-1.685a.145.145,0,0,0-.145-.145H615.27a.144.144,0,0,0-.144.145v16.711h-1.261a.144.144,0,0,0-.143.145v4.495a.144.144,0,0,0,.143.144h1.686a.145.145,0,0,0,.144-.144Z"/>
          </g>
          <g id="Group_266" data-name="Group 266">
            <path id="Path_694" data-name="Path 694" d="M632.095,1483.465h0a2.678,2.678,0,0,1,2.679-2.679v-2.68a5.364,5.364,0,0,0-5.183,4.02H627.9a5.364,5.364,0,0,0-5.183-4.02v2.68a2.679,2.679,0,0,1,2.68,2.679h0a2.68,2.68,0,0,1-2.68,2.68v2.68a5.364,5.364,0,0,0,5.183-4.02h1.693a5.364,5.364,0,0,0,5.183,4.02v-2.68A2.679,2.679,0,0,1,632.095,1483.465Z"/>
            <path id="Path_695" data-name="Path 695" d="M634.911,1488.961h-.137a5.492,5.492,0,0,1-5.287-4.019H628a5.493,5.493,0,0,1-5.288,4.019h-.136v-2.952h.136a2.544,2.544,0,0,0,0-5.087h-.136v-2.952h.136a5.493,5.493,0,0,1,5.288,4.019h1.483a5.494,5.494,0,0,1,5.288-4.019h.137v2.952h-.137a2.544,2.544,0,0,0,0,5.087h.137Zm-7.119-4.292H629.7l.027.1a5.22,5.22,0,0,0,4.914,3.915v-2.407a2.817,2.817,0,0,1,0-5.627v-2.407a5.221,5.221,0,0,0-4.914,3.915l-.026.1h-1.9l-.027-.1a5.219,5.219,0,0,0-4.914-3.915v2.407a2.817,2.817,0,0,1,0,5.627v2.407a5.221,5.221,0,0,0,4.914-3.915Z"/>
          </g>
        </g>
        <g id="Group_273" data-name="Group 273">
          <g id="Group_268" data-name="Group 268">
            <path id="Path_696" data-name="Path 696" d="M478.382,1482.9h3.934v13.766a.281.281,0,0,0,.28.281h1.685a.281.281,0,0,0,.281-.281v-15.733a.281.281,0,0,0-.281-.281h-3.933v-3.371h3.933a.281.281,0,0,0,.281-.281v-1.685a.281.281,0,0,0-.281-.281h-5.9a.281.281,0,0,0-.28.281v7.3A.281.281,0,0,0,478.382,1482.9Z"/>
            <path id="Path_697" data-name="Path 697" d="M484.281,1497.087H482.6a.417.417,0,0,1-.417-.417v-13.629h-3.8a.418.418,0,0,1-.418-.418v-7.3a.418.418,0,0,1,.418-.418h5.9a.419.419,0,0,1,.418.418V1477a.418.418,0,0,1-.418.418h-3.8v3.1h3.8a.419.419,0,0,1,.418.418v15.733A.418.418,0,0,1,484.281,1497.087Zm-5.9-21.913a.145.145,0,0,0-.145.145v7.3a.144.144,0,0,0,.145.144h4.069v13.9a.145.145,0,0,0,.144.144h1.685a.144.144,0,0,0,.144-.144v-15.733a.143.143,0,0,0-.144-.144h-4.069v-3.644h4.069a.144.144,0,0,0,.144-.145v-1.685a.144.144,0,0,0-.144-.145Z"/>
          </g>
          <g id="Group_269" data-name="Group 269">
            <rect id="Rectangle_73" data-name="Rectangle 73" width="2.246" height="10.676" rx="0.281" transform="translate(478.102 1486.275)"/>
            <path id="Path_698" data-name="Path 698" d="M480.068,1497.087h-1.685a.418.418,0,0,1-.418-.417v-10.114a.419.419,0,0,1,.418-.418h1.685a.418.418,0,0,1,.417.418v10.114A.417.417,0,0,1,480.068,1497.087Zm-1.685-10.676a.145.145,0,0,0-.145.145v10.114a.145.145,0,0,0,.145.144h1.685a.145.145,0,0,0,.144-.144v-10.114a.145.145,0,0,0-.144-.145Z"/>
          </g>
          <g id="Group_270" data-name="Group 270">
            <path id="Path_699" data-name="Path 699" d="M491.3,1498.916H490.18v-23.6a.281.281,0,0,0-.28-.281h-3.09a.28.28,0,0,0-.28.281V1477a.28.28,0,0,0,.28.281h1.124v4.776H486.81a.28.28,0,0,0-.28.281v1.685a.281.281,0,0,0,.28.282h1.124v6.18H486.81a.28.28,0,0,0-.28.281v1.685a.28.28,0,0,0,.28.281h1.124v6.18h-13.2v-6.18h1.125a.28.28,0,0,0,.28-.281v-1.685a.28.28,0,0,0-.28-.281h-1.125v-6.18h1.125a.281.281,0,0,0,.28-.282v-1.685a.281.281,0,0,0-.28-.281h-1.125v-4.776h1.125a.28.28,0,0,0,.28-.281v-1.685a.281.281,0,0,0-.28-.281h-3.09a.28.28,0,0,0-.28.281v23.6h-1.969v-22.193a.281.281,0,0,0-.281-.281H468.55a.28.28,0,0,0-.28.281v29.217H466.3v-30.621a.281.281,0,0,0-.281-.281h-1.684a.281.281,0,0,0-.28.281v30.621h-1.969v-29.217a.281.281,0,0,0-.281-.281h-1.683a.281.281,0,0,0-.281.281v31.184a.281.281,0,0,0,.281.281h10.111a.281.281,0,0,0,.281-.281v-6.742H491.3a.281.281,0,0,0,.281-.281V1499.2A.281.281,0,0,0,491.3,1498.916Z"/>
            <path id="Path_700" data-name="Path 700" d="M470.234,1508.324H460.123a.418.418,0,0,1-.418-.417v-31.184a.418.418,0,0,1,.418-.418h1.683a.418.418,0,0,1,.418.418v29.08h1.7v-30.484a.418.418,0,0,1,.417-.418h1.684a.419.419,0,0,1,.418.418V1505.8h1.7v-29.08a.418.418,0,0,1,.417-.418h1.684a.418.418,0,0,1,.418.418v22.057h1.695v-23.461a.418.418,0,0,1,.417-.418h3.09a.418.418,0,0,1,.417.418V1477a.418.418,0,0,1-.417.418h-.988v4.5h.988a.418.418,0,0,1,.417.418v1.685a.418.418,0,0,1-.417.418h-.988v5.907h.988a.418.418,0,0,1,.417.418v1.685a.418.418,0,0,1-.417.418h-.988v5.907H487.8v-5.907h-.987a.418.418,0,0,1-.417-.418v-1.685a.418.418,0,0,1,.417-.418h.987v-5.907h-.987a.418.418,0,0,1-.417-.418v-1.685a.418.418,0,0,1,.417-.418h.987v-4.5h-.987a.418.418,0,0,1-.417-.418v-1.685a.418.418,0,0,1,.417-.418h3.09a.418.418,0,0,1,.417.418v23.461h.987a.417.417,0,0,1,.417.417v1.687a.418.418,0,0,1-.417.418H470.652v6.6A.418.418,0,0,1,470.234,1508.324Zm-10.111-31.745a.144.144,0,0,0-.144.144v31.184a.144.144,0,0,0,.144.144h10.111a.144.144,0,0,0,.144-.144v-6.879H491.3a.145.145,0,0,0,.144-.144V1499.2a.145.145,0,0,0-.144-.144h-1.26v-23.734a.145.145,0,0,0-.144-.145h-3.09a.145.145,0,0,0-.144.145V1477a.145.145,0,0,0,.144.145h1.261v5.048H486.81a.145.145,0,0,0-.144.145v1.685a.145.145,0,0,0,.144.145h1.261v6.453H486.81a.145.145,0,0,0-.144.145v1.685a.145.145,0,0,0,.144.145h1.261v6.453H474.592V1492.6h1.262a.145.145,0,0,0,.144-.145v-1.685a.145.145,0,0,0-.144-.145h-1.262v-6.453h1.262a.145.145,0,0,0,.144-.145v-1.685a.145.145,0,0,0-.144-.145h-1.262v-5.048h1.262A.145.145,0,0,0,476,1477v-1.685a.145.145,0,0,0-.144-.145h-3.09a.145.145,0,0,0-.144.145v23.734h-2.242v-22.33a.144.144,0,0,0-.144-.144H468.55a.145.145,0,0,0-.144.144v29.354h-2.242v-30.758a.144.144,0,0,0-.144-.145h-1.684a.145.145,0,0,0-.144.145v30.758h-2.241v-29.354a.145.145,0,0,0-.145-.144Z"/>
          </g>
          <g id="Group_271" data-name="Group 271">
            <path id="Path_701" data-name="Path 701" d="M478.631,1503.13h-1.7a.28.28,0,0,0-.277.235,3.082,3.082,0,0,1-3.048,2.575h-.842a.28.28,0,0,0-.28.281v1.686a.28.28,0,0,0,.28.281h.842a5.329,5.329,0,0,0,5.305-4.745.283.283,0,0,0-.28-.312Z"/>
            <path id="Path_702" data-name="Path 702" d="M473.606,1508.324h-.842a.417.417,0,0,1-.417-.417v-1.686a.418.418,0,0,1,.417-.418h.842a2.944,2.944,0,0,0,2.913-2.461.414.414,0,0,1,.412-.348h1.7a.419.419,0,0,1,.416.464,5.466,5.466,0,0,1-5.441,4.866Zm-.842-2.247a.144.144,0,0,0-.144.144v1.686a.145.145,0,0,0,.144.144h.842a5.194,5.194,0,0,0,5.169-4.623.147.147,0,0,0-.037-.113.145.145,0,0,0-.107-.048h-1.7a.143.143,0,0,0-.142.12,3.218,3.218,0,0,1-3.183,2.69Z"/>
          </g>
          <g id="Group_272" data-name="Group 272">
            <path id="Path_703" data-name="Path 703" d="M489.9,1505.94h-.843a3.08,3.08,0,0,1-3.047-2.574.28.28,0,0,0-.277-.235h-1.7a.283.283,0,0,0-.28.312,5.331,5.331,0,0,0,5.3,4.746h.843a.281.281,0,0,0,.28-.281v-1.686A.281.281,0,0,0,489.9,1505.94Z"/>
            <path id="Path_704" data-name="Path 704" d="M489.9,1508.324h-.843a5.468,5.468,0,0,1-5.441-4.866.419.419,0,0,1,.416-.464h1.7a.416.416,0,0,1,.412.349,2.944,2.944,0,0,0,2.912,2.46h.843a.419.419,0,0,1,.417.418v1.686A.417.417,0,0,1,489.9,1508.324Zm-5.868-5.057a.149.149,0,0,0-.108.048.146.146,0,0,0-.036.113,5.194,5.194,0,0,0,5.169,4.623h.843a.145.145,0,0,0,.144-.144v-1.686a.145.145,0,0,0-.145-.144h-.842a3.217,3.217,0,0,1-3.182-2.688.143.143,0,0,0-.142-.121Z"/>
          </g>
        </g>
        <g id="Group_274" data-name="Group 274">
          <path id="Path_705" data-name="Path 705" d="M403.892,1502.569a5.343,5.343,0,0,0,5.338-5.338v-17.136h4.852a.281.281,0,0,0,.281-.282v-1.685a.281.281,0,0,0-.281-.281H400.317v-3.013a.281.281,0,0,0-.281-.282H398.35a.282.282,0,0,0-.282.282v3.013H384.3a.281.281,0,0,0-.282.281v1.685a.282.282,0,0,0,.282.282h4.852v17.136a5.343,5.343,0,0,0,5.337,5.338h.281v3.371H384.3a.282.282,0,0,0-.282.281v1.686a.281.281,0,0,0,.282.281h29.778a.281.281,0,0,0,.281-.281v-1.686a.281.281,0,0,0-.281-.281h-10.47v-3.371Zm0-2.248h-2.248a.281.281,0,0,0-.281.281v5.338h-4.341V1500.6a.281.281,0,0,0-.281-.281h-2.248a3.093,3.093,0,0,1-3.09-3.09v-17.136h15.579v17.136A3.093,3.093,0,0,1,403.892,1500.321Z"/>
          <path id="Path_706" data-name="Path 706" d="M414.082,1508.324H384.3a.418.418,0,0,1-.418-.417v-1.686a.418.418,0,0,1,.418-.418h10.333v-3.1h-.144a5.481,5.481,0,0,1-5.474-5.475v-17H384.3a.418.418,0,0,1-.418-.417v-1.686a.418.418,0,0,1,.418-.418h13.628v-2.877a.417.417,0,0,1,.417-.417h1.687a.417.417,0,0,1,.417.417v2.877h13.629a.418.418,0,0,1,.418.418v1.686a.418.418,0,0,1-.418.417h-4.715v17a5.481,5.481,0,0,1-5.475,5.475h-.144v3.1h10.334a.418.418,0,0,1,.418.418v1.686A.418.418,0,0,1,414.082,1508.324Zm-29.778-2.247a.144.144,0,0,0-.145.144v1.686a.145.145,0,0,0,.145.144h29.778a.145.145,0,0,0,.145-.144v-1.686a.144.144,0,0,0-.145-.144H403.475v-3.645h.417a5.207,5.207,0,0,0,5.2-5.2v-17.273h4.989a.145.145,0,0,0,.145-.144v-1.686a.145.145,0,0,0-.145-.145h-13.9v-3.15a.145.145,0,0,0-.144-.144h-1.687a.145.145,0,0,0-.144.144v3.15H384.3a.145.145,0,0,0-.145.145v1.686a.145.145,0,0,0,.145.144h4.989v17.273a5.206,5.206,0,0,0,5.2,5.2h.418v3.645Zm17.2,0h-4.615V1500.6a.145.145,0,0,0-.144-.145h-2.248a3.23,3.23,0,0,1-3.226-3.227v-17.273h15.851v17.273a3.231,3.231,0,0,1-3.227,3.227h-2.248a.145.145,0,0,0-.144.145Zm-4.341-.274h4.068v-5.2a.418.418,0,0,1,.417-.418h2.248a2.956,2.956,0,0,0,2.953-2.954v-17h-15.3v17a2.957,2.957,0,0,0,2.953,2.954h2.248a.418.418,0,0,1,.418.418Z"/>
        </g>
        <g id="Group_279" data-name="Group 279">
          <g id="Group_275" data-name="Group 275">
            <path id="Path_707" data-name="Path 707" d="M299.3,1480.656h-5.338v-.281a5.344,5.344,0,0,0-5.338-5.337H280.2a5.343,5.343,0,0,0-5.337,5.337v.281h-5.337a.281.281,0,0,0-.281.281v1.686a.281.281,0,0,0,.281.281h7.3a.282.282,0,0,0,.281-.281v-2.248a3.093,3.093,0,0,1,3.09-3.09h8.428a3.093,3.093,0,0,1,3.09,3.09v2.248a.281.281,0,0,0,.281.281h7.3a.281.281,0,0,0,.281-.281v-1.686A.281.281,0,0,0,299.3,1480.656Z"/>
            <path id="Path_708" data-name="Path 708" d="M299.3,1483.041H292a.419.419,0,0,1-.418-.418v-2.248a2.956,2.956,0,0,0-2.953-2.953H280.2a2.957,2.957,0,0,0-2.954,2.953v2.248a.418.418,0,0,1-.418.418h-7.3a.419.419,0,0,1-.418-.418v-1.686a.419.419,0,0,1,.418-.418h5.2v-.144a5.481,5.481,0,0,1,5.475-5.474h8.428a5.48,5.48,0,0,1,5.474,5.474v.144h5.2a.418.418,0,0,1,.418.418v1.686A.418.418,0,0,1,299.3,1483.041Zm-19.1-5.892h8.428a3.23,3.23,0,0,1,3.227,3.226v2.248a.144.144,0,0,0,.144.144h7.3a.144.144,0,0,0,.145-.144v-1.686a.144.144,0,0,0-.145-.144h-5.474v-.418a5.207,5.207,0,0,0-5.2-5.2H280.2a5.207,5.207,0,0,0-5.2,5.2v.418h-5.474a.144.144,0,0,0-.145.144v1.686a.144.144,0,0,0,.145.144h7.3a.143.143,0,0,0,.144-.144v-2.248A3.23,3.23,0,0,1,280.2,1477.149Z"/>
          </g>
          <g id="Group_276" data-name="Group 276">
            <path id="Path_709" data-name="Path 709" d="M299.3,1486.275H269.523a.28.28,0,0,0-.281.281v1.685a.28.28,0,0,0,.281.281h13.765v4.776H269.523a.281.281,0,0,0-.281.281v1.686a.281.281,0,0,0,.281.281h13.765v10.394H269.523a.281.281,0,0,0-.281.281v1.686a.281.281,0,0,0,.281.281H299.3a.281.281,0,0,0,.281-.281v-1.686a.281.281,0,0,0-.281-.281H285.536v-10.394H299.3a.281.281,0,0,0,.281-.281v-1.686a.281.281,0,0,0-.281-.281H285.536v-4.776H299.3a.281.281,0,0,0,.281-.281v-1.685A.281.281,0,0,0,299.3,1486.275Z"/>
            <path id="Path_710" data-name="Path 710" d="M299.3,1508.324H269.523a.418.418,0,0,1-.418-.417v-1.686a.419.419,0,0,1,.418-.418h13.629v-10.12H269.523a.419.419,0,0,1-.418-.418v-1.686a.419.419,0,0,1,.418-.418h13.629v-4.5H269.523a.419.419,0,0,1-.418-.418v-1.685a.419.419,0,0,1,.418-.418H299.3a.419.419,0,0,1,.418.418v1.685a.419.419,0,0,1-.418.418H285.673v4.5H299.3a.418.418,0,0,1,.418.418v1.686a.418.418,0,0,1-.418.418H285.673v10.12H299.3a.418.418,0,0,1,.418.418v1.686A.418.418,0,0,1,299.3,1508.324Zm-29.778-2.247a.144.144,0,0,0-.145.144v1.686a.145.145,0,0,0,.145.144H299.3a.145.145,0,0,0,.145-.144v-1.686a.144.144,0,0,0-.145-.144H285.4v-10.668h13.9a.144.144,0,0,0,.145-.144v-1.686a.145.145,0,0,0-.145-.145H285.4v-5.048h13.9a.145.145,0,0,0,.145-.145v-1.685a.145.145,0,0,0-.145-.145H269.523a.145.145,0,0,0-.145.145v1.685a.145.145,0,0,0,.145.145h13.9v5.048h-13.9a.145.145,0,0,0-.145.145v1.686a.144.144,0,0,0,.145.144h13.9v10.668Z"/>
          </g>
          <g id="Group_277" data-name="Group 277">
            <path id="Path_711" data-name="Path 711" d="M294.76,1498.916a.282.282,0,0,0-.277.235,3.081,3.081,0,0,1-3.047,2.575h-2.248a.281.281,0,0,0-.281.281v1.686a.281.281,0,0,0,.281.281h2.248a5.33,5.33,0,0,0,5.3-4.745.282.282,0,0,0-.279-.312Z"/>
            <path id="Path_712" data-name="Path 712" d="M291.435,1504.111h-2.247a.419.419,0,0,1-.418-.418v-1.686a.419.419,0,0,1,.418-.418h2.247a2.943,2.943,0,0,0,2.913-2.461.416.416,0,0,1,.412-.348h1.7a.418.418,0,0,1,.415.464A5.466,5.466,0,0,1,291.435,1504.111Zm-2.247-2.248a.144.144,0,0,0-.144.144v1.686a.143.143,0,0,0,.144.144h2.247a5.193,5.193,0,0,0,5.169-4.623.142.142,0,0,0-.035-.112.145.145,0,0,0-.109-.048h-1.7a.144.144,0,0,0-.142.121,3.218,3.218,0,0,1-3.183,2.689Z"/>
          </g>
          <g id="Group_278" data-name="Group 278">
            <path id="Path_713" data-name="Path 713" d="M279.636,1503.974a.281.281,0,0,0,.281-.281v-1.686a.281.281,0,0,0-.281-.281h-2.248a3.08,3.08,0,0,1-3.047-2.574.281.281,0,0,0-.277-.235h-1.7a.28.28,0,0,0-.279.312,5.33,5.33,0,0,0,5.3,4.745Z"/>
            <path id="Path_714" data-name="Path 714" d="M279.636,1504.111h-2.247a5.466,5.466,0,0,1-5.441-4.867.419.419,0,0,1,.415-.464h1.7a.417.417,0,0,1,.412.349,2.944,2.944,0,0,0,2.913,2.46h2.247a.418.418,0,0,1,.418.418v1.686A.418.418,0,0,1,279.636,1504.111Zm-7.273-5.057a.145.145,0,0,0-.108.048.142.142,0,0,0-.035.112,5.192,5.192,0,0,0,5.169,4.623h2.247a.144.144,0,0,0,.145-.144v-1.686a.145.145,0,0,0-.145-.144h-2.247a3.216,3.216,0,0,1-3.182-2.689.144.144,0,0,0-.143-.12Z"/>
          </g>
        </g>
        <g id="Group_287" data-name="Group 287">
          <g id="Group_280" data-name="Group 280">
            <path id="Path_715" data-name="Path 715" d="M452.1,1475.038h-1.685a.281.281,0,0,0-.281.281v22.193H444.8a.281.281,0,0,0-.28.281v1.686a.281.281,0,0,0,.28.281h7.3a.28.28,0,0,0,.28-.281v-24.16A.28.28,0,0,0,452.1,1475.038Z"/>
            <path id="Path_716" data-name="Path 716" d="M452.1,1499.9h-7.3a.417.417,0,0,1-.417-.417v-1.686a.417.417,0,0,1,.417-.417H450v-22.057a.419.419,0,0,1,.418-.418H452.1a.418.418,0,0,1,.417.418v24.16A.417.417,0,0,1,452.1,1499.9Zm-7.3-2.247a.145.145,0,0,0-.144.144v1.686a.145.145,0,0,0,.144.144h7.3a.145.145,0,0,0,.144-.144v-24.16a.145.145,0,0,0-.144-.145h-1.685a.144.144,0,0,0-.144.145v22.33Z"/>
          </g>
          <g id="Group_281" data-name="Group 281">
            <rect id="Rectangle_74" data-name="Rectangle 74" width="2.245" height="18.759" rx="0.281" transform="translate(443.545 1475.382)"/>
            <path id="Path_717" data-name="Path 717" d="M445.51,1494.278h-1.684a.418.418,0,0,1-.417-.418v-18.2a.418.418,0,0,1,.417-.418h1.684a.418.418,0,0,1,.417.418v18.2A.418.418,0,0,1,445.51,1494.278Zm-1.684-18.759a.144.144,0,0,0-.144.145v18.2a.144.144,0,0,0,.144.145h1.684a.145.145,0,0,0,.144-.145v-18.2a.145.145,0,0,0-.144-.145Z"/>
          </g>
          <g id="Group_282" data-name="Group 282">
            <path id="Path_718" data-name="Path 718" d="M422.322,1499.76h2.248c9.138,0,15.6-7.435,15.6-16.574v-2.248a.281.281,0,0,0-.28-.281h-7.177v-2.885h7.177a.281.281,0,0,0,.28-.281V1475.8a.281.281,0,0,0-.28-.281H423.331a.281.281,0,0,0-.281.281v1.686a.281.281,0,0,0,.281.281h7.138v2.608a8.723,8.723,0,0,1-8.164,8.688.281.281,0,0,0-.264.28v1.688a.28.28,0,0,0,.281.281h.015a10.929,10.929,0,0,0,5.419-1.783l.272-.178.137.294a5.382,5.382,0,0,0,4.238,3.053l.032,0a.28.28,0,0,0,.281-.281v-1.7a.279.279,0,0,0-.233-.276,3.11,3.11,0,0,1-2.539-2.667l-.015-.125.082-.094a11,11,0,0,0,2.344-4.445l.055-.211h5.516v.281c0,7.9-5.457,14.326-13.357,14.327h-2.247a.281.281,0,0,0-.282.281v1.686A.281.281,0,0,0,422.322,1499.76Z"/>
            <path id="Path_719" data-name="Path 719" d="M424.569,1499.9h-2.247a.418.418,0,0,1-.418-.417v-1.686a.418.418,0,0,1,.418-.417h2.247c7.537,0,13.22-6.1,13.22-14.191v-.144h-5.273l-.029.108a11.136,11.136,0,0,1-2.373,4.5l-.042.048.008.064a2.972,2.972,0,0,0,2.426,2.549.416.416,0,0,1,.347.411v1.7a.418.418,0,0,1-.418.418l-.045,0a5.521,5.521,0,0,1-4.349-3.131l-.07-.151-.14.092a11.056,11.056,0,0,1-5.487,1.8h0a.435.435,0,0,1-.307-.114.421.421,0,0,1-.13-.3v-1.688a.417.417,0,0,1,.392-.416,8.587,8.587,0,0,0,8.036-8.552v-2.472h-7a.418.418,0,0,1-.418-.418V1475.8a.419.419,0,0,1,.418-.418h16.561a.418.418,0,0,1,.417.418v1.685a.418.418,0,0,1-.417.418h-7.04v2.612h7.04a.418.418,0,0,1,.417.418v2.248c0,9.51-6.742,16.685-15.691,16.711Zm-2.247-2.247a.145.145,0,0,0-.145.144v1.686a.145.145,0,0,0,.145.144h2.248c8.817,0,15.466-7.066,15.466-16.437v-2.248a.144.144,0,0,0-.144-.144h-7.314v-3.159h7.314a.145.145,0,0,0,.144-.145V1475.8a.145.145,0,0,0-.144-.144H423.331a.144.144,0,0,0-.144.144v1.685a.144.144,0,0,0,.144.145h7.274v2.745a8.859,8.859,0,0,1-8.292,8.824.144.144,0,0,0-.135.144v1.688a.143.143,0,0,0,.144.144,10.784,10.784,0,0,0,5.359-1.76l.4-.265.2.438a5.246,5.246,0,0,0,4.13,2.974.125.125,0,0,0,.111-.034.144.144,0,0,0,.049-.109v-1.7a.144.144,0,0,0-.119-.142,3.245,3.245,0,0,1-2.651-2.785l-.024-.185.123-.14a10.855,10.855,0,0,0,2.315-4.389l.082-.314h5.758v.418c0,8.245-5.8,14.463-13.494,14.464Z"/>
          </g>
          <g id="Group_283" data-name="Group 283">
            <path id="Path_720" data-name="Path 720" d="M452.632,1505.9a3.081,3.081,0,0,1-2.576-3.047v-.843a.281.281,0,0,0-.281-.281H448.09a.28.28,0,0,0-.28.281v.843a5.329,5.329,0,0,0,4.744,5.3l.031,0a.279.279,0,0,0,.281-.281v-1.7A.281.281,0,0,0,452.632,1505.9Z"/>
            <path id="Path_721" data-name="Path 721" d="M452.585,1508.293l-.044,0a5.466,5.466,0,0,1-4.868-5.44v-.843a.418.418,0,0,1,.417-.418h1.685a.418.418,0,0,1,.418.418v.843a2.944,2.944,0,0,0,2.461,2.912.416.416,0,0,1,.348.412v1.7a.415.415,0,0,1-.417.418Zm-4.495-6.431a.145.145,0,0,0-.144.145v.843a5.192,5.192,0,0,0,4.623,5.168h.016a.143.143,0,0,0,.144-.144v-1.7a.144.144,0,0,0-.12-.142,3.217,3.217,0,0,1-2.689-3.182v-.843a.145.145,0,0,0-.145-.145Z"/>
          </g>
          <g id="Group_284" data-name="Group 284">
            <path id="Path_722" data-name="Path 722" d="M445.608,1505.9a3.08,3.08,0,0,1-2.575-3.047v-.843a.281.281,0,0,0-.281-.281h-1.685a.281.281,0,0,0-.281.281v.843a5.33,5.33,0,0,0,4.744,5.3l.031,0a.279.279,0,0,0,.281-.281v-1.7A.281.281,0,0,0,445.608,1505.9Z"/>
            <path id="Path_723" data-name="Path 723" d="M445.561,1508.293l-.044,0a5.467,5.467,0,0,1-4.867-5.44v-.843a.418.418,0,0,1,.417-.418h1.685a.418.418,0,0,1,.417.418v.843a2.944,2.944,0,0,0,2.462,2.912.417.417,0,0,1,.348.412v1.7a.421.421,0,0,1-.138.311A.426.426,0,0,1,445.561,1508.293Zm-4.494-6.431a.145.145,0,0,0-.144.145v.843a5.193,5.193,0,0,0,4.623,5.168h.015a.15.15,0,0,0,.1-.037.146.146,0,0,0,.047-.107v-1.7a.144.144,0,0,0-.121-.142,3.218,3.218,0,0,1-2.689-3.182v-.843a.145.145,0,0,0-.144-.145Z"/>
          </g>
          <g id="Group_285" data-name="Group 285">
            <path id="Path_724" data-name="Path 724" d="M438.584,1505.9a3.081,3.081,0,0,1-2.575-3.047v-.843a.281.281,0,0,0-.281-.281h-1.684a.28.28,0,0,0-.28.281v.843a5.329,5.329,0,0,0,4.743,5.3l.031,0a.279.279,0,0,0,.281-.281v-1.7A.281.281,0,0,0,438.584,1505.9Z"/>
            <path id="Path_725" data-name="Path 725" d="M438.538,1508.293l-.045,0a5.465,5.465,0,0,1-4.866-5.44v-.843a.418.418,0,0,1,.417-.418h1.684a.418.418,0,0,1,.418.418v.843a2.944,2.944,0,0,0,2.461,2.912.416.416,0,0,1,.348.412v1.7a.423.423,0,0,1-.137.311A.428.428,0,0,1,438.538,1508.293Zm-4.494-6.431a.145.145,0,0,0-.144.145v.843a5.192,5.192,0,0,0,4.622,5.168h.016a.152.152,0,0,0,.1-.037.149.149,0,0,0,.046-.107v-1.7a.143.143,0,0,0-.12-.142,3.217,3.217,0,0,1-2.69-3.182v-.843a.144.144,0,0,0-.144-.145Z"/>
          </g>
          <g id="Group_286" data-name="Group 286">
            <path id="Path_726" data-name="Path 726" d="M428.706,1501.726h-1.685a.282.282,0,0,0-.281.282v.842a3.1,3.1,0,0,1-3.091,3.09h-.843a.281.281,0,0,0-.281.281v1.686a.281.281,0,0,0,.281.281h.843a5.343,5.343,0,0,0,5.336-5.337v-.843A.28.28,0,0,0,428.706,1501.726Z"/>
            <path id="Path_727" data-name="Path 727" d="M423.65,1508.324h-.843a.418.418,0,0,1-.418-.417v-1.686a.418.418,0,0,1,.418-.418h.843a2.958,2.958,0,0,0,2.954-2.953v-.842a.417.417,0,0,1,.122-.3.422.422,0,0,1,.3-.123h1.685a.418.418,0,0,1,.417.418v.843a5.48,5.48,0,0,1-5.473,5.474Zm-.843-2.247a.144.144,0,0,0-.145.144v1.686a.145.145,0,0,0,.145.144h.843a5.206,5.206,0,0,0,5.2-5.2v-.843a.145.145,0,0,0-.144-.144h-1.685a.149.149,0,0,0-.1.042.147.147,0,0,0-.042.1v.842a3.231,3.231,0,0,1-3.227,3.227Z"/>
          </g>
        </g>
      </g>
      <g id="Group_289" data-name="Group 289">
        <path id="Path_728" data-name="Path 728" d="M272.422,1523.911c.631-.585,1.571-1.571,2.477-2.592.378-.435.6-.756.6-.94,0-.126-.045-.2-.321-.252-.1-.012-.2-.035-.2-.115,0-.057.058-.1.184-.1.516,0,.562.023,1.215.023s1.5-.023,1.652-.023c.2,0,.241.023.241.1,0,.057-.058.1-.207.115a3.383,3.383,0,0,0-.413.069,3.05,3.05,0,0,0-1.479.986c-.528.5-1.823,1.846-2.121,2.168a43.734,43.734,0,0,0,3.108,3.8,5.136,5.136,0,0,0,1.2,1.043,1.669,1.669,0,0,0,.527.149c.161.012.241.034.241.126s-.1.1-.229.1h-1.124c-1.514,0-2.042-.149-2.627-.792a39,39,0,0,1-2.729-3.543v1.009c0,.9.011,1.938.057,2.42.023.286.1.573.493.63.161.023.344.035.494.046s.194.058.194.115-.045.115-.217.115c-.757,0-1.985-.035-2.088-.035-.057,0-1.365.035-1.743.035-.149,0-.229-.023-.229-.115s.08-.115.206-.115.23-.011.356-.034c.355-.057.39-.333.424-.666.046-.481.069-1.284.069-2.4v-2.019c0-1.777,0-2.1-.035-2.466-.022-.321-.149-.527-.424-.584a3.54,3.54,0,0,0-.436-.046c-.149,0-.241-.023-.241-.127,0-.068.092-.1.31-.1.493,0,1.663.034,1.743.034.1,0,1.491-.034,1.9-.034.2,0,.241.045.241.1,0,.081-.057.115-.207.127-.1.011-.171.011-.344.034-.4.057-.47.321-.493.688s-.034.6-.034,2.374Z"/>
        <path id="Path_729" data-name="Path 729" d="M281.655,1523.223c0-1.777,0-2.11-.034-2.477-.023-.321-.15-.528-.4-.573a1.876,1.876,0,0,0-.344-.046c-.137,0-.218-.046-.218-.127s.058-.1.253-.1c.458,0,1.582.034,1.674.034s1.457-.034,1.869-.034c.2,0,.253.045.253.114,0,.092-.1.115-.218.115s-.184.011-.333.034c-.3.057-.413.206-.436.62-.034.367-.034.665-.034,2.442v2.019c0,.906.012,1.972.057,2.454.023.3.092.505.436.585a3.779,3.779,0,0,0,.505.057c.195,0,.24.046.24.115s-.057.115-.24.115c-.78,0-2.007-.035-2.111-.035-.057,0-1.261.035-1.651.035-.183,0-.275-.023-.275-.115s.092-.115.229-.115c.115-.011.23-.023.356-.046.24-.034.321-.287.355-.619.046-.482.069-1.307.069-2.431Z"/>
        <path id="Path_730" data-name="Path 730" d="M288.605,1520.276c.012-.344.058-.551.2-.551.091,0,.149.035.447.275.481.4,1.078.975,3.7,3.384,1.17,1.078,1.961,1.846,2.271,2.121l-.069-4.3c-.023-.642-.08-.94-.539-1.021a3.779,3.779,0,0,0-.505-.057c-.149,0-.206-.058-.206-.115,0-.08.1-.114.229-.114.459,0,1.205.034,1.663.034.253,0,.826-.034,1.308-.034.172,0,.252.034.252.1s-.057.127-.195.127a1.345,1.345,0,0,0-.287.034c-.378.046-.493.241-.527.952-.092,2.3-.092,4.6-.138,6.9,0,.585-.08.711-.229.711-.184,0-.539-.275-1.285-.929-.78-.688-1.789-1.594-2.477-2.225-.642-.585-1.789-1.663-2.626-2.477l.114,3.911c.023.826.069,1.135.39,1.25a3.056,3.056,0,0,0,.608.08c.172.012.23.046.23.115,0,.092-.092.115-.276.115-.4,0-.768-.023-1.479-.035-.264,0-1.113.035-1.56.035-.16,0-.252-.023-.252-.115,0-.069.057-.115.218-.115.1-.011.252-.011.378-.034.447-.069.5-.356.539-1.422C288.56,1524.519,288.537,1521.755,288.605,1520.276Z"/>
        <path id="Path_731" data-name="Path 731" d="M310.19,1527.088c.092.746.207,1.033.585,1.147a3.246,3.246,0,0,0,.654.1c.149,0,.218.034.218.115s-.092.115-.275.115c-.952,0-1.881,0-3.189-.069-.218-.011-.263-.08-.263-.138s.045-.091.126-.114c.183-.069.2-.138.149-.654l-.413-4.106-2.363,4.427c-.309.585-.378.654-.47.654-.126,0-.2-.115-.516-.62-.4-.642-1.1-1.949-1.537-2.683-.2-.333-.7-1.273-.917-1.664l-.333,3.235a8.768,8.768,0,0,0-.046.918c0,.332.115.469.4.527a3.1,3.1,0,0,0,.424.057c.172,0,.206.034.206.1,0,.092-.045.127-.229.127-.5,0-1.135-.035-1.48-.035s-.894.035-1.318.035c-.115,0-.253,0-.253-.115,0-.069.069-.115.23-.115.091-.011.218-.011.344-.034.332-.069.447-.333.562-1.09l1.044-7.053c.045-.344.126-.447.24-.447s.207.115.448.47l3.28,5.494,3.142-5.551c.184-.3.275-.413.39-.413s.183.16.218.447Z"/>
        <path id="Path_732" data-name="Path 732" d="M314.641,1523.223c0-1.869-.011-2.1-.034-2.466-.023-.332-.126-.527-.413-.6a3.662,3.662,0,0,0-.378-.034c-.149-.012-.207-.058-.207-.127s.069-.1.253-.1c.653,0,1.2.034,1.708.034l3.235-.012a3.909,3.909,0,0,0,.619-.046.812.812,0,0,1,.183-.045c.058,0,.069.045.069.1s-.023.172-.057.5c-.035.23-.058.631-.092,1.228,0,.091-.046.16-.115.16s-.1-.057-.114-.16a1.352,1.352,0,0,0-.058-.4c-.057-.263-.206-.413-.757-.459-.378-.034-1.376-.057-1.72-.057-.069,0-.092.035-.092.115v2.523c0,.08.012.137.092.137.321.012,1.25,0,1.663-.011.562-.023.711-.058.837-.264.069-.1.1-.149.161-.149s.069.069.069.138c0,.115-.057.527-.092.975-.012.263-.012.826-.012.951,0,.15-.034.218-.1.218s-.1-.08-.126-.183-.023-.172-.034-.264c-.046-.332-.207-.528-.769-.562-.321-.023-1.261-.046-1.617-.046-.057,0-.069.058-.069.149v.792c0,.389-.011,1.066,0,1.5.012.8.172.987,1.446.987a3.178,3.178,0,0,0,1.066-.138c.321-.127.459-.379.562-.906q.035-.207.138-.207c.091,0,.1.115.1.252a9.315,9.315,0,0,1-.184,1.537c-.08.3-.16.31-.585.31-1.582,0-2.442-.069-3.647-.069-.538,0-1.02.035-1.651.035-.206,0-.275-.035-.275-.115,0-.057.057-.115.229-.115a2.22,2.22,0,0,0,.344-.046c.321-.045.367-.481.39-1.2.023-.459.034-1.135.034-1.846Z"/>
        <path id="Path_733" data-name="Path 733" d="M323.691,1520.276c.011-.344.057-.551.195-.551.092,0,.149.035.447.275.482.4,1.078.975,3.7,3.384,1.17,1.078,1.961,1.846,2.271,2.121l-.069-4.3c-.023-.642-.08-.94-.539-1.021a3.765,3.765,0,0,0-.5-.057c-.149,0-.207-.058-.207-.115,0-.08.1-.114.23-.114.458,0,1.2.034,1.663.034.252,0,.825-.034,1.307-.034.172,0,.252.034.252.1s-.057.127-.2.127a1.334,1.334,0,0,0-.286.034c-.379.046-.494.241-.528.952-.092,2.3-.092,4.6-.138,6.9,0,.585-.08.711-.229.711-.183,0-.539-.275-1.284-.929-.78-.688-1.789-1.594-2.478-2.225-.642-.585-1.789-1.663-2.626-2.477l.115,3.911c.023.826.069,1.135.39,1.25a3.045,3.045,0,0,0,.607.08c.173.012.23.046.23.115,0,.092-.092.115-.275.115-.4,0-.769-.023-1.48-.035-.264,0-1.112.035-1.56.035-.16,0-.252-.023-.252-.115,0-.069.058-.115.218-.115.1-.011.252-.011.379-.034.447-.069.5-.356.539-1.422C323.645,1524.519,323.622,1521.755,323.691,1520.276Z"/>
        <path id="Path_734" data-name="Path 734" d="M341.308,1527.467a4.154,4.154,0,0,1-1.445-3.372,4.241,4.241,0,0,1,1.422-3.177,5.427,5.427,0,0,1,3.8-1.181,10.407,10.407,0,0,1,1.629.137,9.18,9.18,0,0,0,1.135.149c.126.012.126.081.126.15,0,.092-.034.367-.057.757s-.012,1.054-.034,1.341c-.012.172-.035.276-.138.276s-.126-.08-.138-.241a1.7,1.7,0,0,0-.436-1.124,3.207,3.207,0,0,0-2.316-.723,2.451,2.451,0,0,0-1.686.551,3.773,3.773,0,0,0-1.009,2.9c0,2.363,1.284,3.945,3.211,3.945.94,0,1.525-.08,1.973-.585a1.782,1.782,0,0,0,.378-.768c.057-.241.092-.321.183-.321s.092.115.092.206a16.023,16.023,0,0,1-.252,1.744.372.372,0,0,1-.3.332,6.025,6.025,0,0,1-1.973.264A6.21,6.21,0,0,1,341.308,1527.467Z"/>
        <path id="Path_735" data-name="Path 735" d="M350.816,1524.267c0-2.294,1.537-4.53,4.909-4.53,2.913,0,4.736,1.949,4.736,4.278a4.523,4.523,0,0,1-4.816,4.713A4.473,4.473,0,0,1,350.816,1524.267Zm7.352.252c0-1.9-.792-4.071-2.822-4.071-1.055,0-2.236.585-2.236,3.3,0,2.168.906,4.243,2.879,4.243C356.7,1527.994,358.168,1527.685,358.168,1524.519Z"/>
        <path id="Path_736" data-name="Path 736" d="M366.139,1524.944c0,1.582.241,2.247.871,2.694a2.142,2.142,0,0,0,2.409-.1c.642-.551.642-1.755.642-2.936v-1.377c0-1.686,0-1.984-.023-2.351-.023-.436-.114-.631-.493-.7-.126-.023-.2-.023-.424-.046-.149,0-.207-.046-.207-.115s.058-.114.264-.114c.654,0,1.354.034,1.537.034.206,0,.952-.034,1.514-.034.172,0,.241.034.241.114,0,.057-.046.1-.2.115a2.208,2.208,0,0,0-.356.046c-.309.057-.4.229-.436.7-.022.367-.034.665-.034,2.351v1.124c0,1.307-.057,2.718-1.17,3.624a3.644,3.644,0,0,1-2.385.757,4.086,4.086,0,0,1-2.73-.768,3.559,3.559,0,0,1-1.066-2.993v-1.744c0-1.777,0-2.1-.035-2.466-.023-.321-.092-.47-.355-.55a2.693,2.693,0,0,0-.493-.08c-.172-.012-.241-.058-.241-.127s.091-.1.309-.1c.493,0,1.652.034,1.755.034s1.456-.034,1.869-.034c.195,0,.253.034.253.1,0,.092-.058.115-.207.127-.1.011-.263.023-.378.046-.321.068-.378.309-.4.676s-.034.906-.034,2.374Z"/>
        <path id="Path_737" data-name="Path 737" d="M375.843,1520.276c.011-.344.057-.551.2-.551.091,0,.149.035.447.275.482.4,1.078.975,3.7,3.384,1.17,1.078,1.961,1.846,2.271,2.121l-.069-4.3c-.023-.642-.08-.94-.539-1.021a3.765,3.765,0,0,0-.5-.057c-.15,0-.207-.058-.207-.115,0-.08.1-.114.23-.114.458,0,1.2.034,1.662.034.253,0,.826-.034,1.308-.034.172,0,.252.034.252.1s-.057.127-.195.127a1.334,1.334,0,0,0-.286.034c-.379.046-.494.241-.528.952-.092,2.3-.092,4.6-.138,6.9,0,.585-.08.711-.229.711-.184,0-.539-.275-1.285-.929-.78-.688-1.789-1.594-2.477-2.225-.642-.585-1.789-1.663-2.626-2.477l.115,3.911c.023.826.068,1.135.389,1.25a3.066,3.066,0,0,0,.608.08c.172.012.23.046.23.115,0,.092-.092.115-.276.115-.4,0-.768-.023-1.479-.035-.264,0-1.112.035-1.56.035-.16,0-.252-.023-.252-.115,0-.069.057-.115.218-.115.1-.011.252-.011.378-.034.448-.069.5-.356.539-1.422C375.8,1524.519,375.774,1521.755,375.843,1520.276Z"/>
        <path id="Path_738" data-name="Path 738" d="M391.888,1525.242c0,.9,0,1.961.057,2.443.023.3.1.538.448.6.149.023.286.034.493.057.183.012.229.046.229.126s-.057.1-.264.1c-.779,0-1.892-.035-2.076-.035s-1.307.035-1.685.035c-.184,0-.264-.023-.264-.115s.092-.115.229-.115c.115-.011.241-.023.367-.046.253-.045.333-.3.367-.63.046-.482.069-1.308.069-2.42v-4.5c-.447,0-1.158-.012-1.732.023-.642.034-.894.183-1.043.585a2.081,2.081,0,0,0-.1.263c-.024.092-.058.184-.138.184-.1,0-.1-.092-.092-.229.046-.471.172-1.09.252-1.525.023-.173.058-.287.127-.287a3.391,3.391,0,0,1,.39.091,8.672,8.672,0,0,0,1.273.081h4.988a4.75,4.75,0,0,0,.723-.046,2.784,2.784,0,0,1,.356-.069c.1,0,.114.069.114.356,0,.16-.069,1.227-.08,1.513-.012.161-.046.23-.115.23-.092,0-.115-.069-.126-.207a2.134,2.134,0,0,0-.023-.229c-.046-.356-.218-.631-.895-.677-.378-.034-.974-.057-1.846-.057Z"/>
        <path id="Path_739" data-name="Path 739" d="M400.685,1525.6a2.173,2.173,0,0,0-.321-1.227c-.424-.78-1.56-2.672-1.95-3.257-.435-.665-.561-.814-.928-.929a1.922,1.922,0,0,0-.3-.057c-.114-.012-.172-.058-.172-.127s.092-.1.23-.1c.47,0,1.33.034,1.766.034.2,0,.917-.034,1.64-.034.126,0,.218.022.218.091,0,.092-.058.115-.23.149-.309.035-.355.149-.355.241a.748.748,0,0,0,.115.333c.183.332,1.617,2.878,1.8,3.223.7-1.319,1.319-2.467,1.537-2.925a1.521,1.521,0,0,0,.183-.585c0-.126-.069-.229-.412-.287-.1-.023-.195-.057-.195-.138s.068-.1.252-.1c.47,0,.86.034,1.3.034.16,0,1.1-.034,1.319-.034.137,0,.229.022.229.1s-.08.127-.229.127a1.946,1.946,0,0,0-.447.091,1.449,1.449,0,0,0-.643.585,31.93,31.93,0,0,0-2.19,3.774,3.33,3.33,0,0,0-.184,1.089v.814c0,.184,0,.654.034,1.136.024.287.047.573.471.654.206.045.436.045.63.068.138.012.184.046.184.126,0,.058-.057.1-.229.1-.826,0-1.778-.035-2.156-.035-.333,0-1.262.035-1.778.035-.161,0-.229-.046-.229-.127,0-.057.068-.1.206-.1a2.42,2.42,0,0,0,.4-.057c.3-.08.367-.287.39-.619.035-.482.046-1,.046-1.182Z"/>
        <path id="Path_740" data-name="Path 740" d="M415.859,1525.253a5.837,5.837,0,0,0,.161,2.225c.16.218.379.276,1.33.276a2.745,2.745,0,0,0,1.319-.184c.275-.126.471-.424.6-.964.034-.126.057-.218.149-.218s.092.058.092.218a9.372,9.372,0,0,1-.241,1.686c-.092.3-.184.31-.643.31-1.582,0-2.649-.069-3.865-.069-.538,0-1.158.035-1.789.035-.16,0-.252-.023-.252-.127,0-.069.069-.1.23-.1a3.884,3.884,0,0,0,.389-.046c.413-.069.425-.275.459-1.192.023-.459.034-1.147.034-1.858v-2.019c0-1.869-.011-2.075-.034-2.442-.023-.322-.1-.516-.39-.6a2.13,2.13,0,0,0-.447-.057c-.126,0-.241-.023-.241-.115s.115-.114.344-.114c.654,0,1.25.034,1.7.034.1,0,1.526-.034,1.939-.034.206,0,.275.034.275.1,0,.1-.115.127-.275.127a2.743,2.743,0,0,0-.39.046c-.31.057-.39.275-.413.676-.023.367-.035.6-.035,2.489Z"/>
        <path id="Path_741" data-name="Path 741" d="M422.845,1523.223c0-1.777,0-2.11-.035-2.477-.023-.321-.149-.528-.4-.573a1.876,1.876,0,0,0-.344-.046c-.138,0-.218-.046-.218-.127s.057-.1.252-.1c.459,0,1.583.034,1.674.034s1.457-.034,1.87-.034c.2,0,.252.045.252.114,0,.092-.1.115-.218.115s-.183.011-.332.034c-.3.057-.413.206-.436.62-.035.367-.035.665-.035,2.442v2.019c0,.906.012,1.972.058,2.454.023.3.092.505.436.585a3.764,3.764,0,0,0,.5.057c.195,0,.241.046.241.115s-.057.115-.241.115c-.78,0-2.007-.035-2.11-.035-.057,0-1.262.035-1.652.035-.183,0-.275-.023-.275-.115s.092-.115.23-.115c.114-.011.229-.023.355-.046.241-.034.321-.287.356-.619.046-.482.069-1.307.069-2.431Z"/>
        <path id="Path_742" data-name="Path 742" d="M430,1523.223c0-1.869-.012-2.1-.035-2.466-.023-.332-.126-.527-.413-.6a3.662,3.662,0,0,0-.378-.034c-.149-.012-.207-.058-.207-.127s.069-.1.253-.1c.653,0,1.2.034,1.709.034l3.234-.012a3.908,3.908,0,0,0,.619-.046.825.825,0,0,1,.183-.045c.058,0,.069.045.069.1s-.023.172-.057.5c-.034.23-.057.631-.092,1.228,0,.091-.046.16-.114.16s-.1-.057-.115-.16a1.353,1.353,0,0,0-.058-.4c-.057-.263-.206-.413-.756-.459-.379-.034-1.377-.057-1.721-.057-.068,0-.091.035-.091.115v2.523c0,.08.011.137.091.137.321.012,1.25,0,1.663-.011.562-.023.711-.058.838-.264.068-.1.1-.149.16-.149s.069.069.069.138c0,.115-.057.527-.092.975-.012.263-.012.826-.012.951,0,.15-.034.218-.1.218s-.1-.08-.126-.183-.023-.172-.034-.264c-.046-.332-.207-.528-.769-.562-.321-.023-1.261-.046-1.617-.046-.057,0-.068.058-.068.149v.792c0,.389-.012,1.066,0,1.5.011.8.172.987,1.445.987a3.178,3.178,0,0,0,1.066-.138c.321-.127.459-.379.562-.906q.034-.207.138-.207c.091,0,.1.115.1.252a9.436,9.436,0,0,1-.183,1.537c-.081.3-.161.31-.585.31-1.583,0-2.443-.069-3.647-.069-.539,0-1.021.035-1.652.035-.206,0-.275-.035-.275-.115,0-.057.057-.115.229-.115a2.2,2.2,0,0,0,.344-.046c.322-.045.367-.481.39-1.2.023-.459.035-1.135.035-1.846Z"/>
        <path id="Path_743" data-name="Path 743" d="M440.886,1525.6a2.173,2.173,0,0,0-.321-1.227c-.425-.78-1.56-2.672-1.95-3.257-.436-.665-.562-.814-.929-.929a1.907,1.907,0,0,0-.3-.057c-.115-.012-.172-.058-.172-.127s.092-.1.229-.1c.471,0,1.331.034,1.767.034.194,0,.917-.034,1.64-.034.126,0,.218.022.218.091,0,.092-.058.115-.23.149-.31.035-.355.149-.355.241a.756.756,0,0,0,.114.333c.184.332,1.617,2.878,1.8,3.223.7-1.319,1.319-2.467,1.537-2.925a1.522,1.522,0,0,0,.183-.585c0-.126-.069-.229-.413-.287-.1-.023-.2-.057-.2-.138s.069-.1.253-.1c.47,0,.86.034,1.295.034.161,0,1.1-.034,1.319-.034.138,0,.23.022.23.1s-.081.127-.23.127a1.957,1.957,0,0,0-.447.091,1.446,1.446,0,0,0-.642.585,32.077,32.077,0,0,0-2.191,3.774,3.32,3.32,0,0,0-.183,1.089v.814c0,.184,0,.654.034,1.136.023.287.046.573.471.654.206.045.435.045.63.068.138.012.184.046.184.126,0,.058-.058.1-.229.1-.826,0-1.778-.035-2.157-.035-.332,0-1.261.035-1.777.035-.161,0-.23-.046-.23-.127,0-.057.069-.1.207-.1a2.438,2.438,0,0,0,.4-.057c.3-.08.367-.287.39-.619.034-.482.046-1,.046-1.182Z"/>
        <path id="Path_744" data-name="Path 744" d="M450.945,1524.944c0,1.582.241,2.247.871,2.694a1.9,1.9,0,0,0,1.147.322,1.924,1.924,0,0,0,1.262-.424c.642-.551.642-1.755.642-2.936v-1.377c0-1.686,0-1.984-.023-2.351-.023-.436-.115-.631-.493-.7-.126-.023-.2-.023-.424-.046-.15,0-.207-.046-.207-.115s.057-.114.264-.114c.653,0,1.353.034,1.536.034.207,0,.952-.034,1.514-.034.172,0,.241.034.241.114,0,.057-.045.1-.2.115a2.184,2.184,0,0,0-.355.046c-.31.057-.4.229-.436.7-.023.367-.034.665-.034,2.351v1.124c0,1.307-.058,2.718-1.17,3.624a3.647,3.647,0,0,1-2.386.757,4.083,4.083,0,0,1-2.729-.768,3.559,3.559,0,0,1-1.067-2.993v-1.744c0-1.777,0-2.1-.034-2.466-.023-.321-.092-.47-.356-.55a2.693,2.693,0,0,0-.493-.08c-.172-.012-.241-.058-.241-.127s.092-.1.31-.1c.493,0,1.651.034,1.754.034s1.457-.034,1.87-.034c.195,0,.252.034.252.1,0,.092-.057.115-.206.127-.1.011-.264.023-.379.046-.321.068-.378.309-.4.676s-.034.906-.034,2.374Z"/>
        <path id="Path_745" data-name="Path 745" d="M467.69,1525.414a10.84,10.84,0,0,1-.287,3.142,4.987,4.987,0,0,1-2.328,2.535,4.085,4.085,0,0,1-.6.3.52.52,0,0,1-.252.069.1.1,0,0,1-.1-.092c0-.058.092-.149.264-.252a2.757,2.757,0,0,0,.608-.516c.608-.677.665-1.423.665-4.439v-2.936c0-1.777,0-2.1-.034-2.466-.023-.321-.149-.539-.47-.584-.161-.023-.333-.035-.459-.046-.149,0-.218-.035-.218-.127,0-.068.057-.1.252-.1.493,0,1.766.034,1.858.034s1.468-.034,1.893-.034c.2,0,.263.034.263.1,0,.1-.08.115-.229.127-.115.011-.172.011-.333.034-.378.069-.435.321-.458.688s-.035.6-.035,2.374Z"/>
        <path id="Path_746" data-name="Path 746" d="M474.147,1524.944c0,1.582.241,2.247.872,2.694a1.9,1.9,0,0,0,1.147.322,1.919,1.919,0,0,0,1.261-.424c.643-.551.643-1.755.643-2.936v-1.377c0-1.686,0-1.984-.023-2.351-.023-.436-.115-.631-.493-.7-.127-.023-.2-.023-.425-.046-.149,0-.206-.046-.206-.115s.057-.114.264-.114c.653,0,1.353.034,1.536.034.207,0,.952-.034,1.514-.034.172,0,.241.034.241.114,0,.057-.046.1-.2.115a2.208,2.208,0,0,0-.356.046c-.309.057-.4.229-.435.7-.023.367-.035.665-.035,2.351v1.124c0,1.307-.057,2.718-1.169,3.624a3.649,3.649,0,0,1-2.386.757,4.087,4.087,0,0,1-2.73-.768,3.562,3.562,0,0,1-1.066-2.993v-1.744c0-1.777,0-2.1-.034-2.466-.023-.321-.092-.47-.356-.55a2.693,2.693,0,0,0-.493-.08c-.172-.012-.241-.058-.241-.127s.092-.1.31-.1c.493,0,1.651.034,1.754.034s1.457-.034,1.87-.034c.2,0,.252.034.252.1,0,.092-.057.115-.206.127-.1.011-.264.023-.379.046-.321.068-.378.309-.4.676s-.035.906-.035,2.374Z"/>
        <path id="Path_747" data-name="Path 747" d="M483.851,1520.276c.012-.344.057-.551.195-.551.092,0,.149.035.447.275.482.4,1.078.975,3.7,3.384,1.17,1.078,1.962,1.846,2.271,2.121l-.068-4.3c-.023-.642-.081-.94-.539-1.021a3.8,3.8,0,0,0-.505-.057c-.149,0-.206-.058-.206-.115,0-.08.1-.114.229-.114.459,0,1.2.034,1.663.034.252,0,.825-.034,1.307-.034.172,0,.252.034.252.1s-.057.127-.194.127a1.336,1.336,0,0,0-.287.034c-.379.046-.493.241-.528.952-.092,2.3-.092,4.6-.137,6.9,0,.585-.081.711-.23.711-.183,0-.539-.275-1.284-.929-.78-.688-1.789-1.594-2.478-2.225-.642-.585-1.789-1.663-2.626-2.477l.115,3.911c.023.826.069,1.135.39,1.25a3.046,3.046,0,0,0,.608.08c.172.012.229.046.229.115,0,.092-.092.115-.275.115-.4,0-.769-.023-1.48-.035-.263,0-1.112.035-1.559.035-.161,0-.252-.023-.252-.115,0-.069.057-.115.217-.115.1-.011.253-.011.379-.034.447-.069.5-.356.539-1.422C483.8,1524.519,483.782,1521.755,483.851,1520.276Z"/>
        <path id="Path_748" data-name="Path 748" d="M496.238,1523.223c0-1.777,0-2.11-.034-2.477-.023-.321-.15-.528-.4-.573a1.876,1.876,0,0,0-.344-.046c-.138,0-.218-.046-.218-.127s.058-.1.252-.1c.459,0,1.583.034,1.675.034s1.456-.034,1.869-.034c.195,0,.252.045.252.114,0,.092-.1.115-.217.115s-.184.011-.333.034c-.3.057-.413.206-.436.62-.034.367-.034.665-.034,2.442v2.019c0,.906.011,1.972.057,2.454.023.3.092.505.436.585a3.78,3.78,0,0,0,.505.057c.2,0,.24.046.24.115s-.057.115-.24.115c-.78,0-2.007-.035-2.111-.035-.057,0-1.261.035-1.651.035-.184,0-.275-.023-.275-.115s.091-.115.229-.115c.115-.011.23-.023.356-.046.24-.034.321-.287.355-.619.046-.482.069-1.307.069-2.431Z"/>
        <path id="Path_749" data-name="Path 749" d="M502.053,1524.267c0-2.294,1.537-4.53,4.909-4.53,2.913,0,4.736,1.949,4.736,4.278a4.523,4.523,0,0,1-4.816,4.713A4.473,4.473,0,0,1,502.053,1524.267Zm7.352.252c0-1.9-.792-4.071-2.822-4.071-1.055,0-2.236.585-2.236,3.3,0,2.168.906,4.243,2.878,4.243C507.937,1527.994,509.4,1527.685,509.4,1524.519Z"/>
        <path id="Path_750" data-name="Path 750" d="M515.484,1523.223c0-1.777-.023-2.007-.034-2.374-.023-.47-.161-.619-.436-.676a4.109,4.109,0,0,0-.459-.046c-.137-.012-.206-.058-.206-.127s.08-.1.252-.1c.493,0,1.594.034,1.755.034.218,0,1.319-.034,1.846-.034a4.915,4.915,0,0,1,2.34.389,1.948,1.948,0,0,1,1.043,1.755,2.694,2.694,0,0,1-1.537,2.305c.7,1.009,1.537,2.237,2.237,3.04.608.676.883.871,1.2.917.126.023.2.023.287.034.126,0,.2.046.2.115,0,.1-.115.115-.229.115h-1.033a3.6,3.6,0,0,1-2.087-.379,4.348,4.348,0,0,1-1.181-1.434c-.528-.871-.791-1.341-1-1.651a.176.176,0,0,0-.138-.068h-.757c-.057,0-.091.022-.091.091v.585a17.321,17.321,0,0,0,.057,1.926c.023.3.1.551.447.632a2.936,2.936,0,0,0,.516.068c.184.012.207.058.207.126s-.08.1-.241.1c-.768,0-2.018-.035-2.1-.035-.137,0-1.25.035-1.64.035-.172,0-.229-.035-.229-.115s.08-.115.206-.115.264-.023.39-.046c.23-.057.321-.263.356-.654.046-.481.057-1.284.057-2.4Zm1.973.769a.168.168,0,0,0,.1.172,2.078,2.078,0,0,0,.883.149,1.149,1.149,0,0,0,.723-.184,1.87,1.87,0,0,0,.447-1.445c0-1.628-1.032-2.052-1.629-2.052a1.572,1.572,0,0,0-.458.045c-.046.023-.069.035-.069.126Z"/>
        <path id="Path_751" data-name="Path 751" d="M536.76,1523.43c.034,0,.068-.023.068-.08v-.241c0-1.778,0-1.973-.022-2.34-.023-.333-.115-.528-.494-.608-.091-.011-.263-.023-.4-.034-.16,0-.218-.069-.218-.115,0-.069.058-.114.23-.114.665,0,1.7.034,1.811.034s1.423-.034,1.916-.034c.172,0,.229.045.229.114s-.057.115-.172.115c-.195.023-.264.023-.4.046-.3.045-.39.241-.425.608s-.022.665-.022,2.442v2.019c0,1.089,0,1.938.057,2.42.034.378.126.573.47.63.16.023.39.035.505.046.137,0,.2.058.2.115,0,.08-.092.115-.23.115-.791,0-1.949-.035-2.156-.035-.184,0-1.078.035-1.64.035-.206,0-.252-.058-.252-.127s.068-.1.218-.1a3.216,3.216,0,0,0,.355-.046c.276-.057.344-.275.379-.642.046-.481.068-1.2.068-2.294v-.929a.065.065,0,0,0-.068-.068h-3.579a.06.06,0,0,0-.068.068v1.193c0,1.09.011,1.56.057,2.053.034.332.137.55.482.608.24.034.355.046.481.057s.218.034.218.115c0,.057-.057.115-.229.115-.654,0-2.007-.035-2.122-.035s-1.307.035-1.674.035c-.126,0-.253-.023-.253-.1s.046-.126.2-.126.207-.023.356-.046c.275-.034.378-.332.4-.676.035-.482.058-1.285.058-2.374v-2c0-1.778-.012-2.041-.035-2.408-.023-.4-.149-.62-.55-.677-.138-.023-.2-.023-.321-.034-.207-.012-.23-.069-.23-.127,0-.08.126-.1.253-.1.665,0,1.548.034,1.812.034.435,0,1.4-.034,1.892-.034.206,0,.241.045.241.114s-.069.115-.207.115a3.771,3.771,0,0,0-.4.046c-.31.068-.367.332-.39.665-.034.367-.034.837-.034,2.271v.241c0,.057.034.08.068.08Z"/>
        <path id="Path_752" data-name="Path 752" d="M543.94,1523.223c0-1.777,0-2.11-.035-2.477-.022-.321-.148-.528-.4-.573a1.876,1.876,0,0,0-.344-.046c-.137,0-.218-.046-.218-.127s.057-.1.253-.1c.458,0,1.582.034,1.674.034s1.456-.034,1.869-.034c.2,0,.253.045.253.114,0,.092-.1.115-.218.115s-.184.011-.333.034c-.3.057-.413.206-.436.62-.034.367-.034.665-.034,2.442v2.019c0,.906.011,1.972.057,2.454.023.3.092.505.436.585a3.778,3.778,0,0,0,.505.057c.2,0,.24.046.24.115s-.057.115-.24.115c-.78,0-2.007-.035-2.11-.035-.058,0-1.262.035-1.652.035-.183,0-.275-.023-.275-.115s.092-.115.229-.115c.115-.011.23-.023.356-.046.241-.034.321-.287.355-.619.046-.482.069-1.307.069-2.431Z"/>
        <path id="Path_753" data-name="Path 753" d="M558.253,1527.467c0,.676-.022.745-.229.825a8.854,8.854,0,0,1-2.81.436c-3.222,0-5.459-1.445-5.459-4.495a4.134,4.134,0,0,1,2.065-3.739,6.254,6.254,0,0,1,3.291-.757,11.714,11.714,0,0,1,1.858.161c.39.045.769.125,1.1.137.1,0,.126.046.115.149a10.488,10.488,0,0,0-.126,2.11c0,.184-.046.241-.127.241s-.126-.092-.137-.184a1.75,1.75,0,0,0-.138-.573c-.218-.779-1.238-1.33-2.833-1.33a2.573,2.573,0,0,0-2.053.826,3.73,3.73,0,0,0-.722,2.477c0,2.052.986,4.243,3.395,4.243a1.2,1.2,0,0,0,.642-.138.359.359,0,0,0,.138-.309v-.7c0-.47,0-.917-.012-1.342,0-.653-.149-.894-.539-.952-.149-.022-.3-.034-.493-.057-.092,0-.183-.045-.183-.114s.057-.115.24-.115c.746,0,1.629.035,1.938.035.413,0,1.159-.035,1.778-.035.172,0,.264.023.264.115s-.069.1-.184.114c-.045,0-.2.023-.309.035-.276.057-.4.183-.436.585-.023.367-.035.963-.035,1.525Z"/>
        <path id="Path_754" data-name="Path 754" d="M568.267,1523.43c.034,0,.068-.023.068-.08v-.241c0-1.778,0-1.973-.023-2.34-.023-.333-.114-.528-.493-.608-.091-.011-.264-.023-.4-.034-.161,0-.218-.069-.218-.115,0-.069.057-.114.229-.114.666,0,1.7.034,1.812.034s1.422-.034,1.916-.034c.172,0,.229.045.229.114s-.057.115-.172.115c-.2.023-.264.023-.4.046-.3.045-.39.241-.425.608s-.023.665-.023,2.442v2.019c0,1.089,0,1.938.058,2.42.034.378.126.573.47.63.16.023.39.035.5.046.138,0,.2.058.2.115,0,.08-.091.115-.229.115-.791,0-1.95-.035-2.156-.035-.184,0-1.078.035-1.64.035-.207,0-.252-.058-.252-.127s.068-.1.218-.1a3.22,3.22,0,0,0,.355-.046c.275-.057.344-.275.379-.642.045-.481.068-1.2.068-2.294v-.929a.065.065,0,0,0-.068-.068h-3.579a.06.06,0,0,0-.069.068v1.193c0,1.09.012,1.56.058,2.053.034.332.137.55.482.608.24.034.355.046.481.057s.218.034.218.115c0,.057-.057.115-.229.115-.654,0-2.007-.035-2.122-.035s-1.307.035-1.674.035c-.127,0-.253-.023-.253-.1s.046-.126.2-.126.207-.023.356-.046c.275-.034.378-.332.4-.676.035-.482.058-1.285.058-2.374v-2c0-1.778-.012-2.041-.035-2.408-.023-.4-.149-.62-.55-.677-.138-.023-.2-.023-.321-.034-.207-.012-.23-.069-.23-.127,0-.08.126-.1.252-.1.666,0,1.549.034,1.812.034.436,0,1.4-.034,1.893-.034.206,0,.241.045.241.114s-.069.115-.207.115a3.74,3.74,0,0,0-.4.046c-.31.068-.367.332-.39.665-.035.367-.035.837-.035,2.271v.241a.07.07,0,0,0,.069.08Z"/>
        <path id="Path_755" data-name="Path 755" d="M579.289,1528.407c-.2-.08-.252-.229-.252-.459a14.743,14.743,0,0,1,.069-1.686c.023-.206.068-.275.137-.275s.092.1.1.195a2.247,2.247,0,0,0,.058.355,1.923,1.923,0,0,0,1.949,1.48c1.09,0,1.423-.562,1.423-1.055s-.092-.883-1.067-1.548l-.711-.494c-1.4-.985-1.789-1.788-1.789-2.8,0-1.319,1.089-2.385,2.924-2.385a6.393,6.393,0,0,1,1.319.114,5.178,5.178,0,0,1,.562.138c.115.034.149.069.149.161-.023.367-.046.6-.046,1.617,0,.206-.034.286-.126.286-.057,0-.1-.034-.126-.218a1.6,1.6,0,0,0-.206-.665,1.776,1.776,0,0,0-1.572-.756c-.94,0-1.284.527-1.284,1.054,0,.39.138.838.917,1.366l.585.389c1.606,1.067,2.111,1.778,2.111,2.936a2.335,2.335,0,0,1-1.216,2.076,3.826,3.826,0,0,1-2,.493A4.57,4.57,0,0,1,579.289,1528.407Z"/>
        <path id="Path_756" data-name="Path 756" d="M588.728,1527.467a4.157,4.157,0,0,1-1.445-3.372,4.239,4.239,0,0,1,1.423-3.177,5.425,5.425,0,0,1,3.8-1.181,10.393,10.393,0,0,1,1.628.137,9.167,9.167,0,0,0,1.136.149c.125.012.125.081.125.15,0,.092-.034.367-.057.757s-.011,1.054-.034,1.341c-.012.172-.034.276-.138.276s-.126-.08-.137-.241a1.714,1.714,0,0,0-.436-1.124,3.21,3.21,0,0,0-2.317-.723,2.454,2.454,0,0,0-1.686.551,3.777,3.777,0,0,0-1.009,2.9c0,2.363,1.285,3.945,3.211,3.945.941,0,1.526-.08,1.973-.585a1.771,1.771,0,0,0,.378-.768c.058-.241.092-.321.184-.321s.092.115.092.206a16.079,16.079,0,0,1-.253,1.744.372.372,0,0,1-.3.332,6.021,6.021,0,0,1-1.973.264A6.213,6.213,0,0,1,588.728,1527.467Z"/>
        <path id="Path_757" data-name="Path 757" d="M604.866,1523.43c.034,0,.068-.023.068-.08v-.241c0-1.778,0-1.973-.022-2.34-.023-.333-.115-.528-.494-.608-.091-.011-.264-.023-.4-.034-.161,0-.218-.069-.218-.115,0-.069.057-.114.23-.114.665,0,1.7.034,1.811.034s1.423-.034,1.916-.034c.172,0,.229.045.229.114s-.057.115-.172.115c-.2.023-.264.023-.4.046-.3.045-.39.241-.425.608s-.022.665-.022,2.442v2.019c0,1.089,0,1.938.057,2.42.034.378.126.573.47.63.16.023.39.035.505.046.137,0,.194.058.194.115,0,.08-.091.115-.229.115-.791,0-1.949-.035-2.156-.035-.183,0-1.078.035-1.64.035-.206,0-.252-.058-.252-.127s.068-.1.218-.1a3.22,3.22,0,0,0,.355-.046c.276-.057.344-.275.379-.642.046-.481.068-1.2.068-2.294v-.929a.065.065,0,0,0-.068-.068h-3.579a.06.06,0,0,0-.068.068v1.193c0,1.09.011,1.56.057,2.053.034.332.137.55.482.608.24.034.355.046.481.057s.218.034.218.115c0,.057-.057.115-.229.115-.654,0-2.007-.035-2.122-.035s-1.307.035-1.674.035c-.126,0-.253-.023-.253-.1s.046-.126.2-.126.207-.023.356-.046c.275-.034.378-.332.4-.676.035-.482.058-1.285.058-2.374v-2c0-1.778-.012-2.041-.035-2.408-.023-.4-.149-.62-.55-.677-.138-.023-.2-.023-.321-.034-.207-.012-.23-.069-.23-.127,0-.08.126-.1.253-.1.665,0,1.548.034,1.812.034.436,0,1.4-.034,1.892-.034.206,0,.241.045.241.114s-.069.115-.207.115a3.769,3.769,0,0,0-.4.046c-.31.068-.367.332-.39.665-.034.367-.034.837-.034,2.271v.241c0,.057.034.08.068.08Z"/>
        <path id="Path_758" data-name="Path 758" d="M610.7,1524.267c0-2.294,1.537-4.53,4.909-4.53,2.913,0,4.736,1.949,4.736,4.278a4.524,4.524,0,0,1-4.817,4.713A4.472,4.472,0,0,1,610.7,1524.267Zm7.351.252c0-1.9-.791-4.071-2.821-4.071-1.055,0-2.236.585-2.236,3.3,0,2.168.906,4.243,2.878,4.243C616.588,1527.994,618.055,1527.685,618.055,1524.519Z"/>
        <path id="Path_759" data-name="Path 759" d="M623.275,1524.267c0-2.294,1.536-4.53,4.908-4.53,2.913,0,4.737,1.949,4.737,4.278a4.524,4.524,0,0,1-4.817,4.713A4.472,4.472,0,0,1,623.275,1524.267Zm7.351.252c0-1.9-.791-4.071-2.821-4.071-1.055,0-2.236.585-2.236,3.3,0,2.168.906,4.243,2.878,4.243C629.158,1527.994,630.626,1527.685,630.626,1524.519Z"/>
        <path id="Path_760" data-name="Path 760" d="M638.735,1525.253a5.836,5.836,0,0,0,.161,2.225c.16.218.378.276,1.33.276a2.744,2.744,0,0,0,1.319-.184c.275-.126.47-.424.6-.964.035-.126.058-.218.15-.218s.091.058.091.218a9.286,9.286,0,0,1-.241,1.686c-.091.3-.183.31-.642.31-1.582,0-2.649-.069-3.865-.069-.539,0-1.158.035-1.789.035-.16,0-.252-.023-.252-.127,0-.069.069-.1.229-.1a3.868,3.868,0,0,0,.39-.046c.413-.069.424-.275.459-1.192.023-.459.034-1.147.034-1.858v-2.019c0-1.869-.011-2.075-.034-2.442-.023-.322-.1-.516-.39-.6a2.13,2.13,0,0,0-.447-.057c-.127,0-.241-.023-.241-.115s.114-.114.344-.114c.654,0,1.25.034,1.7.034.1,0,1.526-.034,1.938-.034.207,0,.276.034.276.1,0,.1-.115.127-.276.127a2.749,2.749,0,0,0-.389.046c-.31.057-.39.275-.413.676-.023.367-.035.6-.035,2.489Z"/>
      </g>
    </g>
    <g id="Group_295" data-name="Group 295">
      <g id="Group_291" data-name="Group 291">
        <path id="Path_761" data-name="Path 761" d="M227.922,1531.894a25.7,25.7,0,0,1-25.666-25.666v-10.275a25.666,25.666,0,0,1,51.332,0v10.275A25.7,25.7,0,0,1,227.922,1531.894Zm0-61.161a25.249,25.249,0,0,0-25.221,25.22v10.275a25.221,25.221,0,0,0,50.442,0v-10.275A25.249,25.249,0,0,0,227.922,1470.733Z" fill="#1a9a60"/>
      </g>
      <path id="Path_762" data-name="Path 762" d="M227.922,1496.757a2.93,2.93,0,1,0,2.93,2.93A2.93,2.93,0,0,0,227.922,1496.757Z" fill="#1a9a60"/>
      <g id="Group_293" data-name="Group 293">
        <g id="Group_292" data-name="Group 292">
          <path id="Path_763" data-name="Path 763" d="M229.725,1465.8c.308-.244.771-.66,1.219-1.092.188-.185.3-.324.3-.407,0-.058-.015-.091-.138-.126-.046-.009-.087-.023-.084-.06s.029-.045.087-.04c.235.018.255.031.552.054s.685.042.753.047c.088.007.108.019.106.055s-.03.045-.1.045a1.679,1.679,0,0,0-.191.017,1.4,1.4,0,0,0-.708.4c-.258.211-.9.776-1.042.912a20.18,20.18,0,0,0,1.281,1.837,2.4,2.4,0,0,0,.511.517.781.781,0,0,0,.235.087c.073.01.109.024.1.065s-.05.044-.108.039l-.511-.039c-.689-.054-.924-.14-1.167-.453a17.571,17.571,0,0,1-1.118-1.709l-.035.46c-.032.407-.064.882-.06,1.1,0,.131.027.264.2.3.072.016.155.028.222.039s.087.033.085.059-.025.05-.1.044c-.345-.027-.9-.085-.949-.089-.026,0-.622-.033-.794-.046-.068-.005-.1-.018-.1-.06s.041-.049.1-.045.1,0,.163,0c.164-.014.189-.138.217-.288.038-.218.076-.582.116-1.088l.071-.919c.062-.809.073-.955.071-1.123,0-.147-.049-.246-.173-.282a1.818,1.818,0,0,0-.2-.036c-.068-.005-.109-.019-.1-.066,0-.031.045-.043.144-.035.224.017.755.074.792.077s.68.036.868.051c.089.007.108.029.106.055s-.03.05-.1.05c-.048,0-.079,0-.158,0-.185.012-.226.129-.249.3s-.037.27-.1,1.079Z"/>
          <path id="Path_764" data-name="Path 764" d="M234.832,1466.242c.2-.786.238-.933.264-1.1.026-.145-.007-.25-.113-.3a.892.892,0,0,0-.147-.059c-.061-.015-.091-.044-.082-.08s.037-.039.123-.014c.2.051.7.193.736.2s.648.149.83.193c.087.022.107.048.1.079s-.059.039-.109.026-.083-.015-.151-.022c-.138-.008-.206.045-.263.224-.056.159-.09.291-.29,1.076l-.227.892c-.1.4-.217.874-.251,1.092-.023.134-.016.233.127.307a1.584,1.584,0,0,0,.217.082c.086.022.1.048.093.078s-.038.044-.119.024c-.345-.088-.883-.241-.929-.253-.026-.006-.561-.127-.734-.171-.081-.02-.119-.041-.109-.081s.054-.041.115-.025.1.015.162.019c.11.012.174-.09.227-.233.074-.208.177-.57.3-1.067Z"/>
          <path id="Path_765" data-name="Path 765" d="M239.35,1466.208c.071-.14.13-.217.186-.19.039.017.056.042.133.2.123.259.26.61.888,2.111.279.67.459,1.14.535,1.313l.794-1.8c.114-.27.147-.4-.028-.526a1.7,1.7,0,0,0-.2-.12c-.062-.029-.075-.064-.063-.087s.064-.028.116,0c.19.088.493.244.683.332.1.049.349.144.548.235.072.033.1.063.085.091s-.048.042-.105.015a.676.676,0,0,0-.125-.04c-.166-.054-.251.005-.4.293-.479.938-.918,1.888-1.378,2.835-.111.242-.169.279-.231.251s-.171-.218-.354-.631c-.192-.434-.437-1-.6-1.4-.154-.365-.423-1.031-.614-1.529l-.7,1.643c-.149.346-.189.483-.078.592a1.414,1.414,0,0,0,.237.15c.069.037.086.063.073.091s-.06.03-.136-.005c-.166-.077-.314-.156-.607-.3-.109-.051-.467-.2-.652-.284-.067-.031-.1-.058-.083-.1s.046-.037.112-.006c.045.015.107.043.164.058.2.057.277-.051.5-.486C238.52,1467.958,239.039,1466.808,239.35,1466.208Z"/>
          <path id="Path_766" data-name="Path 766" d="M246.9,1474.511c-.177.293-.217.428-.114.576a1.526,1.526,0,0,0,.205.221c.054.042.069.074.046.1s-.065.016-.131-.036c-.341-.268-.674-.53-1.123-.923-.075-.066-.072-.1-.056-.124s.042-.02.078-.005c.085.027.108.005.237-.193l1.009-1.587-2.094.92c-.276.123-.32.128-.353.1s-.037-.1-.01-.367c.037-.343.155-1.009.205-1.4.024-.174.108-.653.14-.855l-1.031,1.066c-.155.164-.226.254-.275.316a.2.2,0,0,0-.005.3,1.306,1.306,0,0,0,.137.14c.061.049.064.071.044.095s-.051.033-.117-.019c-.181-.142-.4-.332-.521-.429s-.33-.24-.482-.36c-.041-.032-.091-.071-.058-.112.019-.024.056-.022.114.024.036.022.081.057.133.084.139.069.254.007.508-.232l2.362-2.234c.113-.11.171-.125.212-.092s.042.1.028.294l-.372,2.894,2.69-1.1c.15-.055.215-.07.256-.038s.021.11-.047.222Z"/>
          <path id="Path_767" data-name="Path 767" d="M250.079,1475.328c.653-.548.73-.619.852-.734s.147-.2.087-.319a1.7,1.7,0,0,0-.1-.143c-.039-.055-.04-.089-.016-.109s.056-.006.11.058c.191.229.341.431.488.607.071.085.9,1.063.951,1.127a1.758,1.758,0,0,0,.2.2.482.482,0,0,1,.07.051c.016.02,0,.037-.016.054s-.067.042-.194.128c-.09.055-.237.164-.455.328-.032.027-.07.031-.09.007s-.01-.053.023-.088a.632.632,0,0,0,.123-.138c.075-.1.084-.193-.061-.4-.1-.143-.383-.5-.484-.618-.02-.024-.039-.022-.067,0l-.882.739c-.028.023-.044.044-.021.072.09.116.366.437.491.578.173.19.228.232.337.215.057-.006.083-.007.1.013s0,.044-.027.064c-.04.034-.2.135-.368.254-.1.073-.292.237-.336.274s-.086.052-.106.028,0-.06.027-.1l.082-.089c.1-.113.124-.227-.029-.433-.086-.119-.353-.454-.457-.579-.017-.02-.04-.007-.072.02l-.277.232c-.136.114-.376.308-.525.44-.277.239-.294.348.079.793a1.426,1.426,0,0,0,.36.333c.138.075.267.049.481-.069.055-.032.092-.037.113-.012s-.01.069-.059.109a4.189,4.189,0,0,1-.59.386c-.128.06-.155.035-.28-.113-.463-.553-.691-.874-1.043-1.295-.158-.188-.311-.347-.5-.567-.061-.072-.069-.106-.041-.13s.057-.013.108.047a1.04,1.04,0,0,0,.117.107c.109.1.275-.013.534-.217.167-.126.407-.32.656-.528Z"/>
          <path id="Path_768" data-name="Path 768" d="M254.351,1478.735c.14-.071.232-.1.262-.043.02.037.019.067-.012.239-.055.281-.154.645-.541,2.222-.176.7-.31,1.189-.352,1.373l1.705-.969c.252-.15.358-.238.29-.439a1.764,1.764,0,0,0-.088-.215c-.032-.059-.022-.095,0-.107s.069.016.1.064c.1.183.25.489.351.672.055.1.194.322.3.518.038.069.042.108.014.123s-.063.005-.093-.05a.663.663,0,0,0-.076-.107c-.1-.141-.2-.144-.5,0-.941.468-1.858.971-2.79,1.457-.234.128-.3.123-.335.064-.04-.074-.008-.276.09-.717.1-.463.246-1.065.348-1.478.093-.385.273-1.079.415-1.592l-1.538.9c-.325.19-.439.276-.415.429a1.384,1.384,0,0,0,.1.261c.033.071.032.1.005.117s-.066-.012-.107-.086c-.088-.161-.159-.312-.31-.6-.057-.1-.257-.437-.355-.615-.035-.065-.046-.106-.009-.126s.058,0,.093.062c.027.038.06.1.1.143.125.164.252.124.686-.095C252.644,1479.645,253.744,1479.031,254.351,1478.735Z"/>
          <path id="Path_769" data-name="Path 769" d="M255.009,1488.827a1.892,1.892,0,0,1,1.39-.931,1.932,1.932,0,0,1,1.544.369,2.477,2.477,0,0,1,.849,1.6,4.607,4.607,0,0,1,.075.742,4.569,4.569,0,0,0,.029.521c.006.058-.025.064-.056.069s-.167.016-.344.039-.474.083-.6.1c-.078.01-.127.008-.135-.038s.025-.064.1-.082a.784.784,0,0,0,.467-.29,1.463,1.463,0,0,0,.129-1.1,1.122,1.122,0,0,0-.389-.709,1.725,1.725,0,0,0-1.385-.208c-1.059.2-1.66.909-1.5,1.772.079.422.164.677.428.835a.816.816,0,0,0,.376.1c.113.005.152.014.16.055s-.044.051-.085.058a7.214,7.214,0,0,1-.8.034.17.17,0,0,1-.174-.1,2.752,2.752,0,0,1-.284-.862A2.837,2.837,0,0,1,255.009,1488.827Z"/>
          <path id="Path_770" data-name="Path 770" d="M257.165,1493.716a2.033,2.033,0,0,1,2.065,2.237,1.991,1.991,0,0,1-1.95,2.159,2.062,2.062,0,0,1-2.149-2.2A2.039,2.039,0,0,1,257.165,1493.716Zm-.115,3.351c.868,0,1.856-.361,1.856-1.286,0-.481-.267-1.02-1.506-1.02-.988,0-1.934.413-1.934,1.312C255.466,1496.4,255.607,1497.067,257.05,1497.067Z"/>
          <path id="Path_771" data-name="Path 771" d="M256.856,1501.383c-.721,0-1.024.109-1.228.4a.865.865,0,0,0-.146.523.875.875,0,0,0,.193.575c.251.292.8.292,1.338.292h.627c.769,0,.9,0,1.072-.01.2-.011.288-.052.319-.225.011-.057.011-.089.021-.193,0-.068.021-.094.052-.094s.053.026.053.12c0,.3-.016.617-.016.7s.016.434.016.69c0,.079-.016.11-.053.11s-.047-.021-.052-.089a1,1,0,0,0-.021-.162c-.026-.141-.105-.183-.319-.2-.167-.011-.3-.016-1.072-.016h-.512a1.966,1.966,0,0,1-1.652-.533,1.663,1.663,0,0,1-.345-1.088,1.857,1.857,0,0,1,.351-1.244,1.621,1.621,0,0,1,1.364-.486h.794c.811,0,.957,0,1.125-.015.146-.011.214-.042.25-.163a1.215,1.215,0,0,0,.037-.224c.005-.079.026-.11.057-.11s.048.042.048.141c0,.225-.016.753-.016.8s.016.664.016.852c0,.089-.016.115-.048.115s-.052-.026-.057-.094c-.005-.047-.01-.12-.021-.173-.031-.146-.141-.172-.308-.183s-.413-.015-1.083-.015Z"/>
          <path id="Path_772" data-name="Path 772" d="M259.032,1506.708c.156.016.248.044.244.107,0,.041-.021.066-.14.194-.2.206-.48.458-1.663,1.574-.529.5-.9.831-1.041.963l1.96.111c.293.011.43-.005.482-.211a1.633,1.633,0,0,0,.043-.228c.005-.068.033-.092.059-.09s.049.051.045.11c-.015.209-.056.548-.071.757-.008.115-.012.377-.028.593-.005.078-.024.114-.055.111s-.056-.03-.051-.093a.592.592,0,0,0-.006-.131c-.008-.174-.093-.233-.416-.272-1.046-.118-2.09-.194-3.137-.291-.267-.02-.321-.061-.317-.128.007-.084.144-.237.466-.554.339-.332.785-.762,1.1-1.054.287-.273.816-.759,1.214-1.113l-1.784-.078c-.376-.016-.519-.006-.582.137a1.42,1.42,0,0,0-.056.274c-.011.077-.029.1-.06.1s-.049-.045-.043-.128c.013-.183.036-.349.065-.672.008-.12.021-.508.036-.712.005-.073.019-.114.06-.111s.051.03.045.1c0,.047,0,.115,0,.173.017.206.145.242.63.293C257.1,1506.546,258.361,1506.627,259.032,1506.708Z"/>
          <path id="Path_773" data-name="Path 773" d="M255.5,1514.521c-.392-.112-.86-.245-1.078-.28-.134-.027-.25-.022-.318.122-.029.062-.051.121-.087.209s-.048.095-.084.085-.038-.039-.012-.131c.1-.342.252-.825.275-.905s.148-.578.2-.743c.023-.08.043-.113.084-.1s.038.055.021.115-.02.108-.026.167c-.011.116.09.183.231.239.206.081.565.194,1.053.333l1.971.562c.056-.2.15-.507.207-.762.065-.286.031-.416-.126-.531a.941.941,0,0,0-.1-.078c-.038-.022-.074-.049-.063-.084s.053-.033.112-.011c.2.079.456.211.637.3.073.032.119.061.11.091a1.625,1.625,0,0,1-.089.16,3.981,3.981,0,0,0-.194.548l-.624,2.188a2.232,2.232,0,0,0-.07.322,1.4,1.4,0,0,1-.014.165c-.013.045-.045.042-.171.006-.07-.02-.529-.184-.653-.225-.069-.025-.1-.048-.087-.079s.045-.041.107-.029.076.016.1.019c.162.024.3-.017.409-.308.062-.162.147-.421.256-.8Z"/>
          <path id="Path_774" data-name="Path 774" d="M253.586,1518.912a.988.988,0,0,0,.565.127c.4-.009,1.41-.073,1.729-.109.36-.037.447-.058.57-.182a.878.878,0,0,0,.086-.109c.029-.044.059-.058.087-.044s.023.059-.006.115c-.1.191-.293.533-.384.709-.04.079-.178.38-.329.672-.026.051-.055.083-.083.069s-.034-.047-.012-.124c.051-.133.014-.176-.023-.2a.349.349,0,0,0-.159-.023c-.173.005-1.505.053-1.683.056.388.559.723,1.05.864,1.235a.7.7,0,0,0,.2.2c.051.026.108.02.2-.108.031-.037.064-.067.1-.05s.027.049-.012.125c-.1.191-.193.342-.285.519-.033.065-.216.454-.261.542-.029.056-.058.089-.09.072s-.035-.059,0-.122a.9.9,0,0,0,.056-.2.658.658,0,0,0-.1-.383,14.826,14.826,0,0,0-1.071-1.677,1.515,1.515,0,0,0-.4-.3l-.33-.171c-.075-.038-.266-.137-.468-.223-.121-.051-.242-.1-.363.053a2.658,2.658,0,0,0-.16.242c-.034.053-.057.065-.09.048s-.029-.045.007-.113c.172-.335.385-.714.465-.867.069-.136.25-.52.358-.729.033-.066.066-.084.1-.067s.027.049,0,.1a1.012,1.012,0,0,0-.06.175c-.03.138.039.209.169.288.188.114.4.227.469.265Z"/>
          <path id="Path_775" data-name="Path 775" d="M248.922,1525.881c-.385-.362-.648-.631-.789-.642-.123-.014-.21.04-.507.357a1.261,1.261,0,0,0-.351.495.577.577,0,0,0,.134.5c.031.05.055.086.026.117s-.048.013-.1-.036a4.36,4.36,0,0,1-.485-.607c-.07-.123-.045-.157.1-.31.494-.525.85-.858,1.229-1.262.168-.179.35-.4.547-.6.051-.053.087-.077.121-.044s.013.055-.037.108a1.689,1.689,0,0,0-.107.144c-.106.158-.041.227.253.524.145.151.37.37.607.592l.67.63c.621.584.693.644.822.751s.2.127.32.057a.975.975,0,0,0,.159-.131c.039-.042.083-.073.113-.044s0,.074-.069.15c-.2.217-.4.4-.541.553-.033.034-.465.517-.594.655-.064.068-.1.08-.12.059s-.007-.078.044-.131a1.292,1.292,0,0,0,.106-.144c.078-.121.03-.215-.1-.348s-.187-.2-.816-.788Z"/>
          <path id="Path_776" data-name="Path 776" d="M246.6,1529.3c.5.639.593.758.709.88.1.109.2.148.3.093a.818.818,0,0,0,.137-.08c.049-.039.091-.045.113-.016s.009.053-.062.1c-.164.129-.577.433-.61.459s-.514.421-.662.54c-.07.055-.1.055-.123.03s.005-.07.046-.1.063-.055.11-.1c.091-.105.09-.191-.018-.345-.09-.142-.174-.249-.674-.887l-.567-.725c-.255-.326-.559-.705-.711-.865-.092-.1-.175-.156-.32-.088a1.875,1.875,0,0,0-.2.121c-.07.055-.1.052-.119.027s-.011-.057.055-.109c.28-.219.73-.552.767-.581.021-.016.443-.367.584-.476.065-.052.1-.069.131-.036s0,.066-.051.105-.075.073-.114.117c-.077.08-.035.193.046.322.119.186.343.489.659.892Z"/>
          <path id="Path_777" data-name="Path 777" d="M243.18,1531.71c.414.745.469.834.56.976.083.127.167.182.3.145a1.676,1.676,0,0,0,.159-.069c.062-.029.095-.024.11,0s0,.056-.077.1c-.261.145-.488.253-.689.365l-1.286.722a1.82,1.82,0,0,0-.237.155.384.384,0,0,1-.063.059c-.023.013-.037,0-.05-.026s-.029-.073-.089-.214c-.037-.1-.117-.263-.235-.511-.021-.036-.018-.074.009-.089s.054,0,.082.04a.585.585,0,0,0,.112.147c.081.093.174.119.4.015.158-.07.561-.282.7-.358.028-.015.029-.034.011-.066l-.559-1.006c-.018-.031-.035-.052-.067-.034-.131.067-.5.277-.66.373-.219.134-.271.181-.275.291,0,.056-.008.082-.031.1s-.043-.012-.058-.039c-.026-.046-.094-.223-.18-.409-.054-.108-.178-.332-.206-.382s-.035-.095-.007-.11.059.009.091.045.047.064.072.1c.092.122.2.164.431.053.133-.062.512-.261.654-.34.023-.013.015-.038-.005-.075l-.176-.315c-.087-.155-.232-.428-.333-.6-.183-.317-.287-.354-.794-.072a1.45,1.45,0,0,0-.4.291c-.1.122-.1.253-.023.486.021.06.018.1-.009.113s-.067-.023-.1-.078a4.38,4.38,0,0,1-.268-.653c-.034-.137,0-.159.165-.253.63-.351.988-.514,1.468-.782.215-.119.4-.239.651-.379.082-.046.117-.048.135-.016s0,.059-.066.1a1.007,1.007,0,0,0-.127.094c-.118.09-.04.274.111.567.093.188.238.46.4.743Z"/>
          <path id="Path_778" data-name="Path 778" d="M237.487,1533.188a.984.984,0,0,0,.318.484c.3.275,1.063.928,1.317,1.124.286.224.362.27.537.266a.812.812,0,0,0,.137-.019c.051-.011.083,0,.093.03s-.025.058-.084.079c-.2.068-.58.179-.769.242-.084.029-.391.149-.7.253-.054.019-.1.022-.107-.008s.008-.058.077-.1c.129-.059.132-.116.119-.155a.343.343,0,0,0-.1-.127c-.128-.118-1.119-1.009-1.248-1.131-.11.672-.211,1.258-.238,1.488a.671.671,0,0,0,.006.279c.018.055.063.09.22.064.048-.005.092,0,.1.031s-.015.055-.094.082c-.2.069-.377.111-.565.174-.07.024-.471.176-.565.208-.06.02-.1.023-.115-.012s.017-.066.081-.088a.9.9,0,0,0,.18-.1.656.656,0,0,0,.193-.347,14.611,14.611,0,0,0,.4-1.95,1.511,1.511,0,0,0-.08-.5l-.118-.352c-.027-.079-.1-.282-.18-.486-.052-.12-.1-.241-.3-.214-.1.011-.195.044-.283.062-.061.015-.086.007-.1-.027s.009-.053.084-.078c.357-.121.773-.245.937-.3.143-.048.54-.2.763-.274.069-.023.106-.013.118.021s-.015.055-.074.075a1.266,1.266,0,0,0-.166.083c-.117.079-.116.178-.078.325.055.213.125.438.152.517Z"/>
          <path id="Path_779" data-name="Path 779" d="M232.353,1534.788c-.092-.716-.239-1-.551-1.169a.979.979,0,0,0-1.083.187c-.259.286-.189.831-.12,1.365l.079.623c.1.762.115.9.147,1.062.036.2.089.279.264.288.058,0,.089,0,.195,0,.067-.009.1.009.1.04s-.019.055-.112.066c-.3.038-.614.062-.7.073s-.428.071-.682.1c-.078.01-.111,0-.116-.038s.015-.049.082-.063a1.132,1.132,0,0,0,.158-.042c.136-.044.168-.127.156-.341-.011-.168-.022-.3-.12-1.066l-.066-.508a1.97,1.97,0,0,1,.319-1.708,1.669,1.669,0,0,1,1.036-.48,1.86,1.86,0,0,1,1.279.189,1.625,1.625,0,0,1,.656,1.292l.1.789c.1.8.122.949.159,1.113.028.144.068.208.192.229a1.284,1.284,0,0,0,.228.007c.079-.005.112.012.116.043s-.035.052-.134.064c-.223.028-.749.08-.8.086s-.656.1-.843.125c-.088.011-.116,0-.12-.032s.019-.055.086-.069c.046-.011.118-.026.168-.043.142-.049.154-.162.143-.329s-.037-.412-.122-1.076Z"/>
          <path id="Path_780" data-name="Path 780" d="M223.225,1534.526a4.956,4.956,0,0,1,.336-1.4,2.284,2.284,0,0,1,1.217-.992,1.987,1.987,0,0,1,.289-.1.239.239,0,0,1,.119-.015.043.043,0,0,1,.04.049c0,.026-.051.061-.135.1a1.242,1.242,0,0,0-.308.193c-.32.266-.394.6-.592,1.962l-.193,1.326c-.116.8-.138.947-.146,1.116a.246.246,0,0,0,.174.3c.071.02.148.037.2.05s.1.03.09.071-.033.043-.121.029c-.222-.032-.795-.131-.836-.137s-.666-.081-.857-.107c-.088-.013-.117-.033-.113-.064.007-.047.044-.047.112-.042.053,0,.078.006.153.006.175-.006.217-.116.252-.281s.055-.267.171-1.07Z"/>
          <path id="Path_781" data-name="Path 781" d="M219.548,1533.9c.226-.686.216-1.008.006-1.291a.856.856,0,0,0-.451-.3.869.869,0,0,0-.606,0c-.356.147-.528.668-.7,1.18l-.2.6c-.24.729-.282.859-.324,1.021-.052.192-.04.289.114.373.051.028.081.038.177.08.064.021.083.05.073.079s-.041.042-.13.01c-.284-.092-.582-.207-.661-.233s-.417-.121-.66-.2c-.075-.024-.1-.049-.088-.083s.034-.039.1-.023a1.063,1.063,0,0,0,.161.031c.142.019.206-.042.288-.241.062-.155.11-.283.349-1.013l.16-.487a1.965,1.965,0,0,1,1.022-1.4,1.659,1.659,0,0,1,1.141.011,1.866,1.866,0,0,1,1.073.721,1.627,1.627,0,0,1,.036,1.448l-.248.755c-.253.77-.3.909-.336,1.073-.036.142-.028.216.075.289a1.394,1.394,0,0,0,.2.1c.073.029.1.059.087.088s-.055.032-.149,0c-.213-.07-.71-.25-.755-.264s-.635-.193-.814-.25c-.085-.027-.1-.05-.1-.08s.042-.042.108-.025c.046.009.117.027.17.034.149.015.208-.081.27-.236s.144-.388.353-1.023Z"/>
          <path id="Path_782" data-name="Path 782" d="M213.573,1533.8c-.084.132-.15.2-.2.17-.036-.021-.051-.048-.112-.212-.1-.269-.2-.633-.665-2.189-.208-.7-.34-1.181-.4-1.361l-.974,1.7c-.14.258-.188.388-.026.526a1.746,1.746,0,0,0,.184.14c.059.035.068.071.055.093s-.068.021-.117-.009c-.18-.106-.464-.293-.644-.4-.1-.059-.332-.179-.521-.291-.068-.04-.091-.072-.075-.1s.052-.036.106,0a.587.587,0,0,0,.12.053c.159.071.249.021.429-.25.572-.883,1.106-1.783,1.66-2.677.136-.229.2-.26.256-.225s.147.233.288.663c.145.452.33,1.042.453,1.45.116.379.315,1.068.454,1.582l.865-1.56c.184-.33.238-.462.138-.581a1.308,1.308,0,0,0-.22-.173c-.064-.045-.079-.072-.063-.1s.063-.023.135.019c.157.094.3.188.572.358.1.062.445.246.62.35.063.037.094.067.072.1s-.049.032-.112-.005c-.043-.02-.1-.054-.156-.075-.192-.077-.281.022-.543.432C214.579,1532.143,213.945,1533.232,213.573,1533.8Z"/>
          <path id="Path_783" data-name="Path 783" d="M208.8,1528.943c-.532.613-.631.727-.729.864-.088.118-.106.226-.033.318a.863.863,0,0,0,.1.118c.047.042.061.081.037.109s-.05.018-.118-.042c-.158-.137-.535-.485-.566-.512s-.513-.424-.655-.545c-.067-.059-.073-.092-.052-.116s.069-.008.109.026.066.051.125.088c.12.069.2.052.335-.083.122-.117.211-.219.743-.832l.6-.7c.271-.312.586-.683.714-.862a.242.242,0,0,0,.025-.332,1.6,1.6,0,0,0-.157-.171c-.067-.058-.069-.088-.049-.112s.055-.022.118.033c.269.233.681.612.717.643.02.017.445.365.579.482.063.055.088.09.061.122s-.066.012-.114-.03-.085-.06-.136-.09c-.093-.06-.2,0-.308.107-.159.153-.414.43-.75.818Z"/>
          <path id="Path_784" data-name="Path 784" d="M206.506,1526.217a2.036,2.036,0,0,1-3.015-.45,1.993,1.993,0,0,1,.167-2.908,2.065,2.065,0,0,1,3.054.365A2.042,2.042,0,0,1,206.506,1526.217Zm-2.013-2.687c-.677.545-1.222,1.446-.641,2.168.3.375.847.628,1.814-.149.771-.62,1.25-1.536.686-2.237C206.149,1523.059,205.619,1522.625,204.493,1523.53Z"/>
          <path id="Path_785" data-name="Path 785" d="M201.977,1520.745c-.723.366-.811.422-.958.5-.187.107-.219.193-.186.317a2.007,2.007,0,0,0,.076.2c.024.058.019.1-.009.11s-.058-.012-.094-.081c-.1-.2-.314-.656-.347-.721-.045-.089-.285-.529-.394-.744a2.251,2.251,0,0,1-.323-1.032.889.889,0,0,1,.5-.786,1.229,1.229,0,0,1,1.254.151c.267-.492.594-1.085.776-1.535.15-.387.173-.539.125-.679a1.274,1.274,0,0,0-.045-.124c-.025-.051-.021-.088.007-.1s.07.023.094.07l.212.42a1.634,1.634,0,0,1,.276.927,1.975,1.975,0,0,1-.34.775c-.246.394-.383.6-.467.746a.082.082,0,0,0,0,.07l.156.308a.036.036,0,0,0,.056.019l.238-.121a7.692,7.692,0,0,0,.772-.42c.116-.07.2-.155.164-.311a1.237,1.237,0,0,0-.078-.224c-.033-.077-.019-.1.009-.11s.058.011.091.077c.158.313.4.828.418.861.029.056.271.5.352.659.035.07.033.1,0,.117s-.063-.009-.089-.06-.064-.1-.1-.149c-.07-.082-.173-.077-.339-.011-.205.081-.534.241-.987.47Zm-.093-.961a.077.077,0,0,0,.049-.077.943.943,0,0,0-.121-.39.523.523,0,0,0-.224-.256.849.849,0,0,0-.679.115c-.663.335-.623.843-.5,1.085a.687.687,0,0,0,.112.177c.019.014.029.021.066,0Z"/>
          <path id="Path_786" data-name="Path 786" d="M198.505,1509.828a.031.031,0,0,0-.04-.025l-.109.016c-.8.122-.89.135-1.054.171-.148.033-.23.088-.24.264,0,.042.008.12.012.183s-.016.1-.037.106-.056-.018-.067-.095c-.046-.3-.1-.768-.109-.82s-.112-.639-.146-.861c-.012-.078.005-.107.036-.112s.055.018.063.07c.024.087.029.117.049.178.04.131.135.159.3.15s.3-.035,1.1-.157l.91-.138c.491-.074.874-.132,1.087-.191.169-.042.25-.1.253-.255,0-.074-.011-.179-.014-.231s.012-.092.038-.1.058.034.068.1c.054.356.118.881.131.974s.09.484.128.738c.014.093-.008.117-.039.122s-.052-.024-.062-.091a1.377,1.377,0,0,0-.045-.157c-.045-.12-.147-.137-.315-.127-.221.012-.548.051-1.039.126l-.419.063a.031.031,0,0,0-.027.036l.245,1.613a.028.028,0,0,0,.036.027l.538-.082c.491-.074.7-.112.921-.166.148-.038.239-.1.241-.259,0-.111,0-.163-.006-.221s0-.1.036-.106.056.018.068.1c.044.3.121.907.129.959s.1.587.13.753c.009.057.007.115-.029.121s-.06-.013-.07-.08-.025-.091-.045-.157c-.035-.122-.176-.148-.333-.135-.219.018-.583.062-1.074.137l-.9.136c-.8.122-.92.145-1.084.18-.18.038-.269.11-.267.295a1.386,1.386,0,0,0,.006.147c.009.094-.016.108-.041.112s-.055-.05-.064-.107c-.046-.3-.091-.7-.109-.819-.029-.2-.111-.629-.144-.851-.014-.093,0-.112.035-.117s.056.023.066.086a1.672,1.672,0,0,0,.048.177c.052.135.175.143.326.131.168-.01.38-.042,1.027-.14l.108-.016a.033.033,0,0,0,.032-.037Z"/>
          <path id="Path_787" data-name="Path 787" d="M198.2,1505.667c-.81,0-.962,0-1.129.015-.146.011-.24.068-.261.183a.816.816,0,0,0-.021.157c0,.063-.021.1-.058.1s-.047-.026-.047-.115c0-.209.016-.722.016-.764s-.016-.664-.016-.852c0-.089.021-.115.052-.115s.053.047.053.1,0,.083.015.151c.027.136.094.189.283.2.167.016.3.016,1.113.016h.92c.413,0,.9-.006,1.119-.026.136-.011.23-.042.266-.2a1.633,1.633,0,0,0,.026-.23c0-.089.021-.11.053-.11s.052.026.052.11c0,.355-.016.915-.016.962,0,.026.016.575.016.752,0,.084-.01.126-.052.126s-.053-.042-.053-.1-.01-.1-.02-.162c-.016-.11-.131-.146-.283-.162-.219-.021-.6-.031-1.108-.031Z"/>
          <path id="Path_788" data-name="Path 788" d="M200.137,1498.464c.309,0,.34.01.377.1a4.067,4.067,0,0,1,.2,1.281c0,1.469-.658,2.488-2.049,2.488a1.885,1.885,0,0,1-1.7-.941,2.852,2.852,0,0,1-.345-1.5,5.459,5.459,0,0,1,.073-.847c.021-.177.058-.35.063-.5,0-.047.021-.057.068-.052a4.688,4.688,0,0,0,.962.058c.083,0,.109.021.109.057s-.041.058-.083.063a.773.773,0,0,0-.262.063c-.355.1-.606.564-.606,1.291a1.172,1.172,0,0,0,.376.935,1.7,1.7,0,0,0,1.13.33c.935,0,1.934-.45,1.934-1.547a.546.546,0,0,0-.063-.293.164.164,0,0,0-.141-.063h-.319c-.214,0-.418,0-.612.005-.3,0-.407.068-.433.246-.011.068-.016.136-.027.225,0,.042-.021.083-.052.083s-.052-.026-.052-.109c0-.34.015-.743.015-.884,0-.188-.015-.528-.015-.81,0-.078.01-.12.052-.12s.047.031.052.083c0,.021.011.089.016.142.026.125.084.183.267.2.167.011.439.016.7.016Z"/>
          <path id="Path_789" data-name="Path 789" d="M198.352,1493.163c0-.016-.009-.032-.035-.033l-.11,0c-.81-.032-.9-.036-1.066-.032s-.243.043-.286.214c-.007.042-.016.12-.023.183s-.035.1-.057.1-.051-.029-.048-.107c.012-.3.047-.773.048-.825s.01-.649.019-.874c0-.078.025-.1.057-.1s.051.028.049.08c.007.089.005.121.014.184.015.137.1.182.269.2s.3.023,1.113.055l.92.036c.5.02.883.035,1.1.017.173-.009.264-.047.3-.2.013-.073.023-.177.03-.229s.03-.088.056-.087.05.044.048.107c-.014.36-.051.888-.054.982s0,.492-.014.748c0,.094-.031.114-.062.113s-.046-.034-.043-.1a1.613,1.613,0,0,0-.015-.163c-.021-.127-.119-.162-.286-.184-.219-.03-.547-.053-1.044-.073l-.424-.017a.031.031,0,0,0-.032.031l-.064,1.63a.027.027,0,0,0,.03.033l.543.022c.5.019.712.022.937.01.152-.009.254-.053.286-.208.02-.109.027-.162.035-.219s.019-.1.056-.1.051.028.048.106c-.012.3-.052.915-.054.967s-.008.6-.014.764c0,.057-.015.114-.052.113s-.056-.023-.054-.091-.007-.095-.014-.163c-.011-.126-.145-.179-.3-.195-.219-.024-.585-.05-1.082-.069l-.909-.036c-.81-.032-.931-.031-1.1-.027-.184,0-.285.056-.319.238a1.421,1.421,0,0,0-.021.146c-.009.094-.036.1-.062.1s-.045-.059-.042-.116c.012-.3.043-.7.048-.826.008-.2.009-.638.018-.863,0-.094.025-.109.057-.108s.051.034.048.1.006.131.014.183c.026.143.145.174.3.19.167.022.381.031,1.035.057l.109,0c.026,0,.038-.015.038-.03Z"/>
          <path id="Path_790" data-name="Path 790" d="M201.708,1487.233a.191.191,0,0,1-.235.04,6.645,6.645,0,0,1-.716-.282c-.086-.041-.109-.071-.1-.1s.059-.025.1-.016a.98.98,0,0,0,.162.029.877.877,0,0,0,.929-.619c.164-.469-.029-.7-.241-.771s-.394-.092-.827.228l-.319.233a1.478,1.478,0,0,1-1.474.351,1.17,1.17,0,0,1-.59-1.618,2.9,2.9,0,0,1,.247-.551,2.031,2.031,0,0,1,.144-.221c.032-.045.052-.054.091-.04.155.064.25.109.69.262.089.031.118.057.1.1-.009.025-.03.039-.113.022a.714.714,0,0,0-.318-.011.81.81,0,0,0-.561.564c-.141.405.035.632.262.711.168.059.381.066.726-.191l.255-.193c.7-.532,1.083-.643,1.582-.47a1.067,1.067,0,0,1,.712.835,1.745,1.745,0,0,1-.087.934A2.067,2.067,0,0,1,201.708,1487.233Z"/>
          <path id="Path_791" data-name="Path 791" d="M203.134,1482.534a1.9,1.9,0,0,1-1.663-.183,1.932,1.932,0,0,1-.942-1.278,2.473,2.473,0,0,1,.383-1.773,4.7,4.7,0,0,1,.42-.615,4.293,4.293,0,0,0,.314-.418c.033-.047.06-.032.087-.016s.138.1.288.192.417.242.525.315c.066.043.1.076.079.116s-.06.033-.127,0a.778.778,0,0,0-.544-.079,1.464,1.464,0,0,0-.807.758,1.12,1.12,0,0,0-.16.793,1.729,1.729,0,0,0,.926,1.052,1.566,1.566,0,0,0,2.287-.39c.211-.373.311-.624.211-.915a.805.805,0,0,0-.22-.322c-.083-.077-.107-.109-.086-.145s.065-.011.1.01a7.291,7.291,0,0,1,.636.491.171.171,0,0,1,.065.193,2.807,2.807,0,0,1-.338.843A2.837,2.837,0,0,1,203.134,1482.534Z"/>
          <path id="Path_792" data-name="Path 792" d="M206.335,1474.853a.033.033,0,0,0-.006-.048l-.083-.073c-.6-.538-.671-.6-.8-.7a.251.251,0,0,0-.357-.016c-.031.027-.087.082-.133.126s-.089.053-.1.039-.022-.054.031-.112c.2-.227.526-.568.56-.607s.42-.494.569-.663c.053-.058.086-.064.109-.043s.022.054-.013.093c-.052.074-.072.1-.106.151-.075.115-.036.206.078.329s.22.209.825.748l.687.612c.371.33.66.588.841.714.14.1.234.131.358.031.056-.047.13-.122.168-.158s.079-.049.1-.031.012.066-.03.113c-.24.27-.6.654-.665.724s-.316.377-.486.568c-.062.071-.1.069-.119.048s-.014-.055.031-.106.068-.093.092-.135c.064-.111.01-.2-.1-.323-.15-.162-.389-.389-.76-.719l-.317-.282a.03.03,0,0,0-.044,0l-1.085,1.218a.027.027,0,0,0,0,.044l.406.362c.371.33.534.469.716.6.124.089.23.12.353.02.085-.071.124-.107.166-.146s.078-.064.1-.04.022.054-.03.113c-.2.223-.621.673-.655.712s-.385.456-.5.58c-.039.043-.085.079-.112.055s-.029-.054.016-.1.055-.078.092-.135c.072-.1,0-.23-.108-.342-.154-.158-.42-.409-.791-.739l-.68-.605c-.6-.539-.7-.616-.83-.719s-.256-.137-.4-.018c-.05.04-.067.06-.109.1-.067.067-.093.057-.113.04s0-.074.041-.117c.2-.227.481-.517.562-.606.132-.149.412-.487.561-.655.063-.071.089-.068.112-.048s.019.059-.023.1-.079.1-.106.151c-.07.126,0,.226.108.334.115.123.275.266.763.7l.082.073a.032.032,0,0,0,.048,0Z"/>
          <path id="Path_793" data-name="Path 793" d="M209.182,1472.6a2.036,2.036,0,0,1,.626-2.982,1.992,1.992,0,0,1,2.891.337,2.062,2.062,0,0,1-.543,3.025A2.04,2.04,0,0,1,209.182,1472.6Zm2.8-1.851c-.5-.707-1.371-1.3-2.125-.766-.392.279-.676.808.043,1.818.573.806,1.459,1.337,2.192.816C212.354,1472.427,212.818,1471.924,211.98,1470.748Z"/>
          <path id="Path_794" data-name="Path 794" d="M214.741,1468.951a2.037,2.037,0,0,1,1.283-2.766,1.993,1.993,0,0,1,2.743.981,2.064,2.064,0,0,1-1.212,2.827A2.041,2.041,0,0,1,214.741,1468.951Zm3.146-1.173c-.331-.8-1.043-1.58-1.9-1.227-.445.184-.842.636-.369,1.783.377.915,1.121,1.633,1.953,1.29C217.872,1469.5,218.438,1469.114,217.887,1467.778Z"/>
          <path id="Path_795" data-name="Path 795" d="M222.338,1466.905a2.66,2.66,0,0,0,.268.982c.091.083.193.09.619.006a1.246,1.246,0,0,0,.574-.2.581.581,0,0,0,.183-.483c0-.059.006-.1.047-.111s.046.018.06.09a4.181,4.181,0,0,1,.04.775c-.015.142-.055.155-.26.2-.708.139-1.191.2-1.736.308-.241.048-.515.117-.8.173-.072.014-.115.012-.124-.035-.006-.03.022-.052.093-.066a1.6,1.6,0,0,0,.171-.055c.179-.067.166-.16.1-.574-.03-.207-.086-.516-.148-.834l-.177-.9c-.164-.837-.187-.928-.23-1.09-.038-.142-.091-.223-.226-.233a.921.921,0,0,0-.206.013c-.056.011-.109.011-.117-.03s.041-.061.144-.081c.292-.057.562-.094.762-.133.046-.009.68-.149.864-.186.093-.018.127-.009.133.022.009.046-.041.066-.113.08a1.607,1.607,0,0,0-.17.055c-.134.053-.15.158-.125.339.021.166.037.27.2,1.117Z"/>
        </g>
      </g>
      <g id="Group_294" data-name="Group 294">
        <path id="Path_796" data-name="Path 796" d="M226.976,1521.732q-.2,0-.342.266a1.375,1.375,0,0,0-.141.652.555.555,0,0,0,.082.333.288.288,0,0,0,.248.109.381.381,0,0,0,.337-.248,1.494,1.494,0,0,0,.127-.67.576.576,0,0,0-.079-.332A.266.266,0,0,0,226.976,1521.732Z" fill="#1a9a60"/>
        <path id="Path_797" data-name="Path 797" d="M228.884,1523.868a.564.564,0,0,0,.078.329.265.265,0,0,0,.233.109q.2,0,.342-.266a1.387,1.387,0,0,0,.141-.654.56.56,0,0,0-.081-.333.284.284,0,0,0-.245-.109.384.384,0,0,0-.339.252A1.483,1.483,0,0,0,228.884,1523.868Z" fill="#1a9a60"/>
        <path id="Path_798" data-name="Path 798" d="M231.4,1523.868a.572.572,0,0,0,.077.329.267.267,0,0,0,.234.109c.133,0,.248-.089.341-.266a1.387,1.387,0,0,0,.141-.654.56.56,0,0,0-.081-.333.283.283,0,0,0-.245-.109.384.384,0,0,0-.338.252A1.483,1.483,0,0,0,231.4,1523.868Z" fill="#1a9a60"/>
        <path id="Path_799" data-name="Path 799" d="M227.922,1473.141a22.838,22.838,0,0,0-22.812,22.812v10.275a22.812,22.812,0,1,0,45.624,0v-10.275A22.838,22.838,0,0,0,227.922,1473.141Zm-17.812,21.031h4.469a14.519,14.519,0,0,1,7.828-7.827v-4.469h4.316v7.761a10.141,10.141,0,0,0-8.851,8.851H210.11Zm4.469,11.031H210.11v-4.317h7.762a10.139,10.139,0,0,0,8.851,8.851v7.762h-4.316v-4.469A14.522,14.522,0,0,1,214.579,1505.2Zm8.2,18.166a1.9,1.9,0,0,0-.024.237l-.274-.007c-.092,0-.185,0-.28,0s-.189,0-.284,0-.191.005-.287.009a2.161,2.161,0,0,0,.053-.211c.015-.078.029-.164.042-.26.1,0,.194.007.289.009s.189,0,.282,0,.185,0,.275,0,.179-.005.267-.009A1.55,1.55,0,0,0,222.78,1523.369Zm1.937-.4q-.15.712-.263,1.467c-.046-.007-.1-.012-.148-.016s-.113-.005-.181-.005-.129,0-.182.005-.1.009-.15.016q.306-1.169.411-1.664a4.51,4.51,0,0,0,.112-.73c-.117.044-.227.089-.329.134s-.192.09-.27.133a1.152,1.152,0,0,0-.054-.138q-.03-.068-.066-.135c.213-.06.433-.132.662-.217s.466-.183.715-.293l.074.059Q224.865,1522.257,224.717,1522.968Zm3.011.312a2.214,2.214,0,0,1-.342.663,1.436,1.436,0,0,1-.5.417,1.415,1.415,0,0,1-.636.141,1.287,1.287,0,0,1-.218-.018,1.262,1.262,0,0,1-.2-.052c-.006-.046-.014-.1-.023-.159s-.022-.12-.035-.184l.045-.012a.409.409,0,0,0,.143.186.372.372,0,0,0,.216.065.725.725,0,0,0,.575-.3,2.152,2.152,0,0,0,.377-.869.654.654,0,0,1-.205.111.789.789,0,0,1-.241.035.845.845,0,0,1-.587-.2.679.679,0,0,1-.223-.531,1.021,1.021,0,0,1,.281-.751,1.006,1.006,0,0,1,.747-.283.935.935,0,0,1,.7.246,1.008,1.008,0,0,1,.238.729A2.465,2.465,0,0,1,227.728,1523.28Zm.194-16.347a7.246,7.246,0,1,1,7.246-7.246A7.254,7.254,0,0,1,227.922,1506.933Zm1.348,15.827a.861.861,0,0,1,.268-.04.77.77,0,0,1,.554.2.7.7,0,0,1,.214.524,1.02,1.02,0,0,1-.3.765,1.077,1.077,0,0,1-.783.288.85.85,0,0,1-.671-.263,1.1,1.1,0,0,1-.234-.757,2.361,2.361,0,0,1,.157-.847,1.9,1.9,0,0,1,.427-.682,1.442,1.442,0,0,1,.467-.314,1.4,1.4,0,0,1,.546-.109,1.165,1.165,0,0,1,.151.01c.053.006.109.016.168.028.02.058.036.11.049.157a1.246,1.246,0,0,1,.027.129l-.049.023a.453.453,0,0,0-.148-.122.394.394,0,0,0-.175-.039.678.678,0,0,0-.54.3,2.191,2.191,0,0,0-.365.863A.823.823,0,0,1,229.27,1522.76Zm2.512,0a.85.85,0,0,1,.267-.04.768.768,0,0,1,.554.2.691.691,0,0,1,.214.524,1.02,1.02,0,0,1-.3.765,1.074,1.074,0,0,1-.783.288.853.853,0,0,1-.671-.263,1.1,1.1,0,0,1-.234-.757,2.363,2.363,0,0,1,.158-.847,1.915,1.915,0,0,1,.426-.682,1.453,1.453,0,0,1,.467-.314,1.4,1.4,0,0,1,.546-.109,1.154,1.154,0,0,1,.151.01c.053.006.109.016.168.028.02.058.036.11.049.157a.875.875,0,0,1,.027.129l-.048.023a.464.464,0,0,0-.148-.122.4.4,0,0,0-.176-.039.678.678,0,0,0-.54.3,2.205,2.205,0,0,0-.365.863A.815.815,0,0,1,231.782,1522.76Zm2.592.609a1.734,1.734,0,0,0-.025.237l-.273-.007c-.093,0-.186,0-.281,0s-.189,0-.284,0-.191.005-.287.009a1.906,1.906,0,0,0,.053-.211c.016-.078.03-.164.042-.26.1,0,.194.007.289.009s.189,0,.283,0,.184,0,.274,0,.18-.005.267-.009A1.545,1.545,0,0,0,234.374,1523.369Zm11.359-18.166h-4.468a14.522,14.522,0,0,1-7.828,7.827v4.469h-4.316v-7.762a10.14,10.14,0,0,0,8.851-8.851h7.761Zm0-6.715h-7.761a10.142,10.142,0,0,0-8.851-8.851v-7.761h4.316v4.469a14.519,14.519,0,0,1,7.828,7.827h4.468Z" fill="#1a9a60"/>
      </g>
    </g>
  </g>
</svg>
