<svg xmlns="http://www.w3.org/2000/svg" width="120.703" height="19.843" viewBox="0 0 120.703 19.843">
  <g id="Group_214" data-name="Group 214" transform="translate(-27.96 -13.539)">
    <g id="Group_173" data-name="Group 173">
      <g id="Group_166" data-name="Group 166">
        <path id="Path_350" data-name="Path 350" d="M36.4,31.959a7.005,7.005,0,0,1-7-7V22.191a7,7,0,1,1,13.995,0v2.771A7.005,7.005,0,0,1,36.4,31.959Zm0-16.5a6.735,6.735,0,0,0-6.727,6.728v2.771a6.727,6.727,0,0,0,13.455,0V22.191A6.735,6.735,0,0,0,36.4,15.463Z" fill="#00935f"/>
      </g>
      <path id="Path_351" data-name="Path 351" d="M36.4,31.115a6.16,6.16,0,0,1-6.152-6.153V22.19a6.152,6.152,0,0,1,12.3,0v2.772A6.16,6.16,0,0,1,36.4,31.115Z" fill="#00935f"/>
      <g id="Group_169" data-name="Group 169">
        <path id="Path_352" data-name="Path 352" d="M36.4,21.243A1.955,1.955,0,1,0,38.36,23.2,1.957,1.957,0,0,0,36.4,21.243Zm0,2.745a.791.791,0,1,1,.791-.79A.79.79,0,0,1,36.4,23.988Z" fill="#fff"/>
        <g id="Group_167" data-name="Group 167">
          <path id="Path_353" data-name="Path 353" d="M41.209,22.874V21.71H40A3.913,3.913,0,0,0,37.893,19.6V18.394H36.729v2.093a2.735,2.735,0,0,1,2.387,2.387Z" fill="#fff"/>
          <path id="Path_354" data-name="Path 354" d="M36.729,28h1.164V26.8A3.913,3.913,0,0,0,40,24.685h1.2V23.521H39.116a2.735,2.735,0,0,1-2.387,2.387Z" fill="#fff"/>
        </g>
        <g id="Group_168" data-name="Group 168">
          <path id="Path_355" data-name="Path 355" d="M33.695,23.521a2.734,2.734,0,0,0,2.387,2.387V28H34.918V26.8a3.913,3.913,0,0,1-2.111-2.111H31.6V23.521Z" fill="#fff"/>
          <path id="Path_356" data-name="Path 356" d="M31.6,22.874V21.71h1.206A3.913,3.913,0,0,1,34.918,19.6V18.394h1.164v2.093a2.734,2.734,0,0,0-2.387,2.387Z" fill="#fff"/>
        </g>
      </g>
      <g id="Group_171" data-name="Group 171">
        <g id="Group_170" data-name="Group 170">
          <path id="Path_357" data-name="Path 357" d="M36.9,14.059c.083-.066.208-.178.329-.294.05-.05.08-.088.082-.11s0-.024-.037-.034c-.013,0-.024-.006-.023-.016s.008-.012.023-.011c.064.005.069.009.149.015l.2.013c.024,0,.029.005.029.015s-.008.012-.027.012a.318.318,0,0,0-.242.111c-.069.057-.241.209-.281.246a5.305,5.305,0,0,0,.345.5.622.622,0,0,0,.138.139.2.2,0,0,0,.063.024c.019,0,.029.006.028.018s-.013.011-.029.01l-.138-.011c-.186-.014-.249-.038-.314-.122a4.6,4.6,0,0,1-.3-.461l-.01.124c-.008.11-.017.238-.016.3,0,.036.007.072.054.082.02.005.042.008.06.011s.024.009.023.016-.006.013-.028.012c-.092-.008-.243-.023-.255-.025s-.168-.008-.214-.012c-.019,0-.028-.005-.027-.016s.01-.013.026-.012.028,0,.044,0c.044,0,.051-.037.058-.078.011-.058.021-.157.032-.293l.019-.248c.017-.218.02-.257.02-.3s-.014-.067-.047-.076-.039-.007-.053-.01-.029-.005-.028-.018.012-.012.039-.009l.213.021.234.013c.024,0,.029.008.029.015s-.009.014-.027.014H37c-.049,0-.06.035-.067.079s-.01.073-.027.291Z" fill="#1a1311"/>
          <path id="Path_358" data-name="Path 358" d="M38.212,14.163c.053-.212.062-.252.069-.3s0-.067-.031-.08a.251.251,0,0,0-.04-.016c-.016,0-.024-.011-.022-.021s.01-.011.033,0l.2.054.225.051c.023.006.029.013.027.021s-.016.011-.03.007l-.041-.006c-.037,0-.055.013-.07.061s-.024.079-.076.291l-.06.241c-.027.109-.057.236-.066.3-.006.037,0,.063.035.083a.419.419,0,0,0,.059.022c.023.006.027.013.025.021s-.01.012-.032.006c-.093-.023-.239-.063-.251-.066s-.152-.033-.2-.045c-.022-.005-.033-.011-.03-.022s.014-.011.031-.007l.044.006c.029,0,.046-.025.06-.064.02-.056.047-.154.081-.288Z" fill="#1a1311"/>
          <path id="Path_359" data-name="Path 359" d="M39.366,14.122c.018-.038.033-.059.049-.052s.015.011.036.053c.035.069.073.163.248.565.078.179.129.305.15.352l.207-.487c.029-.074.037-.11-.01-.142a.59.59,0,0,0-.054-.032c-.017-.007-.02-.016-.018-.023s.018-.008.032,0c.052.023.134.064.185.087.029.013.095.037.149.062.019.008.027.016.023.024s-.013.011-.028,0a.144.144,0,0,0-.034-.01c-.045-.014-.067,0-.107.081-.125.254-.239.512-.359.769-.029.066-.045.076-.061.069s-.047-.058-.1-.169-.121-.268-.167-.373-.119-.277-.172-.41l-.182.446c-.039.094-.049.131-.019.16a.385.385,0,0,0,.065.039c.019.01.023.016.02.024s-.016.009-.037,0c-.045-.02-.085-.04-.164-.077l-.178-.074c-.018-.008-.027-.015-.022-.026s.012-.009.03,0,.029.011.044.015c.054.014.075-.015.132-.134C39.149,14.6,39.284,14.285,39.366,14.122Z" fill="#1a1311"/>
          <path id="Path_360" data-name="Path 360" d="M41.393,16.29c-.046.08-.056.117-.028.156a.393.393,0,0,0,.057.058c.015.011.019.02.013.028s-.017,0-.035-.009c-.094-.07-.185-.139-.309-.242-.021-.017-.02-.028-.016-.033a.017.017,0,0,1,.021,0c.023.007.029,0,.063-.053l.262-.435-.559.261c-.073.035-.085.037-.094.03s-.011-.026-.005-.1c.008-.093.035-.273.047-.378,0-.047.025-.176.032-.231l-.272.294c-.04.045-.059.07-.072.087a.054.054,0,0,0,0,.081.429.429,0,0,0,.037.037c.017.013.018.019.013.026s-.014.009-.032-.005c-.049-.037-.109-.087-.143-.113s-.09-.062-.132-.093c-.011-.009-.025-.019-.016-.03s.015-.007.031.005a.336.336,0,0,0,.036.022c.038.018.068,0,.136-.065l.623-.617c.03-.031.045-.035.056-.027s.012.027.01.08l-.083.782.719-.314c.04-.016.058-.02.069-.012s.006.029-.012.06Z" fill="#1a1311"/>
          <path id="Path_361" data-name="Path 361" d="M42.21,16.442c.171-.153.191-.173.223-.2s.038-.055.021-.087c-.006-.011-.02-.026-.028-.038s-.012-.023,0-.029.015,0,.03.015c.053.06.1.113.137.159l.266.3a.506.506,0,0,0,.055.053.122.122,0,0,1,.019.013c0,.005,0,.01,0,.015l-.051.036c-.024.015-.062.046-.12.093a.017.017,0,0,1-.024,0c-.005,0,0-.014.005-.024a.156.156,0,0,0,.032-.038c.02-.027.021-.053-.019-.107-.028-.038-.108-.131-.136-.163-.006-.006-.011-.005-.018,0l-.232.207c-.007.007-.011.012-.005.02.026.03.1.114.138.151s.063.061.092.055.023,0,.027,0,0,.012-.007.018-.053.038-.1.071l-.088.077c-.013.012-.023.015-.028.008s0-.016.006-.026l.022-.025c.026-.031.031-.062-.012-.117-.024-.031-.1-.119-.128-.151,0-.006-.011,0-.019,0l-.073.065c-.036.032-.1.087-.138.123-.072.067-.076.1.028.214a.4.4,0,0,0,.1.086c.038.019.073.011.129-.023.015-.009.025-.01.031,0s0,.019-.015.03a1.055,1.055,0,0,1-.156.109c-.034.017-.042.011-.076-.028-.13-.145-.194-.23-.293-.34-.044-.049-.087-.091-.138-.148-.017-.019-.02-.029-.012-.035s.015,0,.029.012a.307.307,0,0,0,.032.027c.031.026.075-.006.143-.063.044-.035.107-.089.172-.148Z" fill="#1a1311"/>
          <path id="Path_362" data-name="Path 362" d="M43.355,17.27c.037-.02.062-.028.07-.014s.006.018,0,.065c-.012.076-.035.175-.123.605-.04.192-.071.324-.081.374l.45-.279c.067-.043.094-.068.074-.122a.586.586,0,0,0-.026-.057c-.009-.016-.007-.025,0-.029s.019,0,.027.017c.029.049.072.13.1.178.016.027.056.085.086.136.011.018.013.028.006.033s-.017,0-.026-.013a.159.159,0,0,0-.022-.028c-.029-.037-.056-.037-.134.005-.249.136-.491.281-.737.422-.062.037-.081.036-.09.021s-.005-.075.017-.195.055-.29.078-.4.063-.294.1-.434l-.406.259c-.086.055-.116.079-.107.121a.352.352,0,0,0,.03.069c.009.019.009.027,0,.031s-.018,0-.03-.021c-.025-.043-.046-.083-.09-.159-.016-.028-.073-.115-.1-.162-.01-.017-.013-.028,0-.034s.016,0,.026.016a.4.4,0,0,0,.028.037c.035.043.069.031.184-.033C42.9,17.534,43.195,17.357,43.355,17.27Z" fill="#1a1311"/>
          <path id="Path_363" data-name="Path 363" d="M43.6,19.865a.511.511,0,0,1,.361-.271.523.523,0,0,1,.421.076.667.667,0,0,1,.253.419,1.286,1.286,0,0,1,.031.2,1.193,1.193,0,0,0,.016.14c0,.015-.006.017-.014.019s-.045.007-.093.016-.126.029-.161.035-.034,0-.037-.009.006-.017.025-.023a.211.211,0,0,0,.121-.085.4.4,0,0,0,.019-.3.3.3,0,0,0-.116-.185.463.463,0,0,0-.376-.036c-.282.07-.434.27-.377.5.028.112.054.18.128.218a.209.209,0,0,0,.1.023c.03,0,.041,0,.044.013s-.011.014-.022.017-.147.018-.216.021a.048.048,0,0,1-.049-.026.742.742,0,0,1-.089-.228A.766.766,0,0,1,43.6,19.865Z" fill="#1a1311"/>
          <path id="Path_364" data-name="Path 364" d="M44.266,21.091a.55.55,0,0,1,.579.584.536.536,0,0,1-.505.6.557.557,0,0,1-.6-.571A.551.551,0,0,1,44.266,21.091Zm0,.906c.234-.009.5-.116.488-.366-.005-.129-.082-.272-.416-.26-.267.01-.518.13-.509.373C43.834,21.831,43.879,22.011,44.268,22Z" fill="#1a1311"/>
          <path id="Path_365" data-name="Path 365" d="M44.784,22.87c.042,0,.067.007.067.024s0,.018-.034.055c-.049.059-.119.133-.416.456-.132.144-.227.241-.261.279l.529-.008c.079,0,.116-.01.126-.067a.42.42,0,0,0,.007-.062c0-.018.007-.025.014-.025s.014.013.014.028c0,.057,0,.148,0,.2,0,.031,0,.1,0,.16,0,.022,0,.031-.013.031s-.015-.007-.015-.024a.14.14,0,0,0,0-.035c-.006-.046-.03-.06-.117-.065-.284-.011-.566-.011-.849-.017-.072,0-.088-.01-.088-.028s.034-.066.114-.158.2-.22.274-.305.205-.22.305-.323l-.481.015c-.1,0-.14.008-.154.048a.378.378,0,0,0-.01.074c0,.021-.006.029-.014.029s-.014-.012-.014-.034c0-.05,0-.095,0-.182,0-.033,0-.137,0-.192,0-.02,0-.031.014-.031s.014.007.014.027,0,.031,0,.046c.009.055.044.062.175.066C44.262,22.865,44.6,22.862,44.784,22.87Z" fill="#1a1311"/>
          <path id="Path_366" data-name="Path 366" d="M44.173,24.965c-.11,0-.241,0-.3.007-.036,0-.066.013-.073.055,0,.019,0,.036-.007.061s-.006.028-.015.028-.013-.007-.013-.032c0-.1,0-.233,0-.256s0-.16,0-.207c0-.022,0-.032.014-.032s.014.011.014.028,0,.029.006.045.036.041.077.045c.06.006.161.009.3.009h.553c0-.055,0-.143,0-.213s-.023-.11-.072-.129a.17.17,0,0,0-.032-.012c-.012,0-.023-.007-.023-.017s.011-.013.028-.012c.058.006.134.022.188.031.021,0,.035.007.035.016a.416.416,0,0,1-.011.048,1.031,1.031,0,0,0-.01.156V25.2a.553.553,0,0,0,.006.089.357.357,0,0,1,.008.044c0,.012-.008.014-.044.014-.019,0-.151-.009-.186-.01s-.028-.006-.028-.014.008-.014.025-.016l.029,0c.043,0,.077-.026.083-.11,0-.046.007-.119.007-.227Z" fill="#1a1311"/>
          <path id="Path_367" data-name="Path 367" d="M44.366,25.956c.216.037.244.039.289.045s.078-.007.091-.039.011-.042.015-.055.011-.024.019-.022.011.012.007.033c-.01.059-.037.192-.04.211s-.023.161-.034.225a.608.608,0,0,1-.1.276.241.241,0,0,1-.234.09.331.331,0,0,1-.248-.234,4.579,4.579,0,0,0-.415.209c-.094.059-.124.089-.136.127,0,.015-.007.023-.01.034s-.009.023-.018.021-.011-.016-.009-.03l.021-.125a.449.449,0,0,1,.089-.245.537.537,0,0,1,.2-.114c.117-.046.179-.068.221-.087a.02.02,0,0,0,.011-.015l.016-.092c0-.007,0-.012-.009-.013l-.071-.012a2.057,2.057,0,0,0-.235-.033c-.037,0-.069,0-.086.041a.388.388,0,0,0-.019.062c0,.021-.011.023-.019.022s-.011-.012-.008-.031c.016-.094.046-.244.048-.254s.021-.152.029-.2c0-.02.009-.027.019-.025s.012.012.01.027,0,.033,0,.048.025.045.072.057.155.034.289.056Zm-.134.223a.022.022,0,0,0-.023.009.265.265,0,0,0-.036.1.145.145,0,0,0,.007.092.232.232,0,0,0,.166.084c.2.033.27-.083.283-.156a.2.2,0,0,0,0-.056c0-.006,0-.009-.014-.011Z" fill="#1a1311"/>
          <path id="Path_368" data-name="Path 368" d="M43.705,27.484a.272.272,0,0,0,.155.015c.108-.017.374-.068.458-.088s.118-.031.147-.068a.3.3,0,0,0,.019-.032c.006-.013.014-.018.022-.015s.008.015,0,.031c-.02.054-.06.152-.078.2-.009.022-.035.107-.066.19,0,.015-.011.025-.019.022s-.011-.012-.008-.033c.009-.037,0-.048-.013-.051a.083.083,0,0,0-.043,0l-.448.072c.123.136.229.256.273.3a.175.175,0,0,0,.06.045c.014.006.029,0,.05-.035.007-.011.015-.02.024-.017s.009.012,0,.034c-.02.054-.041.1-.059.148-.007.019-.043.129-.052.154s-.012.026-.021.022-.011-.014-.005-.032a.216.216,0,0,0,.008-.056.18.18,0,0,0-.04-.1,3.983,3.983,0,0,0-.344-.413.407.407,0,0,0-.118-.067l-.094-.034c-.021-.008-.075-.027-.132-.044-.035-.009-.069-.019-.1.027a.748.748,0,0,0-.034.07c-.007.015-.013.019-.023.016s-.009-.011,0-.031c.035-.095.079-.2.1-.247s.049-.148.071-.207c.007-.019.015-.025.024-.022s.009.013,0,.029a.378.378,0,0,0-.01.048c0,.038.018.055.055.072.054.024.113.047.135.055Z" fill="#1a1311"/>
          <path id="Path_369" data-name="Path 369" d="M42.766,29.407c-.117-.082-.2-.144-.236-.142s-.054.019-.121.115a.328.328,0,0,0-.075.145.153.153,0,0,0,.055.128c.01.012.017.021.011.03s-.012.006-.028-.005a1.131,1.131,0,0,1-.153-.144c-.024-.03-.018-.04.014-.086.112-.16.195-.262.281-.384.038-.055.078-.119.123-.183.011-.016.02-.023.03-.016s.006.014-.006.03-.016.028-.023.043c-.022.046,0,.062.088.13.044.035.113.085.184.135l.2.143c.188.132.209.146.248.169s.059.026.087,0a.222.222,0,0,0,.038-.041c.009-.012.019-.022.028-.016s0,.02-.012.043c-.047.066-.092.123-.124.168-.007.011-.1.156-.134.2-.014.021-.023.025-.03.02s0-.02.007-.036a.4.4,0,0,0,.023-.043c.016-.035,0-.059-.039-.089s-.057-.046-.248-.18Z" fill="#1a1311"/>
          <path id="Path_370" data-name="Path 370" d="M42.32,30.361c.159.15.189.178.225.206a.066.066,0,0,0,.085.013.4.4,0,0,0,.033-.027c.012-.012.023-.016.03-.009s0,.014-.012.031c-.039.041-.137.139-.145.147s-.12.133-.155.17c-.016.018-.025.019-.031.013s0-.019.008-.029a.4.4,0,0,0,.025-.033c.02-.031.016-.054-.019-.091s-.056-.059-.215-.209l-.181-.171c-.081-.077-.177-.166-.224-.2-.029-.023-.053-.035-.089-.011a.472.472,0,0,0-.048.041c-.016.017-.024.017-.031.011s-.005-.014.01-.031c.066-.07.173-.177.182-.186s.1-.115.136-.15c.016-.017.026-.023.034-.015s0,.018-.009.03a.256.256,0,0,0-.026.036c-.018.024,0,.053.025.084s.111.116.212.211Z" fill="#1a1311"/>
          <path id="Path_371" data-name="Path 371" d="M41.556,31.1c.142.181.16.2.19.236s.053.041.086.026a.36.36,0,0,0,.039-.025c.015-.01.024-.01.029,0s0,.015-.016.029c-.063.049-.119.088-.168.126l-.312.246a.543.543,0,0,0-.057.052.113.113,0,0,1-.014.018c-.006,0-.01,0-.015,0s-.01-.019-.032-.054-.043-.065-.085-.125a.017.017,0,0,1,0-.024c.006,0,.015,0,.024.006a.151.151,0,0,0,.036.035c.025.021.051.024.108-.013.039-.026.137-.1.171-.125.006-.006.006-.011,0-.018l-.192-.245c-.006-.007-.011-.012-.019-.006-.032.023-.121.095-.16.127s-.065.06-.061.089,0,.023,0,.027-.012,0-.017-.008-.035-.056-.066-.1c-.018-.027-.061-.081-.071-.094s-.013-.023-.006-.028.016,0,.026.008l.023.023c.03.028.06.035.117,0,.033-.022.126-.091.16-.118.006,0,0-.011,0-.02l-.06-.077c-.03-.037-.08-.1-.114-.145-.062-.077-.092-.082-.215.014a.415.415,0,0,0-.093.094c-.021.037-.016.072.014.131.009.015.009.025,0,.03s-.019,0-.029-.017a1.161,1.161,0,0,1-.1-.162c-.015-.035-.008-.042.033-.075.153-.12.242-.178.358-.27.052-.04.1-.08.157-.128.02-.016.03-.018.036-.01s0,.015-.014.029a.422.422,0,0,0-.03.03c-.027.029,0,.075.054.146.033.046.083.113.137.181Z" fill="#1a1311"/>
          <path id="Path_372" data-name="Path 372" d="M39.856,32.161a.009.009,0,0,0,0,.013l.013.026c.1.195.111.216.134.255a.07.07,0,0,0,.089.039l.045-.019c.018-.009.028,0,.031,0s0,.016-.019.026c-.073.037-.187.091-.2.1l-.208.111c-.019.01-.027.008-.031,0s0-.016.012-.023.028-.017.041-.027c.031-.022.03-.048.013-.091s-.035-.074-.135-.268l-.114-.221c-.061-.119-.109-.212-.142-.261s-.046-.056-.087-.043c-.019.006-.044.018-.058.023s-.024.005-.027,0,0-.018.018-.026c.087-.044.215-.106.238-.117s.116-.065.178-.1c.022-.012.03-.008.034,0s0,.015-.018.023-.026.017-.036.025c-.027.022-.022.05-.005.092s.06.135.121.254l.052.1a.009.009,0,0,0,.012,0l.391-.2s.007,0,0-.011l-.067-.13c-.062-.12-.089-.17-.122-.222-.022-.034-.046-.052-.087-.039l-.056.021c-.014.007-.025.008-.03,0s0-.015.019-.025c.071-.037.221-.109.234-.116l.181-.1c.014-.007.029-.011.033,0s0,.016-.014.024l-.036.025c-.028.02-.023.058-.006.1.023.055.066.144.127.263l.112.218c.1.195.116.223.14.262s.051.059.1.043c.016-.005.022-.009.037-.014s.029-.006.032,0-.008.018-.022.025c-.073.037-.171.083-.2.1-.048.024-.151.082-.2.11-.023.012-.029.009-.033,0s0-.016.016-.024l.042-.027c.03-.025.021-.058.005-.1s-.043-.094-.124-.251l-.014-.026a.009.009,0,0,0-.012-.005Z" fill="#1a1311"/>
          <path id="Path_373" data-name="Path 373" d="M38.611,32.517c-.048.015-.058.013-.061,0s.01-.026.065-.062a2.574,2.574,0,0,0,.262-.176c.034-.028.049-.051.064-.055s.015.008.017.024l.016.123c0,.026,0,.028-.024.036Z" fill="#1a1311"/>
          <path id="Path_374" data-name="Path 374" d="M37.84,32.541a.272.272,0,0,0,.064.142c.068.086.245.292.3.354s.085.087.132.094h.037c.014,0,.022,0,.024.011s-.009.015-.026.018c-.057.01-.162.023-.215.032-.023,0-.11.024-.2.038-.015,0-.027,0-.028-.006s0-.016.025-.023.04-.026.038-.037a.1.1,0,0,0-.021-.038c-.029-.036-.256-.315-.285-.353-.058.174-.109.326-.126.386a.187.187,0,0,0-.01.075c0,.015.013.027.056.026.013,0,.025,0,.027.013s-.007.014-.029.018c-.057.01-.1.014-.158.023-.019,0-.132.027-.159.031s-.028,0-.03-.007.007-.017.025-.021a.241.241,0,0,0,.053-.02.175.175,0,0,0,.065-.084,3.828,3.828,0,0,0,.187-.5.391.391,0,0,0,0-.136l-.017-.1c0-.022-.013-.079-.028-.137-.008-.034-.017-.068-.07-.069a.657.657,0,0,0-.078,0c-.017,0-.023,0-.025-.011s.005-.014.026-.017c.1-.018.216-.033.262-.041s.152-.03.215-.041c.019,0,.029,0,.03.01s-.006.014-.023.017a.25.25,0,0,0-.047.016c-.035.015-.039.042-.035.083.006.059.016.122.019.144Z" fill="#1a1311"/>
          <path id="Path_375" data-name="Path 375" d="M36.468,32.756c0-.195-.026-.277-.1-.333a.263.263,0,0,0-.3.008c-.08.066-.082.214-.084.359l0,.17c0,.207,0,.244,0,.289s.013.078.06.087c.015,0,.024,0,.052.006s.025.006.025.015-.007.014-.033.014c-.08,0-.166-.007-.189-.007s-.117,0-.186,0c-.021,0-.029-.005-.029-.015s.006-.012.024-.014a.269.269,0,0,0,.044,0c.038-.006.05-.027.055-.085s0-.082.008-.289l0-.138a.532.532,0,0,1,.15-.444.446.446,0,0,1,.295-.088.5.5,0,0,1,.334.1.437.437,0,0,1,.126.37l0,.214c0,.219,0,.258,0,.3s.01.058.043.069a.347.347,0,0,0,.06.011c.021,0,.03.007.03.016s-.012.012-.039.012c-.06,0-.2-.007-.215-.008s-.18,0-.23,0c-.024,0-.031-.005-.031-.013s.007-.014.025-.015l.047-.005c.04-.008.047-.038.051-.083s.006-.111.008-.292Z" fill="#1a1311"/>
          <path id="Path_376" data-name="Path 376" d="M34.162,32.367a1.335,1.335,0,0,1,.139-.362.613.613,0,0,1,.359-.223.506.506,0,0,1,.081-.015.058.058,0,0,1,.032,0,.011.011,0,0,1,.009.014c0,.007-.016.015-.039.021a.341.341,0,0,0-.09.041c-.094.06-.125.147-.226.5l-.1.347c-.059.21-.07.248-.078.293a.067.067,0,0,0,.036.085c.018.008.038.015.053.02s.025.012.021.023-.01.01-.033,0c-.058-.016-.208-.063-.219-.066s-.175-.044-.225-.059c-.023-.007-.03-.013-.027-.021s.013-.011.031-.007l.04.007c.047,0,.063-.024.078-.067s.023-.069.082-.28Z" fill="#1a1311"/>
          <path id="Path_377" data-name="Path 377" d="M33.259,32.1c.083-.176.091-.263.044-.346a.234.234,0,0,0-.111-.1.24.24,0,0,0-.163-.019c-.1.028-.163.162-.225.294l-.072.153c-.088.188-.1.221-.121.263s-.02.076.019.1a.4.4,0,0,0,.044.028c.017.008.021.016.017.023s-.012.01-.035,0c-.073-.034-.149-.075-.169-.085s-.108-.046-.171-.075c-.019-.009-.025-.017-.02-.026s.01-.009.027,0l.042.013c.038.01.057,0,.085-.055s.039-.072.127-.26l.059-.125c.069-.146.149-.3.32-.342a.451.451,0,0,1,.306.041.5.5,0,0,1,.263.228.437.437,0,0,1-.038.389l-.091.194c-.093.2-.11.234-.126.277s-.014.057.011.079a.291.291,0,0,0,.051.035c.018.011.024.019.02.027s-.015.007-.04,0c-.055-.026-.182-.091-.193-.1s-.164-.073-.21-.1c-.022-.01-.026-.017-.023-.024s.012-.01.03,0a.453.453,0,0,0,.044.015c.04.009.059-.015.08-.054s.052-.1.129-.263Z" fill="#1a1311"/>
          <path id="Path_378" data-name="Path 378" d="M31.716,31.909c-.027.033-.047.05-.06.039s-.012-.014-.023-.06c-.018-.075-.033-.176-.111-.607-.034-.193-.055-.327-.065-.377l-.313.427c-.045.064-.062.1-.023.14a.457.457,0,0,0,.045.043c.015.011.016.021.012.026s-.019,0-.031-.005c-.045-.034-.116-.093-.161-.127-.024-.019-.083-.058-.13-.1-.017-.012-.022-.022-.017-.028s.015-.008.028,0a.191.191,0,0,0,.031.018c.04.023.066.013.122-.054.181-.219.352-.444.528-.666.043-.057.061-.064.075-.052s.033.067.057.186.056.289.077.4.051.3.073.438l.279-.391c.06-.083.078-.116.055-.151a.333.333,0,0,0-.053-.054c-.016-.014-.019-.021-.014-.028s.017,0,.035.009c.04.03.074.06.143.114.025.019.111.079.155.113.016.012.023.021.016.03s-.014.006-.03-.005a.442.442,0,0,0-.039-.025c-.049-.027-.076,0-.159.1C32.036,31.5,31.833,31.769,31.716,31.909Z" fill="#1a1311"/>
          <path id="Path_379" data-name="Path 379" d="M30.632,30.512c-.16.15-.189.177-.22.211a.067.067,0,0,0-.017.085.2.2,0,0,0,.024.034c.012.013.015.024.007.031s-.014,0-.03-.014c-.039-.042-.13-.146-.138-.154l-.16-.165c-.016-.018-.017-.027-.011-.032s.019,0,.029.01.016.015.031.027c.03.022.053.019.092-.013s.063-.053.223-.2l.181-.17c.082-.076.177-.167.216-.211a.066.066,0,0,0,.016-.089.586.586,0,0,0-.037-.05c-.016-.017-.016-.025-.01-.031s.015,0,.03.012c.066.07.166.183.175.192s.109.111.142.146c.015.017.021.027.012.035s-.018,0-.029-.011l-.034-.029c-.024-.018-.053,0-.086.021s-.123.1-.224.2Z" fill="#1a1311"/>
          <path id="Path_380" data-name="Path 380" d="M30.131,29.767a.548.548,0,0,1-.8-.2.537.537,0,0,1,.12-.776.557.557,0,0,1,.81.177A.55.55,0,0,1,30.131,29.767Zm-.47-.773c-.2.129-.366.356-.229.565.072.109.212.191.491.007.223-.146.376-.38.242-.583C30.117,28.91,29.986,28.78,29.661,28.994Z" fill="#1a1311"/>
          <path id="Path_381" data-name="Path 381" d="M29.084,28.238c-.2.081-.228.094-.27.112s-.063.046-.057.08a.406.406,0,0,0,.015.055c.005.016,0,.026,0,.029s-.015,0-.023-.024c-.023-.056-.069-.184-.076-.2s-.064-.15-.088-.21a.6.6,0,0,1-.062-.285.239.239,0,0,1,.153-.2.331.331,0,0,1,.334.071c.083-.126.186-.278.246-.394s.059-.141.05-.18c0-.015-.007-.023-.009-.034s0-.025,0-.028.018.008.023.021l.047.118a.442.442,0,0,1,.052.256.534.534,0,0,1-.11.2c-.076.1-.118.152-.144.19a.024.024,0,0,0,0,.019l.034.086c0,.007.007.01.015.007l.067-.027a2.33,2.33,0,0,0,.218-.094c.033-.017.058-.037.051-.08a.306.306,0,0,0-.015-.062c-.007-.022,0-.027,0-.03s.015.005.023.023c.034.088.087.232.091.241s.061.142.079.187c.008.019.006.027,0,.031s-.017,0-.022-.018l-.023-.043c-.017-.023-.045-.024-.091-.011s-.15.052-.277.1Zm0-.261a.02.02,0,0,0,.015-.019.248.248,0,0,0-.023-.108.136.136,0,0,0-.054-.074.224.224,0,0,0-.185.014c-.187.074-.188.212-.161.28a.161.161,0,0,0,.026.05s.007.007.018,0Z" fill="#1a1311"/>
          <path id="Path_382" data-name="Path 382" d="M28.421,25.354s0-.008-.01-.008l-.03,0c-.218.018-.242.019-.287.026s-.063.019-.069.066c0,.011,0,.033,0,.05s-.006.027-.012.028S28,25.512,28,25.491c-.006-.082-.012-.209-.013-.223s-.018-.174-.023-.235c0-.021,0-.028.012-.029s.015.006.016.02,0,.032.009.049c.009.036.034.045.079.046s.082,0,.3-.021l.247-.019c.134-.01.238-.018.3-.03s.069-.021.073-.064c0-.02,0-.048,0-.062s.006-.025.013-.025.014.01.016.027c.007.1.014.24.016.265s.015.132.02.2c0,.026,0,.032-.013.033s-.013-.008-.015-.026a.272.272,0,0,0-.009-.043c-.009-.034-.037-.04-.082-.041s-.148,0-.282.014l-.114.009a.008.008,0,0,0-.008.009l.034.439a.009.009,0,0,0,.01.008l.146-.012c.134-.01.191-.016.251-.026.041-.008.066-.023.07-.065s0-.044,0-.06,0-.027.013-.028.014.006.016.027c.006.081.015.247.016.261s.017.16.02.2c0,.015,0,.031-.01.032s-.016,0-.017-.023-.005-.025-.009-.043-.045-.043-.087-.043c-.06,0-.158,0-.292.016l-.245.019c-.218.017-.25.021-.295.027s-.074.025-.078.074c0,.017,0,.024,0,.04s-.006.029-.013.029-.014-.014-.015-.03c-.007-.081-.011-.19-.013-.222,0-.054-.018-.171-.023-.232,0-.025,0-.03.012-.031s.015.008.016.025.006.035.01.048c.011.038.044.042.085.042s.1,0,.279-.018l.029,0c.007,0,.01,0,.01-.009Z" fill="#1a1311"/>
          <path id="Path_383" data-name="Path 383" d="M28.39,24.32c-.219,0-.26,0-.305,0s-.065.018-.071.049a.3.3,0,0,0,0,.043c0,.017-.006.027-.016.027s-.013-.007-.013-.031c0-.057.005-.2.005-.206s-.005-.179-.005-.23c0-.024.006-.031.015-.031s.014.012.014.026a.332.332,0,0,0,0,.041c.007.037.025.051.076.054s.082,0,.3,0h.248c.111,0,.242,0,.3-.007.036,0,.062-.011.072-.053,0-.019.005-.044.007-.062s.005-.03.014-.03.014.007.014.03c0,.095,0,.246,0,.259s0,.155,0,.2c0,.023,0,.034-.014.034s-.014-.011-.014-.028,0-.028-.006-.044-.035-.039-.076-.044c-.059,0-.161-.008-.3-.008Z" fill="#1a1311"/>
          <path id="Path_384" data-name="Path 384" d="M28.911,22.439c.084,0,.092,0,.1.028a1.08,1.08,0,0,1,.054.345c0,.4-.178.672-.553.672a.509.509,0,0,1-.46-.254.771.771,0,0,1-.093-.4,1.56,1.56,0,0,1,.019-.228c.006-.048.016-.095.017-.136,0-.012.006-.015.019-.014a1.239,1.239,0,0,0,.259.016c.023,0,.03.005.03.015s-.011.016-.023.017a.223.223,0,0,0-.07.017c-.1.027-.164.152-.164.348a.316.316,0,0,0,.1.253.457.457,0,0,0,.3.089c.253,0,.522-.122.522-.418a.146.146,0,0,0-.017-.079.045.045,0,0,0-.038-.017h-.086c-.058,0-.113,0-.165,0-.08,0-.11.018-.117.066,0,.018,0,.037-.007.061s0,.022-.014.022-.014-.007-.014-.029c0-.092,0-.2,0-.239s0-.142,0-.218c0-.021,0-.033.014-.033s.013.009.014.023,0,.024,0,.038c.007.034.023.049.072.054s.119,0,.188,0Z" fill="#1a1311"/>
          <path id="Path_385" data-name="Path 385" d="M28.465,21.054s0-.008-.009-.009l-.03,0c-.217-.019-.241-.021-.287-.022a.068.068,0,0,0-.079.054l-.009.049c0,.02-.011.026-.016.025s-.014-.008-.012-.029c.007-.081.023-.207.024-.221s.011-.175.016-.235c0-.022.008-.028.017-.027s.013.008.012.022,0,.033,0,.05c0,.037.025.05.07.058s.081.01.3.029l.247.022c.134.011.238.02.3.019s.072-.01.083-.051c0-.02.008-.048.011-.062s.009-.023.016-.022.013.012.011.029c-.008.1-.025.239-.027.264s-.007.132-.013.2c0,.025-.01.03-.018.03s-.012-.01-.011-.028a.317.317,0,0,0,0-.044c0-.035-.03-.045-.074-.053-.059-.011-.147-.022-.28-.033l-.114-.01a.007.007,0,0,0-.009.007l-.039.439a.008.008,0,0,0,.008.009l.146.013c.134.011.191.015.252.015.041,0,.069-.011.08-.053s.009-.043.012-.058.007-.027.016-.026.014.008.012.03c-.007.08-.026.245-.027.259s-.01.161-.014.206c0,.015,0,.03-.015.029S29,21.92,29,21.9s0-.025,0-.044-.037-.05-.079-.056c-.058-.01-.156-.021-.29-.033l-.244-.021c-.218-.019-.251-.021-.3-.022s-.077.012-.089.06c0,.017,0,.024-.007.039s-.011.028-.018.027-.011-.016-.01-.032c.007-.081.021-.189.024-.221,0-.054.01-.172.016-.233,0-.025.008-.029.016-.028s.013.01.012.027,0,.035,0,.049c0,.039.037.049.078.055s.1.013.277.029l.03,0a.009.009,0,0,0,.011-.007Z" fill="#1a1311"/>
          <path id="Path_386" data-name="Path 386" d="M29.407,19.613a.052.052,0,0,1-.064.009,1.612,1.612,0,0,1-.19-.083c-.023-.011-.029-.02-.026-.027s.016-.006.027,0a.25.25,0,0,0,.043.009.237.237,0,0,0,.256-.158c.048-.125,0-.188-.058-.21s-.106-.029-.225.054l-.088.06a.4.4,0,0,1-.4.082.315.315,0,0,1-.145-.441.758.758,0,0,1,.071-.146.568.568,0,0,1,.041-.059c.009-.012.014-.014.025-.01.041.019.066.032.183.077.024.009.032.016.028.027s-.009.01-.031.005a.186.186,0,0,0-.085-.006.22.22,0,0,0-.157.147c-.041.108,0,.171.065.194a.2.2,0,0,0,.2-.045l.071-.05c.193-.137.3-.164.43-.113a.287.287,0,0,1,.185.231.462.462,0,0,1-.032.251A.554.554,0,0,1,29.407,19.613Z" fill="#1a1311"/>
          <path id="Path_387" data-name="Path 387" d="M29.8,18.414a.511.511,0,0,1-.447-.061A.518.518,0,0,1,29.11,18a.67.67,0,0,1,.115-.476,1.3,1.3,0,0,1,.117-.163,1.04,1.04,0,0,0,.087-.11c.01-.013.017-.008.024,0s.037.027.076.054.111.067.14.088.027.021.02.032-.016.008-.034,0a.206.206,0,0,0-.146-.025.4.4,0,0,0-.222.2.3.3,0,0,0-.049.213.466.466,0,0,0,.243.29.422.422,0,0,0,.619-.091.287.287,0,0,0,.063-.245.219.219,0,0,0-.057-.088c-.022-.021-.029-.03-.023-.04s.018,0,.028,0a1.973,1.973,0,0,1,.168.136.046.046,0,0,1,.016.053.724.724,0,0,1-.1.224A.768.768,0,0,1,29.8,18.414Z" fill="#1a1311"/>
          <path id="Path_388" data-name="Path 388" d="M30.67,16.408a.008.008,0,0,0,0-.012l-.022-.02c-.161-.148-.179-.165-.214-.193a.067.067,0,0,0-.1-.006c-.009.007-.024.022-.037.033s-.024.015-.028.011-.006-.015.008-.03c.056-.061.145-.151.154-.162s.116-.131.157-.176c.014-.016.023-.017.029-.011s.006.014,0,.025-.02.026-.029.04c-.021.031-.011.055.02.089s.058.057.219.2l.183.168a2.683,2.683,0,0,0,.224.2c.037.029.062.037.1.01.015-.012.036-.032.046-.042s.022-.012.027-.008,0,.018-.009.031c-.066.072-.165.174-.182.192s-.087.1-.134.151c-.017.019-.026.018-.032.013s0-.015.009-.029.018-.024.025-.036c.018-.029,0-.054-.027-.087a2.638,2.638,0,0,0-.2-.2l-.084-.078a.008.008,0,0,0-.012,0l-.3.324a.008.008,0,0,0,0,.012l.108.1c.1.091.142.129.191.166.033.024.061.033.095.007l.045-.039c.011-.012.021-.017.029-.01s.005.014-.009.03c-.054.059-.17.179-.18.189s-.1.121-.136.155c-.01.011-.023.021-.03.014s-.008-.015,0-.028.016-.021.026-.036,0-.062-.028-.093-.112-.112-.21-.2l-.181-.166c-.161-.148-.186-.169-.221-.2s-.068-.038-.107-.006a.255.255,0,0,0-.03.026c-.018.018-.025.015-.03.01s0-.02.011-.031c.056-.061.132-.138.154-.162.036-.039.113-.129.154-.174.018-.019.025-.018.031-.012s.005.016-.007.028a.441.441,0,0,0-.029.04c-.02.034,0,.061.028.091s.073.073.2.192l.022.02c.006,0,.01,0,.013,0Z" fill="#1a1311"/>
          <path id="Path_389" data-name="Path 389" d="M31.4,15.852a.549.549,0,0,1,.175-.8.537.537,0,0,1,.779.1.557.557,0,0,1-.152.815A.551.551,0,0,1,31.4,15.852Zm.759-.494c-.135-.192-.367-.354-.572-.211-.106.074-.184.217.008.491.153.218.391.363.589.224C32.255,15.812,32.381,15.677,32.158,15.358Z" fill="#1a1311"/>
          <path id="Path_390" data-name="Path 390" d="M32.848,14.909a.548.548,0,0,1,.345-.745.538.538,0,0,1,.74.264.557.557,0,0,1-.327.762A.55.55,0,0,1,32.848,14.909Zm.848-.316c-.09-.217-.282-.426-.512-.331-.12.05-.227.172-.1.481.1.246.3.44.527.347C33.692,15.057,33.844,14.953,33.7,14.593Z" fill="#1a1311"/>
          <path id="Path_391" data-name="Path 391" d="M34.838,14.368a.706.706,0,0,0,.074.265c.024.022.052.023.167,0a.334.334,0,0,0,.154-.055c.031-.021.047-.062.049-.131,0-.016,0-.027.012-.029s.013,0,.017.024a1.159,1.159,0,0,1,.012.209c0,.038-.014.042-.07.053-.191.039-.321.057-.467.087-.066.013-.139.032-.215.048-.02,0-.031,0-.034-.009s.006-.014.025-.018a.415.415,0,0,0,.046-.015c.048-.019.044-.044.026-.155-.008-.056-.024-.14-.041-.225l-.05-.244c-.046-.225-.053-.25-.064-.293s-.025-.06-.062-.063a.415.415,0,0,0-.055,0c-.016,0-.03,0-.032-.008s.011-.016.038-.022c.079-.016.152-.027.206-.038.012,0,.183-.042.233-.051.025-.005.034,0,.036.005s-.011.018-.03.022a.32.32,0,0,0-.046.016c-.036.014-.041.042-.033.091s.01.073.056.3Z" fill="#1a1311"/>
        </g>
      </g>
      <g id="Group_172" data-name="Group 172">
        <path id="Path_392" data-name="Path 392" d="M34.709,29.649c.005-.017.01-.036.014-.057s.008-.044.011-.07l.078,0h.15l.072,0a.36.36,0,0,0-.015.063.464.464,0,0,0-.007.064l-.074,0h-.152Z" fill="#fff"/>
        <path id="Path_393" data-name="Path 393" d="M35.292,29.872c.055-.21.091-.359.11-.448a1.241,1.241,0,0,0,.031-.2.824.824,0,0,0-.089.036.712.712,0,0,0-.073.036c0-.013-.009-.025-.014-.037l-.018-.037a1.85,1.85,0,0,0,.178-.059c.062-.023.126-.049.193-.078l.02.015c-.033.121-.062.246-.089.374s-.051.26-.071.4l-.04,0h-.1Z" fill="#fff"/>
        <path id="Path_394" data-name="Path 394" d="M36.193,29.528a.17.17,0,0,1-.056.03.217.217,0,0,1-.065.009.228.228,0,0,1-.158-.054.184.184,0,0,1-.06-.143.275.275,0,0,1,.076-.2.268.268,0,0,1,.2-.076.252.252,0,0,1,.19.066.274.274,0,0,1,.065.2.659.659,0,0,1-.033.207.6.6,0,0,1-.092.178.389.389,0,0,1-.135.113.383.383,0,0,1-.171.038.37.37,0,0,1-.059,0,.329.329,0,0,1-.054-.014l-.006-.043-.009-.049.012,0a.113.113,0,0,0,.039.051.1.1,0,0,0,.058.017.2.2,0,0,0,.155-.081A.58.58,0,0,0,36.193,29.528Zm-.084-.018a.1.1,0,0,0,.091-.067.412.412,0,0,0,.034-.18.157.157,0,0,0-.021-.09.072.072,0,0,0-.063-.03c-.036,0-.067.024-.092.072a.375.375,0,0,0-.038.176.149.149,0,0,0,.022.09A.079.079,0,0,0,36.109,29.51Z" fill="#fff"/>
        <path id="Path_395" data-name="Path 395" d="M36.706,29.453a.234.234,0,0,1,.063-.032.235.235,0,0,1,.222.044.187.187,0,0,1,.057.141.273.273,0,0,1-.08.207.291.291,0,0,1-.211.077.231.231,0,0,1-.181-.071.3.3,0,0,1-.063-.2.619.619,0,0,1,.043-.228.494.494,0,0,1,.115-.184.381.381,0,0,1,.273-.114l.041,0,.045.008.013.042a.285.285,0,0,1,.008.035l-.014.006a.112.112,0,0,0-.04-.033.1.1,0,0,0-.047-.01.184.184,0,0,0-.146.081A.6.6,0,0,0,36.706,29.453Zm.085.017a.1.1,0,0,0-.091.068.39.39,0,0,0-.035.182.15.15,0,0,0,.021.088.072.072,0,0,0,.063.03c.036,0,.067-.024.092-.072a.378.378,0,0,0,.038-.176.145.145,0,0,0-.022-.09A.075.075,0,0,0,36.791,29.47Z" fill="#fff"/>
        <path id="Path_396" data-name="Path 396" d="M37.383,29.453a.234.234,0,0,1,.063-.032.219.219,0,0,1,.073-.011.2.2,0,0,1,.149.055.188.188,0,0,1,.058.141.277.277,0,0,1-.08.207.3.3,0,0,1-.211.077.23.23,0,0,1-.181-.071.292.292,0,0,1-.064-.2.64.64,0,0,1,.043-.228.507.507,0,0,1,.115-.184.4.4,0,0,1,.126-.085.371.371,0,0,1,.147-.029l.041,0,.045.008.013.042a.285.285,0,0,1,.008.035l-.013.006a.122.122,0,0,0-.04-.033.109.109,0,0,0-.048-.01.183.183,0,0,0-.145.081A.6.6,0,0,0,37.383,29.453Zm.085.017a.1.1,0,0,0-.091.068.4.4,0,0,0-.035.182.15.15,0,0,0,.021.088.072.072,0,0,0,.063.03c.036,0,.067-.024.092-.072a.378.378,0,0,0,.038-.176.145.145,0,0,0-.022-.09A.075.075,0,0,0,37.468,29.47Z" fill="#fff"/>
        <path id="Path_397" data-name="Path 397" d="M37.835,29.649a.581.581,0,0,0,.015-.057c0-.021.008-.044.011-.07l.078,0h.15l.072,0a.484.484,0,0,0-.016.063c0,.021-.005.043-.006.064l-.074,0h-.152Z" fill="#fff"/>
      </g>
    </g>
    <g id="Group_213" data-name="Group 213">
      <g id="Group_211" data-name="Group 211">
        <g id="Group_176" data-name="Group 176">
          <g id="Group_174" data-name="Group 174">
            <path id="Path_398" data-name="Path 398" d="M61.473,16.547H57.99a.075.075,0,0,0-.075.076v8.783a.075.075,0,0,0,.075.076h.455a.076.076,0,0,0,.075-.076V20.182h2.953a.076.076,0,0,0,.076-.076V16.623A.076.076,0,0,0,61.473,16.547ZM58.52,18.061v-.908h2.423v.908Zm0,1.515v-.909h2.423v.909Z" fill="#1a1311"/>
            <path id="Path_399" data-name="Path 399" d="M58.445,25.519H57.99a.113.113,0,0,1-.112-.113V16.623a.113.113,0,0,1,.112-.113h3.483a.113.113,0,0,1,.113.113v3.483a.112.112,0,0,1-.113.112H58.557v5.188A.113.113,0,0,1,58.445,25.519Zm-.455-8.935a.039.039,0,0,0-.039.039v8.783a.039.039,0,0,0,.039.039h.455a.039.039,0,0,0,.039-.039V20.145h2.989a.039.039,0,0,0,.039-.039V16.623a.038.038,0,0,0-.039-.039Zm2.99,3.029h-2.5V18.63h2.5Zm-2.423-.074h2.35V18.7h-2.35ZM60.98,18.1h-2.5v-.982h2.5Zm-2.423-.074h2.35V17.19h-2.35Z" fill="#1a1311"/>
          </g>
          <g id="Group_175" data-name="Group 175">
            <path id="Path_400" data-name="Path 400" d="M66.017,16.547H62.533a.076.076,0,0,0-.075.076v3.483a.076.076,0,0,0,.075.076h2.953v4.694h-.681a.076.076,0,0,0-.076.076v.454a.076.076,0,0,0,.076.076h1.212a.076.076,0,0,0,.075-.076V16.623A.076.076,0,0,0,66.017,16.547Zm-2.953,1.514v-.908h2.422v.908Zm0,1.515v-.909h2.422v.909Z" fill="#1a1311"/>
            <path id="Path_401" data-name="Path 401" d="M66.017,25.519H64.805a.114.114,0,0,1-.113-.113v-.454a.114.114,0,0,1,.113-.113h.645V20.218H62.533a.112.112,0,0,1-.112-.112V16.623a.113.113,0,0,1,.112-.113h3.484a.113.113,0,0,1,.112.113v8.783A.113.113,0,0,1,66.017,25.519Zm-1.212-.606a.038.038,0,0,0-.039.039v.454a.038.038,0,0,0,.039.039h1.212a.038.038,0,0,0,.038-.039V16.623a.038.038,0,0,0-.038-.039H62.533a.038.038,0,0,0-.038.039v3.483a.039.039,0,0,0,.038.039h2.99v4.768Zm.718-5.3h-2.5V18.63h2.5ZM63.1,19.539h2.35V18.7H63.1ZM65.523,18.1h-2.5v-.982h2.5ZM63.1,18.024h2.35V17.19H63.1Z" fill="#1a1311"/>
          </g>
        </g>
        <g id="Group_177" data-name="Group 177">
          <path id="Path_402" data-name="Path 402" d="M138.2,18.061h-3.711V16.244a.075.075,0,0,0-.075-.076h-.454a.076.076,0,0,0-.076.076v1.817h-3.71a.076.076,0,0,0-.076.076V21.62a.076.076,0,0,0,.076.076h3.71v3.71a.076.076,0,0,0,.076.076h.454a.075.075,0,0,0,.075-.076V21.7H138.2a.076.076,0,0,0,.075-.076V18.137A.076.076,0,0,0,138.2,18.061Zm-3.711,3.029V18.667h3.181V21.09Zm-.6-2.423V21.09h-3.18V18.667Z" fill="#1a1311"/>
          <path id="Path_403" data-name="Path 403" d="M134.416,25.519h-.454a.114.114,0,0,1-.113-.113V21.733h-3.673a.114.114,0,0,1-.113-.113V18.137a.114.114,0,0,1,.113-.113h3.673v-1.78a.113.113,0,0,1,.113-.112h.454a.112.112,0,0,1,.112.112v1.78H138.2a.113.113,0,0,1,.112.113V21.62a.113.113,0,0,1-.112.113h-3.674v3.673A.113.113,0,0,1,134.416,25.519Zm-4.24-7.421a.039.039,0,0,0-.039.039V21.62a.038.038,0,0,0,.039.039h3.747v3.747a.038.038,0,0,0,.039.039h.454a.039.039,0,0,0,.039-.039V21.659H138.2a.038.038,0,0,0,.038-.039V18.137a.039.039,0,0,0-.038-.039h-3.747V16.244a.04.04,0,0,0-.039-.039h-.454a.039.039,0,0,0-.039.039V18.1Zm7.533,3.029h-3.254v-2.5h3.254Zm-3.181-.074h3.107V18.7h-3.107Zm-.6.074h-3.254v-2.5h3.254Zm-3.181-.074h3.107V18.7h-3.107Z" fill="#1a1311"/>
        </g>
        <g id="Group_178" data-name="Group 178">
          <path id="Path_404" data-name="Path 404" d="M127.889,22.075a.076.076,0,0,0,.076-.076v-.455a.076.076,0,0,0-.076-.075h-3.331V19.424h2.953a.076.076,0,0,0,.076-.075V16.623a.076.076,0,0,0-.076-.076h-7.647a.076.076,0,0,0-.076.076v8.783a.076.076,0,0,0,.076.076h2.388a.076.076,0,0,0,.076-.076v-.454a.076.076,0,0,0-.076-.076h-1.859v-2.8h3.56v.454a2.956,2.956,0,0,0,2.952,2.953h.984a.076.076,0,0,0,.076-.076v-.454a.076.076,0,0,0-.076-.076H126.9a2.35,2.35,0,0,1-2.347-2.347v-.454Zm-3.936-2.651v2.045h-3.56V19.424Zm3.028-2.271v1.666h-6.588V17.153Z" fill="#1a1311"/>
          <path id="Path_405" data-name="Path 405" d="M127.889,25.519H126.9a2.993,2.993,0,0,1-2.989-2.99v-.418H120.43v2.728h1.822a.114.114,0,0,1,.113.113v.454a.114.114,0,0,1-.113.113h-2.388a.114.114,0,0,1-.113-.113V16.623a.114.114,0,0,1,.113-.113h7.647a.113.113,0,0,1,.112.113v2.726a.112.112,0,0,1-.112.112H124.6v1.971h3.294a.113.113,0,0,1,.113.112V22a.113.113,0,0,1-.113.112H124.6v.418a2.312,2.312,0,0,0,2.31,2.31h.984a.114.114,0,0,1,.113.113v.454A.114.114,0,0,1,127.889,25.519Zm-7.533-3.481h3.633v.491a2.919,2.919,0,0,0,2.916,2.916h.984a.038.038,0,0,0,.039-.039v-.454a.038.038,0,0,0-.039-.039H126.9a2.387,2.387,0,0,1-2.384-2.384v-.491h3.368a.039.039,0,0,0,.039-.039v-.455a.039.039,0,0,0-.039-.039h-3.368V19.388h2.99a.04.04,0,0,0,.039-.039V16.623a.039.039,0,0,0-.039-.039h-7.647a.038.038,0,0,0-.039.039v8.783a.038.038,0,0,0,.039.039h2.388a.039.039,0,0,0,.039-.039v-.454a.039.039,0,0,0-.039-.039h-1.9Zm3.633-.533h-3.633V19.388h3.633Zm-3.559-.073h3.486V19.461H120.43Zm6.588-2.577h-6.662V17.116h6.662Zm-6.588-.073h6.514V17.19H120.43Z" fill="#1a1311"/>
        </g>
        <g id="Group_182" data-name="Group 182">
          <g id="Group_179" data-name="Group 179">
            <path id="Path_406" data-name="Path 406" d="M117.577,16.547h-8.026a.076.076,0,0,0-.075.076v8.783a.076.076,0,0,0,.075.076h8.026a.076.076,0,0,0,.076-.076V16.623A.076.076,0,0,0,117.577,16.547Zm-3.084,1.645V17.153h.909v1.039Zm-.6,0H110.8a.076.076,0,0,0-.076.076v.454a.076.076,0,0,0,.076.076h3.084v2.347a2.942,2.942,0,0,0,.778,1.991l.062.067-.078.048a1.594,1.594,0,0,1-.693.235.075.075,0,0,0-.069.075v.456a.076.076,0,0,0,.024.055.073.073,0,0,0,.052.021h.005a2.19,2.19,0,0,0,1.192-.461l.042-.033.045.029a2.95,2.95,0,0,0,1.437.466h0a.073.073,0,0,0,.052-.021.076.076,0,0,0,.024-.055v-.455a.075.075,0,0,0-.071-.075,2.365,2.365,0,0,1-1.006-.3l-.069-.04.043-.067a2.189,2.189,0,0,0,.346-1.179v-2.12a.075.075,0,0,0-.076-.075h-.454a.075.075,0,0,0-.076.075V21.9a1.587,1.587,0,0,1-.2.774l-.053.094-.07-.081a2.345,2.345,0,0,1-.584-1.544V18.8h1.439a.076.076,0,0,0,.076-.076V17.153h1.039v7.723h-6.966V17.153h3.807Z" fill="#1a1311"/>
            <path id="Path_407" data-name="Path 407" d="M117.577,25.519h-8.026a.113.113,0,0,1-.112-.113V16.623a.113.113,0,0,1,.112-.113h8.026a.114.114,0,0,1,.113.113v8.783A.114.114,0,0,1,117.577,25.519Zm-8.026-8.935a.038.038,0,0,0-.038.039v8.783a.038.038,0,0,0,.038.039h8.026a.038.038,0,0,0,.039-.039V16.623a.038.038,0,0,0-.039-.039Zm7.533,8.329h-7.04v-7.8h3.881v1.113H110.8a.039.039,0,0,0-.039.039v.454a.039.039,0,0,0,.039.039h3.121v2.384a2.908,2.908,0,0,0,.768,1.966l.092.1-.115.071a1.631,1.631,0,0,1-.71.24.039.039,0,0,0-.035.039v.456a.04.04,0,0,0,.012.029.043.043,0,0,0,.027.01,2.146,2.146,0,0,0,1.174-.453l.063-.05.067.044a2.909,2.909,0,0,0,1.419.46h0a.044.044,0,0,0,.029-.01.04.04,0,0,0,.012-.029v-.455a.04.04,0,0,0-.036-.039,2.392,2.392,0,0,1-1.022-.3l-.1-.059.064-.1a2.153,2.153,0,0,0,.34-1.159v-2.12a.039.039,0,0,0-.039-.039h-.454a.04.04,0,0,0-.039.039V21.9a1.614,1.614,0,0,1-.207.792l-.078.139-.1-.12a2.381,2.381,0,0,1-.593-1.568V18.761h1.476a.038.038,0,0,0,.039-.039V17.116h1.113Zm-6.966-.074h6.893V17.19h-.966v1.532a.114.114,0,0,1-.113.113h-1.4v2.31a2.306,2.306,0,0,0,.575,1.52l.036.041.027-.048a1.55,1.55,0,0,0,.2-.756v-2.12a.113.113,0,0,1,.113-.112h.454a.113.113,0,0,1,.113.112V21.9a2.225,2.225,0,0,1-.352,1.2l-.022.034.035.021a2.319,2.319,0,0,0,.99.3.113.113,0,0,1,.106.112v.455a.114.114,0,0,1-.035.082.113.113,0,0,1-.078.031,3,3,0,0,1-1.461-.472l-.023-.015-.022.017a2.221,2.221,0,0,1-1.211.468.1.1,0,0,1-.085-.03.111.111,0,0,1-.036-.082v-.456a.111.111,0,0,1,.1-.112,1.554,1.554,0,0,0,.678-.229l.04-.025-.032-.034a2.981,2.981,0,0,1-.788-2.016v-2.31H110.8a.113.113,0,0,1-.112-.113v-.454a.113.113,0,0,1,.112-.113h3.047V17.19h-3.733Zm5.321-6.61h-.983V17.116h.983Zm-.909-.074h.835V17.19h-.835Z" fill="#1a1311"/>
          </g>
          <g id="Group_180" data-name="Group 180">
            <path id="Path_408" data-name="Path 408" d="M110.935,22.584H112.9a.076.076,0,0,0,.076-.076V19.782a.075.075,0,0,0-.076-.075h-1.968a.075.075,0,0,0-.076.075v2.726A.076.076,0,0,0,110.935,22.584Zm1.439-2.272v1.666h-.909V20.312Z" fill="#1a1311"/>
            <path id="Path_409" data-name="Path 409" d="M112.9,22.621h-1.968a.114.114,0,0,1-.113-.113V19.782a.113.113,0,0,1,.113-.112H112.9a.113.113,0,0,1,.113.112v2.726A.114.114,0,0,1,112.9,22.621Zm-1.968-2.878a.04.04,0,0,0-.039.039v2.726a.039.039,0,0,0,.039.039H112.9a.038.038,0,0,0,.039-.039V19.782a.039.039,0,0,0-.039-.039Zm1.475,2.272h-.982V20.276h.982Zm-.908-.074h.835V20.349H111.5Z" fill="#1a1311"/>
          </g>
          <g id="Group_181" data-name="Group 181">
            <rect id="Rectangle_246" data-name="Rectangle 246" width="2.251" height="0.606" rx="0.076" transform="translate(110.728 23.492)" fill="#1a1311"/>
            <path id="Path_410" data-name="Path 410" d="M112.9,24.135h-2.1a.112.112,0,0,1-.112-.112v-.455a.112.112,0,0,1,.112-.112h2.1a.113.113,0,0,1,.113.112v.455A.113.113,0,0,1,112.9,24.135Zm-2.1-.606a.04.04,0,0,0-.039.039v.455a.039.039,0,0,0,.039.038h2.1a.038.038,0,0,0,.039-.038v-.455a.039.039,0,0,0-.039-.039Z" fill="#1a1311"/>
          </g>
        </g>
        <g id="Group_189" data-name="Group 189">
          <g id="Group_183" data-name="Group 183">
            <path id="Path_411" data-name="Path 411" d="M71.786,16.547H69.817a.076.076,0,0,0-.076.076V21.09h-.908V17a.075.075,0,0,0-.076-.075H68.3a.075.075,0,0,0-.076.075V21.62a.076.076,0,0,0,.076.076h1.438v3.71a.076.076,0,0,0,.076.076h.454a.076.076,0,0,0,.076-.076V21.7h1.439a.076.076,0,0,0,.075-.076v-5A.076.076,0,0,0,71.786,16.547Zm-1.439,1.514v-.908h.909v.908Zm0,1.515v-.909h.909v.909Zm0,1.514v-.908h.909v.908Z" fill="#1a1311"/>
            <path id="Path_412" data-name="Path 412" d="M70.271,25.519h-.454a.114.114,0,0,1-.113-.113V21.733H68.3a.113.113,0,0,1-.113-.113V17a.112.112,0,0,1,.113-.112h.454A.113.113,0,0,1,68.87,17v4.052H69.7v-4.43a.114.114,0,0,1,.113-.113h1.969a.113.113,0,0,1,.112.113v5a.113.113,0,0,1-.112.113h-1.4v3.673A.114.114,0,0,1,70.271,25.519ZM68.3,16.962a.039.039,0,0,0-.039.039V21.62a.038.038,0,0,0,.039.039h1.475v3.747a.038.038,0,0,0,.039.039h.454a.038.038,0,0,0,.039-.039V21.659h1.476a.039.039,0,0,0,.039-.039v-5a.039.039,0,0,0-.039-.039H69.817a.038.038,0,0,0-.039.039v4.5H68.8V17a.04.04,0,0,0-.039-.039Zm2.989,4.165H70.31v-.982h.982Zm-.908-.074h.835v-.835h-.835Zm.908-1.44H70.31V18.63h.982Zm-.908-.074h.835V18.7h-.835Zm.908-1.441H70.31v-.982h.982Zm-.908-.074h.835V17.19h-.835Z" fill="#1a1311"/>
          </g>
          <g id="Group_184" data-name="Group 184">
            <rect id="Rectangle_247" data-name="Rectangle 247" width="0.606" height="2.877" rx="0.076" transform="translate(68.227 22.605)" fill="#1a1311"/>
            <path id="Path_413" data-name="Path 413" d="M68.757,25.519H68.3a.113.113,0,0,1-.113-.113V22.68a.112.112,0,0,1,.113-.112h.454a.113.113,0,0,1,.113.112v2.726A.114.114,0,0,1,68.757,25.519ZM68.3,22.641a.039.039,0,0,0-.039.039v2.726a.038.038,0,0,0,.039.039h.454a.039.039,0,0,0,.039-.039V22.68a.04.04,0,0,0-.039-.039Z" fill="#1a1311"/>
          </g>
          <g id="Group_185" data-name="Group 185">
            <rect id="Rectangle_248" data-name="Rectangle 248" width="0.606" height="2.877" rx="0.076" transform="translate(71.256 22.605)" fill="#1a1311"/>
            <path id="Path_414" data-name="Path 414" d="M71.786,25.519h-.455a.113.113,0,0,1-.112-.113V22.68a.112.112,0,0,1,.112-.112h.455a.112.112,0,0,1,.112.112v2.726A.113.113,0,0,1,71.786,25.519Zm-.455-2.878a.04.04,0,0,0-.039.039v2.726a.039.039,0,0,0,.039.039h.455a.039.039,0,0,0,.039-.039V22.68a.04.04,0,0,0-.039-.039Z" fill="#1a1311"/>
          </g>
          <g id="Group_186" data-name="Group 186">
            <rect id="Rectangle_249" data-name="Rectangle 249" width="0.606" height="2.877" rx="0.076" transform="translate(72.77 22.605)" fill="#1a1311"/>
            <path id="Path_415" data-name="Path 415" d="M73.3,25.519h-.454a.113.113,0,0,1-.113-.113V22.68a.112.112,0,0,1,.113-.112H73.3a.113.113,0,0,1,.113.112v2.726A.114.114,0,0,1,73.3,25.519Zm-.454-2.878a.039.039,0,0,0-.039.039v2.726a.038.038,0,0,0,.039.039H73.3a.038.038,0,0,0,.039-.039V22.68a.039.039,0,0,0-.039-.039Z" fill="#1a1311"/>
          </g>
          <g id="Group_187" data-name="Group 187">
            <rect id="Rectangle_250" data-name="Rectangle 250" width="0.606" height="2.877" rx="0.076" transform="translate(75.799 22.605)" fill="#1a1311"/>
            <path id="Path_416" data-name="Path 416" d="M76.329,25.519h-.455a.113.113,0,0,1-.112-.113V22.68a.112.112,0,0,1,.112-.112h.455a.112.112,0,0,1,.112.112v2.726A.113.113,0,0,1,76.329,25.519Zm-.455-2.878a.04.04,0,0,0-.039.039v2.726a.039.039,0,0,0,.039.039h.455a.039.039,0,0,0,.039-.039V22.68a.04.04,0,0,0-.039-.039Z" fill="#1a1311"/>
          </g>
          <g id="Group_188" data-name="Group 188">
            <path id="Path_417" data-name="Path 417" d="M73.451,19.046a1.441,1.441,0,0,0,1.439-1.439v-.454h1.439a.075.075,0,0,0,.075-.076v-.454a.075.075,0,0,0-.075-.076H72.846a.076.076,0,0,0-.076.076v.454a.076.076,0,0,0,.076.076h1.438v.454a.834.834,0,0,1-.833.833h-.6a.076.076,0,0,0-.076.076v1.968a.076.076,0,0,0,.076.076h.681v.53h-.681a.076.076,0,0,0-.076.076v.454a.076.076,0,0,0,.076.076h1.438v3.71a.076.076,0,0,0,.076.076h.454a.076.076,0,0,0,.076-.076V21.7h1.439a.075.075,0,0,0,.075-.076V20.409a.075.075,0,0,0-.075-.076h-.455a.076.076,0,0,0-.075.076v.681H74.133v-.53h.076a2.2,2.2,0,0,0,2.195-2.2v-.6a.075.075,0,0,0-.075-.076h-.455a.076.076,0,0,0-.075.076v.6a1.592,1.592,0,0,1-1.59,1.59h-.833v-.908Z" fill="#1a1311"/>
            <path id="Path_418" data-name="Path 418" d="M74.814,25.519H74.36a.114.114,0,0,1-.113-.113V21.733h-1.4a.113.113,0,0,1-.113-.113v-.454a.113.113,0,0,1,.113-.113h.644V20.6h-.644a.112.112,0,0,1-.113-.113V18.516a.113.113,0,0,1,.113-.113h.6a.8.8,0,0,0,.8-.8V17.19h-1.4a.113.113,0,0,1-.113-.113v-.454a.113.113,0,0,1,.113-.113h3.483a.113.113,0,0,1,.112.113v.454a.113.113,0,0,1-.112.113h-1.4v.417a1.478,1.478,0,0,1-1.476,1.476h-.038v.835h.8a1.555,1.555,0,0,0,1.553-1.553v-.6a.112.112,0,0,1,.112-.113h.455a.112.112,0,0,1,.112.113v.6A2.235,2.235,0,0,1,74.209,20.6H74.17v.456h1.592v-.644a.113.113,0,0,1,.112-.113h.455a.113.113,0,0,1,.112.113V21.62a.113.113,0,0,1-.112.113h-1.4v3.673A.114.114,0,0,1,74.814,25.519Zm-1.968-4.392a.038.038,0,0,0-.039.039v.454a.038.038,0,0,0,.039.039h1.475v3.747a.039.039,0,0,0,.039.039h.454a.038.038,0,0,0,.039-.039V21.659h1.476a.039.039,0,0,0,.039-.039V20.409a.039.039,0,0,0-.039-.039h-.455a.039.039,0,0,0-.039.039v.718H74.1v-.6h.113a2.161,2.161,0,0,0,2.159-2.159v-.6a.039.039,0,0,0-.039-.039h-.455a.039.039,0,0,0-.039.039v.6a1.628,1.628,0,0,1-1.626,1.627h-.87v-.982h.112a1.4,1.4,0,0,0,1.4-1.4v-.491h1.476a.039.039,0,0,0,.039-.039v-.454a.039.039,0,0,0-.039-.039H72.846a.038.038,0,0,0-.039.039v.454a.038.038,0,0,0,.039.039h1.475v.491a.871.871,0,0,1-.87.87h-.6a.038.038,0,0,0-.039.039v1.968a.038.038,0,0,0,.039.039h.718v.6Z" fill="#1a1311"/>
          </g>
        </g>
        <g id="Group_195" data-name="Group 195">
          <g id="Group_190" data-name="Group 190">
            <path id="Path_419" data-name="Path 419" d="M103.972,18.667h1.06v3.71a.076.076,0,0,0,.075.076h.455a.076.076,0,0,0,.075-.076v-4.24a.076.076,0,0,0-.075-.076H104.5v-.908h1.061a.076.076,0,0,0,.075-.076v-.454a.076.076,0,0,0-.075-.076h-1.59a.076.076,0,0,0-.076.076v1.968A.076.076,0,0,0,103.972,18.667Z" fill="#1a1311"/>
            <path id="Path_420" data-name="Path 420" d="M105.562,22.49h-.455a.113.113,0,0,1-.112-.113V18.7h-1.023a.113.113,0,0,1-.113-.113V16.623a.114.114,0,0,1,.113-.113h1.59a.113.113,0,0,1,.112.113v.454a.113.113,0,0,1-.112.113h-1.024v.834h1.024a.113.113,0,0,1,.112.113v4.24A.113.113,0,0,1,105.562,22.49Zm-1.59-5.906a.038.038,0,0,0-.039.039v1.968a.038.038,0,0,0,.039.039h1.1v3.747a.038.038,0,0,0,.038.039h.455a.038.038,0,0,0,.038-.039v-4.24a.039.039,0,0,0-.038-.039h-1.1v-.982h1.1a.038.038,0,0,0,.038-.039v-.454a.038.038,0,0,0-.038-.039Z" fill="#1a1311"/>
          </g>
          <g id="Group_191" data-name="Group 191">
            <rect id="Rectangle_251" data-name="Rectangle 251" width="0.605" height="2.878" rx="0.076" transform="translate(103.896 19.576)" fill="#1a1311"/>
            <path id="Path_421" data-name="Path 421" d="M104.426,22.49h-.454a.114.114,0,0,1-.113-.113V19.652a.113.113,0,0,1,.113-.113h.454a.112.112,0,0,1,.112.113v2.725A.113.113,0,0,1,104.426,22.49Zm-.454-2.877a.038.038,0,0,0-.039.039v2.725a.038.038,0,0,0,.039.039h.454a.039.039,0,0,0,.039-.039V19.652a.039.039,0,0,0-.039-.039Z" fill="#1a1311"/>
          </g>
          <g id="Group_192" data-name="Group 192">
            <path id="Path_422" data-name="Path 422" d="M107.454,22.983h-.3v-6.36a.075.075,0,0,0-.075-.076h-.833a.076.076,0,0,0-.076.076v.454a.076.076,0,0,0,.076.076h.3V18.44h-.3a.076.076,0,0,0-.076.076v.454a.076.076,0,0,0,.076.076h.3v1.665h-.3a.076.076,0,0,0-.076.076v.455a.076.076,0,0,0,.076.075h.3v1.666h-3.559V21.317h.3a.076.076,0,0,0,.076-.075v-.455a.076.076,0,0,0-.076-.076h-.3V19.046h.3a.076.076,0,0,0,.076-.076v-.454a.076.076,0,0,0-.076-.076h-.3V17.153h.3a.076.076,0,0,0,.076-.076v-.454a.076.076,0,0,0-.076-.076h-.833a.076.076,0,0,0-.075.076v6.36h-.531V17a.075.075,0,0,0-.076-.075h-.453a.075.075,0,0,0-.076.075v7.875h-.531V16.623a.076.076,0,0,0-.075-.076h-.454a.076.076,0,0,0-.076.076v8.253h-.53V17a.075.075,0,0,0-.076-.075H99.05a.075.075,0,0,0-.076.075v8.405a.076.076,0,0,0,.076.076h2.725a.076.076,0,0,0,.076-.076V23.589h5.6a.076.076,0,0,0,.076-.076v-.454A.076.076,0,0,0,107.454,22.983Z" fill="#1a1311"/>
            <path id="Path_423" data-name="Path 423" d="M101.775,25.519H99.05a.113.113,0,0,1-.112-.113V17a.112.112,0,0,1,.112-.112H99.5a.112.112,0,0,1,.112.112v7.838h.457V16.623a.114.114,0,0,1,.113-.113h.454a.113.113,0,0,1,.112.113v8.216h.457V17a.113.113,0,0,1,.113-.112h.453a.113.113,0,0,1,.113.112v5.945h.457V16.623a.113.113,0,0,1,.112-.113h.833a.113.113,0,0,1,.112.113v.454a.113.113,0,0,1-.112.113h-.266V18.4h.266a.113.113,0,0,1,.112.113v.454a.113.113,0,0,1-.112.113h-.266v1.592h.266a.112.112,0,0,1,.112.112v.455a.112.112,0,0,1-.112.112h-.266v1.592h3.485V21.354h-.266a.112.112,0,0,1-.112-.112v-.455a.112.112,0,0,1,.112-.112h.266V19.083h-.266a.113.113,0,0,1-.112-.113v-.454a.113.113,0,0,1,.112-.113h.266V17.19h-.266a.113.113,0,0,1-.112-.113v-.454a.113.113,0,0,1,.112-.113h.833a.113.113,0,0,1,.112.113v6.323h.266a.114.114,0,0,1,.113.113v.454a.114.114,0,0,1-.113.113h-5.566v1.78A.114.114,0,0,1,101.775,25.519ZM99.05,16.962a.04.04,0,0,0-.039.039v8.405a.039.039,0,0,0,.039.039h2.725a.038.038,0,0,0,.039-.039V23.552h5.64a.038.038,0,0,0,.039-.039v-.454a.038.038,0,0,0-.039-.039h-.339v-6.4a.039.039,0,0,0-.039-.039h-.833a.039.039,0,0,0-.039.039v.454a.039.039,0,0,0,.039.039h.34v1.361h-.34a.039.039,0,0,0-.039.039v.454a.04.04,0,0,0,.039.039h.34v1.739h-.34a.04.04,0,0,0-.039.039v.455a.04.04,0,0,0,.039.039h.34V23.02H102.95V21.281h.34a.04.04,0,0,0,.039-.039v-.455a.04.04,0,0,0-.039-.039h-.34V19.009h.34a.04.04,0,0,0,.039-.039v-.454a.039.039,0,0,0-.039-.039h-.34V17.116h.34a.039.039,0,0,0,.039-.039v-.454a.039.039,0,0,0-.039-.039h-.833a.039.039,0,0,0-.039.039v6.4h-.6V17a.039.039,0,0,0-.039-.039h-.453a.039.039,0,0,0-.039.039v7.912h-.6v-8.29a.038.038,0,0,0-.038-.039h-.454a.038.038,0,0,0-.039.039v8.29h-.6V17a.04.04,0,0,0-.039-.039Z" fill="#1a1311"/>
          </g>
          <g id="Group_193" data-name="Group 193">
            <path id="Path_424" data-name="Path 424" d="M104.039,24.119h-.459a.075.075,0,0,0-.074.063.831.831,0,0,1-.822.694h-.227a.076.076,0,0,0-.075.076v.454a.076.076,0,0,0,.075.076h.227a1.436,1.436,0,0,0,1.43-1.279.08.08,0,0,0-.019-.059A.075.075,0,0,0,104.039,24.119Z" fill="#1a1311"/>
            <path id="Path_425" data-name="Path 425" d="M102.684,25.519h-.227a.113.113,0,0,1-.112-.113v-.454a.113.113,0,0,1,.112-.113h.227a.793.793,0,0,0,.785-.663.113.113,0,0,1,.111-.094h.459a.113.113,0,0,1,.083.037.115.115,0,0,1,.029.088,1.474,1.474,0,0,1-1.467,1.312Zm-.227-.606a.039.039,0,0,0-.039.039v.454a.039.039,0,0,0,.039.039h.227a1.4,1.4,0,0,0,1.393-1.246.039.039,0,0,0-.038-.043h-.459a.038.038,0,0,0-.038.032.868.868,0,0,1-.858.725Z" fill="#1a1311"/>
          </g>
          <g id="Group_194" data-name="Group 194">
            <path id="Path_426" data-name="Path 426" d="M107.076,24.876h-.227a.831.831,0,0,1-.822-.694.075.075,0,0,0-.074-.063h-.459a.076.076,0,0,0-.075.084,1.436,1.436,0,0,0,1.43,1.279h.227a.075.075,0,0,0,.075-.076v-.454A.075.075,0,0,0,107.076,24.876Z" fill="#1a1311"/>
            <path id="Path_427" data-name="Path 427" d="M107.076,25.519h-.227a1.475,1.475,0,0,1-1.467-1.312.113.113,0,0,1,.112-.125h.459a.113.113,0,0,1,.111.094.794.794,0,0,0,.785.663h.227a.113.113,0,0,1,.112.113v.454A.113.113,0,0,1,107.076,25.519Zm-1.582-1.363a.037.037,0,0,0-.029.013.041.041,0,0,0-.01.03,1.4,1.4,0,0,0,1.394,1.246h.227a.039.039,0,0,0,.039-.039v-.454a.039.039,0,0,0-.039-.039h-.227a.868.868,0,0,1-.858-.725.038.038,0,0,0-.038-.032Z" fill="#1a1311"/>
          </g>
        </g>
        <g id="Group_196" data-name="Group 196">
          <path id="Path_428" data-name="Path 428" d="M83.894,23.967a1.44,1.44,0,0,0,1.439-1.438V17.91h1.308a.076.076,0,0,0,.076-.076V17.38a.076.076,0,0,0-.076-.076h-3.71v-.812a.076.076,0,0,0-.076-.076H82.4a.076.076,0,0,0-.076.076V17.3h-3.71a.076.076,0,0,0-.076.076v.454a.076.076,0,0,0,.076.076h1.308v4.619a1.44,1.44,0,0,0,1.438,1.438h.076v.909H78.615a.076.076,0,0,0-.076.076v.454a.076.076,0,0,0,.076.076h8.026a.076.076,0,0,0,.076-.076v-.454a.076.076,0,0,0-.076-.076H83.819v-.909Zm0-.6h-.6a.076.076,0,0,0-.076.075v1.439h-1.17V23.437a.076.076,0,0,0-.076-.075h-.606a.834.834,0,0,1-.833-.833V17.91h4.2v4.619A.834.834,0,0,1,83.894,23.362Z" fill="#1a1311"/>
          <path id="Path_429" data-name="Path 429" d="M86.641,25.519H78.615a.114.114,0,0,1-.113-.113v-.454a.114.114,0,0,1,.113-.113H81.4V24h-.039a1.477,1.477,0,0,1-1.475-1.475V17.947H78.615a.114.114,0,0,1-.113-.113V17.38a.114.114,0,0,1,.113-.113h3.673v-.775a.113.113,0,0,1,.113-.113h.454a.114.114,0,0,1,.113.113v.775h3.673a.113.113,0,0,1,.112.113v.454a.113.113,0,0,1-.112.113H85.37v4.582A1.477,1.477,0,0,1,83.894,24h-.038v.835h2.785a.113.113,0,0,1,.112.113v.454A.113.113,0,0,1,86.641,25.519Zm-8.026-.606a.038.038,0,0,0-.039.039v.454a.038.038,0,0,0,.039.039h8.026a.039.039,0,0,0,.039-.039v-.454a.039.039,0,0,0-.039-.039H83.782v-.982h.112a1.4,1.4,0,0,0,1.4-1.4V17.873h1.345a.039.039,0,0,0,.039-.039V17.38a.039.039,0,0,0-.039-.039H82.894v-.849a.039.039,0,0,0-.039-.039H82.4a.038.038,0,0,0-.039.039v.849H78.615a.038.038,0,0,0-.039.039v.454a.038.038,0,0,0,.039.039h1.344v4.656a1.4,1.4,0,0,0,1.4,1.4h.113v.982Zm4.635,0H82.006V23.437a.039.039,0,0,0-.039-.038h-.606a.871.871,0,0,1-.869-.87V17.873h4.272v4.656a.871.871,0,0,1-.87.87h-.6a.038.038,0,0,0-.039.038Zm-1.171-.074h1.1v-1.4a.112.112,0,0,1,.113-.112h.6a.8.8,0,0,0,.8-.8V17.947H80.565v4.582a.8.8,0,0,0,.8.8h.606a.112.112,0,0,1,.112.112Z" fill="#1a1311"/>
        </g>
        <g id="Group_201" data-name="Group 201">
          <g id="Group_197" data-name="Group 197">
            <path id="Path_430" data-name="Path 430" d="M55.7,18.061H54.266v-.075a1.441,1.441,0,0,0-1.439-1.439H50.555a1.44,1.44,0,0,0-1.438,1.439v.075H47.678a.076.076,0,0,0-.076.076v.454a.076.076,0,0,0,.076.076h1.969a.075.075,0,0,0,.053-.022.073.073,0,0,0,.023-.054v-.6a.834.834,0,0,1,.833-.833h2.272a.834.834,0,0,1,.833.833v.6a.076.076,0,0,0,.076.076H55.7a.076.076,0,0,0,.076-.076v-.454A.076.076,0,0,0,55.7,18.061Z" fill="#1a1311"/>
            <path id="Path_431" data-name="Path 431" d="M55.7,18.7H53.736a.113.113,0,0,1-.113-.113v-.6a.8.8,0,0,0-.8-.8H50.555a.8.8,0,0,0-.8.8v.6a.111.111,0,0,1-.112.113H47.678a.112.112,0,0,1-.112-.113v-.454a.113.113,0,0,1,.112-.113h1.4v-.038a1.477,1.477,0,0,1,1.475-1.476h2.272A1.478,1.478,0,0,1,54.3,17.986v.038h1.4a.114.114,0,0,1,.113.113v.454A.113.113,0,0,1,55.7,18.7Zm-5.149-1.588h2.272a.871.871,0,0,1,.87.87v.6a.038.038,0,0,0,.039.039H55.7a.038.038,0,0,0,.039-.039v-.454A.039.039,0,0,0,55.7,18.1H54.229v-.112a1.4,1.4,0,0,0-1.4-1.4H50.555a1.4,1.4,0,0,0-1.4,1.4V18.1H47.678a.04.04,0,0,0-.039.039v.454a.039.039,0,0,0,.039.039h1.969a.039.039,0,0,0,.027-.011.036.036,0,0,0,.012-.028v-.6A.87.87,0,0,1,50.555,17.116Z" fill="#1a1311"/>
          </g>
          <g id="Group_198" data-name="Group 198">
            <path id="Path_432" data-name="Path 432" d="M55.7,19.576H47.678a.076.076,0,0,0-.076.075v.455a.076.076,0,0,0,.076.076h3.71v1.287h-3.71a.076.076,0,0,0-.076.075V22a.076.076,0,0,0,.076.076h3.71v2.8h-3.71a.076.076,0,0,0-.076.076v.454a.076.076,0,0,0,.076.076H55.7a.076.076,0,0,0,.076-.076v-.454a.076.076,0,0,0-.076-.076h-3.71v-2.8H55.7A.076.076,0,0,0,55.78,22v-.455a.076.076,0,0,0-.076-.075h-3.71V20.182H55.7a.076.076,0,0,0,.076-.076v-.455A.076.076,0,0,0,55.7,19.576Z" fill="#1a1311"/>
            <path id="Path_433" data-name="Path 433" d="M55.7,25.519H47.678a.113.113,0,0,1-.112-.113v-.454a.113.113,0,0,1,.112-.113h3.674V22.111H47.678A.112.112,0,0,1,47.566,22v-.455a.112.112,0,0,1,.112-.112h3.674V20.218H47.678a.112.112,0,0,1-.112-.112v-.454a.112.112,0,0,1,.112-.113H55.7a.113.113,0,0,1,.113.113v.454a.113.113,0,0,1-.113.112H52.031v1.214H55.7a.113.113,0,0,1,.113.112V22a.113.113,0,0,1-.113.112H52.031v2.728H55.7a.114.114,0,0,1,.113.113v.454A.114.114,0,0,1,55.7,25.519Zm-8.026-.606a.039.039,0,0,0-.039.039v.454a.039.039,0,0,0,.039.039H55.7a.038.038,0,0,0,.039-.039v-.454a.038.038,0,0,0-.039-.039H51.957V22.038H55.7A.039.039,0,0,0,55.743,22v-.455A.039.039,0,0,0,55.7,21.5H51.957v-1.36H55.7a.039.039,0,0,0,.039-.039v-.454a.038.038,0,0,0-.039-.039H47.678a.039.039,0,0,0-.039.039v.454a.04.04,0,0,0,.039.039h3.747V21.5H47.678a.04.04,0,0,0-.039.039V22a.04.04,0,0,0,.039.039h3.747v2.875Z" fill="#1a1311"/>
          </g>
          <g id="Group_199" data-name="Group 199">
            <path id="Path_434" data-name="Path 434" d="M54.48,22.983a.075.075,0,0,0-.074.063.831.831,0,0,1-.822.694h-.6a.076.076,0,0,0-.076.076v.454a.076.076,0,0,0,.076.076h.6a1.437,1.437,0,0,0,1.43-1.279.076.076,0,0,0-.075-.084Z" fill="#1a1311"/>
            <path id="Path_435" data-name="Path 435" d="M53.584,24.383h-.6a.113.113,0,0,1-.113-.113v-.454a.113.113,0,0,1,.113-.113h.6a.793.793,0,0,0,.785-.663.113.113,0,0,1,.111-.094h.459a.112.112,0,0,1,.084.038.115.115,0,0,1,.028.087A1.474,1.474,0,0,1,53.584,24.383Zm-.6-.606a.039.039,0,0,0-.039.039v.454a.038.038,0,0,0,.039.039h.6a1.4,1.4,0,0,0,1.393-1.246.036.036,0,0,0-.009-.03.041.041,0,0,0-.029-.013H54.48a.039.039,0,0,0-.038.032.868.868,0,0,1-.858.725Z" fill="#1a1311"/>
          </g>
          <g id="Group_200" data-name="Group 200">
            <path id="Path_436" data-name="Path 436" d="M50.4,24.346a.076.076,0,0,0,.076-.076v-.454a.076.076,0,0,0-.076-.076H49.8a.829.829,0,0,1-.821-.694.076.076,0,0,0-.075-.063h-.458a.077.077,0,0,0-.057.025.08.08,0,0,0-.019.059,1.437,1.437,0,0,0,1.43,1.279Z" fill="#1a1311"/>
            <path id="Path_437" data-name="Path 437" d="M50.4,24.383H49.8a1.473,1.473,0,0,1-1.466-1.312.107.107,0,0,1,.028-.087.112.112,0,0,1,.084-.038H48.9a.113.113,0,0,1,.111.094.793.793,0,0,0,.785.663H50.4a.114.114,0,0,1,.113.113v.454A.114.114,0,0,1,50.4,24.383Zm-1.96-1.363a.039.039,0,0,0-.029.013.037.037,0,0,0-.01.03A1.4,1.4,0,0,0,49.8,24.309H50.4a.039.039,0,0,0,.039-.039v-.454a.04.04,0,0,0-.039-.039H49.8a.866.866,0,0,1-.857-.724.04.04,0,0,0-.039-.033Z" fill="#1a1311"/>
          </g>
        </g>
        <g id="Group_209" data-name="Group 209">
          <g id="Group_202" data-name="Group 202">
            <path id="Path_438" data-name="Path 438" d="M96.888,16.547h-.455a.076.076,0,0,0-.075.076V22.6H94.919a.074.074,0,0,0-.075.075v.455a.075.075,0,0,0,.075.075h1.969a.076.076,0,0,0,.075-.075V16.623A.076.076,0,0,0,96.888,16.547Z" fill="#1a1311"/>
            <path id="Path_439" data-name="Path 439" d="M96.888,23.247H94.919a.112.112,0,0,1-.112-.112V22.68a.112.112,0,0,1,.112-.112h1.4V16.623a.113.113,0,0,1,.112-.113h.455a.113.113,0,0,1,.112.113v6.512A.112.112,0,0,1,96.888,23.247Zm-1.969-.606a.04.04,0,0,0-.039.039v.455a.039.039,0,0,0,.039.038h1.969a.038.038,0,0,0,.038-.038V16.623a.038.038,0,0,0-.038-.039h-.455a.038.038,0,0,0-.038.039v6.018Z" fill="#1a1311"/>
          </g>
          <g id="Group_203" data-name="Group 203">
            <rect id="Rectangle_252" data-name="Rectangle 252" width="0.605" height="5.056" rx="0.076" transform="translate(94.582 16.64)" fill="#1a1311"/>
            <path id="Path_440" data-name="Path 440" d="M95.112,21.733h-.454a.114.114,0,0,1-.113-.113v-4.9a.114.114,0,0,1,.113-.113h.454a.113.113,0,0,1,.112.113v4.9A.113.113,0,0,1,95.112,21.733Zm-.454-5.056a.038.038,0,0,0-.039.039v4.9a.038.038,0,0,0,.039.039h.454a.038.038,0,0,0,.038-.039v-4.9a.038.038,0,0,0-.038-.039Z" fill="#1a1311"/>
          </g>
          <g id="Group_204" data-name="Group 204">
            <path id="Path_441" data-name="Path 441" d="M88.862,23.21h.606a4.256,4.256,0,0,0,4.2-4.467v-.606a.076.076,0,0,0-.076-.076H91.663v-.777H93.6a.076.076,0,0,0,.076-.076v-.454a.076.076,0,0,0-.076-.076H89.134a.076.076,0,0,0-.076.076v.454a.076.076,0,0,0,.076.076h1.924v.7a2.351,2.351,0,0,1-2.2,2.341.076.076,0,0,0-.071.076v.455a.079.079,0,0,0,.024.055.076.076,0,0,0,.052.021h0a2.936,2.936,0,0,0,1.46-.48l.074-.048.037.079a1.448,1.448,0,0,0,1.142.823h.009a.074.074,0,0,0,.05-.02.075.075,0,0,0,.025-.056v-.459A.075.075,0,0,0,91.6,20.7a.837.837,0,0,1-.684-.719l0-.034.022-.025a2.967,2.967,0,0,0,.632-1.2l.015-.057h1.486v.076a3.652,3.652,0,0,1-3.6,3.862h-.605a.075.075,0,0,0-.076.075v.455A.076.076,0,0,0,88.862,23.21Z" fill="#1a1311"/>
            <path id="Path_442" data-name="Path 442" d="M89.467,23.247h-.605a.113.113,0,0,1-.113-.112V22.68a.113.113,0,0,1,.113-.112h.605a3.621,3.621,0,0,0,3.564-3.825V18.7H91.609l-.007.029a3,3,0,0,1-.64,1.213l-.011.013,0,.018a.8.8,0,0,0,.654.687.111.111,0,0,1,.093.111v.458a.114.114,0,0,1-.112.113h-.013A1.491,1.491,0,0,1,90.4,20.5l-.019-.041-.037.025a2.981,2.981,0,0,1-1.479.486h0a.117.117,0,0,1-.083-.031.112.112,0,0,1-.035-.081V20.4a.112.112,0,0,1,.106-.112,2.316,2.316,0,0,0,2.166-2.305V17.32H89.134a.113.113,0,0,1-.113-.112v-.454a.114.114,0,0,1,.113-.113H93.6a.114.114,0,0,1,.113.113v.454a.113.113,0,0,1-.113.112H91.7v.7h1.9a.114.114,0,0,1,.113.113v.606a4.283,4.283,0,0,1-4.229,4.5Zm-.605-.606a.039.039,0,0,0-.039.039v.455a.038.038,0,0,0,.039.038h.606a4.21,4.21,0,0,0,4.168-4.43v-.606A.039.039,0,0,0,93.6,18.1H91.626v-.851H93.6a.039.039,0,0,0,.039-.039v-.454a.038.038,0,0,0-.039-.039H89.134a.038.038,0,0,0-.039.039v.454a.039.039,0,0,0,.039.039h1.96v.74a2.387,2.387,0,0,1-2.235,2.378.039.039,0,0,0-.036.039v.455a.038.038,0,0,0,.012.028.039.039,0,0,0,.027.011,2.9,2.9,0,0,0,1.444-.475l.109-.071.055.118a1.413,1.413,0,0,0,1.113.8.034.034,0,0,0,.03-.009.036.036,0,0,0,.013-.029v-.458a.039.039,0,0,0-.032-.039.875.875,0,0,1-.714-.75l-.007-.05.033-.038a2.912,2.912,0,0,0,.624-1.183l.022-.085H93.1v.113a3.691,3.691,0,0,1-3.637,3.9Z" fill="#1a1311"/>
          </g>
          <g id="Group_205" data-name="Group 205">
            <path id="Path_443" data-name="Path 443" d="M97.031,24.864a.83.83,0,0,1-.694-.821v-.227a.076.076,0,0,0-.076-.076h-.454a.076.076,0,0,0-.076.076v.227a1.437,1.437,0,0,0,1.279,1.43h.008a.078.078,0,0,0,.051-.019.075.075,0,0,0,.025-.056v-.459A.077.077,0,0,0,97.031,24.864Z" fill="#1a1311"/>
            <path id="Path_444" data-name="Path 444" d="M97.018,25.51h-.012a1.474,1.474,0,0,1-1.311-1.467v-.227a.113.113,0,0,1,.112-.113h.454a.114.114,0,0,1,.113.113v.227a.794.794,0,0,0,.663.785.113.113,0,0,1,.094.111V25.4a.114.114,0,0,1-.037.083A.113.113,0,0,1,97.018,25.51Zm-1.211-1.733a.039.039,0,0,0-.039.039v.227a1.4,1.4,0,0,0,1.246,1.393h0a.039.039,0,0,0,.039-.039v-.459a.038.038,0,0,0-.032-.038.868.868,0,0,1-.725-.858v-.227a.038.038,0,0,0-.039-.039Z" fill="#1a1311"/>
          </g>
          <g id="Group_206" data-name="Group 206">
            <path id="Path_445" data-name="Path 445" d="M95.138,24.864a.83.83,0,0,1-.694-.821v-.227a.076.076,0,0,0-.076-.076h-.454a.076.076,0,0,0-.076.076v.227a1.437,1.437,0,0,0,1.279,1.43h.008a.078.078,0,0,0,.051-.019A.075.075,0,0,0,95.2,25.4v-.459A.077.077,0,0,0,95.138,24.864Z" fill="#1a1311"/>
            <path id="Path_446" data-name="Path 446" d="M95.125,25.51h-.012A1.474,1.474,0,0,1,93.8,24.043v-.227a.113.113,0,0,1,.112-.113h.454a.114.114,0,0,1,.113.113v.227a.794.794,0,0,0,.663.785.113.113,0,0,1,.094.111V25.4a.112.112,0,0,1-.113.112Zm-1.211-1.733a.039.039,0,0,0-.039.039v.227a1.4,1.4,0,0,0,1.246,1.393h0a.039.039,0,0,0,.039-.039v-.459a.038.038,0,0,0-.032-.038.868.868,0,0,1-.725-.858v-.227a.038.038,0,0,0-.039-.039Z" fill="#1a1311"/>
          </g>
          <g id="Group_207" data-name="Group 207">
            <path id="Path_447" data-name="Path 447" d="M93.245,24.864a.83.83,0,0,1-.694-.821v-.227a.076.076,0,0,0-.076-.076h-.454a.075.075,0,0,0-.075.076v.227a1.436,1.436,0,0,0,1.278,1.43h.008a.078.078,0,0,0,.051-.019.075.075,0,0,0,.025-.056v-.459A.077.077,0,0,0,93.245,24.864Z" fill="#1a1311"/>
            <path id="Path_448" data-name="Path 448" d="M93.232,25.51H93.22a1.474,1.474,0,0,1-1.311-1.467v-.227a.113.113,0,0,1,.112-.113h.454a.114.114,0,0,1,.113.113v.227a.794.794,0,0,0,.663.785.113.113,0,0,1,.094.111V25.4a.112.112,0,0,1-.113.112Zm-1.211-1.733a.039.039,0,0,0-.039.039v.227a1.4,1.4,0,0,0,1.246,1.393h0a.039.039,0,0,0,.039-.039v-.459a.038.038,0,0,0-.032-.038.868.868,0,0,1-.725-.858v-.227a.038.038,0,0,0-.039-.039Z" fill="#1a1311"/>
          </g>
          <g id="Group_208" data-name="Group 208">
            <path id="Path_449" data-name="Path 449" d="M90.582,23.74h-.454a.079.079,0,0,0-.076.076v.227a.834.834,0,0,1-.833.833h-.228a.076.076,0,0,0-.075.076v.454a.076.076,0,0,0,.075.076h.228a1.44,1.44,0,0,0,1.438-1.439v-.227A.076.076,0,0,0,90.582,23.74Z" fill="#1a1311"/>
            <path id="Path_450" data-name="Path 450" d="M89.22,25.519h-.228a.113.113,0,0,1-.112-.113v-.454a.113.113,0,0,1,.112-.113h.228a.8.8,0,0,0,.8-.8v-.227a.11.11,0,0,1,.032-.079.118.118,0,0,1,.08-.034h.454a.114.114,0,0,1,.113.113v.227a1.477,1.477,0,0,1-1.475,1.476Zm-.228-.606a.039.039,0,0,0-.039.039v.454a.039.039,0,0,0,.039.039h.228a1.4,1.4,0,0,0,1.4-1.4v-.227a.039.039,0,0,0-.039-.039h-.454a.041.041,0,0,0-.039.039v.227a.872.872,0,0,1-.87.87Z" fill="#1a1311"/>
          </g>
        </g>
        <g id="Group_210" data-name="Group 210">
          <path id="Path_451" data-name="Path 451" d="M142.972,20.169h.008a1.458,1.458,0,0,0,1.242-1.079l.015-.058h.6l.015.057a1.458,1.458,0,0,0,1.242,1.08h.009a.077.077,0,0,0,.076-.077V19.63a.078.078,0,0,0-.064-.076.84.84,0,0,1,0-1.657.076.076,0,0,0,.064-.075v-.463a.079.079,0,0,0-.025-.057.08.08,0,0,0-.051-.019H146.1a1.459,1.459,0,0,0-1.242,1.08l-.015.057h-.6l-.015-.057a1.459,1.459,0,0,0-1.242-1.08h-.008a.078.078,0,0,0-.051.019.08.08,0,0,0-.026.057v.463a.076.076,0,0,0,.064.075.84.84,0,0,1,0,1.657.078.078,0,0,0-.064.076v.462a.077.077,0,0,0,.026.057A.074.074,0,0,0,142.972,20.169Z" fill="#1a1311"/>
          <path id="Path_452" data-name="Path 452" d="M148.205,23.595h-2.224a1.2,1.2,0,0,0,.489-1.049v-.23a.076.076,0,0,0-.077-.076h-3.748a.077.077,0,0,0-.077.076v.459a.077.077,0,0,0,.077.076h3.107c-.006.234-.437.744-.734.744h-4.147a.076.076,0,0,0-.077.077v.458a.076.076,0,0,0,.077.076h3.743v.708h-1.032a.076.076,0,0,0-.077.076v.459a.076.076,0,0,0,.077.076h1.776a.076.076,0,0,0,.076-.076V24.206h2.771a.076.076,0,0,0,.076-.076v-.458A.076.076,0,0,0,148.205,23.595Z" fill="#1a1311"/>
          <path id="Path_453" data-name="Path 453" d="M148.586,21.094h-.3V16.587a.076.076,0,0,0-.076-.077h-1.222a.076.076,0,0,0-.077.077v.458a.076.076,0,0,0,.077.076h.687v.917h-.687a.076.076,0,0,0-.077.077v.458a.076.076,0,0,0,.077.076h.687v.917h-.687a.076.076,0,0,0-.077.077V20.1a.076.076,0,0,0,.077.076h.687v.917H141.4v-.917h.688a.076.076,0,0,0,.076-.076v-.458a.076.076,0,0,0-.076-.077H141.4v-.917h.688a.076.076,0,0,0,.076-.076v-.458a.076.076,0,0,0-.076-.077H141.4v-.917h.688a.076.076,0,0,0,.076-.076v-.458a.076.076,0,0,0-.076-.077h-1.222a.076.076,0,0,0-.077.077v4.507h-.305a.077.077,0,0,0-.077.077v1.222a.077.077,0,0,0,.077.076h.458a.076.076,0,0,0,.076-.076V21.7h7.029v.688a.076.076,0,0,0,.077.076h.457a.076.076,0,0,0,.077-.076V21.171A.076.076,0,0,0,148.586,21.094Z" fill="#1a1311"/>
        </g>
      </g>
      <g id="Group_212" data-name="Group 212">
        <path id="Path_454" data-name="Path 454" d="M48.46,29.719c.17-.158.424-.424.668-.7.1-.117.161-.2.161-.254,0-.034-.012-.052-.087-.068-.027,0-.052-.009-.052-.031s.016-.028.049-.028c.14,0,.152.007.328.007s.406-.007.446-.007.065.007.065.028-.016.028-.056.031-.074.01-.111.019a.822.822,0,0,0-.4.266c-.143.136-.492.5-.573.584a11.628,11.628,0,0,0,.839,1.024,1.406,1.406,0,0,0,.324.282.469.469,0,0,0,.143.04c.043,0,.065.009.065.034s-.028.028-.062.028h-.3c-.409,0-.551-.04-.709-.213a10.6,10.6,0,0,1-.736-.956v.272c0,.241,0,.523.016.652.006.078.028.155.133.171.043.006.093.009.133.012s.052.015.052.031-.012.031-.058.031c-.205,0-.536-.009-.563-.009s-.369.009-.47.009c-.041,0-.062-.006-.062-.031s.021-.031.055-.031.062,0,.1-.009c.1-.016.1-.09.115-.18.012-.13.018-.346.018-.646v-.545c0-.479,0-.565-.009-.664s-.04-.143-.114-.158a.893.893,0,0,0-.118-.013c-.04,0-.065-.006-.065-.034s.025-.027.084-.027c.133,0,.448.009.47.009s.4-.009.513-.009c.052,0,.065.012.065.027s-.015.031-.056.034-.046,0-.092.01c-.109.015-.127.086-.133.185s-.01.161-.01.64Z" fill="#1a1311"/>
        <path id="Path_455" data-name="Path 455" d="M50.84,29.533c0-.479,0-.569-.009-.668s-.04-.142-.108-.154a.529.529,0,0,0-.093-.013c-.037,0-.059-.012-.059-.034s.016-.027.068-.027c.124,0,.427.009.452.009s.393-.009.5-.009c.053,0,.068.012.068.03s-.028.031-.059.031a.9.9,0,0,0-.089.01c-.081.015-.112.055-.118.167s-.009.179-.009.658v.545c0,.244,0,.532.015.662.007.08.025.136.118.157a.9.9,0,0,0,.136.016c.052,0,.065.012.065.031s-.016.031-.065.031c-.211,0-.542-.009-.569-.009s-.34.009-.446.009c-.049,0-.074-.006-.074-.031s.025-.031.062-.031.062-.006.1-.012c.065-.01.086-.078.1-.167.012-.13.018-.353.018-.656Z" fill="#1a1311"/>
        <path id="Path_456" data-name="Path 456" d="M52.6,28.739c0-.093.016-.149.053-.149s.04.009.121.074c.129.108.29.263,1,.913.315.291.528.5.612.572l-.019-1.16c-.006-.173-.021-.253-.145-.275a1.05,1.05,0,0,0-.136-.016c-.04,0-.056-.015-.056-.031s.028-.03.062-.03c.124,0,.325.009.449.009.068,0,.222-.009.352-.009.047,0,.068.009.068.027s-.015.034-.052.034a.322.322,0,0,0-.078.01c-.1.012-.133.064-.142.256-.025.622-.025,1.241-.037,1.862,0,.158-.022.192-.062.192s-.145-.074-.346-.25-.483-.43-.668-.6-.483-.449-.709-.669l.031,1.055c.006.223.019.306.1.337a.775.775,0,0,0,.164.022c.047,0,.062.012.062.031s-.024.031-.074.031c-.108,0-.207-.006-.4-.009-.071,0-.3.009-.421.009-.043,0-.068-.006-.068-.031s.016-.031.059-.031c.028,0,.068,0,.1-.009.121-.019.136-.1.145-.384C52.593,29.883,52.587,29.138,52.6,28.739Z" fill="#1a1311"/>
        <path id="Path_457" data-name="Path 457" d="M58.316,30.576c.025.2.056.278.158.309a.851.851,0,0,0,.176.028c.041,0,.059.009.059.031s-.025.031-.074.031c-.257,0-.507,0-.86-.019-.059,0-.071-.021-.071-.037s.012-.025.034-.031c.05-.018.053-.037.04-.176L57.667,29.6,57.03,30.8c-.084.158-.1.177-.127.177s-.053-.031-.139-.167c-.108-.173-.3-.526-.415-.724-.052-.09-.188-.343-.247-.448l-.09.872a2.442,2.442,0,0,0-.012.247c0,.09.031.127.108.142a.724.724,0,0,0,.114.016c.047,0,.056.009.056.028s-.012.034-.062.034c-.136,0-.306-.009-.4-.009s-.241.009-.356.009c-.03,0-.067,0-.067-.031s.018-.031.061-.031c.025,0,.059,0,.093-.009.09-.019.121-.09.152-.294l.281-1.9c.013-.093.034-.121.065-.121s.056.031.121.127l.884,1.481.848-1.5c.049-.08.074-.111.105-.111s.05.043.059.121Z" fill="#1a1311"/>
        <path id="Path_458" data-name="Path 458" d="M59.406,29.533c0-.5,0-.565-.009-.664s-.034-.143-.111-.161a.82.82,0,0,0-.1-.01c-.041,0-.056-.015-.056-.034s.019-.027.068-.027c.176,0,.325.009.461.009l.872,0a.98.98,0,0,0,.167-.013.232.232,0,0,1,.05-.012c.015,0,.018.012.018.028s-.006.046-.015.136c-.01.062-.016.17-.025.331,0,.025-.012.043-.031.043s-.028-.015-.031-.043A.383.383,0,0,0,60.647,29c-.016-.071-.056-.111-.2-.123-.1-.01-.371-.016-.464-.016-.018,0-.024.01-.024.031v.681c0,.021,0,.037.024.037.087,0,.338,0,.449,0,.152-.006.192-.016.226-.071.018-.028.028-.041.043-.041s.019.019.019.038-.016.142-.025.262c0,.072,0,.223,0,.257s-.009.059-.028.059-.028-.022-.034-.049l-.009-.072c-.013-.089-.056-.142-.208-.151-.086-.006-.34-.013-.436-.013-.015,0-.018.016-.018.041v.213c0,.1,0,.288,0,.405,0,.217.046.266.39.266a.853.853,0,0,0,.287-.037c.087-.034.124-.1.152-.244.006-.037.018-.056.037-.056s.028.031.028.068a2.475,2.475,0,0,1-.05.415c-.021.08-.043.083-.158.083-.426,0-.658-.018-.983-.018-.145,0-.275.009-.446.009-.055,0-.074-.009-.074-.031s.016-.031.062-.031a.645.645,0,0,0,.093-.012c.087-.013.1-.13.1-.325.006-.124.009-.306.009-.5Z" fill="#1a1311"/>
        <path id="Path_459" data-name="Path 459" d="M61.737,28.739c0-.093.016-.149.053-.149s.04.009.121.074c.129.108.29.263,1,.913.315.291.528.5.612.572l-.019-1.16c-.006-.173-.021-.253-.145-.275a1.05,1.05,0,0,0-.136-.016c-.04,0-.056-.015-.056-.031s.028-.03.062-.03c.124,0,.325.009.449.009.068,0,.222-.009.352-.009.047,0,.068.009.068.027s-.015.034-.052.034a.314.314,0,0,0-.078.01c-.1.012-.133.064-.142.256-.025.622-.025,1.241-.037,1.862,0,.158-.022.192-.062.192s-.145-.074-.346-.25-.483-.43-.668-.6-.483-.449-.709-.669l.031,1.055c.006.223.019.306.1.337a.766.766,0,0,0,.164.022c.047,0,.062.012.062.031s-.025.031-.074.031c-.108,0-.207-.006-.4-.009-.071,0-.3.009-.421.009-.043,0-.068-.006-.068-.031s.016-.031.059-.031c.028,0,.068,0,.1-.009.121-.019.136-.1.145-.384C61.725,29.883,61.719,29.138,61.737,28.739Z" fill="#1a1311"/>
        <path id="Path_460" data-name="Path 460" d="M66.269,30.678a1.119,1.119,0,0,1-.389-.909,1.144,1.144,0,0,1,.383-.857,1.462,1.462,0,0,1,1.024-.319,2.849,2.849,0,0,1,.439.037,2.674,2.674,0,0,0,.306.041c.034,0,.034.021.034.04s-.009.1-.015.2,0,.285-.01.362c0,.046-.009.074-.036.074s-.035-.022-.038-.065a.459.459,0,0,0-.117-.3.87.87,0,0,0-.625-.195.658.658,0,0,0-.455.149,1.02,1.02,0,0,0-.272.782c0,.637.347,1.064.866,1.064.254,0,.411-.021.532-.158a.482.482,0,0,0,.1-.207c.016-.065.025-.086.05-.086s.024.03.024.055a4.5,4.5,0,0,1-.067.47.1.1,0,0,1-.081.09,1.642,1.642,0,0,1-.532.071A1.677,1.677,0,0,1,66.269,30.678Z" fill="#1a1311"/>
        <path id="Path_461" data-name="Path 461" d="M68.724,29.815a1.2,1.2,0,0,1,1.323-1.222,1.178,1.178,0,0,1,1.278,1.154,1.22,1.22,0,0,1-1.3,1.271A1.206,1.206,0,0,1,68.724,29.815Zm1.982.068c0-.513-.213-1.1-.761-1.1-.284,0-.6.158-.6.891,0,.584.245,1.144.776,1.144C70.31,30.82,70.706,30.737,70.706,29.883Z" fill="#1a1311"/>
        <path id="Path_462" data-name="Path 462" d="M72.229,28.739c0-.093.016-.149.053-.149s.04.009.121.074c.129.108.29.263,1,.913.315.291.528.5.612.572L74,28.989c-.006-.173-.021-.253-.145-.275a1.05,1.05,0,0,0-.136-.016c-.04,0-.056-.015-.056-.031s.028-.03.062-.03c.124,0,.325.009.449.009.068,0,.222-.009.352-.009.047,0,.068.009.068.027s-.015.034-.052.034a.314.314,0,0,0-.078.01c-.1.012-.133.064-.142.256-.025.622-.025,1.241-.037,1.862,0,.158-.022.192-.062.192s-.145-.074-.346-.25-.483-.43-.668-.6-.483-.449-.709-.669l.031,1.055c.006.223.019.306.1.337a.766.766,0,0,0,.164.022c.047,0,.062.012.062.031s-.025.031-.074.031c-.108,0-.207-.006-.4-.009-.071,0-.3.009-.421.009-.043,0-.068-.006-.068-.031s.016-.031.059-.031.068,0,.1-.009c.121-.019.136-.1.145-.384C72.217,29.883,72.211,29.138,72.229,28.739Z" fill="#1a1311"/>
        <path id="Path_463" data-name="Path 463" d="M76.446,30.078c0,.241,0,.529.016.659.006.08.028.145.12.16.041.007.078.01.134.016s.061.012.061.034-.015.028-.071.028c-.21,0-.51-.009-.56-.009s-.352.009-.454.009c-.05,0-.072-.006-.072-.031s.025-.031.062-.031.065-.006.1-.012c.068-.013.09-.081.1-.171.013-.129.019-.352.019-.652V28.865c-.121,0-.313,0-.467.006-.173.01-.242.05-.282.158a.606.606,0,0,0-.027.072c-.007.024-.016.049-.038.049s-.028-.025-.024-.062c.012-.127.046-.294.068-.411.006-.047.015-.078.034-.078s.034.01.1.025a2.3,2.3,0,0,0,.343.022h1.346a1.3,1.3,0,0,0,.195-.013.815.815,0,0,1,.1-.018c.028,0,.031.018.031.1,0,.043-.018.331-.021.408,0,.043-.013.062-.031.062s-.031-.019-.034-.056,0-.046-.006-.062c-.013-.095-.059-.17-.242-.182-.1-.01-.263-.016-.5-.016Z" fill="#1a1311"/>
        <path id="Path_464" data-name="Path 464" d="M78.1,29.533c0-.479-.007-.541-.01-.64-.006-.127-.043-.167-.117-.182a1.007,1.007,0,0,0-.124-.013c-.037,0-.055-.015-.055-.034s.021-.027.068-.027c.132,0,.429.009.473.009s.355-.009.5-.009a1.316,1.316,0,0,1,.631.105.525.525,0,0,1,.281.473.726.726,0,0,1-.414.622,10.132,10.132,0,0,0,.6.819c.164.183.238.235.325.248.033.006.052.006.077.009s.053.012.053.031-.031.031-.062.031h-.279a.976.976,0,0,1-.563-.1,1.169,1.169,0,0,1-.318-.387c-.142-.235-.214-.362-.269-.445a.047.047,0,0,0-.037-.019h-.205c-.015,0-.024.006-.024.025V30.2a4.786,4.786,0,0,0,.015.519c.006.081.028.149.121.17a.686.686,0,0,0,.139.019c.049,0,.055.015.055.034s-.021.028-.064.028c-.208,0-.545-.009-.566-.009-.038,0-.338.009-.443.009-.046,0-.061-.009-.061-.031s.021-.031.055-.031.071-.006.105-.012c.062-.016.087-.072.1-.177.013-.13.016-.346.016-.646Zm.532.208a.045.045,0,0,0,.027.046.56.56,0,0,0,.239.04.313.313,0,0,0,.195-.049.505.505,0,0,0,.12-.39c0-.439-.278-.553-.439-.553a.4.4,0,0,0-.124.012c-.012.006-.018.009-.018.034Z" fill="#1a1311"/>
        <path id="Path_465" data-name="Path 465" d="M81.238,30.174a.582.582,0,0,0-.087-.331c-.114-.211-.42-.721-.526-.879-.117-.179-.151-.219-.25-.25a.553.553,0,0,0-.081-.016c-.031,0-.046-.015-.046-.034s.025-.027.062-.027c.126,0,.358.009.476.009.053,0,.248-.009.442-.009.034,0,.059.006.059.024s-.015.031-.062.04c-.083.01-.1.041-.1.065a.211.211,0,0,0,.031.09c.05.09.436.776.486.869.189-.355.356-.665.414-.788a.416.416,0,0,0,.05-.158c0-.034-.019-.062-.112-.078-.027-.006-.052-.015-.052-.037s.018-.027.068-.027c.127,0,.232.009.349.009.044,0,.3-.009.356-.009.037,0,.062.006.062.027s-.022.034-.062.034a.533.533,0,0,0-.12.025.391.391,0,0,0-.174.158,8.679,8.679,0,0,0-.59,1.017.889.889,0,0,0-.05.294v.22c0,.049,0,.176.009.306.007.077.013.155.127.176a1.5,1.5,0,0,0,.17.019c.037,0,.05.012.05.034s-.016.028-.062.028c-.223,0-.479-.009-.581-.009s-.341.009-.48.009c-.043,0-.062-.013-.062-.034s.019-.028.056-.028a.555.555,0,0,0,.108-.016c.081-.021.1-.077.1-.167.01-.129.013-.269.013-.318Z" fill="#1a1311"/>
        <path id="Path_466" data-name="Path 466" d="M85.111,30.081a1.562,1.562,0,0,0,.044.6c.043.059.1.074.358.074a.744.744,0,0,0,.356-.049c.074-.034.127-.115.161-.26.009-.034.015-.059.04-.059s.025.016.025.059a2.517,2.517,0,0,1-.065.455c-.025.08-.05.083-.173.083-.427,0-.715-.018-1.043-.018-.145,0-.312.009-.482.009-.044,0-.068-.006-.068-.034s.018-.028.062-.028.071-.006.105-.012c.111-.019.114-.075.123-.322.007-.124.01-.309.01-.5v-.545c0-.5,0-.559-.01-.658s-.027-.139-.105-.161a.582.582,0,0,0-.12-.016c-.034,0-.065-.006-.065-.031s.031-.03.092-.03c.177,0,.338.009.458.009.028,0,.412-.009.523-.009.056,0,.074.009.074.027s-.031.034-.074.034a.677.677,0,0,0-.1.013c-.084.015-.105.074-.111.182s-.01.161-.01.671Z" fill="#1a1311"/>
        <path id="Path_467" data-name="Path 467" d="M86.885,29.533c0-.479,0-.569-.009-.668s-.04-.142-.108-.154a.529.529,0,0,0-.093-.013c-.037,0-.059-.012-.059-.034s.016-.027.068-.027c.124,0,.427.009.452.009s.393-.009.5-.009c.053,0,.068.012.068.03s-.028.031-.059.031a.9.9,0,0,0-.089.01c-.081.015-.112.055-.118.167s-.009.179-.009.658v.545c0,.244,0,.532.015.662.007.08.025.136.118.157a.9.9,0,0,0,.136.016c.052,0,.065.012.065.031s-.016.031-.065.031c-.21,0-.541-.009-.569-.009s-.34.009-.446.009c-.049,0-.074-.006-.074-.031s.025-.031.062-.031.062-.006.1-.012c.065-.01.087-.078.1-.167.012-.13.018-.353.018-.656Z" fill="#1a1311"/>
        <path id="Path_468" data-name="Path 468" d="M88.706,29.533c0-.5,0-.565-.009-.664s-.034-.143-.111-.161a.82.82,0,0,0-.1-.01c-.041,0-.056-.015-.056-.034s.018-.027.068-.027c.176,0,.325.009.461.009l.872,0A.98.98,0,0,0,90,28.63a.232.232,0,0,1,.05-.012c.015,0,.018.012.018.028s-.006.046-.015.136c-.01.062-.016.17-.025.331,0,.025-.012.043-.031.043s-.028-.015-.031-.043A.383.383,0,0,0,89.947,29c-.016-.071-.056-.111-.205-.123-.1-.01-.371-.016-.464-.016-.018,0-.024.01-.024.031v.681c0,.021,0,.037.024.037.087,0,.338,0,.449,0,.152-.006.192-.016.226-.071.018-.028.027-.041.043-.041s.018.019.018.038-.015.142-.024.262c0,.072,0,.223,0,.257s-.009.059-.028.059-.028-.022-.034-.049l-.009-.072c-.013-.089-.056-.142-.208-.151-.086-.006-.34-.013-.436-.013-.015,0-.018.016-.018.041v.213c0,.1,0,.288,0,.405,0,.217.046.266.389.266a.855.855,0,0,0,.288-.037c.087-.034.124-.1.152-.244.006-.037.018-.056.037-.056s.028.031.028.068a2.585,2.585,0,0,1-.05.415c-.021.08-.043.083-.158.083-.426,0-.658-.018-.983-.018-.146,0-.275.009-.446.009-.055,0-.074-.009-.074-.031s.016-.031.062-.031a.645.645,0,0,0,.093-.012c.086-.013.1-.13.1-.325.006-.124.009-.306.009-.5Z" fill="#1a1311"/>
        <path id="Path_469" data-name="Path 469" d="M92.574,29.589c.01,0,.019-.006.019-.022V29.5c0-.48,0-.533-.006-.632s-.031-.142-.133-.163l-.109-.01c-.043,0-.058-.018-.058-.031s.015-.03.061-.03c.18,0,.458.009.489.009s.384-.009.517-.009c.046,0,.062.012.062.03s-.016.031-.047.031c-.052.007-.071.007-.108.013-.08.012-.105.065-.114.164s-.007.179-.007.658v.545c0,.294,0,.523.016.652.009.1.034.155.127.171.043.006.105.009.136.012s.052.015.052.031-.025.031-.061.031c-.214,0-.526-.009-.582-.009s-.291.009-.442.009c-.056,0-.068-.016-.068-.034s.018-.028.058-.028a.932.932,0,0,0,.1-.012c.074-.016.093-.075.1-.174.013-.13.019-.324.019-.618v-.251a.018.018,0,0,0-.019-.018h-.965a.016.016,0,0,0-.018.018v.322c0,.294,0,.421.015.554.01.089.037.148.13.163.065.01.1.013.13.016s.059.009.059.031-.016.031-.062.031c-.176,0-.541-.009-.572-.009s-.353.009-.452.009c-.034,0-.068-.006-.068-.028s.012-.034.053-.034.055-.006.1-.012c.074-.01.1-.09.108-.183.009-.13.015-.346.015-.64V29.54c0-.48,0-.551-.009-.65s-.04-.167-.149-.182a.668.668,0,0,0-.086-.01c-.056,0-.062-.018-.062-.034s.034-.027.068-.027c.179,0,.418.009.489.009.117,0,.377-.009.51-.009.056,0,.065.012.065.03s-.019.031-.056.031a1.066,1.066,0,0,0-.108.013c-.083.018-.1.089-.105.179s-.009.226-.009.613v.064c0,.016.009.022.018.022Z" fill="#1a1311"/>
        <path id="Path_470" data-name="Path 470" d="M94.9,29.834c.111,0,.129.012.129.034s-.037.049-.176.086a5.8,5.8,0,0,0-.665.195.922.922,0,0,1-.17.074c-.031,0-.025-.028-.018-.062l.046-.269c.009-.055.018-.058.074-.058Z" fill="#1a1311"/>
        <path id="Path_471" data-name="Path 471" d="M96.129,30.174a.582.582,0,0,0-.087-.331c-.114-.211-.42-.721-.526-.879-.117-.179-.151-.219-.25-.25a.553.553,0,0,0-.081-.016c-.031,0-.046-.015-.046-.034s.025-.027.062-.027c.127,0,.359.009.476.009.053,0,.248-.009.442-.009.034,0,.059.006.059.024s-.015.031-.062.04c-.083.01-.1.041-.1.065a.211.211,0,0,0,.031.09c.05.09.437.776.486.869.189-.355.356-.665.415-.788A.429.429,0,0,0,97,28.779c0-.034-.019-.062-.111-.078-.028-.006-.053-.015-.053-.037s.018-.027.068-.027c.127,0,.232.009.35.009.043,0,.3-.009.355-.009.037,0,.062.006.062.027s-.022.034-.062.034a.533.533,0,0,0-.12.025.391.391,0,0,0-.174.158,8.679,8.679,0,0,0-.59,1.017.889.889,0,0,0-.05.294v.22c0,.049,0,.176.009.306.007.077.013.155.127.176a1.5,1.5,0,0,0,.17.019c.037,0,.05.012.05.034s-.016.028-.062.028c-.223,0-.479-.009-.581-.009s-.341.009-.48.009c-.043,0-.062-.013-.062-.034s.019-.028.056-.028a.555.555,0,0,0,.108-.016c.081-.021.1-.077.1-.167.01-.129.013-.269.013-.318Z" fill="#1a1311"/>
        <path id="Path_472" data-name="Path 472" d="M98.732,30c0,.427.065.607.235.727a.51.51,0,0,0,.309.087.517.517,0,0,0,.34-.115c.174-.148.174-.473.174-.791v-.372c0-.454,0-.535-.007-.634-.006-.117-.031-.17-.133-.188-.034-.006-.052-.006-.114-.013-.04,0-.056-.012-.056-.031s.016-.03.071-.03c.177,0,.365.009.415.009s.257-.009.408-.009c.046,0,.065.009.065.03s-.012.028-.053.031a.534.534,0,0,0-.1.013c-.084.015-.109.061-.118.188-.006.1-.009.18-.009.634v.3a1.163,1.163,0,0,1-.316.977.982.982,0,0,1-.643.2,1.1,1.1,0,0,1-.736-.207A.96.96,0,0,1,98.181,30v-.47c0-.479,0-.565-.009-.664s-.025-.127-.1-.149a.767.767,0,0,0-.133-.022c-.046,0-.065-.015-.065-.034s.025-.027.084-.027c.133,0,.445.009.473.009s.393-.009.5-.009c.053,0,.068.009.068.027s-.015.031-.056.034-.071.007-.1.013c-.086.018-.1.083-.108.182s-.009.245-.009.64Z" fill="#1a1311"/>
        <path id="Path_473" data-name="Path 473" d="M103.029,30.124a2.9,2.9,0,0,1-.078.848,1.342,1.342,0,0,1-.627.683,1.153,1.153,0,0,1-.161.081.147.147,0,0,1-.068.018.025.025,0,0,1-.028-.024c0-.016.025-.041.071-.068a.769.769,0,0,0,.164-.14c.164-.182.179-.383.179-1.2v-.792c0-.479,0-.565-.009-.664s-.04-.146-.127-.158c-.043-.006-.089-.01-.123-.013s-.059-.009-.059-.034.015-.027.068-.027c.133,0,.476.009.5.009s.4-.009.51-.009c.053,0,.071.009.071.027s-.021.031-.062.034-.046,0-.089.01c-.1.018-.118.086-.124.185s-.009.161-.009.64Z" fill="#1a1311"/>
        <path id="Path_474" data-name="Path 474" d="M104.661,30c0,.427.065.607.235.727a.51.51,0,0,0,.309.087.521.521,0,0,0,.341-.115c.173-.148.173-.473.173-.791v-.372c0-.454,0-.535-.006-.634-.007-.117-.031-.17-.133-.188-.034-.006-.053-.006-.115-.013-.04,0-.056-.012-.056-.031s.016-.03.072-.03c.176,0,.365.009.414.009s.257-.009.408-.009c.047,0,.065.009.065.03s-.012.028-.052.031a.544.544,0,0,0-.1.013c-.084.015-.109.061-.118.188-.006.1-.009.18-.009.634v.3a1.165,1.165,0,0,1-.315.977.986.986,0,0,1-.644.2,1.1,1.1,0,0,1-.736-.207A.96.96,0,0,1,104.11,30v-.47c0-.479,0-.565-.009-.664s-.025-.127-.1-.149a.767.767,0,0,0-.133-.022c-.046,0-.065-.015-.065-.034s.025-.027.084-.027c.133,0,.445.009.473.009s.393-.009.5-.009c.053,0,.068.009.068.027s-.015.031-.056.034-.071.007-.1.013c-.087.018-.1.083-.109.182s-.009.245-.009.64Z" fill="#1a1311"/>
        <path id="Path_475" data-name="Path 475" d="M107.168,28.739c0-.093.015-.149.052-.149s.04.009.121.074c.13.108.291.263,1,.913.316.291.529.5.612.572l-.018-1.16c-.006-.173-.022-.253-.145-.275a1.065,1.065,0,0,0-.137-.016c-.04,0-.055-.015-.055-.031s.027-.03.061-.03c.124,0,.325.009.449.009.068,0,.223-.009.353-.009.046,0,.068.009.068.027s-.016.034-.053.034a.3.3,0,0,0-.077.01c-.1.012-.133.064-.143.256-.024.622-.024,1.241-.037,1.862,0,.158-.021.192-.062.192s-.145-.074-.346-.25-.483-.43-.668-.6-.483-.449-.708-.669l.031,1.055c.006.223.018.306.105.337a.757.757,0,0,0,.164.022c.046,0,.062.012.062.031s-.025.031-.075.031c-.108,0-.207-.006-.4-.009-.071,0-.3.009-.42.009-.044,0-.068-.006-.068-.031s.015-.031.058-.031.069,0,.1-.009c.12-.019.136-.1.145-.384C107.155,29.883,107.149,29.138,107.168,28.739Z" fill="#1a1311"/>
        <path id="Path_476" data-name="Path 476" d="M110.4,29.533c0-.479,0-.569-.009-.668s-.04-.142-.108-.154a.529.529,0,0,0-.093-.013c-.037,0-.059-.012-.059-.034s.016-.027.068-.027c.124,0,.427.009.452.009s.393-.009.5-.009c.052,0,.068.012.068.03s-.028.031-.059.031a.9.9,0,0,0-.089.01c-.081.015-.112.055-.118.167s-.009.179-.009.658v.545c0,.244,0,.532.015.662.006.08.025.136.118.157a.9.9,0,0,0,.136.016c.052,0,.065.012.065.031s-.016.031-.065.031c-.21,0-.541-.009-.569-.009s-.341.009-.446.009c-.049,0-.074-.006-.074-.031s.025-.031.062-.031.062-.006.1-.012c.065-.01.086-.078.1-.167.012-.13.018-.353.018-.656Z" fill="#1a1311"/>
        <path id="Path_477" data-name="Path 477" d="M111.857,29.815a1.2,1.2,0,0,1,1.324-1.222,1.177,1.177,0,0,1,1.277,1.154,1.22,1.22,0,0,1-1.3,1.271A1.206,1.206,0,0,1,111.857,29.815Zm1.983.068c0-.513-.213-1.1-.761-1.1-.284,0-.6.158-.6.891,0,.584.244,1.144.776,1.144C113.444,30.82,113.84,30.737,113.84,29.883Z" fill="#1a1311"/>
        <path id="Path_478" data-name="Path 478" d="M115.369,29.533c0-.479-.006-.541-.009-.64-.006-.127-.043-.167-.118-.182a.994.994,0,0,0-.123-.013c-.037,0-.056-.015-.056-.034s.022-.027.068-.027c.133,0,.43.009.473.009.059,0,.356-.009.5-.009a1.316,1.316,0,0,1,.631.105.524.524,0,0,1,.282.473.728.728,0,0,1-.415.622c.189.272.415.6.6.819.164.183.238.235.325.248.034.006.053.006.078.009s.052.012.052.031-.031.031-.062.031h-.278a.972.972,0,0,1-.563-.1,1.182,1.182,0,0,1-.319-.387c-.142-.235-.213-.362-.269-.445a.045.045,0,0,0-.037-.019h-.2a.022.022,0,0,0-.025.025V30.2a4.488,4.488,0,0,0,.016.519c.006.081.028.149.12.17a.707.707,0,0,0,.139.019c.05,0,.056.015.056.034s-.022.028-.065.028c-.207,0-.544-.009-.566-.009s-.337.009-.442.009c-.047,0-.062-.009-.062-.031s.022-.031.056-.031.071-.006.105-.012c.062-.016.086-.072.1-.177.012-.13.015-.346.015-.646Zm.532.208a.046.046,0,0,0,.028.046.558.558,0,0,0,.238.04.309.309,0,0,0,.195-.049.505.505,0,0,0,.121-.39c0-.439-.279-.553-.439-.553a.4.4,0,0,0-.124.012c-.013.006-.019.009-.019.034Z" fill="#1a1311"/>
        <path id="Path_479" data-name="Path 479" d="M120.888,29.589a.019.019,0,0,0,.019-.022V29.5c0-.48,0-.533-.006-.632s-.032-.142-.133-.163l-.109-.01c-.043,0-.058-.018-.058-.031s.015-.03.061-.03c.18,0,.458.009.489.009s.384-.009.517-.009c.046,0,.061.012.061.03s-.015.031-.046.031c-.053.007-.071.007-.108.013-.081.012-.1.065-.115.164s-.006.179-.006.658v.545c0,.294,0,.523.016.652.009.1.034.155.126.171.044.006.106.009.137.012s.052.015.052.031-.025.031-.062.031c-.213,0-.525-.009-.581-.009s-.291.009-.442.009c-.056,0-.069-.016-.069-.034s.019-.028.059-.028a.932.932,0,0,0,.1-.012c.074-.016.093-.075.1-.174.013-.13.019-.324.019-.618v-.251a.018.018,0,0,0-.019-.018h-.965a.016.016,0,0,0-.018.018v.322c0,.294,0,.421.015.554.009.089.037.148.13.163.065.01.1.013.13.016s.059.009.059.031-.016.031-.062.031c-.177,0-.541-.009-.573-.009s-.352.009-.451.009c-.034,0-.068-.006-.068-.028s.012-.034.053-.034.055-.006.1-.012c.075-.01.1-.09.109-.183.009-.13.015-.346.015-.64V29.54c0-.48,0-.551-.009-.65s-.04-.167-.149-.182a.689.689,0,0,0-.086-.01c-.056,0-.062-.018-.062-.034s.034-.027.068-.027c.179,0,.418.009.489.009.117,0,.377-.009.51-.009.056,0,.065.012.065.03s-.019.031-.056.031a1.066,1.066,0,0,0-.108.013c-.084.018-.1.089-.1.179s-.009.226-.009.613v.064c0,.016.009.022.018.022Z" fill="#1a1311"/>
        <path id="Path_480" data-name="Path 480" d="M122.714,29.533c0-.479,0-.569-.009-.668s-.04-.142-.108-.154a.529.529,0,0,0-.093-.013c-.037,0-.059-.012-.059-.034s.015-.027.068-.027c.124,0,.427.009.452.009s.393-.009.5-.009c.053,0,.068.012.068.03s-.028.031-.059.031-.049,0-.09.01c-.08.015-.111.055-.117.167s-.009.179-.009.658v.545c0,.244,0,.532.015.662.006.08.025.136.118.157a.9.9,0,0,0,.136.016c.052,0,.065.012.065.031s-.016.031-.065.031c-.211,0-.542-.009-.569-.009s-.341.009-.446.009c-.049,0-.074-.006-.074-.031s.025-.031.062-.031.062-.006.1-.012c.065-.01.086-.078.1-.167.012-.13.018-.353.018-.656Z" fill="#1a1311"/>
        <path id="Path_481" data-name="Path 481" d="M126.465,30.678c0,.182-.006.2-.062.223a2.389,2.389,0,0,1-.758.117c-.869,0-1.472-.39-1.472-1.212a1.116,1.116,0,0,1,.557-1.009,1.7,1.7,0,0,1,.888-.2,3.14,3.14,0,0,1,.5.044c.1.012.207.034.3.037.028,0,.034.012.031.04a2.744,2.744,0,0,0-.034.569c0,.05-.013.065-.034.065s-.034-.025-.038-.049a.462.462,0,0,0-.037-.155c-.058-.211-.334-.359-.764-.359a.692.692,0,0,0-.553.223,1,1,0,0,0-.195.668c0,.553.266,1.144.915,1.144a.329.329,0,0,0,.174-.037.1.1,0,0,0,.037-.084v-.188c0-.127,0-.248,0-.362,0-.176-.04-.241-.146-.257-.04-.006-.08-.009-.133-.015-.025,0-.049-.013-.049-.031s.015-.031.065-.031c.2,0,.439.009.522.009.112,0,.313-.009.48-.009.046,0,.071.006.071.031s-.019.028-.049.031c-.013,0-.053.006-.084.009-.074.016-.108.05-.118.158s-.009.26-.009.411Z" fill="#1a1311"/>
        <path id="Path_482" data-name="Path 482" d="M129.055,29.589c.01,0,.019-.006.019-.022V29.5c0-.48,0-.533-.006-.632s-.031-.142-.133-.163l-.108-.01c-.044,0-.059-.018-.059-.031s.015-.03.062-.03c.179,0,.457.009.488.009s.384-.009.517-.009c.046,0,.062.012.062.03s-.016.031-.047.031c-.052.007-.071.007-.108.013-.08.012-.105.065-.114.164s-.006.179-.006.658v.545c0,.294,0,.523.015.652.009.1.034.155.127.171.043.006.1.009.136.012s.053.015.053.031-.025.031-.062.031c-.214,0-.526-.009-.582-.009s-.29.009-.442.009c-.056,0-.068-.016-.068-.034s.018-.028.059-.028a.912.912,0,0,0,.1-.012c.075-.016.093-.075.1-.174.013-.13.019-.324.019-.618v-.251a.018.018,0,0,0-.019-.018h-.964c-.01,0-.019,0-.019.018v.322c0,.294,0,.421.015.554.01.089.038.148.13.163.065.01.1.013.13.016s.059.009.059.031-.015.031-.062.031c-.176,0-.541-.009-.572-.009s-.353.009-.452.009c-.034,0-.068-.006-.068-.028s.013-.034.053-.034.055-.006.1-.012c.074-.01.1-.09.108-.183.009-.13.015-.346.015-.64V29.54c0-.48,0-.551-.009-.65s-.04-.167-.148-.182a.7.7,0,0,0-.087-.01c-.055,0-.062-.018-.062-.034s.034-.027.068-.027c.18,0,.418.009.489.009.118,0,.377-.009.51-.009.056,0,.065.012.065.03s-.018.031-.055.031a1.087,1.087,0,0,0-.109.013c-.083.018-.1.089-.105.179s-.009.226-.009.613v.064c0,.016.009.022.019.022Z" fill="#1a1311"/>
        <path id="Path_483" data-name="Path 483" d="M131.809,30.931c-.053-.021-.068-.061-.068-.123a3.814,3.814,0,0,1,.019-.455c.006-.055.018-.074.036-.074s.025.028.028.053a.818.818,0,0,0,.016.095.519.519,0,0,0,.526.4c.294,0,.383-.151.383-.284s-.025-.238-.287-.418l-.192-.133c-.377-.266-.483-.482-.483-.755,0-.355.294-.643.789-.643a1.7,1.7,0,0,1,.356.031,1.383,1.383,0,0,1,.151.037c.031.01.041.019.041.044-.007.1-.013.16-.013.436,0,.055-.009.077-.034.077s-.028-.009-.034-.059a.419.419,0,0,0-.056-.179.477.477,0,0,0-.423-.2c-.254,0-.347.142-.347.284,0,.105.037.226.248.368l.157.105c.433.288.57.48.57.792a.629.629,0,0,1-.328.56,1.04,1.04,0,0,1-.539.133A1.225,1.225,0,0,1,131.809,30.931Z" fill="#1a1311"/>
        <path id="Path_484" data-name="Path 484" d="M134.245,30.678a1.12,1.12,0,0,1-.39-.909,1.142,1.142,0,0,1,.384-.857,1.461,1.461,0,0,1,1.023-.319,2.852,2.852,0,0,1,.44.037,2.674,2.674,0,0,0,.306.041c.034,0,.034.021.034.04s-.009.1-.015.2,0,.285-.01.362c0,.046-.009.074-.037.074s-.034-.022-.037-.065a.456.456,0,0,0-.118-.3.866.866,0,0,0-.624-.195.658.658,0,0,0-.455.149,1.016,1.016,0,0,0-.272.782c0,.637.346,1.064.866,1.064.253,0,.411-.021.532-.158a.482.482,0,0,0,.1-.207c.015-.065.025-.086.049-.086s.025.03.025.055a4.3,4.3,0,0,1-.068.47.1.1,0,0,1-.08.09,1.642,1.642,0,0,1-.532.071A1.677,1.677,0,0,1,134.245,30.678Z" fill="#1a1311"/>
        <path id="Path_485" data-name="Path 485" d="M138.487,29.589a.019.019,0,0,0,.019-.022V29.5c0-.48,0-.533-.006-.632s-.031-.142-.133-.163l-.109-.01c-.043,0-.058-.018-.058-.031s.015-.03.061-.03c.18,0,.458.009.489.009s.384-.009.517-.009c.046,0,.061.012.061.03s-.015.031-.046.031c-.053.007-.071.007-.108.013-.08.012-.1.065-.115.164s-.006.179-.006.658v.545c0,.294,0,.523.016.652.009.1.034.155.126.171.044.006.106.009.137.012s.052.015.052.031-.025.031-.062.031c-.213,0-.525-.009-.581-.009s-.291.009-.442.009c-.056,0-.069-.016-.069-.034s.019-.028.059-.028a.931.931,0,0,0,.1-.012c.074-.016.093-.075.1-.174.013-.13.019-.324.019-.618v-.251a.018.018,0,0,0-.019-.018h-.965a.016.016,0,0,0-.018.018v.322c0,.294,0,.421.015.554.009.089.037.148.13.163.065.01.1.013.13.016s.059.009.059.031-.016.031-.062.031c-.177,0-.541-.009-.573-.009s-.352.009-.451.009c-.034,0-.068-.006-.068-.028s.012-.034.053-.034.055-.006.1-.012c.075-.01.1-.09.109-.183.009-.13.015-.346.015-.64V29.54c0-.48,0-.551-.009-.65s-.04-.167-.149-.182a.689.689,0,0,0-.086-.01c-.056,0-.062-.018-.062-.034s.034-.027.068-.027c.179,0,.418.009.489.009.117,0,.377-.009.51-.009.056,0,.065.012.065.03s-.019.031-.056.031a1.066,1.066,0,0,0-.108.013c-.084.018-.1.089-.1.179s-.009.226-.009.613v.064c0,.016.009.022.018.022Z" fill="#1a1311"/>
        <path id="Path_486" data-name="Path 486" d="M139.952,29.815a1.2,1.2,0,0,1,1.323-1.222,1.178,1.178,0,0,1,1.278,1.154,1.22,1.22,0,0,1-1.3,1.271A1.206,1.206,0,0,1,139.952,29.815Zm1.982.068c0-.513-.213-1.1-.761-1.1-.284,0-.6.158-.6.891,0,.584.244,1.144.776,1.144C141.538,30.82,141.934,30.737,141.934,29.883Z" fill="#1a1311"/>
        <path id="Path_487" data-name="Path 487" d="M143.231,29.815a1.2,1.2,0,0,1,1.324-1.222,1.178,1.178,0,0,1,1.278,1.154,1.22,1.22,0,0,1-1.3,1.271A1.207,1.207,0,0,1,143.231,29.815Zm1.983.068c0-.513-.214-1.1-.761-1.1-.285,0-.6.158-.6.891,0,.584.244,1.144.776,1.144C144.818,30.82,145.214,30.737,145.214,29.883Z" fill="#1a1311"/>
        <path id="Path_488" data-name="Path 488" d="M147.291,30.081a1.57,1.57,0,0,0,.043.6c.043.059.1.074.359.074a.749.749,0,0,0,.356-.049c.074-.034.126-.115.16-.26.01-.034.016-.059.04-.059s.025.016.025.059a2.516,2.516,0,0,1-.065.455c-.024.08-.049.083-.173.083-.427,0-.714-.018-1.042-.018-.145,0-.313.009-.483.009-.043,0-.068-.006-.068-.034s.019-.028.062-.028.071-.006.1-.012c.112-.019.115-.075.124-.322.006-.124.009-.309.009-.5v-.545c0-.5,0-.559-.009-.658s-.028-.139-.1-.161a.583.583,0,0,0-.121-.016c-.034,0-.065-.006-.065-.031s.031-.03.093-.03c.176,0,.337.009.458.009.028,0,.411-.009.523-.009.055,0,.074.009.074.027s-.031.034-.074.034a.7.7,0,0,0-.106.013c-.083.015-.1.074-.111.182s-.009.161-.009.671Z" fill="#1a1311"/>
      </g>
    </g>
  </g>
</svg>
